<?xml version="1.0" encoding="UTF-8" standalone="no"?>
<svg
   xmlns:dc="http://purl.org/dc/elements/1.1/"
   xmlns:cc="http://creativecommons.org/ns#"
   xmlns:rdf="http://www.w3.org/1999/02/22-rdf-syntax-ns#"
   xmlns:svg="http://www.w3.org/2000/svg"
   xmlns="http://www.w3.org/2000/svg"
   version="1.1"
   id="Layer_1"
   x="0px"
   y="0px"
   viewBox="0 0 512 512"
   style="enable-background:new 0 0 512 512;"
   xml:space="preserve">
   <defs
   id="defs55" />
<circle
   style="fill:#ffffff;fill-opacity:1;stroke:#000000;stroke-width:0.66579974;stroke-miterlimit:4;stroke-dasharray:none;stroke-opacity:0"
   id="path837"
   cx="256"
   cy="256"
   r="255.6671" /><g
   transform="translate(15.29643,-16.491167)"
   id="g853"><g
     id="g14"
     transform="matrix(1.1325598,0,0,1.1325598,-49.231894,-17.444147)">
	
	<g
   id="g843"
   transform="matrix(0.87206197,0,0,0.87206197,-31.599189,92.889816)"><path
     style="fill:#4cdbc4;fill-opacity:1;stroke-width:0.67348331"
     d="M 477.73024,271.26525 355.85535,47.398709 c -5.45387,-9.293396 -15.35408,-14.748611 -26.06313,-14.748611 -10.70907,0 -20.60927,5.455888 -26.06313,14.748611 L 181.8542,271.26525 c -5.65659,9.49679 -5.65659,21.01201 -0.2007,30.5088 5.45454,9.69749 15.35407,15.35542 26.26585,15.35542 h 243.74708 c 10.91111,0 20.81131,-5.65793 26.26585,-15.35542 5.45454,-9.49679 5.45454,-21.01201 -0.20204,-30.5088 z"
     id="path6" /><path
     style="fill:#495a79;stroke-width:0.67348331"
     d="m 329.79221,296.92497 c -11.13807,0 -20.2045,-9.06643 -20.2045,-20.2045 0,-11.13807 9.06643,-20.2045 20.2045,-20.2045 11.13807,0 20.2045,9.06643 20.2045,20.2045 0,11.13807 -9.06643,20.2045 -20.2045,20.2045 z"
     id="path10" /><path
     style="fill:#495a79;stroke-width:0.67348331"
     d="m 349.99671,216.10697 c 0,11.13807 -9.06643,20.2045 -20.2045,20.2045 -11.13807,0 -20.2045,-9.06643 -20.2045,-20.2045 V 115.08448 c 0,-11.13807 9.06643,-20.204512 20.2045,-20.204512 11.13807,0 20.2045,9.066442 20.2045,20.204512 z"
     id="path12" /></g>
</g><g
     id="g20"
     transform="matrix(1.1325598,0,0,1.1325598,-49.231894,-17.444147)">
	
	
</g><g
     id="g22"
     transform="matrix(1.1325598,0,0,1.1325598,-49.231894,-17.444147)">
</g><g
     id="g24"
     transform="matrix(1.1325598,0,0,1.1325598,-49.231894,-17.444147)">
</g><g
     id="g26"
     transform="matrix(1.1325598,0,0,1.1325598,-49.231894,-17.444147)">
</g><g
     id="g28"
     transform="matrix(1.1325598,0,0,1.1325598,-49.231894,-17.444147)">
</g><g
     id="g30"
     transform="matrix(1.1325598,0,0,1.1325598,-49.231894,-17.444147)">
</g><g
     id="g32"
     transform="matrix(1.1325598,0,0,1.1325598,-49.231894,-17.444147)">
</g><g
     id="g34"
     transform="matrix(1.1325598,0,0,1.1325598,-49.231894,-17.444147)">
</g><g
     id="g36"
     transform="matrix(1.1325598,0,0,1.1325598,-49.231894,-17.444147)">
</g><g
     id="g38"
     transform="matrix(1.1325598,0,0,1.1325598,-49.231894,-17.444147)">
</g><g
     id="g40"
     transform="matrix(1.1325598,0,0,1.1325598,-49.231894,-17.444147)">
</g><g
     id="g42"
     transform="matrix(1.1325598,0,0,1.1325598,-49.231894,-17.444147)">
</g><g
     id="g44"
     transform="matrix(1.1325598,0,0,1.1325598,-49.231894,-17.444147)">
</g><g
     id="g46"
     transform="matrix(1.1325598,0,0,1.1325598,-49.231894,-17.444147)">
</g><g
     id="g48"
     transform="matrix(1.1325598,0,0,1.1325598,-49.231894,-17.444147)">
</g><g
     id="g50"
     transform="matrix(1.1325598,0,0,1.1325598,-49.231894,-17.444147)">
</g></g>
</svg>