<?xml version="1.0" encoding="UTF-8" standalone="no"?>
<svg
   xmlns:dc="http://purl.org/dc/elements/1.1/"
   xmlns:cc="http://creativecommons.org/ns#"
   xmlns:rdf="http://www.w3.org/1999/02/22-rdf-syntax-ns#"
   xmlns:svg="http://www.w3.org/2000/svg"
   xmlns="http://www.w3.org/2000/svg"
   height="512"
   width="512"
   xml:space="preserve"
   viewBox="0 0 512 512"
   y="0px"
   x="0px"
   id="Capa_1"
   version="1.1">
   <defs
   id="defs47" />
<circle
   r="252.49193"
   cy="256"
   cx="256"
   id="path837"
   style="fill:#ffffff;fill-opacity:1;stroke:#000000;stroke-width:7.01614189;stroke-miterlimit:4;stroke-dasharray:none;stroke-opacity:0" />


<g
   transform="matrix(0.9902988,0,0,0.9902988,96.55011,-95.0377)"
   id="g845"><circle
     style="fill:#3498db;fill-opacity:1;stroke-width:5.31454992"
     cx="49.830948"
     cy="360.30145"
     r="47.830948"
     id="circle2" /><circle
     style="fill:#3498db;fill-opacity:1;stroke-width:5.31454992"
     cx="235.84019"
     cy="464.16904"
     r="47.830948"
     id="circle4" /><circle
     style="fill:#3498db;fill-opacity:1;stroke-width:5.31454992"
     cx="235.84019"
     cy="256.90161"
     r="47.830948"
     id="circle6" /><g
     id="g12"
     transform="matrix(5.3145498,0,0,5.3145498,-8.6290997,209.07066)">
	<path
   style="fill:#424a60"
   d="m 19.017,25.36 c 0.176,0 0.354,-0.046 0.515,-0.144 L 38.44,13.828 c 0.473,-0.285 0.625,-0.899 0.34,-1.372 -0.285,-0.474 -0.899,-0.627 -1.373,-0.341 L 18.5,23.504 c -0.473,0.285 -0.625,0.899 -0.34,1.372 0.187,0.312 0.517,0.484 0.857,0.484 z"
   id="path8" />
	<path
   style="fill:#424a60"
   d="M 38.442,43.171 19.535,31.694 c -0.472,-0.287 -1.087,-0.138 -1.374,0.336 -0.287,0.472 -0.136,1.087 0.336,1.373 L 37.404,44.88 c 0.162,0.099 0.341,0.146 0.518,0.146 0.338,0 0.667,-0.171 0.856,-0.481 0.287,-0.473 0.137,-1.088 -0.336,-1.374 z"
   id="path10" />
</g></g>
<g
   transform="translate(0,455)"
   id="g14">
</g>
<g
   transform="translate(0,455)"
   id="g16">
</g>
<g
   transform="translate(0,455)"
   id="g18">
</g>
<g
   transform="translate(0,455)"
   id="g20">
</g>
<g
   transform="translate(0,455)"
   id="g22">
</g>
<g
   transform="translate(0,455)"
   id="g24">
</g>
<g
   transform="translate(0,455)"
   id="g26">
</g>
<g
   transform="translate(0,455)"
   id="g28">
</g>
<g
   transform="translate(0,455)"
   id="g30">
</g>
<g
   transform="translate(0,455)"
   id="g32">
</g>
<g
   transform="translate(0,455)"
   id="g34">
</g>
<g
   transform="translate(0,455)"
   id="g36">
</g>
<g
   transform="translate(0,455)"
   id="g38">
</g>
<g
   transform="translate(0,455)"
   id="g40">
</g>
<g
   transform="translate(0,455)"
   id="g42">
</g>
</svg>