<svg xmlns="http://www.w3.org/2000/svg" xmlns:xlink="http://www.w3.org/1999/xlink" width="975.648" height="147.769pt" viewBox="0 0 731.736 147.769"><defs><path id="c" d="M.67188-6.25c0 3.42188 1.15625 6.46875 4.65625 6.46875S9.98438-2.82812 9.98438-6.25s-1.15625-6.45312-4.65625-6.45312S.67188-9.67187.67188-6.25m2.96875 0c0-2.125.15625-5.60937 1.6875-5.60937S7.04688-8.375 7.04688-6.25 6.85938-.64062 5.32813-.64062 3.64063-4.125 3.64063-6.25m0 0"/><path id="d" d="M2.01563 0h6.65625v-.71875l-1.25-.09375C6.96875-.85937 6.76563-1 6.76563-1.59375v-10.98437l-.1875-.125L2.125-12v.60938l1.15625.23437c.48438.09375.65625.25.65625.9375v8.625c0 .59375-.20312.73438-.65625.78125l-1.26562.09375Zm0 0"/><path id="e" d="M.65625-.34375.9375 0h8.48438l.78125-3.26562-.65625-.09375c-.53125.96875-.8125 1.09375-1.59375 1.09375h-4.75c.29687-.65625.9375-1.71875 3-2.8125C8.375-6.25 9.59375-7.21875 9.59375-9.17187c0-2.57813-1.85937-3.53125-4.25-3.53125C2.90625-12.70312 1-11.51562 1-9.89062c0 .79687.96875 1.21875 1.60938 1.21875.39062 0 .67187-.20313.79687-.71875.3125-1.46875.9375-2.46875 1.84375-2.46875.95313 0 1.35938.92187 1.35938 2.21875C6.60938-8.40625 6.32813-7 4.25-5.29687 1.625-3.125.70313-1.59375.65625-.34375m0 0"/><path id="f" d="M.96875-1.51562c0 1.03125.71875 1.73437 1.75 1.73437 1.04688 0 1.73438-.70312 1.73438-1.73437s-.6875-1.75-1.73438-1.75c-1.03125 0-1.75.71875-1.75 1.75m0 0"/><path id="g" d="M.73438-8.5c0 2.53125 1.79687 3.71875 3.79687 3.71875 1.0625 0 1.89063-.59375 2.4375-1.14062H7c-.09375 4.45312-1.03125 5.25-2 5.25-.70312 0-1.1875-.40625-1.71875-2.01563-.14062-.39062-.39062-.59375-.85937-.59375-.53125 0-1.39063.5-1.39063 1.26563 0 .70312 1 2.23437 3.79688 2.23437 1.48437 0 2.70312-.35937 3.5625-1.3125.92187-1.01562 1.5-2.82812 1.5-5.48437 0-1.92188-.28125-3.42188-1-4.48438C8.15625-12.10937 7-12.70312 5.21875-12.70312c-2.875 0-4.48437 1.85937-4.48437 4.20312M3.625-8.9375c0-1.76562.59375-2.92187 1.6875-2.92187s1.70313 1.5625 1.70313 3.76562c0 .51563-.01563.89063-.1875 1.1875-.20313.34375-.6875.71875-1.28125.71875-1.20313 0-1.92188-1.15625-1.92188-2.75m0 0"/><path id="i" d="M.78125-6.25C.78125-2.5 1.875.21875 4.95313.21875S9.15625-2.5 9.15625-6.25c0-3.73437-1.125-6.45312-4.20312-6.45312S.78125-9.98437.78125-6.25m1.89063 0c0-3.03125.51562-5.79687 2.28125-5.79687 1.76562 0 2.28125 2.76562 2.28125 5.79687 0 3.04688-.51563 5.8125-2.28125 5.8125-1.76563 0-2.28125-2.76562-2.28125-5.8125m0 0"/><path id="n" d="M2.03125 0h6.14063v-.53125l-1.5625-.14062c-.40625-.04688-.625-.1875-.625-.92188v-11.01562l-.09375-.09375-3.85938.65625v.45312l1.75.21875c.3125.03125.4375.17188.4375.71875v9.0625c0 .73438-.1875.875-.625.92188l-1.5625.14062Zm0 0"/><path id="j" d="M1.42188 0H5.8125v-.40625L4.76563-.5c-.29688-.03125-.4375-.125-.4375-.60937v-7.71875L4.25-8.89062l-2.8125.46875v.34375l1.125.15625c.25.04687.32813.14062.32813.54687v6.26563c0 .48437-.125.57812-.42188.60937l-1.04687.09375Zm0 0"/><path id="k" d="M.375-.15625.53125 0H6.0625l.48438-1.85937-.39063-.07813c-.3125.70313-.54687.79688-1.07812.79688H1.73438c.21874-.625.90625-1.5 2.17187-2.35938C5.23438-4.39062 6.1875-5 6.1875-6.4375c0-1.8125-1.25-2.45312-2.6875-2.45312-1.78125 0-2.79687 1.03125-2.79687 1.8125 0 .48437.53125.70312.8125.70312.25 0 .375-.14062.4375-.39062.20312-.92188.6875-1.64063 1.45312-1.64063.92188 0 1.21875.79688 1.21875 1.73438 0 1.26562-.57812 2.10937-1.79687 3.15625C1.15625-2.07812.57813-1.125.375-.15625m0 0"/><path id="l" d="M.46875-5.9375c0 1.78125 1.125 2.75 2.51563 2.75.98437 0 1.71875-.64062 2.10937-1.10937C5.07813-1.875 4.4375-.32812 3.25-.32812c-.59375 0-1-.51563-1.20312-1.29688-.0625-.17187-.1875-.3125-.40625-.3125-.29688 0-.76563.23438-.76563.64063 0 .5625.6875 1.45312 2.29688 1.45312 2.17187 0 3.42187-1.65625 3.42187-4.8125 0-2.78125-.98437-4.23437-3.07812-4.23437-2.03125 0-3.04688 1.23437-3.04688 2.95312m1.5-.21875c0-1.32812.45313-2.25 1.51563-2.25 1.07812 0 1.60937 1.21875 1.60937 2.75 0 .78125-.5625 1.70313-1.57812 1.70313-.8125 0-1.54688-.70313-1.54688-2.20313m0 0"/><path id="m" d="M.53125-4.375c0 2.5625.78125 4.53125 3 4.53125 2.23438 0 3.01563-1.96875 3.01563-4.53125s-.78125-4.51562-3.01563-4.51562c-2.21875 0-3 1.95312-3 4.51562m1.5 0c0-1.96875.3125-4.03125 1.5-4.03125 1.20313 0 1.51563 2.0625 1.51563 4.03125 0 1.98438-.3125 4.04688-1.51563 4.04688-1.1875 0-1.5-2.0625-1.5-4.04688m0 0"/><path id="o" d="M.35938-1.39062c0 .54687.85937 1.54687 2.84375 1.54687 1.95312 0 3.15625-.95312 3.15625-2.625 0-1.78125-1.54688-2.25-2.20313-2.32812v-.04688c.70313-.125 1.82813-.64062 1.82813-1.92187 0-1.53125-1.25-2.125-2.64063-2.125-1.67187 0-2.64062.92187-2.64062 1.59375 0 .45312.51562.6875.73437.6875.1875 0 .29688-.125.375-.32813.29688-.92187.73438-1.46875 1.4375-1.46875.98438 0 1.21875.92188 1.21875 1.60938 0 .70312-.21875 1.76562-1.29687 1.76562-.59375 0-.98438-.14062-1.1875-.14062-.1875 0-.26563.15625-.26563.40625s.07813.40625.26563.40625c.20312 0 .59375-.14063 1.1875-.14063 1 0 1.625.84375 1.625 2.09375 0 1.5-.6875 2.07813-1.57813 2.07813-.79687 0-1.34375-.60938-1.625-1.45313-.07812-.25-.21875-.39062-.42187-.39062-.29688 0-.8125.28125-.8125.78125m0 0"/><clipPath id="a"><path d="M.4375 29H52v52H.4375Zm0 0"/></clipPath><clipPath id="b"><path d="M.4375 24H58v63H.4375Zm0 0"/></clipPath><clipPath id="h"><path d="M674 24h57.03125v63H674Zm0 0"/></clipPath></defs><g clip-path="url(#a)"><path fill="#99F" d="M51.58203 55.3711c0-14.06641-11.40234-25.47266-25.47266-25.47266-14.0664 0-25.47265 11.40625-25.47265 25.47265 0 14.07032 11.40625 25.47266 25.47266 25.47266 14.0703 0 25.47265-11.40234 25.47265-25.47266m0 0"/></g><g clip-path="url(#b)"><path fill="none" stroke="#000" stroke-miterlimit="10" stroke-width=".39788" d="M51.58203 55.3711c0-14.06641-11.40234-25.47266-25.47265-25.47266-14.0664 0-25.47266 11.40625-25.47266 25.47265 0 14.07031 11.40625 25.47266 25.47266 25.47266 14.0703 0 25.47265-11.40235 25.47265-25.47266Zm0 0"/></g><use xlink:href="#c" x="20.77846" y="61.61868"/><path fill="#99F" stroke="#000" stroke-miterlimit="10" stroke-width=".39788" d="M164.79294 55.3711c0-14.06641-11.40625-25.47266-25.47265-25.47266S113.84764 41.3047 113.84764 55.3711c0 14.07031 11.40625 25.47266 25.47265 25.47266s25.47265-11.40235 25.47265-25.47266Zm0 0"/><use xlink:href="#d" x="133.98749" y="61.7285"/><path fill="#99F" stroke="#000" stroke-miterlimit="10" stroke-width=".39788" d="M278.00386 55.3711c0-14.06641-11.40625-25.47266-25.47265-25.47266-14.07031 0-25.47265 11.40625-25.47265 25.47265 0 14.07031 11.40234 25.47266 25.47265 25.47266 14.0664 0 25.47265-11.40235 25.47265-25.47266Zm0 0"/><use xlink:href="#e" x="247.19552" y="61.7285"/><use xlink:href="#f" x="359.64872" y="56.89406"/><use xlink:href="#f" x="365.07983" y="56.89406"/><use xlink:href="#f" x="370.51094" y="56.89406"/><path fill="#99F" stroke="#000" stroke-miterlimit="10" stroke-width=".39788" d="M504.42178 55.3711c0-14.06641-11.40234-25.47266-25.46874-25.47266-14.07031 0-25.47265 11.40625-25.47265 25.47265 0 14.07031 11.40234 25.47266 25.47265 25.47266 14.0664 0 25.46874-11.40235 25.46874-25.47266Zm0 0"/><use xlink:href="#g" x="473.61357" y="61.61868"/><path fill="#99F" stroke="#000" stroke-miterlimit="10" stroke-width=".39788" d="M617.6327 55.3711c0-14.06641-11.40234-25.47266-25.47265-25.47266-14.0664 0-25.47265 11.40625-25.47265 25.47265 0 14.07031 11.40625 25.47266 25.47265 25.47266 14.07031 0 25.47265-11.40235 25.47265-25.47266Zm0 0"/><use xlink:href="#d" x="581.49093" y="61.61868"/><use xlink:href="#c" x="592.15421" y="61.61868"/><path fill="#99F" d="M730.84375 55.3711c0-14.06641-11.40234-25.47266-25.47266-25.47266-14.0664 0-25.47265 11.40625-25.47265 25.47265 0 14.07032 11.40625 25.47266 25.47265 25.47266 14.07032 0 25.47266-11.40234 25.47266-25.47266m0 0"/><g clip-path="url(#h)"><path fill="none" stroke="#000" stroke-miterlimit="10" stroke-width=".39788" d="M730.84362 55.3711c0-14.06641-11.40235-25.47266-25.47265-25.47266-14.0664 0-25.47266 11.40625-25.47266 25.47265 0 14.07031 11.40625 25.47266 25.47266 25.47266 14.0703 0 25.47265-11.40235 25.47265-25.47266Zm0 0"/></g><use xlink:href="#d" x="694.69995" y="61.7285"/><use xlink:href="#d" x="705.36323" y="61.7285"/><use xlink:href="#i" x="21.15587" y="135.20464"/><use xlink:href="#j" x="135.78967" y="125.90718"/><path fill="none" stroke="#000" stroke-miterlimit="10" stroke-width="1.09429" d="M132.25781 128.63281h14.1211"/><use xlink:href="#j" x="132.25919" y="140.90773"/><use xlink:href="#j" x="139.31964" y="140.90773"/><use xlink:href="#k" x="248.9967" y="125.90718"/><path fill="none" stroke="#000" stroke-miterlimit="10" stroke-width="1.09429" d="M245.46484 128.63281h14.1211"/><use xlink:href="#j" x="245.46622" y="140.90773"/><use xlink:href="#j" x="252.52667" y="140.90773"/><use xlink:href="#l" x="475.41575" y="125.90718"/><path fill="none" stroke="#000" stroke-miterlimit="10" stroke-width="1.09429" d="M471.88672 128.63281h14.11718"/><use xlink:href="#j" x="471.88527" y="140.90773"/><use xlink:href="#j" x="478.94572" y="140.90773"/><use xlink:href="#j" x="585.09429" y="125.90718"/><use xlink:href="#m" x="592.15474" y="125.90718"/><path fill="none" stroke="#000" stroke-miterlimit="10" stroke-width="1.09429" d="M585.09375 128.63281h14.1211"/><use xlink:href="#j" x="585.09429" y="140.90773"/><use xlink:href="#j" x="592.15474" y="140.90773"/><use xlink:href="#n" x="700.40903" y="135.31447"/><use xlink:href="#n" x="77.76038" y="24.93602"/><use xlink:href="#j" x="188.8637" y="15.52872"/><use xlink:href="#m" x="195.92415" y="15.52872"/><path fill="none" stroke="#000" stroke-miterlimit="10" stroke-width="1.09429" d="M188.86328 18.2539h14.1211"/><use xlink:href="#j" x="188.8637" y="30.52927"/><use xlink:href="#j" x="195.92415" y="30.52927"/><use xlink:href="#l" x="305.60121" y="15.52872"/><path fill="none" stroke="#000" stroke-miterlimit="10" stroke-width="1.09429" d="M302.07031 18.2539h14.1211"/><use xlink:href="#j" x="302.07073" y="30.52927"/><use xlink:href="#j" x="309.13118" y="30.52927"/><use xlink:href="#o" x="418.81024" y="15.52872"/><path fill="none" stroke="#000" stroke-miterlimit="10" stroke-width="1.09429" d="M415.28125 18.2539h14.11719"/><use xlink:href="#j" x="415.27976" y="30.52927"/><use xlink:href="#j" x="422.3402" y="30.52927"/><use xlink:href="#k" x="532.02026" y="15.52872"/><path fill="none" stroke="#000" stroke-miterlimit="10" stroke-width="1.09429" d="M528.48828 18.2539h14.1211"/><use xlink:href="#j" x="528.48978" y="30.52927"/><use xlink:href="#j" x="535.55023" y="30.52927"/><use xlink:href="#j" x="645.22929" y="15.52872"/><path fill="none" stroke="#000" stroke-miterlimit="10" stroke-width="1.09429" d="M641.69922 18.2539h14.12109"/><use xlink:href="#j" x="641.69881" y="30.52927"/><use xlink:href="#j" x="648.75925" y="30.52927"/><path fill="none" stroke="#000" stroke-miterlimit="10" stroke-width=".39788" d="M51.98046 55.3711h61.0703"/><path fill="none" stroke="#000" stroke-linecap="round" stroke-linejoin="round" stroke-miterlimit="10" stroke-width=".39788" d="M111.1836 52.98438c.375 1.43359 1.21874 2.10937 2.0664 2.38671-.84766.28125-1.6914.95703-2.0664 2.38672"/><path fill="none" stroke="#000" stroke-miterlimit="10" stroke-width=".39788" d="M165.19138 55.3711h61.0703"/><path fill="none" stroke="#000" stroke-linecap="round" stroke-linejoin="round" stroke-miterlimit="10" stroke-width=".39788" d="M224.39453 52.98438c.375 1.43359 1.21875 2.10937 2.0664 2.38671-.84765.28125-1.6914.95703-2.0664 2.38672"/><path fill="none" stroke="#000" stroke-miterlimit="10" stroke-width=".39788" d="M278.4023 55.3711h70.10545m34.46875 0h69.70701"/><path fill="none" stroke="#000" stroke-linecap="round" stroke-linejoin="round" stroke-miterlimit="10" stroke-width=".39788" d="M450.8125 52.98438c.3789 1.43359 1.22266 2.10937 2.07031 2.38671-.84765.28125-1.6914.95703-2.0703 2.38672"/><path fill="none" stroke="#000" stroke-miterlimit="10" stroke-width=".39788" d="M504.82022 55.3711h61.0742"/><path fill="none" stroke="#000" stroke-linecap="round" stroke-linejoin="round" stroke-miterlimit="10" stroke-width=".39788" d="M564.02344 52.98438c.3789 1.43359 1.21875 2.10937 2.07031 2.38671-.85156.28125-1.6914.95703-2.07031 2.38672"/><path fill="none" stroke="#000" stroke-miterlimit="10" stroke-width=".39788" d="M618.03114 55.3711h61.0742"/><path fill="none" stroke="#000" stroke-linecap="round" stroke-linejoin="round" stroke-miterlimit="10" stroke-width=".39788" d="M677.23438 52.98438c.3789 1.43359 1.21875 2.10937 2.0664 2.38671-.84765.28125-1.6875.95703-2.0664 2.38672"/><path fill="none" stroke="#000" stroke-miterlimit="10" stroke-width=".39788" d="M32.80469 80.35937c10.8125 40.35156-24.19922 40.35156-13.75 1.34766"/><path fill="none" stroke="#000" stroke-linecap="round" stroke-linejoin="round" stroke-miterlimit="10" stroke-width=".39788" d="M16.26563 82.89453c1.48046.0039 2.35156-.63281 2.83984-1.3789.05078.89062.48437 1.8789 1.76953 2.61327"/><path fill="none" stroke="#000" stroke-miterlimit="10" stroke-width=".39788" d="M146.0156 80.35937c10.8125 40.35156-24.20312 40.35156-13.75 1.34766"/><path fill="none" stroke="#000" stroke-linecap="round" stroke-linejoin="round" stroke-miterlimit="10" stroke-width=".39788" d="M129.47656 82.89453c1.48047.0039 2.35157-.63281 2.83985-1.3789.05078.89062.48437 1.8789 1.76953 2.61328"/><path fill="none" stroke="#000" stroke-miterlimit="10" stroke-width=".39788" d="M259.22652 80.35937c10.80859 40.35156-24.20312 40.35156-13.75 1.34766"/><path fill="none" stroke="#000" stroke-linecap="round" stroke-linejoin="round" stroke-miterlimit="10" stroke-width=".39788" d="M242.6836 82.89453c1.48437.0039 2.35546-.63281 2.84374-1.3789.05078.89062.48438 1.8789 1.76953 2.61327"/><path fill="none" stroke="#000" stroke-miterlimit="10" stroke-width=".39788" d="M485.64444 80.35937c10.8125 40.35156-24.19921 40.35156-13.75 1.34766"/><path fill="none" stroke="#000" stroke-linecap="round" stroke-linejoin="round" stroke-miterlimit="10" stroke-width=".39788" d="M469.10547 82.89453c1.48047.0039 2.35156-.63281 2.84375-1.3789.04687.89062.48437 1.8789 1.76953 2.61328"/><path fill="none" stroke="#000" stroke-miterlimit="10" stroke-width=".39788" d="M598.85536 80.35937c10.8125 40.35156-24.19921 40.35156-13.75 1.34766"/><path fill="none" stroke="#000" stroke-linecap="round" stroke-linejoin="round" stroke-miterlimit="10" stroke-width=".39788" d="M582.3164 82.89453c1.48048.0039 2.35157-.63281 2.83985-1.3789.05078.89062.48437 1.8789 1.77344 2.61328"/><path fill="none" stroke="#000" stroke-miterlimit="10" stroke-width=".39788" d="M712.06628 80.35937c10.8125 40.35156-24.19922 40.35156-13.75 1.34766"/><path fill="none" stroke="#000" stroke-linecap="round" stroke-linejoin="round" stroke-miterlimit="10" stroke-width=".39788" d="M695.52734 82.89453c1.48047.0039 2.35157-.63281 2.83985-1.3789.05078.89062.48437 1.8789 1.76953 2.61328"/></svg>