<svg xmlns="http://www.w3.org/2000/svg" xmlns:xlink="http://www.w3.org/1999/xlink" width="264.503pt" height="151.217pt" viewBox="0 0 264.503 151.217"><defs><path id="c" d="M-.39062 0h4.34375v-.71875l-1.125-.07812c-.40625-.03126-.42188-.25-.32813-.67188.21875-1.01562.53125-2.01562.875-3.10937H7l.96875 3.10937c.14063.39063.07813.60938-.3125.65625L6.5625-.71875V0h5.90625v-.71875C11.5-.73437 11.25-.82812 11-1.60937L7.34375-12.89062H4.98438L2.82813-6.625c-.67188 1.92188-1.28125 3.8125-1.73438 4.9375-.29687.78125-.48437.92188-1.48437.96875Zm4.0625-5.46875 1.54687-4.84375h.01563l1.46875 4.84375Zm0 0"/><path id="f" d="M.71875 0H6.875C9 0 10.3125-.375 11.07813-1.01562c.78125-.60938 1.0625-1.5 1.0625-2.51563 0-2.0625-1.54688-3.09375-3.28125-3.34375v-.04687c1.8125-.39063 2.76562-1.34375 2.76562-2.875 0-2.28125-1.79687-3.09375-4.75-3.09375H.71875v.70312c1.32813.04688 1.48438.15625 1.48438 1.10938v9.28125c0 .9375-.15625 1.03125-1.48438 1.07812ZM5.1875-2.0625v-4.32812h.95313c1.875 0 2.71875 1.3125 2.71875 2.875 0 2.01562-1.03125 2.65625-2.32813 2.65625-.9375 0-1.34375-.29688-1.34375-1.20313m0-5.1875v-4.09375c0-.625.3125-.6875 1.0625-.6875 1.6875 0 2.35938.98438 2.35938 2.375C8.60938-8.26562 7.875-7.25 6.09375-7.25Zm0 0"/><path id="i" d="M.89063-6.32812c0 3.98437 2.04687 6.60937 6.82812 6.60937 1.29688 0 3.25-.21875 4.35938-.89062L12.29688-4.25h-.71875c-.71875 2.04688-1.5 3.67188-3.60938 3.67188-3.3125 0-3.76562-3.9375-3.76562-6.04688 0-1.35937.26562-5.6875 3.625-5.6875 2.39062 0 3.01562 1.9375 3.45312 3.29688H12v-3.34375c-1.10937-.67188-3.07812-.82813-4.01562-.82813-2.625 0-4.39063.73438-5.48438 1.96875C1.375-9.95312.89063-8.1875.89063-6.32812m0 0"/><path id="j" d="M.71875 0h5.5625c2.92188 0 7.53125-.39062 7.53125-6.57812 0-2.09375-.54687-3.65625-1.64062-4.71875C11.07813-12.375 9.53125-12.875 7.125-12.89062H.71875v.70312c1.32813.04688 1.48438.15625 1.48438 1.10938v9.28125c0 .9375-.15625 1.03125-1.48438 1.07812ZM5.1875-1.6875v-9.82812c0-.4375.35938-.51563 1.53125-.51563 2.5 0 3.8125 1.85938 3.8125 5.45313 0 4.90625-2.0625 5.71875-3.875 5.71875-1.15625 0-1.46875-.23438-1.46875-.82813m0 0"/><path id="k" d="M.76563-6.21875C.76563-2.5 1.85938.21875 4.9375.21875S9.125-2.5 9.125-6.21875c0-3.73437-1.10937-6.45312-4.1875-6.45312S.76563-9.95312.76563-6.21875m1.89062 0c0-3.04687.51563-5.79687 2.28125-5.79687 1.76563 0 2.28125 2.75 2.28125 5.79687 0 3.03125-.51562 5.78125-2.28125 5.78125-1.76562 0-2.28125-2.75-2.28125-5.78125m0 0"/><path id="l" d="M.5-.17187.6875 0h7.71875l.64063-2.45312-.51563-.10938C8.125-1.54687 7.75-1.40625 7-1.40625H2.23438C2.53125-2.375 3.64063-3.70312 5.375-4.95312c1.78125-1.3125 3.17188-2.14063 3.17188-4.23438 0-2.59375-1.71875-3.48437-3.6875-3.48437-2.5625 0-3.875 1.54687-3.875 2.51562 0 .64063.71875.9375 1.03125.9375.34375 0 .46875-.20312.54687-.51562C2.85938-11 3.59375-12.01562 4.73438-12.01562c1.4375 0 1.84375 1.1875 1.84375 2.5625 0 2-1 3.125-2.625 4.5625C1.64063-2.89062.85938-1.625.5-.17187m0 0"/><path id="m" d="m.35938-3.73437.15625.40625h5.07812v1.90625c0 .625-.20312.73437-.65625.76562l-1.1875.125V0h4.92188v-.53125l-.84375-.10937c-.4375-.04688-.54688-.15626-.54688-.78125v-1.90625H9.1875v-.875H7.28125v-8.25h-1.375C4.15625-9.875 2.0625-6.64062.35938-3.73437m1.34375-.46875c1.10937-2.01563 2.45312-4.1875 3.89062-6.4375v6.4375Zm0 0"/><path id="n" d="M.76563-9.82812h.5l.1875-.40625c.23437-.51563.48437-.79688 1.32812-.79688H7.8125c-.17187.6875-.53125 1.75-2.04687 3.90625C4.15625-4.8125 3.10938-2.73437 3.10938-.53125c0 .60938.4375.75 1.01562.75.51563 0 .89063-.125.89063-.71875 0-2.84375.5-4.57812 1.40625-6.15625 1.1875-2.09375 2.1875-3.25 2.84375-5.59375l-.17188-.20312h-7.75Zm0 0"/><clipPath id="a"><path d="M113 113h38v37.4375h-38Zm0 0"/></clipPath><clipPath id="b"><path d="M108 108h48v42.4375h-48Zm0 0"/></clipPath><clipPath id="d"><path d="M226 57h37.57422v38H226Zm0 0"/></clipPath><clipPath id="e"><path d="M220 51h43.57422v49H220Zm0 0"/></clipPath><clipPath id="g"><path d="M.4336 57H38v38H.4336Zm0 0"/></clipPath><clipPath id="h"><path d="M.4336 51H44v49H.4336Zm0 0"/></clipPath></defs><g clip-path="url(#a)"><path fill="#99F" d="M150.2461 132.08594c0-10.02735-8.12891-18.15625-18.15626-18.15625s-18.15625 8.1289-18.15625 18.15625 8.12891 18.15234 18.15625 18.15234 18.15625-8.125 18.15625-18.15234m0 0"/></g><g clip-path="url(#b)"><path fill="none" stroke="#000" stroke-miterlimit="10" stroke-width=".39645" d="M150.2461 132.08592c0-10.02735-8.1289-18.15626-18.15626-18.15626-10.02734 0-18.15625 8.12891-18.15625 18.15626s8.1289 18.15235 18.15625 18.15235 18.15626-8.125 18.15626-18.15235Zm0 0"/></g><use xlink:href="#c" x="126.00485" y="138.5277"/><g clip-path="url(#d)"><path fill="#99F" d="M263.3789 75.6836c0-10.21094-8.27734-18.48438-18.48437-18.48438-10.21094 0-18.48437 8.27344-18.48437 18.48437 0 10.20704 8.27343 18.48438 18.48437 18.48438 10.20703 0 18.48438-8.27734 18.48438-18.48438m0 0"/></g><g clip-path="url(#e)"><path fill="none" stroke="#000" stroke-miterlimit="10" stroke-width=".39645" d="M263.37895 75.68356c0-10.21094-8.27735-18.48438-18.48438-18.48438-10.21094 0-18.48438 8.27344-18.48438 18.48438 0 10.20703 8.27344 18.48438 18.48438 18.48438 10.20703 0 18.48438-8.27735 18.48438-18.48438Zm0 0"/></g><use xlink:href="#f" x="238.42971" y="82.12675"/><g clip-path="url(#g)"><path fill="#99F" d="M37.94531 75.6836c0-10.3047-8.35547-18.65626-18.65625-18.65626-10.30468 0-18.66015 8.35157-18.66015 18.65625 0 10.3047 8.35547 18.65625 18.66015 18.65625 10.30078 0 18.65625-8.35156 18.65625-18.65625m0 0"/></g><g clip-path="url(#h)"><path fill="none" stroke="#000" stroke-miterlimit="10" stroke-width=".39645" d="M37.94528 75.68356c0-10.3047-8.35547-18.65626-18.65625-18.65626-10.3047 0-18.66016 8.35157-18.66016 18.65626S8.98434 94.3398 19.28903 94.3398c10.30078 0 18.65625-8.35156 18.65625-18.65625Zm0 0"/></g><use xlink:href="#i" x="12.77714" y="82.1367"/><path fill="#99F" stroke="#000" stroke-miterlimit="10" stroke-width=".39645" d="M151.17579 19.2812c0-10.53907-8.54297-19.08595-19.08595-19.08595-10.53906 0-19.08594 8.54688-19.08594 19.08595 0 10.53906 8.54688 19.08594 19.08594 19.08594 10.54298 0 19.08595-8.54688 19.08595-19.08594Zm0 0"/><use xlink:href="#j" x="124.75631" y="25.72579"/><use xlink:href="#k" x="183.55485" y="132.66904"/><use xlink:href="#l" x="70.75393" y="132.77748"/><use xlink:href="#m" x="189.19564" y="67.80789"/><use xlink:href="#n" x="138.43448" y="101.54023"/><path fill="none" stroke="#000" stroke-miterlimit="10" stroke-width=".39645" d="m148.6836 123.78904 78.96877-39.48439"/><path fill="none" stroke="#000" stroke-linecap="round" stroke-linejoin="round" stroke-miterlimit="10" stroke-width=".39642" d="M224.92188 83.00781c.97656 1.10938 2.02734 1.33594 2.90625 1.20703-.62891.625-1.07813 1.60547-.77735 3.05078"/><path fill="none" stroke="#000" stroke-miterlimit="10" stroke-width=".39645" d="M226.01175 75.68356H38.73825"/><path fill="none" stroke="#000" stroke-linecap="round" stroke-linejoin="round" stroke-miterlimit="10" stroke-width=".39645" d="M40.60156 78.0625c-.3789-1.42969-1.21875-2.10156-2.0625-2.3789.84375-.27735 1.6836-.95313 2.0625-2.37891"/><path fill="none" stroke="#000" stroke-miterlimit="10" stroke-width=".39645" d="m36.3281 84.2031 78.81643 39.41016"/><path fill="none" stroke="#000" stroke-linecap="round" stroke-linejoin="round" stroke-miterlimit="10" stroke-width=".39642" d="M114.54297 120.65234c-.30469 1.44141.14453 2.42188.77734 3.04688-.8789-.1289-1.92969.09766-2.90625 1.20703"/><path fill="none" stroke="#000" stroke-miterlimit="10" stroke-width=".39645" d="M132.08984 113.53123V39.1601"/><path fill="none" stroke="#000" stroke-linecap="round" stroke-linejoin="round" stroke-miterlimit="10" stroke-width=".39645" d="M129.71094 41.02344c1.42969-.3789 2.10156-1.21485 2.3789-2.0625.27735.84765.95313 1.6836 2.37891 2.0625"/></svg>