<svg xmlns="http://www.w3.org/2000/svg" xmlns:xlink="http://www.w3.org/1999/xlink" width="295.421pt" height="176.066pt" viewBox="0 0 295.421 176.066"><defs><path id="a" d="M.59375 0h4.4375v-.71875L4.01563-.79687C3.5-.82813 3.3125-1.125 3.25-1.78125c-.07812-.67187-.07812-1.40625-.07812-2.92187v-6.32813h.0625L7.21875-.34375h1.10938l3.89062-10.6875h.0625v9.23438c0 .9375-.14062 1.03125-1.46875 1.07812V0h5.76563v-.71875c-1.32813-.04687-1.4375-.14062-1.4375-1.07812v-9.28125c0-.95313.10937-1.04688 1.4375-1.10938v-.6875h-4.8125c-.3125.89063-.96875 2.6875-1.48438 4.07813L8.70313-4.4375h-.0625l-2.1875-5.70312c-.3125-.8125-.75-1.9375-.98438-2.73438H.5625v.6875C1.875-12.125 2-12.03125 2-11.07812v6.375c0 1.53125 0 2.26562-.07812 2.92187-.0625.65625-.23438.92188-.67188.98438l-.65625.07812Zm0 0"/><path id="b" d="M.89063-4.20312 1.1875-.875C2.14063 0 3.98438.28125 5.20313.28125c3.73437-.04687 4.82812-2.04687 4.82812-3.98437 0-2.45313-1.8125-3.40625-3.51562-4.125-1.21875-.51563-2.79688-1.1875-2.79688-2.59375 0-1.17188.84375-1.875 1.95313-1.875 1.1875 0 2.32812.82812 2.84375 3h.67187v-3.04688c-.96875-.59375-2.375-.82812-3.5-.82812-3.15625 0-4.64062 1.625-4.64062 3.82812 0 2.3125 2.0625 3.29688 3.70312 4 1.70313.70313 2.48438 1.54688 2.48438 2.73438-.01563 1.375-.89063 2.03125-2.10938 2.03125-1.40625 0-2.82812-1.28125-3.54687-3.625Zm0 0"/><path id="c" d="M.76563-6.21875C.76563-2.5 1.85938.21875 4.9375.21875 8 .21875 9.10938-2.5 9.10938-6.21875c0-3.73437-1.10938-6.4375-4.17188-6.4375-3.07812 0-4.17187 2.70313-4.17187 6.4375m1.89062 0C2.65625-9.25 3.17188-12 4.9375-12c1.76563 0 2.28125 2.75 2.28125 5.78125S6.70313-.4375 4.9375-.4375c-1.76562 0-2.28125-2.75-2.28125-5.78125m0 0"/><path id="d" d="m.95313 2.28125.35937.35938c.92188-.875 2.28125-2.125 2.28125-3.59375 0-.98438-.54687-1.6875-1.25-1.6875-.57812 0-.9375.46875-.9375.9375 0 .67187.60938 1.03125.60938 1.82812 0 .76563-.46875 1.5-1.0625 2.15625m0 0"/><path id="e" d="m.35938-3.71875.15625.39063h5.07812v1.90625c0 .625-.20312.73437-.65625.76562l-1.1875.125V0h4.90625v-.53125l-.82812-.10937c-.4375-.04688-.5625-.15626-.5625-.78125v-1.90625h1.90625v-.875H7.26563v-8.23438H5.90625C4.15625-9.85937 2.0625-6.64062.35938-3.71875m1.34375-.48437C2.8125-6.21875 4.15625-8.375 5.59375-10.64062v6.4375Zm0 0"/><path id="f" d="M.8125-5.75c0 4.03125 1.46875 5.96875 4.26563 5.96875 2.75 0 4.21875-1.67187 4.21875-4.20312 0-2.51563-1.54688-3.875-3.54688-3.875-1.46875 0-2.5625.98437-3.0625 1.59375C2.71875-10.35937 3.84375-12 5.53125-12 6.375-12 7-11.29687 7.26563-10.21875c.0625.21875.20312.39063.48437.39063.40625 0 .98438-.32813.98438-.84375 0-.76563-.90625-1.98438-3.14063-1.98438C2.64063-12.65625.8125-10.375.8125-5.75m1.875 1.35938c0-1.14063.85938-2.53125 2.42188-2.53125 1.17187 0 2.32812 1.07812 2.32812 3.21875C7.4375-1.75 6.67188-.4375 5.10938-.4375c-1.625 0-2.42188-1.71875-2.42188-3.95312m0 0"/><path id="g" d="M2.01563 0h6.125v-.53125l-1.5625-.14062c-.39063-.04688-.60938-.1875-.60938-.90625V-12.5625l-.10937-.09375L2.01563-12v.45313l1.75.21875c.3125.03125.4375.17187.4375.70312v9.04688c0 .71875-.1875.85937-.60938.90625l-1.57812.14062Zm0 0"/><path id="h" d="M.67188-8.45312c0 2.51562 1.54687 3.875 3.54687 3.875 1.46875 0 2.5625-.98438 3.04688-1.60938C7.25-2.07812 6.125-.4375 4.4375-.4375c-.84375 0-1.46875-.71875-1.75-1.78125-.04687-.21875-.1875-.39062-.46875-.39062-.42187 0-.98437.32812-.98437.84375 0 .75.90625 1.98437 3.14062 1.98437 2.95313 0 4.78125-2.28125 4.78125-6.92187 0-4.01563-1.46875-5.95313-4.26562-5.95313-2.75 0-4.21875 1.65625-4.21875 4.20313m1.85937-.28125c0-1.96875.75-3.26563 2.32813-3.26563 1.625 0 2.40625 1.71875 2.40625 3.95313 0 1.125-.84375 2.51562-2.40625 2.51562-1.17188 0-2.32813-1.0625-2.32813-3.20312m0 0"/></defs><path fill="#99F" stroke="#000" stroke-miterlimit="10" stroke-width=".3964" d="M221.01561 87.57031c0-11.05859-8.96093-20.01953-20.01953-20.01953-11.05468 0-20.01562 8.96094-20.01562 20.01953 0 11.05469 8.96094 20.01562 20.01562 20.01562 11.0586 0 20.01953-8.96093 20.01953-20.01562Zm0 0"/><use xlink:href="#a" x="192.35467" y="94.01029"/><path fill="#99F" stroke="#000" stroke-miterlimit="10" stroke-width=".3964" d="M106.08204 87.57031c0-9.875-8.0039-17.875-17.875-17.875s-17.87109 8-17.87109 17.875c0 9.8711 8 17.8711 17.8711 17.8711 9.87108 0 17.87499-8 17.87499-17.8711Zm0 0"/><use xlink:href="#b" x="82.88738" y="94.02024"/><use xlink:href="#c" x="131.16328" y="19.27077"/><use xlink:href="#d" x="141.03371" y="19.27077"/><use xlink:href="#e" x="148.16896" y="19.27077"/><use xlink:href="#c" x="260.86921" y="92.58286"/><use xlink:href="#d" x="270.73964" y="92.58286"/><use xlink:href="#f" x="277.87489" y="92.58286"/><use xlink:href="#c" x="131.16328" y="165.89496"/><use xlink:href="#d" x="141.03371" y="165.89496"/><use xlink:href="#g" x="148.16896" y="165.89496"/><use xlink:href="#c" x="7.09743" y="92.58286"/><use xlink:href="#d" x="16.96786" y="92.58286"/><use xlink:href="#h" x="24.10311" y="92.58286"/><path fill="none" stroke="#000" stroke-miterlimit="10" stroke-width=".3964" d="M220.71483 82.28516c31.83984-8.53125 31.83984 19.09765 1.33985 10.92578"/><path fill="none" stroke="#000" stroke-linecap="round" stroke-linejoin="round" stroke-miterlimit="10" stroke-width=".3964" d="M223.23828 95.98828c.00781-1.47266-.6289-2.34375-1.375-2.82812.89063-.05079 1.875-.48438 2.60547-1.76563"/><path fill="none" stroke="#000" stroke-miterlimit="10" stroke-width=".3964" d="M70.56251 92.29687c-28.49609 7.63281-28.49609-17.08984-1.33984-9.8164"/><path fill="none" stroke="#000" stroke-linecap="round" stroke-linejoin="round" stroke-miterlimit="10" stroke-width=".3964" d="M68.03906 79.70313c-.00781 1.47656.6289 2.34375 1.375 2.82812-.89062.05078-1.875.48438-2.60937 1.76563"/><path fill="none" stroke="#000" stroke-miterlimit="10" stroke-width=".3964" d="M200.99608 67.15625c0-44.15624-112.78904-42.0117-112.78904 1.7461"/><path fill="none" stroke="#000" stroke-linecap="round" stroke-linejoin="round" stroke-miterlimit="10" stroke-width=".3964" d="M90.58594 67.03906c-1.42578.375-2.10156 1.21485-2.3789 2.0625-.27735-.84765-.94923-1.6875-2.375-2.0625"/><path fill="none" stroke="#000" stroke-miterlimit="10" stroke-width=".3964" d="M88.20704 105.83984c0 44.15624 112.78904 46.29687 112.78904 2.53906"/><path fill="none" stroke="#000" stroke-linecap="round" stroke-linejoin="round" stroke-miterlimit="10" stroke-width=".3964" d="M198.61719 110.24219c1.42969-.37891 2.10156-1.21485 2.3789-2.0625.27735.84765.95313 1.68359 2.37891 2.0625"/></svg>