<svg xmlns="http://www.w3.org/2000/svg" xmlns:xlink="http://www.w3.org/1999/xlink" width="537.516" height="323.467pt" viewBox="0 0 403.137 323.467"><defs><path id="a" d="M.71875 0H10.8125l.20313-3.75h-.71875C9.625-1.89062 9.375-.85937 7.25-.85937c-1.5625 0-2.04687-.17188-2.04687-1.35938v-8.89062c0-.95313.14062-1.04688 1.6875-1.10938v-.70312H.71875v.70312c1.32813.0625 1.48438.15625 1.48438 1.10938v9.29687c0 .95313-.15625 1.03125-1.48438 1.09375Zm0 0"/><path id="b" d="M.89063-6.34375c0 4 2.04687 6.625 6.84375 6.625 1.3125 0 3.25-.21875 4.375-.89062L12.32813-4.25h-.71875c-.71875 2.04688-1.51563 3.67188-3.625 3.67188-3.3125 0-3.76563-3.95313-3.76563-6.0625 0-1.375.25-5.70313 3.625-5.70313 2.39063 0 3.03125 1.95313 3.46875 3.29688h.71875V-12.375c-1.125-.6875-3.09375-.84375-4.01562-.84375-2.65625 0-4.42188.73438-5.51563 1.96875C1.375-9.98437.89063-8.20312.89063-6.34375m0 0"/><path id="c" d="M.71875 0h6.25v-.67187C5.32813-.78125 5.20313-.85937 5.20313-1.8125v-3.32812h1.09375c1.75 0 3.14062-.32813 4-.9375C11.23438-6.75 11.75-7.75 11.75-9.14062c0-1.46875-.65625-2.53125-1.57812-3.07813-.90625-.5625-2.14063-.70312-3.65625-.70312H.71875v.70312c1.32813.0625 1.48438.15625 1.48438 1.10938v9.29687c0 .95313-.15625 1.03125-1.48438 1.09375Zm4.48438-6.78125V-11.375c0-.51562.125-.6875 1.07812-.6875 1.25 0 2.32813.8125 2.32813 2.98438C8.60938-7.67187 8.125-6 6.23438-6 5.5-6 5.20313-6.0625 5.20313-6.78125m0 0"/><path id="d" d="M.78125-6.23437C.78125-2.5 1.875.21875 4.95313.21875S9.14063-2.5 9.14063-6.23437c0-3.75-1.10938-6.46875-4.1875-6.46875S.78125-9.98437.78125-6.23437m1.875 0c0-3.04688.53125-5.8125 2.29688-5.8125s2.28125 2.76562 2.28125 5.8125c0 3.03125-.51563 5.79687-2.28125 5.79687-1.76563 0-2.29688-2.76562-2.29688-5.79687m0 0"/><path id="e" d="m.95313 2.28125.35937.35938c.9375-.875 2.28125-2.125 2.28125-3.59375 0-1-.53125-1.6875-1.25-1.6875-.57812 0-.9375.45312-.9375.9375 0 .67187.625 1.03125.625 1.82812 0 .76563-.48437 1.5-1.07812 2.15625m0 0"/><path id="f" d="M.78125-9.85937h.48438l.1875-.39063c.23437-.51562.5-.79687 1.32812-.79687h5.04688c-.17188.67187-.53125 1.75-2.04688 3.90625C4.17188-4.82812 3.125-2.75 3.125-.53125c0 .60938.4375.75 1.01563.75.51562 0 .89062-.125.89062-.71875 0-2.85937.5-4.59375 1.40625-6.17187C7.625-8.76562 8.625-9.9375 9.28125-12.28125l-.15625-.20312H1.34375Zm0 0"/><path id="g" d="M.5-.17187.70313 0h7.71875l.64062-2.46875-.51562-.09375c-.39063 1.01563-.78125 1.15625-1.53125 1.15625H2.25c.29688-.98437 1.40625-2.3125 3.14063-3.5625C7.17188-6.28125 8.5625-7.10937 8.5625-9.20312c0-2.60938-1.71875-3.5-3.6875-3.5-2.5625 0-3.875 1.54687-3.875 2.53125 0 .625.70313.9375 1.03125.9375.32813 0 .45313-.20313.53125-.53125.29688-1.26563 1.03125-2.28125 2.1875-2.28125 1.4375 0 1.84375 1.1875 1.84375 2.5625 0 2.01562-1.01562 3.14062-2.64062 4.57812C1.65625-2.90625.85938-1.625.5-.17187m0 0"/><path id="h" d="M2.03125 0h6.14063v-.53125L6.59375-.67187c-.39062-.04688-.60937-.1875-.60937-.92188v-11l-.09375-.10937-3.85938.65625v.45312l1.75.21875c.3125.04688.4375.1875.4375.71875v9.0625c0 .73438-.1875.875-.625.92188l-1.5625.14062Zm0 0"/><path id="i" d="m.35938-3.73437.15625.39062h5.09375v1.90625c0 .64063-.20313.73438-.65625.78125L3.75-.53125V0h4.9375v-.53125l-.84375-.10937c-.4375-.0625-.54687-.15626-.54687-.79688v-1.90625h1.90625v-.875H7.29688v-8.26562h-1.375c-1.75 2.59375-3.85938 5.82812-5.5625 8.75m1.34375-.48438c1.125-2.01562 2.46875-4.1875 3.90625-6.45312v6.45312Zm0 0"/><path id="j" d="M.5-1.90625c0 .79688 1.28125 2.125 3.9375 2.125 2.70313 0 4.40625-1.375 4.40625-3.75 0-2.51562-2.14062-3.25-3.17187-3.34375v-.07812c1-.15625 2.60937-.92188 2.60937-2.76563 0-2.0625-1.60937-2.98437-3.60937-2.98437C2.20313-12.70312 1-11.26562 1-10.46875c0 .57813.65625.89063.90625.89063.23438 0 .375-.14063.45313-.375.42187-1.28125 1.125-2.09375 2.17187-2.09375C6-12.04687 6.375-10.75 6.375-9.70312c0 1.10937-.39062 2.53125-1.98437 2.53125-.89063 0-1.40625-.1875-1.625-.1875-.23438 0-.34375.1875-.34375.51562 0 .32813.10937.53125.34375.53125.21875 0 .73437-.1875 1.625-.1875C5.98438-6.5 6.875-5.0625 6.875-3.4375c0 2.21875-1.09375 3-2.42187 3-1.23438 0-2.04688-.90625-2.40625-1.96875-.125-.35937-.29688-.53125-.5625-.53125C1.15625-2.9375.5-2.57812.5-1.90625m0 0"/><path id="k" d="M.75-1.90625c0 .85938 1.3125 2.125 3.73438 2.125 3.09375 0 4.48437-1.875 4.48437-4.23437 0-2.625-1.64062-3.95313-3.85937-3.95313-1.03125 0-2.17188.45313-2.76563 1l.42188-3.54687c.0625-.46875.17187-.53125.53125-.53125h4.65625l.45312-1.28125-.09375-.15625h-6.25l-.17187.1875-.375 6.23437.45312.23438C2.75-6.71875 3.5-7.15625 4.51563-7.15625c1.1875 0 2.5.875 2.5 3.34375 0 1.92188-.78125 3.375-2.40625 3.375-1.3125 0-1.96875-.9375-2.34375-2-.09375-.28125-.28125-.46875-.53125-.46875-.39063 0-.98438.375-.98438 1m0 0"/></defs><path fill="#99F" stroke="#000" stroke-miterlimit="10" stroke-width=".39765" d="M218.96094 82.2656c0-9.84374-7.98047-17.82421-17.82422-17.82421-9.83985 0-17.82032 7.98047-17.82032 17.82422s7.98047 17.82422 17.82032 17.82422c9.84375 0 17.82422-7.98047 17.82422-17.82422Zm0 0"/><use xlink:href="#a" x="195.58032" y="88.72878"/><path fill="#99F" stroke="#000" stroke-miterlimit="10" stroke-width=".39765" d="M106.70702 195.41016c0-10.33594-8.3789-18.71094-18.71485-18.71094-10.33203 0-18.71094 8.375-18.71094 18.71094 0 10.33593 8.3789 18.71484 18.71094 18.71484 10.33594 0 18.71485-8.3789 18.71485-18.71484Zm0 0"/><use xlink:href="#b" x="81.46261" y="201.88255"/><path fill="#99F" stroke="#000" stroke-miterlimit="10" stroke-width=".39765" d="M332.59377 195.41016c0-10.11329-8.19922-18.3086-18.3086-18.3086-10.11328 0-18.3125 8.19531-18.3125 18.3086s8.19922 18.3086 18.3125 18.3086c10.10938 0 18.3086-8.19532 18.3086-18.3086Zm0 0"/><use xlink:href="#c" x="308.10743" y="201.87257"/><use xlink:href="#d" x="6.62681" y="200.44064"/><use xlink:href="#e" x="16.52841" y="200.44064"/><use xlink:href="#f" x="23.68618" y="200.44064"/><use xlink:href="#d" x="97.14105" y="87.29685"/><use xlink:href="#e" x="107.04264" y="87.29685"/><use xlink:href="#g" x="114.20042" y="87.29685"/><use xlink:href="#d" x="187.65628" y="245.69876"/><use xlink:href="#e" x="197.55787" y="245.69876"/><use xlink:href="#h" x="204.71565" y="245.69876"/><use xlink:href="#d" x="368.68575" y="200.44064"/><use xlink:href="#e" x="378.58734" y="200.44064"/><use xlink:href="#i" x="385.74512" y="200.44064"/><use xlink:href="#d" x="278.17151" y="87.29685"/><use xlink:href="#e" x="288.07311" y="87.29685"/><use xlink:href="#j" x="295.23089" y="87.29685"/><use xlink:href="#d" x="187.65628" y="313.58443"/><use xlink:href="#e" x="197.55787" y="313.58443"/><use xlink:href="#j" x="204.71565" y="313.58443"/><use xlink:href="#d" x="187.65628" y="19.41117"/><use xlink:href="#e" x="197.55787" y="19.41117"/><use xlink:href="#k" x="204.71565" y="19.41117"/><use xlink:href="#d" x="153.71294" y="143.86874"/><use xlink:href="#e" x="163.61454" y="143.86874"/><use xlink:href="#j" x="170.77232" y="143.86874"/><use xlink:href="#d" x="221.59962" y="143.86874"/><use xlink:href="#e" x="231.50121" y="143.86874"/><use xlink:href="#g" x="238.65899" y="143.86874"/><path fill="none" stroke="#000" stroke-miterlimit="10" stroke-width=".39765" d="M201.13672 100.48436c0 52.27345 94.43751 147.19924 94.43751 95.32423"/><path fill="none" stroke="#000" stroke-linecap="round" stroke-linejoin="round" stroke-miterlimit="10" stroke-width=".39765" d="M293.1914 197.67578c1.4297-.375 2.10547-1.21875 2.38282-2.0664.28125.84765.95703 1.6914 2.38672 2.0664"/><path fill="none" stroke="#000" stroke-miterlimit="10" stroke-width=".39765" d="M201.13672 100.48436c0 52.27345-94.03126 147.19924-94.03126 95.32423"/><path fill="none" stroke="#000" stroke-linecap="round" stroke-linejoin="round" stroke-miterlimit="10" stroke-width=".39765" d="M104.71875 197.67578c1.42969-.375 2.10547-1.21875 2.38672-2.0664.27734.84765.95312 1.6914 2.38281 2.0664"/><path fill="none" stroke="#000" stroke-miterlimit="10" stroke-width=".39765" d="M87.99217 176.30078c0-52.27345 94.9258-146.30862 94.9258-94.4336"/><path fill="none" stroke="#000" stroke-linecap="round" stroke-linejoin="round" stroke-miterlimit="10" stroke-width=".39765" d="M185.30469 80c-1.4336.375-2.10938 1.21875-2.38672 2.0664-.27735-.84765-.95313-1.6914-2.38672-2.0664"/><path fill="none" stroke="#000" stroke-miterlimit="10" stroke-width=".39765" d="M97.54686 211.96094c40.4375 70.03907 166.94534 69.6875 207.18362-.0039"/><path fill="none" stroke="#000" stroke-linecap="round" stroke-linejoin="round" stroke-miterlimit="10" stroke-width=".39764" d="M301.73047 212.38281c1.42969.38672 2.4336-.0039 3.10156-.59765-.1836.87109-.01953 1.9375 1.03125 2.98047"/><path fill="none" stroke="#000" stroke-miterlimit="10" stroke-width=".39765" d="M320.6797 212.98828c31.91017 87.66408-271.12894 88.04298-239.3594.7539"/><path fill="none" stroke="#000" stroke-linecap="round" stroke-linejoin="round" stroke-miterlimit="10" stroke-width=".39764" d="M78.4414 214.6836c1.47266.1328 2.39454-.42579 2.94923-1.12891-.03125.89453.3164 1.91406 1.53515 2.75781"/><path fill="none" stroke="#000" stroke-miterlimit="10" stroke-width=".39765" d="M314.28517 176.70312c0-52.27344-94.9258-146.71096-94.9258-94.83595"/><path fill="none" stroke="#000" stroke-linecap="round" stroke-linejoin="round" stroke-miterlimit="10" stroke-width=".39765" d="M221.7461 80c-1.4336.375-2.10938 1.21875-2.38672 2.0664-.27735-.84765-.95313-1.6914-2.38672-2.0664"/><path fill="none" stroke="#000" stroke-miterlimit="10" stroke-width=".39765" d="M196.42188 64.66795c-7.61329-28.41797 17.04687-28.41797 9.79296-1.34766"/><path fill="none" stroke="#000" stroke-linecap="round" stroke-linejoin="round" stroke-miterlimit="10" stroke-width=".39765" d="M209.0039 62.13281c-1.48046-.0039-2.35156.63281-2.83984 1.38281-.05078-.89453-.48437-1.8828-1.76953-2.61718"/><path fill="none" stroke="#000" stroke-miterlimit="10" stroke-width=".39765" d="M69.53514 200.35547c-29.8086 7.98828-29.8086-17.87891-1.34375-10.25"/><path fill="none" stroke="#000" stroke-linecap="round" stroke-linejoin="round" stroke-miterlimit="10" stroke-width=".39765" d="M67 187.3164c-.0039 1.48048.63281 2.35157 1.38281 2.83985-.89062.05078-1.8789.48438-2.61719 1.76953"/><path fill="none" stroke="#000" stroke-miterlimit="10" stroke-width=".39765" d="M332.35158 190.57031c29.1797-7.82031 29.1797 17.5 1.34766 10.04297"/><path fill="none" stroke="#000" stroke-linecap="round" stroke-linejoin="round" stroke-miterlimit="10" stroke-width=".39765" d="M334.88672 203.39844c.0039-1.48047-.63281-2.35157-1.38281-2.83985.89453-.04687 1.8828-.48437 2.61718-1.76953"/></svg>