<?xml version="1.0" ?><svg data-name="Layer 1" id="Layer_1" viewBox="0 0 512 512" xmlns="http://www.w3.org/2000/svg"><defs><style>.cls-1{fill:#f06060;}.cls-2{fill:#5c4b51;}.cls-3{fill:#a7a37e;}.cls-4{fill:#fffad5;}.cls-5{fill:#f5e5c0;}.cls-6{fill:#ffd34e;}.cls-7{fill:#f26101;}</style></defs><title/><rect class="cls-1" height="512" rx="256" ry="256" width="512"/><rect class="cls-2" height="275.33" rx="19.8" ry="19.8" width="373.21" x="69.39" y="126.33"/><rect class="cls-3" height="245.04" width="342.24" x="84.12" y="141.56"/><rect class="cls-4" height="231.62" width="342.24" x="84.12" y="141.56"/><rect class="cls-5" height="231.62" width="171.12" x="84.12" y="141.56"/><polygon class="cls-4" points="255.25 141.56 124.42 81.42 124.42 333.82 255.25 373.17 255.25 141.56"/><path class="cls-6" d="M267.39,107.23H271a12.14,12.14,0,0,1,12.14,12.14V293a0,0,0,0,1,0,0H255.25a0,0,0,0,1,0,0V119.37A12.14,12.14,0,0,1,267.39,107.23Z"/><polygon class="cls-6" points="255.25 293.05 255.25 307.11 269.2 297.43 283.15 307.11 283.15 293.05 255.25 293.05"/><path class="cls-7" d="M325.31,228.21l24.49-63.78h9.09L385,228.21h-9.61l-7.44-19.32H341.28l-7,19.32ZM343.71,202h21.62l-6.66-17.66q-3-8-4.52-13.23a81.29,81.29,0,0,1-3.44,12.18Z"/><rect class="cls-3" height="7.74" width="120.78" x="294.77" y="243.46"/><rect class="cls-3" height="7.74" width="120.78" x="294.77" y="262.43"/><rect class="cls-3" height="7.74" width="120.78" x="294.77" y="282.17"/><rect class="cls-3" height="7.74" width="120.78" x="294.77" y="301.47"/><rect class="cls-3" height="7.74" width="120.78" x="294.77" y="319.4"/></svg>