<?xml version="1.0" ?><svg height="24px" version="1.1" viewBox="0 0 24 24" width="24px" xmlns="http://www.w3.org/2000/svg" xmlns:sketch="http://www.bohemiancoding.com/sketch/ns" xmlns:xlink="http://www.w3.org/1999/xlink"><title/><desc/><defs/><g fill="none" fill-rule="evenodd" id="miu" stroke="none" stroke-width="1"><g id="Artboard-1" transform="translate(-683.000000, -119.000000)"><g id="slice" transform="translate(215.000000, 119.000000)"/><path d="M684,130.5 C684,124.148725 689.148725,119 695.5,119 C701.851275,119 707,124.148725 707,130.5 C707,136.851275 701.851275,142 695.5,142 C689.148725,142 684,136.851275 684,130.5 Z M694.668274,134.375 L696.125793,134.375 L696.125793,135.898438 L694.668274,135.898438 L694.668274,134.375 Z M693.093567,125.963135 C693.689273,125.321042 694.507136,125 695.54718,125 C696.509099,125 697.279355,125.274655 697.857971,125.823975 C698.436587,126.373294 698.725891,127.075191 698.725891,127.929688 C698.725891,128.447268 698.619691,128.867186 698.407288,129.189453 C698.194884,129.51172 697.766422,129.985348 697.121887,130.610352 C696.653135,131.064455 696.349183,131.448973 696.210022,131.763916 C696.070861,132.078859 696.001282,132.543942 696.001282,133.15918 L694.697571,133.15918 C694.697571,132.460934 694.780578,131.898195 694.946594,131.470947 C695.112611,131.043699 695.476377,130.554202 696.037903,130.002441 L696.62384,129.423828 C696.799622,129.257812 696.941223,129.084474 697.048645,128.903809 C697.243958,128.586424 697.341614,128.256838 697.341614,127.915039 C697.341614,127.436521 697.198793,127.021486 696.913147,126.669922 C696.627501,126.318358 696.155094,126.142578 695.495911,126.142578 C694.680477,126.142578 694.116518,126.445309 693.804016,127.050781 C693.628234,127.387697 693.528137,127.873532 693.503723,128.508301 L692.200012,128.508301 C692.200012,127.453608 692.497861,126.605228 693.093567,125.963135 C693.093567,125.963135 692.497861,126.605228 693.093567,125.963135 Z" fill="#000000" id="circle-help-question-mark-glyph"/></g></g></svg>