<?xml version="1.0" ?><!DOCTYPE svg  PUBLIC '-//W3C//DTD SVG 1.1//EN'  'http://www.w3.org/Graphics/SVG/1.1/DTD/svg11.dtd'><svg enable-background="new 0 0 128 128" id="Layer_1" version="1.1" viewBox="0 0 128 128" xml:space="preserve" xmlns="http://www.w3.org/2000/svg" xmlns:xlink="http://www.w3.org/1999/xlink"><circle cx="64" cy="64" fill="#4B5F83" id="circle" r="64"/><g id="icon"><path d="M104,87L104,87c0,2.2-1.8,4-4,4H28c-2.2,0-4-1.8-4-4v0" fill="#E6E6E6" id="keyboard"/><path d="M71.5,87L71.5,87c0,1.1-0.9,2-2,2h-11c-1.1,0-2-0.9-2-2l0,0" fill="#B3B3B3" id="touchpad"/><path d="M95,37H33c-2.2,0-4,1.8-4,4v36v6v4h4h62h4v-4v-6V41C99,38.8,97.2,37,95,37z" fill="#22313F" id="frame"/><rect fill="#22A7F0" height="42" id="screen" width="62" x="33" y="41"/></g></svg>