<svg xmlns="http://www.w3.org/2000/svg" id="svg8" width="512" height="512" version="1.1" viewBox="0 0 135.47 135.47"><g id="layer1" transform="translate(0 -161.53)"><circle id="path1366" cx="67.733" cy="229.27" r="67.733" fill="#e91e63" paint-order="normal"/><g id="g1421" transform="translate(1.3333e-6 3.3333e-6)"><path id="path2" fill="#fff" stroke-width=".265" d="m97.629 254.41h-13.509v-2.9911c3.9605-2.44 7.338-5.7393 9.8835-9.68 3.2612-5.0485 4.9853-10.906 4.9853-16.939 0-17.234-14.021-31.255-31.256-31.255s-31.255 14.021-31.255 31.255c0 6.0333 1.724 11.891 4.9855 16.939 2.5456 3.9407 5.9232 7.2398 9.8835 9.6798v2.9911h-13.51c-2.9226 0-5.2917 2.3691-5.2917 5.2917 0 2.9226 2.3691 5.2917 5.2917 5.2917h18.801c2.9226 0 5.2917-2.3691 5.2917-5.2917v-11.423c0-2.0458-1.179-3.9079-3.0279-4.7829-7.1932-3.4047-11.841-10.743-11.841-18.696 0-11.399 9.2734-20.672 20.672-20.672s20.672 9.2736 20.672 20.672c0 7.9526-4.6479 15.291-11.841 18.696-1.8486 0.87524-3.0276 2.7374-3.0276 4.7829v11.423c0 2.9226 2.3691 5.2917 5.2917 5.2917h18.801c2.9226 0 5.2917-2.3691 5.2917-5.2917 0-2.9226-2.3691-5.2917-5.2917-5.2917z"/></g></g></svg>