<svg xmlns="http://www.w3.org/2000/svg" xmlns:xlink="http://www.w3.org/1999/xlink" viewBox="0 0 105.05 82.059"><defs/><defs><symbol id="a" overflow="visible"><path d="M4.7188-6.4844c-.14062-.4375-.4375-.4375-.625-.4375h-.89062c-.1875 0-.48438 0-.625.4375L.46878-.4688c-.046875.125-.046875.15625-.046875.20312 0 .26562.25.26562.39062.26562h.35938c.17188 0 .48438 0 .625-.40625l.39062-1.0938h2.75l.34375.95312c.125.34375.1875.54688.67188.54688h.53125c.14062 0 .39062 0 .39062-.26562 0-.046875 0-.078125-.046875-.20312zM3.2032-4.4688c.14062-.45312.28125-.82812.35938-1.1875.0625.25.0625.26562.14062.5l.9375 2.7969H2.4845z"/></symbol><symbol id="b" overflow="visible"><path d="M1.3906-6.9219c-.35938 0-.48438.10938-.48438.48438v5.9531c0 .35938.10938.48438.48438.48438h2.7188c.75 0 2.5781-.125 2.5781-1.9375 0-1.4062-1.3906-1.625-1.75-1.6875.92188-.20312 1.4375-.71875 1.4375-1.5 0-1.7969-2.125-1.7969-2.5312-1.7969zm.92188 2.9688v-2.1094h1.1719c.39062 0 1.5469.03125 1.5469.96875 0 1.1406-1.3125 1.1406-1.5625 1.1406zm0 3.0938v-2.375h1.25c.35938 0 1.7344 0 1.7344 1.2812 0 1.0312-1.0625 1.0938-1.5312 1.0938z"/></symbol><symbol id="c" overflow="visible"><path d="M6.375-1.4219c0-.078125-.0625-.125-.10938-.125-.23438 0-.53125.65625-1.9219.65625-1.7656 0-2.2656-1.0781-2.2656-2.5781 0-1.4844.54688-2.5625 2.1719-2.5625.89062 0 1.3594.34375 1.625.5625.0625.0625.09375.09375.17188.09375.03125 0 .078125-.046875.09375-.09375l.20312-1.0938c0-.046875 0-.09375-.078125-.10938-.59375-.21875-1.2031-.35938-1.9844-.35938-2.4219 0-3.6719 1.1719-3.6719 3.5469 0 2.4531 1.2656 3.5781 3.6875 3.5781.84375 0 1.375-.10938 2.1094-.5625.078125-.046875.046875-.125.046875-.125z"/></symbol><symbol id="d" overflow="visible"><path d="M1.3906-6.9219c-.35938 0-.48438.10938-.48438.48438v5.9531c0 .35938.10938.48438.48438.48438h2.625c2.4375 0 3.2812-1.4531 3.2812-3.4062 0-.79688-.125-1.75-.6875-2.4688-.75-.92188-1.9375-1.0469-2.5938-1.0469zm.95312 6.0625v-5.2031h1.2812c2.1406 0 2.2344 1.5312 2.2344 2.6562S5.74994-.8594 3.62492-.8594z"/></symbol><symbol id="e" overflow="visible"><path d="M2.375-3.0938H5c.29688 0 .46875-.078125.46875-.46875 0-.375-.125-.46875-.46875-.46875H2.375v-1.8438h.48438c.78125 0 1.5625.015625 2.3438.015625.34375 0 .57812 0 .57812-.46875v-.078125c0-.32812-.0625-.48438-.48438-.48438h-3.9062c-.35938 0-.48438.10938-.48438.48438v5.9219c0 .35938.10938.48438.48438.48438h4.0625c.375 0 .48438-.125.48438-.48438v-.14062c0-.46875-.23438-.46875-.5625-.46875-.51562 0-1.0312.015625-1.5469.015625-.25 0-1.2812.015625-1.4531.015625z"/></symbol></defs><path fill="#91c7ff" stroke="#000" stroke-miterlimit="10" stroke-width=".399" d="M48.159 9.898c0-5.3594-4.3438-9.7031-9.7031-9.7031s-9.7031 4.3438-9.7031 9.7031c0 5.3555 4.3438 9.6992 9.7031 9.6992s9.7031-4.3438 9.7031-9.6992z"/><use width="100%" height="100%" x="183.515" y="221.216" transform="translate(-148.71 -207.86)" xlink:href="#a"/><path fill="#91c7ff" stroke="#000" stroke-miterlimit="10" stroke-width=".399" d="M104.854 18.402c0-5.3594-4.3438-9.7031-9.7031-9.7031s-9.7031 4.3438-9.7031 9.7031c0 5.3555 4.3438 9.6992 9.7031 9.6992s9.7031-4.3438 9.7031-9.6992z"/><use width="100%" height="100%" x="240.208" y="229.72" transform="translate(-148.71 -207.86)" xlink:href="#b"/><path fill="#91c7ff" stroke="#000" stroke-miterlimit="10" stroke-width=".399" d="M70.729 72.2611c0-5.3008-4.2969-9.5977-9.5938-9.5977-5.3008 0-9.5977 4.2969-9.5977 9.5977 0 5.2969 4.2969 9.5938 9.5977 9.5938 5.2969 0 9.5938-4.2969 9.5938-9.5938z"/><use width="100%" height="100%" x="206.345" y="283.578" transform="translate(-148.71 -207.86)" xlink:href="#c"/><path fill="#91c7ff" stroke="#000" stroke-miterlimit="10" stroke-width=".399" d="M20.0224 66.58921875c0-5.4727-4.4375-9.9102-9.9141-9.9102-5.4727 0-9.9102 4.4375-9.9102 9.9102s4.4375 9.9102 9.9102 9.9102c5.4766 0 9.9141-4.4375 9.9141-9.9102z"/><use width="100%" height="100%" x="154.865" y="277.909" transform="translate(-148.71 -207.86)" xlink:href="#d"/><path fill="#91c7ff" stroke="#000" stroke-miterlimit="10" stroke-width=".399" d="M62.011 38.242c0-5.1797-4.1992-9.3789-9.3789-9.3789-5.1836 0-9.3828 4.1992-9.3828 9.3789 0 5.1836 4.1992 9.3828 9.3828 9.3828 5.1797 0 9.3789-4.1992 9.3789-9.3828z"/><use width="100%" height="100%" x="198.145" y="249.563" transform="translate(-148.71 -207.86)" xlink:href="#e"/><path fill="none" stroke="#000" stroke-miterlimit="10" stroke-width=".399" d="M48.265 11.367l36.625 5.4961"/><path fill="none" stroke="#000" stroke-linecap="round" stroke-linejoin="round" stroke-miterlimit="10" stroke-width=".31900319000000005" d="M83.94287189 15.10698924c.011719.60547102.96092965 1.65628748 1.24218825 1.79686799-.30858904.05468867-1.52732591.77734867-1.71487093 1.35550682"/><path fill="none" stroke="#000" stroke-miterlimit="10" stroke-width=".399" d="M89.858 26.777L66.612 63.586"/><path fill="none" stroke="#000" stroke-linecap="round" stroke-linejoin="round" stroke-miterlimit="10" stroke-width=".31922968" d="M68.59764556 63.42019168c-.55858817-.23437554-1.90238746.21484357-2.14845842.41403309.07812567-.3085949-.09764742-1.7148527-.55074614-2.11715778"/><path fill="none" stroke="#000" stroke-miterlimit="10" stroke-width=".399" d="M51.397 71.1791l-30.781-3.4219"/><path fill="none" stroke="#000" stroke-linecap="round" stroke-linejoin="round" stroke-miterlimit="10" stroke-width=".31903827999999995" d="M21.6332465 69.47506437c-.03515712-.60546483-1.023418-1.61717746-1.3085639-1.7460648.30469083-.0664056 1.49605392-.83984785 1.66013858-1.42185737"/><path fill="none" stroke="#000" stroke-miterlimit="10" stroke-width=".399" d="M42.901 18.788l5.2383 10.473"/><path fill="none" stroke="#000" stroke-linecap="round" stroke-linejoin="round" stroke-miterlimit="10" stroke-width=".32027280999999996" d="M49.0342733 27.4697921c-.49218482.35937511-.8046529 1.7460712-.7617734 2.0585752-.2226582-.22265955-1.51952376-.80466637-2.1015445-.625008"/><path fill="none" stroke="#000" stroke-miterlimit="10" stroke-width=".399" d="M18.5458 60.9642l25.707-17.137"/><path fill="none" stroke="#000" stroke-linecap="round" stroke-linejoin="round" stroke-miterlimit="10" stroke-width=".31998571000000003" d="M42.36472977 43.16424364c.41796767.44530838 1.82815172.58207283 2.13281554.49999291-.19140608.25000342-.60937681 1.60546608-.35941343 2.16013172"/></svg>