<svg xmlns="http://www.w3.org/2000/svg" xmlns:xlink="http://www.w3.org/1999/xlink" viewBox="0 0 133.08 48.148"><defs><symbol id="a" overflow="visible"><path d="M4.7188-6.4844c-.14062-.4375-.4375-.4375-.625-.4375h-.89062c-.1875 0-.48438 0-.625.4375L.46878-.4688c-.046875.125-.046875.15625-.046875.20312 0 .26562.25.26562.39062.26562h.35938c.17188 0 .48438 0 .625-.40625l.39062-1.0938h2.75l.34375.95312c.125.34375.1875.54688.67188.54688h.53125c.14062 0 .39062 0 .39062-.26562 0-.046875 0-.078125-.046875-.20312zM3.2032-4.4688c.14062-.45312.28125-.82812.35938-1.1875.0625.25.0625.26562.14062.5l.9375 2.7969H2.4845z"/></symbol><symbol id="b" overflow="visible"><path d="M1.3906-6.9219c-.35938 0-.48438.10938-.48438.48438v5.9531c0 .35938.10938.48438.48438.48438h2.7188c.75 0 2.5781-.125 2.5781-1.9375 0-1.4062-1.3906-1.625-1.75-1.6875.92188-.20312 1.4375-.71875 1.4375-1.5 0-1.7969-2.125-1.7969-2.5312-1.7969zm.92188 2.9688v-2.1094h1.1719c.39062 0 1.5469.03125 1.5469.96875 0 1.1406-1.3125 1.1406-1.5625 1.1406zm0 3.0938v-2.375h1.25c.35938 0 1.7344 0 1.7344 1.2812 0 1.0312-1.0625 1.0938-1.5312 1.0938z"/></symbol><symbol id="c" overflow="visible"><path d="M6.375-1.4219c0-.078125-.0625-.125-.10938-.125-.23438 0-.53125.65625-1.9219.65625-1.7656 0-2.2656-1.0781-2.2656-2.5781 0-1.4844.54688-2.5625 2.1719-2.5625.89062 0 1.3594.34375 1.625.5625.0625.0625.09375.09375.17188.09375.03125 0 .078125-.046875.09375-.09375l.20312-1.0938c0-.046875 0-.09375-.078125-.10938-.59375-.21875-1.2031-.35938-1.9844-.35938-2.4219 0-3.6719 1.1719-3.6719 3.5469 0 2.4531 1.2656 3.5781 3.6875 3.5781.84375 0 1.375-.10938 2.1094-.5625.078125-.046875.046875-.125.046875-.125z"/></symbol></defs><path fill="#91c7ff" stroke="#000" stroke-miterlimit="10" stroke-width=".399" d="M76.1933 38.252c0-5.3555-4.3438-9.6992-9.7031-9.6992-5.3594 0-9.7031 4.3438-9.7031 9.6992 0 5.3594 4.3438 9.7031 9.7031 9.7031 5.3594 0 9.7031-4.3438 9.7031-9.7031z"/><use width="100%" height="100%" x="211.546" y="487.172" transform="translate(-148.71 -445.46)" xlink:href="#a"/><path fill="#91c7ff" stroke="#000" stroke-miterlimit="10" stroke-width=".399" d="M132.885 9.908c0-5.3594-4.3438-9.7031-9.6992-9.7031-5.3594 0-9.7031 4.3438-9.7031 9.7031 0 5.3555 4.3438 9.6992 9.7031 9.6992 5.3555 0 9.6992-4.3438 9.6992-9.6992z"/><use width="100%" height="100%" x="268.239" y="458.826" transform="translate(-148.71 -445.46)" xlink:href="#b"/><path fill="#91c7ff" stroke="#000" stroke-miterlimit="10" stroke-width=".399" d="M19.393 9.908c0-5.3008-4.2969-9.5977-9.5977-9.5977C4.4984.3103.2015 4.6072.2015 9.908c0 5.2969 4.2969 9.5938 9.5938 9.5938 5.3008 0 9.5977-4.2969 9.5977-9.5938z"/><use width="100%" height="100%" x="155.005" y="458.826" transform="translate(-148.71 -445.46)" xlink:href="#c"/><path fill="none" stroke="#000" stroke-miterlimit="10" stroke-width=".399" d="M75.3457 33.826l38.57-19.285"/><path fill="none" stroke="#000" stroke-linecap="round" stroke-linejoin="round" stroke-miterlimit="10" stroke-width=".319" d="M112.13718138 13.64715719c.35546907.49218806 1.73827552.804653 2.05083156.75782711-.22265905.22265811-.80081344 1.5156444-.62500476 2.09376273"/><path fill="none" stroke="#000" stroke-miterlimit="10" stroke-width=".399" d="M113.283 9.908H20.049"/><path fill="none" stroke="#000" stroke-linecap="round" stroke-linejoin="round" stroke-miterlimit="10" stroke-width=".319" d="M21.2454 11.5056c-.097656-.59766-1.1953-1.4961-1.4961-1.5938.30078-.10156 1.3984-1 1.4961-1.5977"/><path fill="none" stroke="#000" stroke-miterlimit="10" stroke-width=".399" d="M18.557 14.287l38.668 19.332"/><path fill="none" stroke="#000" stroke-linecap="round" stroke-linejoin="round" stroke-miterlimit="10" stroke-width=".319" d="M56.86514203 31.65791972c-.17968822.58203383.39846397 1.871073.62112674 2.09768332-.31250255-.04687573-1.69139146.26562775-2.04688314.7538618"/></svg>