<svg xmlns="http://www.w3.org/2000/svg" xmlns:xlink="http://www.w3.org/1999/xlink" viewBox="0 0 73.871 79.223"><defs/><defs><symbol id="a" overflow="visible"><path d="M4.7188-6.4844c-.14062-.4375-.4375-.4375-.625-.4375h-.89062c-.1875 0-.48438 0-.625.4375L.46878-.4688c-.046875.125-.046875.15625-.046875.20312 0 .26562.25.26562.39062.26562h.35938c.17188 0 .48438 0 .625-.40625l.39062-1.0938h2.75l.34375.95312c.125.34375.1875.54688.67188.54688h.53125c.14062 0 .39062 0 .39062-.26562 0-.046875 0-.078125-.046875-.20312zM3.2032-4.4688c.14062-.45312.28125-.82812.35938-1.1875.0625.25.0625.26562.14062.5l.9375 2.7969H2.4845z"/></symbol><symbol id="b" overflow="visible"><path d="M1.3906-6.9219c-.35938 0-.48438.10938-.48438.48438v5.9531c0 .35938.10938.48438.48438.48438h2.7188c.75 0 2.5781-.125 2.5781-1.9375 0-1.4062-1.3906-1.625-1.75-1.6875.92188-.20312 1.4375-.71875 1.4375-1.5 0-1.7969-2.125-1.7969-2.5312-1.7969zm.92188 2.9688v-2.1094h1.1719c.39062 0 1.5469.03125 1.5469.96875 0 1.1406-1.3125 1.1406-1.5625 1.1406zm0 3.0938v-2.375h1.25c.35938 0 1.7344 0 1.7344 1.2812 0 1.0312-1.0625 1.0938-1.5312 1.0938z"/></symbol><symbol id="c" overflow="visible"><path d="M6.375-1.4219c0-.078125-.0625-.125-.10938-.125-.23438 0-.53125.65625-1.9219.65625-1.7656 0-2.2656-1.0781-2.2656-2.5781 0-1.4844.54688-2.5625 2.1719-2.5625.89062 0 1.3594.34375 1.625.5625.0625.0625.09375.09375.17188.09375.03125 0 .078125-.046875.09375-.09375l.20312-1.0938c0-.046875 0-.09375-.078125-.10938-.59375-.21875-1.2031-.35938-1.9844-.35938-2.4219 0-3.6719 1.1719-3.6719 3.5469 0 2.4531 1.2656 3.5781 3.6875 3.5781.84375 0 1.375-.10938 2.1094-.5625.078125-.046875.046875-.125.046875-.125z"/></symbol><symbol id="d" overflow="visible"><path d="M1.3906-6.9219c-.35938 0-.48438.10938-.48438.48438v5.9531c0 .35938.10938.48438.48438.48438h2.625c2.4375 0 3.2812-1.4531 3.2812-3.4062 0-.79688-.125-1.75-.6875-2.4688-.75-.92188-1.9375-1.0469-2.5938-1.0469zm.95312 6.0625v-5.2031h1.2812c2.1406 0 2.2344 1.5312 2.2344 2.6562S5.74994-.8594 3.62492-.8594z"/></symbol></defs><path fill="#91c7ff" stroke="#000" stroke-miterlimit="10" stroke-width=".399" d="M22.647 66.4835c0-5.3555-4.3438-9.6992-9.7031-9.6992s-9.7031 4.3438-9.7031 9.6992c0 5.3594 4.3438 9.7031 9.7031 9.7031s9.7031-4.3438 9.7031-9.7031z"/><use width="100%" height="100%" x="158.004" y="435.192" transform="translate(-148.71 -365.25)" xlink:href="#a"/><path fill="#91c7ff" stroke="#000" stroke-miterlimit="10" stroke-width=".399" d="M73.671 69.31940625c0-5.3594-4.3438-9.7031-9.7031-9.7031-5.3555 0-9.7031 4.3438-9.7031 9.7031 0 5.3594 4.3477 9.7031 9.7031 9.7031 5.3594 0 9.7031-4.3438 9.7031-9.7031z"/><use width="100%" height="100%" x="209.027" y="438.027" transform="translate(-148.71 -365.25)" xlink:href="#b"/><path fill="#91c7ff" stroke="#000" stroke-miterlimit="10" stroke-width=".399" d="M70.729 9.792c0-5.3008-4.2969-9.5938-9.5938-9.5938-5.3008 0-9.5977 4.293-9.5977 9.5938 0 5.2969 4.2969 9.5938 9.5977 9.5938 5.2969 0 9.5938-4.2969 9.5938-9.5938z"/><use width="100%" height="100%" x="206.345" y="378.499" transform="translate(-148.71 -365.25)" xlink:href="#c"/><path fill="#91c7ff" stroke="#000" stroke-miterlimit="10" stroke-width=".399" d="M20.0224 15.46c0-5.4727-4.4375-9.9102-9.9141-9.9102-5.4727 0-9.9102 4.4375-9.9102 9.9102 0 5.4766 4.4375 9.9102 9.9102 9.9102 5.4766 0 9.9141-4.4336 9.9141-9.9102z"/><use width="100%" height="100%" x="154.865" y="384.169" transform="translate(-148.71 -365.25)" xlink:href="#d"/><path fill="none" stroke="#000" stroke-miterlimit="10" stroke-width=".399" d="M22.835 67.0342l31.246 1.7383m9.418-9.3477l-1.8984-39.848m-10.203-8.7031l-31.238 3.4727m-9.4883 11.211l1.7266 31.039m6.9922 2.3086l35.371-41.613m2.207 45.027l-39.711-39.711"/></svg>