<svg xmlns="http://www.w3.org/2000/svg" xmlns:xlink="http://www.w3.org/1999/xlink" viewBox="0 0 133.08 73.34"><defs><symbol id="a" overflow="visible"><path d="M4.7188-6.4844c-.14062-.4375-.4375-.4375-.625-.4375h-.89062c-.1875 0-.48438 0-.625.4375L.46878-.4688c-.046875.125-.046875.15625-.046875.20312 0 .26562.25.26562.39062.26562h.35938c.17188 0 .48438 0 .625-.40625l.39062-1.0938h2.75l.34375.95312c.125.34375.1875.54688.67188.54688h.53125c.14062 0 .39062 0 .39062-.26562 0-.046875 0-.078125-.046875-.20312zM3.2032-4.4688c.14062-.45312.28125-.82812.35938-1.1875.0625.25.0625.26562.14062.5l.9375 2.7969H2.4845z"/></symbol><symbol id="b" overflow="visible"><path d="M1.3906-6.9219c-.35938 0-.48438.10938-.48438.48438v5.9531c0 .35938.10938.48438.48438.48438h2.7188c.75 0 2.5781-.125 2.5781-1.9375 0-1.4062-1.3906-1.625-1.75-1.6875.92188-.20312 1.4375-.71875 1.4375-1.5 0-1.7969-2.125-1.7969-2.5312-1.7969zm.92188 2.9688v-2.1094h1.1719c.39062 0 1.5469.03125 1.5469.96875 0 1.1406-1.3125 1.1406-1.5625 1.1406zm0 3.0938v-2.375h1.25c.35938 0 1.7344 0 1.7344 1.2812 0 1.0312-1.0625 1.0938-1.5312 1.0938z"/></symbol><symbol id="c" overflow="visible"><path d="M6.375-1.4219c0-.078125-.0625-.125-.10938-.125-.23438 0-.53125.65625-1.9219.65625-1.7656 0-2.2656-1.0781-2.2656-2.5781 0-1.4844.54688-2.5625 2.1719-2.5625.89062 0 1.3594.34375 1.625.5625.0625.0625.09375.09375.17188.09375.03125 0 .078125-.046875.09375-.09375l.20312-1.0938c0-.046875 0-.09375-.078125-.10938-.59375-.21875-1.2031-.35938-1.9844-.35938-2.4219 0-3.6719 1.1719-3.6719 3.5469 0 2.4531 1.2656 3.5781 3.6875 3.5781.84375 0 1.375-.10938 2.1094-.5625.078125-.046875.046875-.125.046875-.125z"/></symbol><symbol id="d" overflow="visible"><path d="M1.3906-6.9219c-.35938 0-.48438.10938-.48438.48438v5.9531c0 .35938.10938.48438.48438.48438h2.625c2.4375 0 3.2812-1.4531 3.2812-3.4062 0-.79688-.125-1.75-.6875-2.4688-.75-.92188-1.9375-1.0469-2.5938-1.0469zm.95312 6.0625v-5.2031h1.2812c2.1406 0 2.2344 1.5312 2.2344 2.6562S5.74994-.8594 3.62492-.8594z"/></symbol><symbol id="e" overflow="visible"><path d="M2.375-3.0938H5c.29688 0 .46875-.078125.46875-.46875 0-.375-.125-.46875-.46875-.46875H2.375v-1.8438h.48438c.78125 0 1.5625.015625 2.3438.015625.34375 0 .57812 0 .57812-.46875v-.078125c0-.32812-.0625-.48438-.48438-.48438h-3.9062c-.35938 0-.48438.10938-.48438.48438v5.9219c0 .35938.10938.48438.48438.48438h4.0625c.375 0 .48438-.125.48438-.48438v-.14062c0-.46875-.23438-.46875-.5625-.46875-.51562 0-1.0312.015625-1.5469.015625-.25 0-1.2812.015625-1.4531.015625z"/></symbol></defs><path fill="#91c7ff" stroke="#000" stroke-miterlimit="10" stroke-width=".399" d="M76.1933 15.566c0-5.3594-4.3438-9.7031-9.7031-9.7031-5.3594 0-9.7031 4.3438-9.7031 9.7031s4.3438 9.7031 9.7031 9.7031c5.3594 0 9.7031-4.3438 9.7031-9.7031z"/><use width="100%" height="100%" x="211.546" y="309.939" transform="translate(-148.71 -290.91)" xlink:href="#a"/><path fill="#91c7ff" stroke="#000" stroke-miterlimit="10" stroke-width=".399" d="M132.885 9.895c0-5.3555-4.3438-9.6992-9.6992-9.6992-5.3594 0-9.7031 4.3438-9.7031 9.6992 0 5.3594 4.3438 9.7031 9.7031 9.7031 5.3555 0 9.6992-4.3438 9.6992-9.7031z"/><use width="100%" height="100%" x="268.239" y="304.27" transform="translate(-148.71 -290.91)" xlink:href="#b"/><path fill="#91c7ff" stroke="#000" stroke-miterlimit="10" stroke-width=".399" d="M19.393 9.895c0-5.2969-4.2969-9.5938-9.5977-9.5938C4.4984.3012.2015 4.5981.2015 9.895c0 5.3008 4.2969 9.5977 9.5938 9.5977 5.3008 0 9.5977-4.2969 9.5977-9.5977z"/><use width="100%" height="100%" x="155.005" y="304.27" transform="translate(-148.71 -290.91)" xlink:href="#c"/><path fill="#91c7ff" stroke="#000" stroke-miterlimit="10" stroke-width=".399" d="M82.068 60.9219c0-5.4766-4.4375-9.9102-9.9102-9.9102s-9.9102 4.4336-9.9102 9.9102c0 5.4727 4.4375 9.9102 9.9102 9.9102s9.9102-4.4375 9.9102-9.9102z"/><use width="100%" height="100%" x="216.911" y="355.294" transform="translate(-148.71 -290.91)" xlink:href="#d"/><path fill="#91c7ff" stroke="#000" stroke-miterlimit="10" stroke-width=".399" d="M126.896 63.754c0-5.1797-4.1992-9.3789-9.3828-9.3789-5.1797 0-9.3828 4.1992-9.3828 9.3789 0 5.1836 4.2031 9.3828 9.3828 9.3828 5.1836 0 9.3828-4.1992 9.3828-9.3828z"/><use width="100%" height="100%" x="263.026" y="358.128" transform="translate(-148.71 -290.91)" xlink:href="#e"/><path fill="none" stroke="#000" stroke-miterlimit="10" stroke-width=".399" d="M73.7051 22.379l36.496 34.469"/><path fill="none" stroke="#000" stroke-linecap="round" stroke-linejoin="round" stroke-miterlimit="10" stroke-width=".32" d="M110.42423374 54.86674718c-.3359355.50390965-.15627291 1.91013172-.00783764 2.18750357-.28515429-.13281058-1.69920461-.23435992-2.18356174.13278277"/><path fill="none" stroke="#000" stroke-miterlimit="10" stroke-width=".399" d="M107.951 63.1563l-25.242-1.5781"/><path fill="none" stroke="#000" stroke-linecap="round" stroke-linejoin="round" stroke-miterlimit="10" stroke-width=".319" d="M83.80447587 63.24634244c-.06250305-.60546557-1.1015249-1.5663727-1.39452854-1.68359033.30468357-.0820312 1.45700952-.91015427 1.59377654-1.49995022"/><path fill="none" stroke="#000" stroke-miterlimit="10" stroke-width=".399" d="M79.307 53.774l36.551-36.551"/><path fill="none" stroke="#000" stroke-linecap="round" stroke-linejoin="round" stroke-miterlimit="10" stroke-width=".319" d="M113.886931 16.94957111c.49218941.35156429 1.90235896.2109877 2.18358457.0703495-.14062372.28124805-.28123411 1.69138772.07036739 2.18358854"/><path fill="none" stroke="#000" stroke-miterlimit="10" stroke-width=".399" d="M19.275 7.356c15.309-4.1016 15.309 9.1836 1.4062 5.457"/><path fill="none" stroke="#000" stroke-linecap="round" stroke-linejoin="round" stroke-miterlimit="10" stroke-width=".32" d="M21.42477737 14.6744541c.05859351-.60546576-.76954004-1.75777399-1.0351734-1.93360899.31640276-.01562558 1.60935032-.60156794 1.8594082-1.15235267"/></svg>