<svg xmlns="http://www.w3.org/2000/svg" width="24" height="24"><g><title>background</title><rect id="canvas_background" width="582" height="402" x="-1" y="-1" fill="none"/></g><g><title>Layer 1</title><path id="svg_3" fill="#ecf0f1" d="m8.9868,1.999976l0,7.8c-1.8639,2.9 -3.8033,5.8 -5.625,8.8c-0.9343,1.5 -0.0087,3.8 1.7506,4.2c1.2656,0.3 2.5733,0.1 3.8564,0.2c3.1672,0 6.3372,0 9.5032,-0.1c2.044,-0.2 3.264,-2.8 2.077,-4.5c-1.813,-2.9 -3.721,-5.7 -5.562,-8.6l0,-7.8l-6.0002,0z"/><path id="svg_4" fill="#e74c3c" d="m16,14.499976c0,0.82875 -0.67125,1.5 -1.5,1.5s-1.5,-0.67125 -1.5,-1.5s0.67125,-1.5 1.5,-1.5s1.5,0.67125 1.5,1.5z"/><path id="svg_5" fill="#bdc3c7" d="m9,1.999976l0,7.8c-1.8639,2.9 -3.8033,5.8 -5.625,8.8c-0.9343,1.5 -0.0092,3.8 1.75,4.2c1.2656,0.3 2.5607,0.1 3.8438,0.2l3.0002,0l0,-21l-2.969,0z"/><path id="svg_6" fill="#e74c3c" d="m13,13.956012c0,1.105 -0.895,2 -2,2s-2,-0.895 -2,-2s0.895,-2 2,-2s2,0.895 2,2z"/><path id="svg_7" fill="#e74c3c" d="m7.4729,13.999976c-1.098,1.7 -2.2018,3.4 -3.2812,5.1c-0.6853,1.2 0.3032,2.8 1.6875,2.9l12.313,0c1.396,-0.1 2.274,-1.9 1.5,-3c-1.071,-1.7 -2.149,-3.4 -3.219,-5l-9.0001,0l-0.0002,0z"/><path id="svg_8" fill="#95a5a6" d="m20.938,19.399976c-0.196,1.3 -1.139,2.4 -2.469,2.5c-3.166,0.1 -6.333,0.1 -9.5002,0.1c-1.2831,-0.1 -2.5782,0.1 -3.8438,-0.2c-1.0898,-0.3 -1.8878,-1.2 -2.0938,-2.3c-0.2203,1.4 0.6652,3 2.0938,3.3c1.2656,0.3 2.5607,0.1 3.8438,0.2c3.1672,0 6.3342,0 9.5002,-0.1c1.683,-0.1 2.787,-1.9 2.469,-3.5z"/><path id="svg_9" fill="#c0392b" d="m7.4688,13.999976c-1.0981,1.7 -2.2019,3.4 -3.2813,5.1c-0.6853,1.2 0.3032,2.9 1.6875,2.9l6.094,0l0,-8l-4.5002,0z"/><path id="svg_10" fill="#c0392b" d="m7.4531,13.999976c-0.2127,0.3 -0.412,0.6 -0.625,1l10.281,0c-0.215,-0.4 -0.441,-0.7 -0.656,-1l-8.9999,0l-0.0001,0z"/></g></svg>