<svg xmlns="http://www.w3.org/2000/svg" id="Layer_1" enable-background="new 0 0 512 512" version="1.1" viewBox="0 0 512 512" xml:space="preserve"><metadata id="metadata119"/><g id="g8" fill="#fff"><path id="path4" d="m117.7 306.05c1.84 0 3.613 0.288 5.276 0.817 3.925-6.569 11.1-10.966 19.307-10.966 12.267 0 22.238 9.828 22.469 22.04 0.263-0.017 0.528-0.026 0.797-0.026 6.335 0 11.468 5.133 11.468 11.466 0 6.336-5.133 11.469-11.468 11.469-3.858 0-7.272-1.905-9.349-4.826-3.827 3.022-8.661 4.826-13.918 4.826-4.92 0-9.47-1.583-13.171-4.265-3.055 2.656-7.047 4.265-11.411 4.265-9.609 0-17.399-7.792-17.399-17.401-1e-3 -9.61 7.79-17.399 17.399-17.399z"/><path id="path6" d="m432.72 214.65c-2.451 0-4.812 0.379-7.029 1.084-5.227-8.747-14.79-14.607-25.72-14.607-16.343 0-29.625 13.096-29.933 29.364-0.351-0.025-0.705-0.037-1.061-0.037-8.44 0-15.278 6.838-15.278 15.276 0 8.439 6.838 15.277 15.278 15.277 5.139 0 9.686-2.538 12.453-6.429 5.099 4.027 11.54 6.429 18.541 6.429 6.554 0 12.617-2.108 17.547-5.682 4.069 3.539 9.386 5.682 15.202 5.682 12.804 0 23.181-10.378 23.181-23.18 0-12.8-10.378-23.177-23.181-23.177z"/></g><path id="path10" fill="#666" d="m244.63 42.661 21.268 45.601c-2.717 31.013-36.987 67.167-78.559 83.532-39.615 15.594-86.172 12.627-106.51-6.706l-18.786-45.514 99.479-7.91 83.112-69.003z"/><path id="path12" fill="#C8CACC" d="m1.63 126.83-0.494-1.218 120.1-112.87 164.79-3.13 0.495 1.219-118.46 116.91-166.43-0.908z"/><path id="path14" fill="#FF816F" d="m68.739 253.75-8.07 51.66c-0.13 0.837 2.709 1.979 4.063 0.298 1.778 2.132 4.135 1.258 4.841-0.215 0.892 1.46 2.997 2.267 4.526 0.085 1.354 1.68 4.379 0.51 4.156-0.897l-8.015-50.975c-0.204-0.761-1.395-0.63-1.501 0.044z"/><path id="path16" fill="#807D7D" d="m1.136 125.62 119.42-114.55 165.47-1.455-119.42 114.54-165.47 1.46z"/><path id="path18" fill="#fff" d="m144.32 66.648c0.758-0.607 1.864-0.486 2.471 0.271 0.606 0.757 0.486 1.861-0.271 2.468l-80.396 64.851 4.952 119.51c0.367 0.899-0.067 1.926-0.967 2.29-0.898 0.368-1.925-0.065-2.293-0.964l-5.442-120.72c-0.285-0.704-0.092-1.537 0.528-2.033l81.418-65.674z"/><path id="path20" fill="#FFBA1B" d="m69.466 245.65c4.418 0 7.998 3.579 7.998 7.995 0 4.418-3.58 7.997-7.998 7.997s-7.997-3.579-7.997-7.997c0-4.417 3.579-7.995 7.997-7.995z"/><path id="path22" fill="#F5A209" d="m75.948 251.61c0 3.348-2.126 6.197-5.102 7.268-0.818 0.294-1.7 0.454-2.619 0.454-0.05 0-0.1 0-0.15-2e-3 -2.632-0.051-4.942-1.416-6.298-3.468 0.805 2.797 3.095 4.968 5.966 5.597 0.554 0.121 1.129 0.186 1.721 0.186 0.613 0 1.209-0.07 1.782-0.199 3.561-0.809 6.214-3.992 6.214-7.797 0-2.283-0.956-4.342-2.488-5.798 0.62 1.112 0.974 2.394 0.974 3.759z"/><path id="path24" fill="#F0B97D" d="m202.64 236.84 40.398-25.226c5.653 0.114 7.34 9.409 3.135 14.662l-35.707 23.233-7.826-12.669z"/><path id="path26" fill="#FED198" d="m215.67 195.24-29.906 46.532 19.881 63.048 10.638-39.647-8.404-25.938 18.74-33.56c3.892-8.591-5.431-17.58-10.949-10.435z"/><path id="path28" fill="#F0B97D" d="m283.51 272.3-3.383 21.591-1.328 8.482-34.467-12.16 40.934 61.078 10.278 83.343c1.404-1.159-0.95-76.107 0.263-77.889 4.649-6.844 7.878-18.378 9.468-35.282l-0.256-28.937-0.256-15.365 3.492-16.445c-8.68-4.799-21.359 0-24.745 11.584z"/><g id="g34" fill="#FED198"><path id="path30" d="m204.9 309.41 12.034-57.869 39.562-16.005c4.821 2.682 6.602 5.384 2.712 13.525l-19.997 10.417 5.119 30.73c35.356 19.036 46.67 41.495 44.473 69.407 1.221 24.494 5.518 50.523 6.739 75.014l-59.405 1.537 13.314-64.016-44.551-62.74z"/><path id="path32" d="m186.84 188.81 0.471 50.549 13.405-20.858-1.584-26.363c0 1e-3 -4.483-10.498-12.292-3.328z"/></g><path id="path36" fill="#20D0C2" d="m216.38 420.19h104.89l2.112 82.821c-21.474 5.845-44.063 8.982-67.388 8.982-14.26 0-28.241-1.185-41.865-3.425l2.252-88.378z"/><g id="g48" fill="#fff"><path id="path38" d="m227.13 420.19h83.403v-20.139h-83.403v20.139z"/><path id="path40" d="m187.33 196.83-0.186-7.799s3.56-0.849 3.851 0.948c0.292 1.795 0.249 6.78 0.249 6.78l-3.914 0.071z"/><path id="path42" d="m212.98 200.54 4.624-6.284s3.336 1.506 2.467 3.106c-0.869 1.598-3.951 5.517-3.951 5.517l-3.14-2.339z"/><path id="path44" d="m249.29 239.65 7.049-3.346s2.224 2.907 0.704 3.904c-1.523 0.998-6.094 2.988-6.094 2.988l-1.659-3.546z"/><path id="path46" d="m249.51 168.87 154.21-97.863c18.44-5.797 32.692 31.159 21.184 37.548l-150.02 98.496c-8.519 5.609-20.998-7.306-25.12-21.796-2.188-7.696-0.015-7.94 8.077-13.422l-8.335-2.963z"/></g><path id="path50" fill="#FFBA1B" d="m350.72 104.66c12.866-1.014 28.44 26.558 24.191 36.719l-20.734 13.613c0.98-14.803-13.19-35.902-26.258-35.853l22.801-14.479z"/><path id="path52" fill="#F5A209" d="m404.36 155.47-29.447-14.087-20.734 13.613 23.874 17.712 5.792-15.03 20.515-2.208z"/><path id="path54" fill="#DFE1E3" d="m256.86 172.54 0.991-0.705c7.164-0.16 24.715 21.681 12.782 30.099-8.49 5.988-17.435-13.338-18.612-20.147 3.364-3.783 10.434 7.372 9.109 7.958l-2.655 1.176s1.28 5.29 4.059 5.048l9.966-5.904c0 1e-3 -4.404-15.454-15.64-17.525z"/></svg>