<svg xmlns="http://www.w3.org/2000/svg" id="Layer_1" enable-background="new 0 0 512 512" version="1.1" viewBox="0 0 512 512" xml:space="preserve"><metadata id="metadata89"/><g id="g943" transform="translate(29.916)"><path id="path4" fill="#fed198" stroke-width=".825" d="m203.68 244.39h44.799l3.6294 37.757 10.964 8.0486 65.232 20.677s8.5545 4.7064 11.069 17.866c2.5088 13.16 3.7309 42.257 5.6719 60.011-44.629 51.15-190.25 51.229-237.93 2e-3 1.941-17.754 3.159-46.853 5.6711-60.014 2.5112-13.159 11.069-17.866 11.069-17.866l65.678-20.962 10.518-7.7598 3.6245-37.76z"/><path id="path6" fill="#f0b97d" stroke-width=".825" d="m250.45 264.89 0.57602 5.9896c-3.3356 3.8836-6.7711 7.5947-10.018 11.169-3.6798 4.0503-26.452 4.1229-30.169-0.16422-3.0352-3.5032-6.3709-7.2985-9.6711-11.336l0.57107-5.9492c3.1128 3.6121 6.2413 7.0146 9.1 10.167 3.7177 4.0957 26.49 4.0264 30.169 0.15597 3.0608-3.2201 6.2876-6.5533 9.4416-10.032z"/><path id="path8" fill="#ff5b61" stroke-width=".825" d="m189.54 289.91-65.68 20.961s-8.5553 4.7064-11.067 17.866c-2.5112 13.16-3.7309 42.258-5.6711 60.014 47.679 51.226 193.3 51.148 237.93-2e-3 -1.9426-17.754-3.1632-46.851-5.6719-60.011-2.5154-13.159-11.068-17.866-11.068-17.866l-65.232-20.678c-10.807 31.698-63.234 30.376-73.535-0.28389z"/><path id="path10" fill="#fed198" stroke-width=".825" d="m170.15 187.04c-14.05-2.4914-2.0722 39.468 8.1906 33.213l5.5069 16.172c4.9614 14.569 17.474 27.834 26.998 38.335 3.7177 4.0974 26.49 4.028 30.169 0.1568 10.546-11.09 23.075-23.548 27.779-38.574l5.0398-16.091c10.277 6.2488 22.23-35.702 8.1897-33.213 0.97379-32.662-22.122-64.349-55.935-64.495-33.814 0.14524-56.911 31.833-55.938 64.495z"/><path id="path12" fill="#666" stroke-width=".825" d="m266.42 128.98c3.9686-0.46131 18.306 12.635 20.025 27.801 1.7215 15.166-0.89209 30.798-0.89209 30.798-10.505-1.3121-8.4885 17.533-8.4885 17.533l-3.0419 0.13204-2.1671-10.927c-12.566-7.8745 4.9572-38.988-7.6137-41.718-21.513 17.72-53.425 24.277-81.271 19.726-7.8151 1.0431 3.556 10.921 0.25665 22.284-2.4304 4.2451-0.98039 10.935-0.98039 10.935l-3.6352 0.45388s-2.2504-19.008-9.2609-18.928c-3.2416-8.755-2.5748-14.306-1.9798-22.129 3.296-43.363 58.389-70.582 99.049-35.961z"/><g id="g18" fill="#fff" transform="matrix(.82525 0 0 .82525 14.822 85.985)"><path id="path14" d="m112.32 281.98c88.601-11.582 123.86 10.65 143.68 28.152-29.448-16.953-85.965-15.833-141.19-5.966z"/><path id="path16" d="m399.67 281.98c-88.596-11.582-123.86 10.649-143.67 28.152 35.131-20.228 101.16-12.97 141.13-5.651z"/></g><path id="path20" fill="#15bdb1" stroke-width=".825" d="m89.49 339.88c51.559-11.749 109.34-15.459 137.38 0.68413 28.042-16.143 84.249-12.433 135.81-0.68413-2.9519 101.44-0.48937 16.774-4.4233 152.16-3.022-0.57025-84.512-12.69-123.9-0.87063-6.5582-4e-3 -8.08-4e-3 -14.665 0-43.246-12.578-122.94 0.33587-125.78 0.87063-4.061-139.79-1.3699-47.07-4.4192-152.16z"/><g id="g26" fill="#dfe1e3" transform="matrix(.82525 0 0 .82525 14.822 85.985)"><path id="path22" d="m98.367 296.66 0.951 9.766c60.354-12.811 125.92-16.135 158.45 2.594v-1e-3c-0.114-0.086-48.305-36.323-159.4-12.359z"/><path id="path24" d="m413.63 297.2-0.95 9.767c-60.357-12.811-125.92-16.135-158.45 2.594l-1e-3 -1e-3c0.115-0.085 48.308-36.321 159.4-12.36z"/></g><path id="path28" fill="#fed198" stroke-width=".825" d="m117.53 381.23-14.361 0.76748-14.295 1.0118c-5.9162 0.42253-4.9284 11.019 0.96801 10.322l15.58-1.8461 11.834-0.99525c5.9154-0.50175 4.2492-9.4746 0.27398-9.2601zm-1.9723 32.965-22.273 2.6045c-4.7782 0.55539-3.6278 11.2 0.96636 10.319l22.343-4.2987c4.6659-0.89787 3.6781-9.1751-1.0357-8.6246zm2.8306-11.556c5.9112-0.55374 7.1178 8.5768 1.2263 9.3294l-28.2 3.603c-5.8881 0.75263-6.8727-9.766-0.96471-10.317zm3.9372-11.534c6.9222-0.64782 7.8869 9.6711 0.96719 10.32l-32.772 3.0674c-6.918 0.64782-7.8828-9.6711-0.96801-10.318z"/><g id="g38" fill="#fff" transform="matrix(.82525 0 0 .82525 14.822 85.985)"><path id="path30" d="m122.2 360.6 0.612 6.535 4.359-0.408c0.732-2.449 0.423-4.76-0.654-6.99z"/><path id="path32" d="m129.69 372.75 0.694 7.421 4.07-0.382c1.439-2.804 1.376-5.468-0.743-7.937z"/><path id="path34" d="m124.25 386.62 0.612 6.531 4.99-0.466c0.516-2.399 0.319-4.73-0.655-6.989z"/><path id="path36" d="m120.16 401.06 0.794 5.171 5.004-0.857c0.454-1.968 0.191-3.816-0.85-5.532z"/></g><path id="path40" fill="#fed198" stroke-width=".825" d="m334.64 381.23 14.36 0.76748 14.295 1.0118c5.9178 0.42253 4.93 11.019-0.96636 10.322l-15.581-1.8461-11.832-0.99525c-5.9178-0.50175-4.2492-9.4746-0.27563-9.2601zm1.9723 32.965 22.275 2.6045c4.7782 0.55539 3.6253 11.2-0.96719 10.319l-22.341-4.2987c-4.6684-0.89787-3.6814-9.1751 1.0332-8.6246zm-2.8314-11.556c-5.9112-0.55374-7.1169 8.5768-1.2247 9.3294l28.199 3.603c5.8881 0.75263 6.8743-9.766 0.96636-10.317zm-3.9356-11.534c-6.9222-0.64782-7.8877 9.6711-0.96636 10.32l32.772 3.0674c6.9164 0.64782 7.8803-9.6711 0.96719-10.318z"/><g id="g50" fill="#fff" transform="matrix(.82525 0 0 .82525 14.822 85.985)"><path id="path42" d="m389.8 360.6-0.613 6.535-4.357-0.408c-0.734-2.449-0.425-4.76 0.654-6.99z"/><path id="path44" d="m382.31 372.75-0.695 7.421-4.07-0.382c-1.441-2.804-1.376-5.468 0.744-7.937z"/><path id="path46" d="m387.74 386.62-0.612 6.531-4.987-0.466c-0.517-2.399-0.319-4.73 0.653-6.989z"/><path id="path48" d="m391.84 401.06-0.796 5.171-5.003-0.857c-0.454-1.968-0.191-3.816 0.85-5.532z"/></g><path id="path52" fill="#20d0c2" stroke-width=".825" d="m219.85 491.16h14.502v-153.98h-14.502z"/></g><text style="line-height:1.25" id="text947" x="65.288" y="188.985" fill="#000" font-family="sans-serif" font-size="40" letter-spacing="0" transform="rotate(-23.589)" word-spacing="0" xml:space="preserve"><tspan id="tspan945" x="65.288" y="188.985" fill="#fff" font-family="'Segoe UI'" font-size="192" font-weight="bold">?</tspan></text></svg>