<svg xmlns="http://www.w3.org/2000/svg" xmlns:svg="http://www.w3.org/2000/svg" id="Capa_1" width="512" height="512" x="0" y="0" version="1.1" viewBox="0 0 512 512" xml:space="preserve"><circle id="path837" cx="256" cy="256" r="252.492" style="fill:#fff;fill-opacity:1;stroke:#000;stroke-width:7.01614189;stroke-miterlimit:4;stroke-dasharray:none;stroke-opacity:0"/><g id="g845" transform="matrix(0.9902988,0,0,0.9902988,96.55011,-95.0377)"><circle style="fill:#3498db;fill-opacity:1;stroke-width:5.31454992" id="circle2" cx="49.831" cy="360.301" r="47.831"/><circle style="fill:#3498db;fill-opacity:1;stroke-width:5.31454992" id="circle4" cx="235.84" cy="464.169" r="47.831"/><circle style="fill:#3498db;fill-opacity:1;stroke-width:5.31454992" id="circle6" cx="235.84" cy="256.902" r="47.831"/><g id="g12" transform="matrix(5.3145498,0,0,5.3145498,-8.6290997,209.07066)"><path style="fill:#424a60" id="path8" d="m 19.017,25.36 c 0.176,0 0.354,-0.046 0.515,-0.144 L 38.44,13.828 c 0.473,-0.285 0.625,-0.899 0.34,-1.372 -0.285,-0.474 -0.899,-0.627 -1.373,-0.341 L 18.5,23.504 c -0.473,0.285 -0.625,0.899 -0.34,1.372 0.187,0.312 0.517,0.484 0.857,0.484 z"/><path style="fill:#424a60" id="path10" d="M 38.442,43.171 19.535,31.694 c -0.472,-0.287 -1.087,-0.138 -1.374,0.336 -0.287,0.472 -0.136,1.087 0.336,1.373 L 37.404,44.88 c 0.162,0.099 0.341,0.146 0.518,0.146 0.338,0 0.667,-0.171 0.856,-0.481 0.287,-0.473 0.137,-1.088 -0.336,-1.374 z"/></g></g></svg>