<?xml version="1.0" encoding="UTF-8" standalone="no"?>
<svg
   xmlns:dc="http://purl.org/dc/elements/1.1/"
   xmlns:cc="http://creativecommons.org/ns#"
   xmlns:rdf="http://www.w3.org/1999/02/22-rdf-syntax-ns#"
   xmlns:svg="http://www.w3.org/2000/svg"
   xmlns="http://www.w3.org/2000/svg"
   width="3779.5276"
   height="607.75403"
   viewBox="0 0 1000 160.8016"
   version="1.1"
   id="svg8">
  <defs
     id="defs2" />
  <metadata
     id="metadata5">
    <rdf:RDF>
      <cc:Work
         rdf:about="">
        <dc:format>image/svg+xml</dc:format>
        <dc:type
           rdf:resource="http://purl.org/dc/dcmitype/StillImage" />
        <dc:title></dc:title>
      </cc:Work>
    </rdf:RDF>
  </metadata>
  <g
     id="layer1"
     transform="translate(0,-136.19908)">
    <g
       id="g932"
       transform="translate(0,77.323373)">
      <rect
         y="58.874989"
         x="498.67709"
         height="105.83334"
         width="2.6458333"
         id="rect817"
         style="fill:#019be1;fill-opacity:1;stroke-width:0.16268894" />
      <rect
         style="fill:#019be1;fill-opacity:1;stroke-width:0.16268894"
         id="rect819"
         width="2.6458333"
         height="105.83334"
         x="498.67709"
         y="58.874989" />
      <rect
         y="58.874989"
         x="604.5105"
         height="105.83334"
         width="2.6458333"
         id="rect831"
         style="fill:#000000;fill-opacity:1;stroke-width:0.16268894" />
      <rect
         style="fill:#000000;fill-opacity:1;stroke-width:0.16268894"
         id="rect833"
         width="2.6458333"
         height="105.83334"
         x="710.34381"
         y="58.874989" />
      <rect
         y="58.874989"
         x="816.17712"
         height="105.83334"
         width="2.6458333"
         id="rect835"
         style="fill:#019be1;fill-opacity:1;stroke-width:0.16268894" />
      <rect
         style="fill:#000000;fill-opacity:1;stroke-width:0.16268894"
         id="rect837"
         width="2.6458333"
         height="105.83334"
         x="922.0105"
         y="58.874989" />
      <rect
         y="58.874989"
         x="75.343811"
         height="105.83334"
         width="2.6458333"
         id="rect839"
         style="fill:#000000;fill-opacity:1;stroke-width:0.16268894" />
      <rect
         style="fill:#019be1;fill-opacity:1;stroke-width:0.16268894"
         id="rect841"
         width="2.6458333"
         height="105.83334"
         x="181.17723"
         y="58.874989" />
      <rect
         y="58.874989"
         x="287.0105"
         height="105.83334"
         width="2.6458333"
         id="rect843"
         style="fill:#000000;fill-opacity:1;stroke-width:0.16268894" />
      <rect
         y="109.14584"
         x="0"
         height="2.6458333"
         width="1000"
         id="rect815"
         style="fill:#000000;fill-opacity:1;stroke-width:0.15732218" />
      <rect
         style="fill:#000000;fill-opacity:1;stroke-width:0.16268894"
         id="rect845"
         width="2.6458333"
         height="105.83334"
         x="392.84381"
         y="58.874989" />
      <g
         id="text859"
         style="font-style:normal;font-weight:normal;font-size:50.79999924px;line-height:1.25;font-family:sans-serif;letter-spacing:0px;word-spacing:0px;fill:#000000;fill-opacity:1;stroke:none;stroke-width:0.26458332"
         aria-label="0">
        <path
           id="path843"
           style="font-size:50.79999924px;stroke-width:0.26458332"
           d="m 76.666726,185.22292 q -3.869531,0 -5.829101,3.81992 -1.934766,3.79512 -1.934766,11.43496 0,7.61504 1.934766,11.43496 1.95957,3.79512 5.829101,3.79512 3.894336,0 5.829102,-3.79512 1.95957,-3.81992 1.95957,-11.43496 0,-7.63984 -1.95957,-11.43496 -1.934766,-3.81992 -5.829102,-3.81992 z m 0,-3.96875 q 6.225977,0 9.500196,4.93613 3.299023,4.91133 3.299023,14.2875 0,9.35137 -3.299023,14.2875 -3.274219,4.91133 -9.500196,4.91133 -6.225976,0 -9.524999,-4.91133 -3.274219,-4.93613 -3.274219,-14.2875 0,-9.37617 3.274219,-14.2875 3.299023,-4.93613 9.524999,-4.93613 z" />
      </g>
      <g
         id="text873"
         style="font-style:normal;font-weight:normal;font-size:50.79999924px;line-height:1.25;font-family:sans-serif;letter-spacing:0px;word-spacing:0px;fill:#019be1;fill-opacity:1;stroke:none;stroke-width:0.26458332"
         aria-label="1">
        <path
           id="path852"
           style="font-size:50.79999924px;fill:#019be1;fill-opacity:1;stroke-width:0.26458332"
           d="m 172.65269,214.74049 h 8.18554 v -28.25253 l -8.90488,1.78593 v -4.56406 l 8.85527,-1.78594 h 5.01055 v 32.8166 h 8.18555 v 4.2168 h -21.33203 z" />
      </g>
      <g
         id="text877"
         style="font-style:normal;font-weight:normal;font-size:50.79999924px;line-height:1.25;font-family:sans-serif;letter-spacing:0px;word-spacing:0px;fill:#000000;fill-opacity:1;stroke:none;stroke-width:0.26458332"
         aria-label="2">
        <path
           id="path849"
           style="font-size:50.79999924px;stroke-width:0.26458332"
           d="m 281.93382,214.74049 h 17.4873 v 4.2168 h -23.51484 v -4.2168 q 2.85254,-2.95175 7.76387,-7.91269 4.93613,-4.98574 6.20117,-6.42442 2.40605,-2.70371 3.34863,-4.56406 0.96738,-1.88515 0.96738,-3.6959 0,-2.95175 -2.08359,-4.81211 -2.05879,-1.86035 -5.38262,-1.86035 -2.35644,0 -4.98574,0.81856 -2.60449,0.81855 -5.58105,2.48047 v -5.06016 q 3.02617,-1.21543 5.65547,-1.83555 2.62929,-0.62011 4.81211,-0.62011 5.75468,0 9.17773,2.87734 3.42305,2.87734 3.42305,7.68945 0,2.28203 -0.86817,4.34082 -0.84336,2.03399 -3.10058,4.81211 -0.62012,0.71934 -3.94395,4.16719 -3.32383,3.42305 -9.37617,9.59941 z" />
      </g>
      <g
         id="text881"
         style="font-style:normal;font-weight:normal;font-size:50.79999924px;line-height:1.25;font-family:sans-serif;letter-spacing:0px;word-spacing:0px;fill:#000000;fill-opacity:1;stroke:none;stroke-width:0.26458332"
         aria-label="3">
        <path
           id="path846"
           style="font-size:50.79999924px;stroke-width:0.26458332"
           d="m 398.63159,198.98952 q 3.59668,0.76894 5.60585,3.1998 2.03399,2.43086 2.03399,6.00274 0,5.48183 -3.77031,8.4832 -3.77032,3.00137 -10.71563,3.00137 -2.33164,0 -4.81211,-0.47129 -2.45566,-0.44649 -5.08496,-1.36426 v -4.83691 q 2.0836,1.21543 4.56406,1.83554 2.48047,0.62012 5.18418,0.62012 4.71289,0 7.16856,-1.86035 2.48047,-1.86035 2.48047,-5.40742 0,-3.27422 -2.30684,-5.10977 -2.28203,-1.86035 -6.3748,-1.86035 h -4.31602 v -4.11758 h 4.51445 q 3.6959,0 5.65547,-1.46348 1.95957,-1.48828 1.95957,-4.2664 0,-2.85254 -2.03398,-4.36563 -2.00918,-1.53789 -5.77949,-1.53789 -2.05879,0 -4.41524,0.44649 -2.35644,0.44648 -5.18418,1.38906 v -4.46484 q 2.85254,-0.79375 5.33301,-1.19063 2.50527,-0.39687 4.71289,-0.39687 5.70508,0 9.02891,2.60449 3.32382,2.57969 3.32382,6.99492 0,3.07578 -1.76113,5.20898 -1.76113,2.1084 -5.01054,2.92696 z" />
      </g>
      <g
         id="text885"
         style="font-style:normal;font-weight:normal;font-size:50.79999924px;line-height:1.25;font-family:sans-serif;letter-spacing:0px;word-spacing:0px;fill:#019be1;fill-opacity:1;stroke:none;stroke-width:0.26458332"
         aria-label="4">
        <path
           id="path861"
           style="font-size:50.79999924px;fill:#019be1;fill-opacity:1;stroke-width:0.26458332"
           d="m 503.051,186.28952 -12.65039,19.76933 H 503.051 Z m -1.31465,-4.36563 h 6.30039 v 24.13496 h 5.2834 v 4.16719 h -5.2834 v 8.73125 H 503.051 v -8.73125 h -16.71836 v -4.83691 z" />
      </g>
      <g
         id="text889"
         style="font-style:normal;font-weight:normal;font-size:50.79999924px;line-height:1.25;font-family:sans-serif;letter-spacing:0px;word-spacing:0px;fill:#000000;fill-opacity:1;stroke:none;stroke-width:0.26458332"
         aria-label="5">
        <path
           id="path858"
           style="font-size:50.79999924px;stroke-width:0.26458332"
           d="m 595.16738,181.92389 h 19.67012 v 4.2168 h -15.08125 v 9.07852 q 1.09141,-0.37208 2.18281,-0.54571 1.09141,-0.19844 2.18281,-0.19844 6.20118,0 9.82266,3.39825 3.62149,3.39824 3.62149,9.20254 0,5.97793 -3.72071,9.30175 -3.7207,3.29903 -10.49238,3.29903 -2.33164,0 -4.7625,-0.39688 -2.40606,-0.39687 -4.98574,-1.19062 v -5.03535 q 2.23242,1.21542 4.61367,1.81074 2.38125,0.59531 5.03535,0.59531 4.29121,0 6.79649,-2.25723 2.50527,-2.25722 2.50527,-6.12675 0,-3.86954 -2.50527,-6.12676 -2.50528,-2.25723 -6.79649,-2.25723 -2.00918,0 -4.01836,0.44649 -1.98437,0.44648 -4.06797,1.38906 z" />
      </g>
      <g
         id="text893"
         style="font-style:normal;font-weight:normal;font-size:50.79999924px;line-height:1.25;font-family:sans-serif;letter-spacing:0px;word-spacing:0px;fill:#000000;fill-opacity:1;stroke:none;stroke-width:0.26458332"
         aria-label="6">
        <path
           id="path855"
           style="font-size:50.79999924px;stroke-width:0.26458332"
           d="m 712.28683,198.44381 q -3.37344,0 -5.35781,2.30684 -1.95957,2.30684 -1.95957,6.3252 0,3.99355 1.95957,6.32519 1.98437,2.30684 5.35781,2.30684 3.37344,0 5.33301,-2.30684 1.98437,-2.33164 1.98437,-6.32519 0,-4.01836 -1.98437,-6.3252 -1.95957,-2.30684 -5.33301,-2.30684 z m 9.94668,-15.70136 v 4.56406 q -1.88516,-0.89297 -3.81992,-1.36426 -1.90996,-0.47129 -3.79512,-0.47129 -4.96094,0 -7.59024,3.34864 -2.60449,3.34863 -2.97656,10.12031 1.46348,-2.15801 3.6711,-3.29903 2.20761,-1.16582 4.86171,-1.16582 5.58106,0 8.80567,3.39825 3.24941,3.37343 3.24941,9.20254 0,5.70507 -3.37343,9.15293 -3.37344,3.44785 -8.9793,3.44785 -6.42442,0 -9.82266,-4.91133 -3.39824,-4.93613 -3.39824,-14.2875 0,-8.78086 4.16719,-13.98984 4.16718,-5.23379 11.18691,-5.23379 1.88516,0 3.79512,0.37207 1.93476,0.37207 4.01836,1.11621 z" />
      </g>
      <g
         id="text897"
         style="font-style:normal;font-weight:normal;font-size:50.79999924px;line-height:1.25;font-family:sans-serif;letter-spacing:0px;word-spacing:0px;fill:#019be1;fill-opacity:1;stroke:none;stroke-width:0.26458332"
         aria-label="7">
        <path
           id="path867"
           style="font-size:50.79999924px;fill:#019be1;fill-opacity:1;stroke-width:0.26458332"
           d="m 805.51936,181.92389 h 23.8125 v 2.13321 l -13.44414,34.90019 h -5.23379 l 12.65039,-32.8166 h -17.78496 z" />
      </g>
      <g
         id="text901"
         style="font-style:normal;font-weight:normal;font-size:50.79999924px;line-height:1.25;font-family:sans-serif;letter-spacing:0px;word-spacing:0px;fill:#000000;fill-opacity:1;stroke:none;stroke-width:0.26458332"
         aria-label="9">
        <path
           id="path864"
           style="font-size:50.79999924px;stroke-width:0.26458332"
           d="m 912.7666,218.18835 v -4.56407 q 1.88516,0.89297 3.81992,1.36426 1.93477,0.47129 3.79512,0.47129 4.96094,0 7.56543,-3.32383 2.6293,-3.34863 3.00137,-10.14512 -1.43867,2.13321 -3.64629,3.27422 -2.20762,1.14102 -4.88653,1.14102 -5.55625,0 -8.80566,-3.34863 -3.22461,-3.37344 -3.22461,-9.20254 0,-5.70508 3.37344,-9.15293 3.37344,-3.44785 8.9793,-3.44785 6.42441,0 9.79785,4.93613 3.39824,4.91133 3.39824,14.2875 0,8.75605 -4.16719,13.98984 -4.14238,5.20899 -11.16211,5.20899 -1.88515,0 -3.81992,-0.37207 -1.93476,-0.37207 -4.01836,-1.11621 z m 9.97149,-15.70137 q 3.37343,0 5.333,-2.30684 1.98438,-2.30683 1.98438,-6.32519 0,-3.99356 -1.98438,-6.30039 -1.95957,-2.33164 -5.333,-2.33164 -3.37344,0 -5.35782,2.33164 -1.95957,2.30683 -1.95957,6.30039 0,4.01836 1.95957,6.32519 1.98438,2.30684 5.35782,2.30684 z" />
      </g>
    </g>
  </g>
</svg>
