<svg xmlns="http://www.w3.org/2000/svg" width="3779.528" height="607.754" viewBox="0 0 1000 160.802"><path fill="#019be1" d="M498.677 0h2.646v105.832h-2.646z"/><path fill="#019be1" d="M498.677 0h2.646v105.832h-2.646z"/><path d="M604.51 0h2.646v105.832h-2.646zM710.344 0h2.646v105.832h-2.646z"/><path fill="#019be1" d="M816.177 0h2.646v105.832h-2.646z"/><path d="M922.01 0h2.646v105.832h-2.646zM75.344 0h2.646v105.832h-2.646z"/><path fill="#019be1" d="M181.177 0h2.646v105.832h-2.646z"/><path d="M287.01 0h2.646v105.832h-2.646z"/><path d="M0 50.27h1000v2.646H0z"/><path d="M392.844 0h2.646v105.832h-2.646z"/><path d="M76.667 126.347q-3.87 0-5.83 3.82-1.934 3.795-1.934 11.435 0 7.615 1.935 11.435 1.96 3.795 5.829 3.795 3.894 0 5.829-3.795 1.96-3.82 1.96-11.435 0-7.64-1.96-11.435-1.935-3.82-5.83-3.82zm0-3.969q6.226 0 9.5 4.937 3.299 4.91 3.299 14.287 0 9.351-3.3 14.288-3.273 4.91-9.5 4.91-6.225 0-9.524-4.91-3.274-4.937-3.274-14.288 0-9.376 3.274-14.287 3.299-4.937 9.525-4.937z" aria-label="0" style="font-size:50.79999924px;stroke-width:.26458332" font-weight="400" font-size="50.8" font-family="sans-serif" letter-spacing="0" word-spacing="0" stroke-width=".265"/><path d="M172.653 155.865h8.185v-28.253l-8.905 1.786v-4.564l8.856-1.786h5.01v32.817h8.186v4.217h-21.332z" aria-label="1" style="font-size:50.79999924px;fill:#019be1;fill-opacity:1;stroke-width:.26458332" font-weight="400" font-size="50.8" font-family="sans-serif" letter-spacing="0" word-spacing="0" fill="#019be1" stroke-width=".265"/><path d="M281.934 155.865h17.487v4.217h-23.515v-4.217q2.853-2.952 7.764-7.913 4.936-4.986 6.201-6.424 2.406-2.704 3.349-4.564.967-1.886.967-3.696 0-2.952-2.083-4.812-2.059-1.86-5.383-1.86-2.356 0-4.986.818-2.604.818-5.58 2.48v-5.06q3.026-1.215 5.655-1.835 2.63-.62 4.812-.62 5.755 0 9.178 2.877 3.423 2.877 3.423 7.69 0 2.281-.868 4.34-.844 2.034-3.101 4.812-.62.72-3.944 4.167-3.324 3.423-9.376 9.6z" aria-label="2" style="font-size:50.79999924px;stroke-width:.26458332" font-weight="400" font-size="50.8" font-family="sans-serif" letter-spacing="0" word-spacing="0" stroke-width=".265"/><path d="M398.632 140.114q3.596.769 5.605 3.2 2.034 2.43 2.034 6.002 0 5.482-3.77 8.484-3.77 3-10.716 3-2.331 0-4.812-.47-2.455-.447-5.085-1.365v-4.837q2.084 1.216 4.564 1.836 2.48.62 5.185.62 4.713 0 7.168-1.86 2.48-1.86 2.48-5.408 0-3.274-2.306-5.11-2.282-1.86-6.375-1.86h-4.316v-4.117h4.514q3.696 0 5.656-1.464 1.96-1.488 1.96-4.266 0-2.853-2.034-4.366-2.01-1.538-5.78-1.538-2.059 0-4.415.447-2.357.446-5.184 1.389v-4.465q2.852-.794 5.333-1.19 2.505-.398 4.713-.398 5.705 0 9.028 2.605 3.324 2.58 3.324 6.995 0 3.076-1.76 5.209-1.762 2.108-5.011 2.927z" aria-label="3" style="font-size:50.79999924px;stroke-width:.26458332" font-weight="400" font-size="50.8" font-family="sans-serif" letter-spacing="0" word-spacing="0" stroke-width=".265"/><path d="M503.051 127.414l-12.65 19.77h12.65zm-1.315-4.366h6.3v24.135h5.284v4.167h-5.283v8.732h-4.986v-8.732h-16.718v-4.837z" aria-label="4" style="font-size:50.79999924px;fill:#019be1;fill-opacity:1;stroke-width:.26458332" font-weight="400" font-size="50.8" font-family="sans-serif" letter-spacing="0" word-spacing="0" fill="#019be1" stroke-width=".265"/><path d="M595.167 123.048h19.67v4.217h-15.08v9.079q1.09-.373 2.182-.546 1.091-.199 2.183-.199 6.201 0 9.823 3.399 3.621 3.398 3.621 9.202 0 5.978-3.72 9.302-3.721 3.299-10.493 3.299-2.332 0-4.763-.397-2.406-.397-4.985-1.19v-5.036q2.232 1.215 4.613 1.81 2.382.596 5.036.596 4.29 0 6.796-2.257 2.505-2.257 2.505-6.127 0-3.87-2.505-6.127-2.505-2.257-6.796-2.257-2.01 0-4.019.447-1.984.446-4.068 1.389z" aria-label="5" style="font-size:50.79999924px;stroke-width:.26458332" font-weight="400" font-size="50.8" font-family="sans-serif" letter-spacing="0" word-spacing="0" stroke-width=".265"/><path d="M712.287 139.568q-3.374 0-5.358 2.307-1.96 2.307-1.96 6.325 0 3.994 1.96 6.325 1.984 2.307 5.358 2.307 3.373 0 5.333-2.307 1.984-2.331 1.984-6.325 0-4.018-1.984-6.325-1.96-2.307-5.333-2.307zm9.947-15.701v4.564q-1.886-.893-3.82-1.364-1.91-.472-3.796-.472-4.96 0-7.59 3.349-2.604 3.349-2.976 10.12 1.463-2.158 3.67-3.299 2.208-1.166 4.862-1.166 5.582 0 8.806 3.399 3.25 3.373 3.25 9.202 0 5.705-3.374 9.153-3.373 3.448-8.98 3.448-6.424 0-9.822-4.911-3.398-4.937-3.398-14.288 0-8.78 4.167-13.99 4.167-5.234 11.187-5.234 1.885 0 3.795.373 1.935.372 4.019 1.116z" aria-label="6" style="font-size:50.79999924px;stroke-width:.26458332" font-weight="400" font-size="50.8" font-family="sans-serif" letter-spacing="0" word-spacing="0" stroke-width=".265"/><path d="M805.52 123.048h23.812v2.133l-13.444 34.9h-5.234l12.65-32.816H805.52z" aria-label="7" style="font-size:50.79999924px;fill:#019be1;fill-opacity:1;stroke-width:.26458332" font-weight="400" font-size="50.8" font-family="sans-serif" letter-spacing="0" word-spacing="0" fill="#019be1" stroke-width=".265"/><path d="M912.767 159.313v-4.564q1.885.893 3.82 1.364 1.934.471 3.795.471 4.96 0 7.565-3.324 2.63-3.348 3.001-10.145-1.438 2.133-3.646 3.274-2.207 1.141-4.886 1.141-5.557 0-8.806-3.348-3.225-3.374-3.225-9.203 0-5.705 3.374-9.153 3.373-3.448 8.98-3.448 6.423 0 9.797 4.937 3.398 4.91 3.398 14.287 0 8.756-4.167 13.99-4.142 5.209-11.162 5.209-1.885 0-3.82-.372-1.935-.372-4.018-1.116zm9.971-15.702q3.374 0 5.333-2.307 1.984-2.306 1.984-6.325 0-3.993-1.984-6.3-1.96-2.332-5.333-2.332t-5.358 2.332q-1.96 2.307-1.96 6.3 0 4.019 1.96 6.325 1.985 2.307 5.358 2.307z" aria-label="9" style="font-size:50.79999924px;stroke-width:.26458332" font-weight="400" font-size="50.8" font-family="sans-serif" letter-spacing="0" word-spacing="0" stroke-width=".265"/></svg>