<svg xmlns="http://www.w3.org/2000/svg" viewBox="0 0 492 362"><defs/><path stroke="#000" stroke-width=".094" d="M276.05.18c.76-.02 2.28-.04 3.04-.05.06 37.86-.05 75.73.05 113.59 70.95.14 141.91-.03 212.86.09v3.28c-70.97.18-141.95-.15-212.92.17.05 55.58.01 111.17.02 166.75-.1 25.66.21 51.33-.15 76.98-.71.17-2.13.52-2.84.69-.21-11.9-.04-23.81-.1-35.72.02-108.59-.04-217.19.04-325.78z"/><path stroke="#000" stroke-width=".094" d="M347.44 17.74c3.08 1.45 5.95 3.7 9.55 3.47 9.77.23 19.54-.27 29.32-.03-.78 4.06-3.85 6.98-5.96 10.37-3.41 5.31-7.59 10.14-10.51 15.76-4.74 9.81-5.19 20.96-5.16 31.65-.19 2.47.44 5.54-1.53 7.44-2.5 2.22-6.92.01-6.78-3.3-.02-13.99 4.83-27.73 12.49-39.34 3.38-5.28 7.36-10.18 10.49-15.63-8.79-.1-17.59-.09-26.38.01-1.52.21-3.56-.25-4.53 1.27-1.31 2.53-1.48 5.45-2.03 8.2-.51.03-1.53.08-2.04.1.95-6.67 2.02-13.32 3.07-19.97zM6.19 24.22c7.52-7.24 20.82-6.75 28.28.33 4.58 4.5 4.03 11.97.72 17.04-2.25 3.71-6.28 5.62-9.53 8.29 2.89 1.95 6.42 2.92 8.92 5.45 4.5 4.15 6.97 10.65 5.46 16.7-1.5 7.33-7.91 12.94-15.06 14.59C15.01 89.2 3.09 84 0 73.74v-3.67c1.01-1.94 2.41-4.37 5.04-3.95 3.56-.39 6.24 3.94 4.51 7-1.09 2.09-3.68 2.51-5.54 3.64 4.51 5.48 11.75 9.18 18.93 7.49 4.92-1.28 7.21-6.55 7.9-11.15.94-6.36.72-13.89-4.15-18.7-3.69-3.77-9.38-2.91-14.16-3.08-.03-.4-.07-1.21-.09-1.61 4.08-.58 8.87-.07 12.07-3.19 4.26-4.2 5.49-10.72 4.75-16.47-.44-4-3.34-7.79-7.41-8.53-5.69-1.14-11.26 1.55-15.34 5.35 2.02 1.38 5.07 2.26 5.42 5.1.68 3.99-4.95 6.93-7.69 3.78-2.81-3.42-.89-8.69 1.95-11.53zM198.24 21.9c1.14-1.83 2.6-3.58 4.82-4.1.48 15.95.02 31.91.24 47.86 3.26.04 6.53.05 9.8.05l.09 2.76c-3.28.04-6.56.05-9.84.06.14 4.05-.84 8.37.67 12.24 2.19 2.51 5.96 1.35 8.85 1.68-.07.65-.21 1.96-.28 2.61-8.58.25-17.16.05-25.74.08.06-.68.18-2.05.24-2.73 2.94-.35 7.17.68 8.87-2.47.64-3.76.22-7.62.24-11.42-8.74 0-17.47-.04-26.21.03.11-1.54.18-3.16 1.14-4.46C180.11 50 189.42 36.1 198.24 21.9m-25.41 43.72c7.95.11 15.89.08 23.84.02.05-12.46.12-24.92-.05-37.37-7.89 12.47-16.18 24.71-23.79 37.35zM100.78 23.79c3.12-.97 5.53-3.29 8.34-4.87 1.78.94.7 3.44 1.05 5.06-.07 17.02.03 34.04-.06 51.06-.05 2.09.33 4.14.87 6.15 3.56 1.49 7.47 1.31 11.25 1.21.02.69.06 2.06.07 2.75-10.37.02-20.74.03-31.12-.01.04-.68.11-2.05.14-2.74 4.01-.22 11.52 1.42 12-4.41.12-17.37.08-34.75.01-52.12-4.07 1.21-8.23 2.22-12.49 2.34-.01-.91-.01-1.82 0-2.73 3.36-.25 6.76-.51 9.94-1.69zM372.88 138.72c1.56-1.2 2 1.01 1.92 2.19.12 15.11-.05 30.22.08 45.33 3.38.01 6.76.02 10.14.11-.14.62-.44 1.85-.58 2.46-3.13.73-6.4.18-9.58.39.09 3.8-.42 7.67.37 11.41 1.64 3.2 5.95 1.88 8.9 2.22.03.89.06 1.79.09 2.69-8.66.09-17.32.08-25.97-.01.12-.91.24-1.81.36-2.72 3.08-.41 7.91.87 9.04-3.02.45-3.51.14-7.06.14-10.58-8.87-.39-17.8.58-26.62-.59.48-1.57.92-3.18 1.8-4.59 7.45-11.56 14.93-23.1 22.41-34.64 2.42-3.59 4.18-7.76 7.5-10.65m-10.11 17.96c-5.4 8.37-10.74 16.78-16.2 25.13-.93 1.39-1.41 3-1.91 4.58 7.9.11 15.79.01 23.69.06-.1-12.32.18-24.65-.15-36.96-2.46 1.84-3.78 4.68-5.43 7.19zM97.13 141.14c7.5-3.2 17.04-1.9 22.99 3.81 5.1 4.96 3.95 13.6-.4 18.66-2.37 3.08-6.1 4.55-8.91 7.14 9 1.97 16.68 10.79 15.19 20.3-1.36 11.07-13.4 18.33-23.99 16.34-8.39-1.02-17.37-8.14-15.9-17.38 1.01-4.74 8.4-4.6 9.45.05 1.31 3.8-2.58 6.21-5.77 6.65 4.05 6.32 12.1 9.65 19.4 7.78 3.46-1.05 5.61-4.4 6.6-7.7 1.65-5.81 1.93-12.3-.55-17.92-1.35-2.95-3.83-5.68-7.06-6.49-3.48-.46-7.03-.24-10.51-.83 2.14-3.33 6.9-1.09 9.97-2.83 5.63-2.87 7.58-9.75 7.53-15.66.13-4.24-1.79-9.14-6.09-10.63-6.02-1.43-13.14.18-16.84 5.44 1.87.89 4.55 1.25 5.1 3.64 1.13 2.77-1.32 6.18-4.32 5.97-2.81.13-4.72-2.86-4.41-5.44.1-5.05 4.12-9.04 8.52-10.9zM197.95 142.76c1.26-1.95 2.62-4.15 5.13-4.56.44 16.01-.1 32.05.28 48.06 3.29 0 6.58 0 9.88.03-.13.72-.4 2.17-.53 2.89-3.14-.06-6.28-.06-9.42.01.44 4.27-1.48 9.53 1.69 13.05 2.46.72 5.05.54 7.57.56.08.92.15 1.84.22 2.76-8.72-.13-17.46.31-26.16-.24.2-.63.59-1.91.79-2.55 2.73-.41 6.49.69 8.32-1.94 1.07-3.78.36-7.82.47-11.69-8.73-.04-17.47.05-26.2-.05-.23-3.77 2.56-6.55 4.35-9.55 7.81-12.3 15.98-24.37 23.61-36.78m-6.93 14.5c-5.32 8.23-10.57 16.51-15.93 24.71-.89 1.37-1.57 2.86-2.22 4.36 7.92.03 15.84-.01 23.76.02.13-12.26.22-24.52-.04-36.77-2.41 2.11-3.84 5.04-5.57 7.68zM455.79 141.72c.95-1.72 2.45-3 4.32-3.62.76 16.02-.04 32.08.42 48.12 3.36.04 6.72.02 10.09.16.65 3.15-2.73 2.71-4.57 2.82-1.92.03-3.83-.11-5.72-.37.66 3.95-.76 8.14.66 11.99 1.63 2.98 5.81 1.63 8.56 1.95.13.93.27 1.85.41 2.78-8.61.05-17.21-.02-25.82.04.01-.68.01-2.04.01-2.73 2.6-.17 5.21-.34 7.82-.56 2.44-3.96 1.18-8.78 1.38-13.17-8.79-.11-17.59.24-26.37-.2.26-1.54.4-3.17 1.34-4.49 9.12-14.26 18.51-28.35 27.47-42.72m-7.52 15.48c-6.03 9.72-12.67 19.06-18.31 29.01 7.96.03 15.91.14 23.86-.06.01-11.87.13-23.73-.06-35.59-2.78 1.25-3.83 4.31-5.49 6.64zM183.36 265.32c5.08-4.73 12.84-6.89 19.47-4.39 3.14 1.14 6 3.71 6.61 7.13.76 2.51-.38 6-3.28 6.39-3.01.86-5.88-2.71-4.6-5.46.54-2.16 2.88-2.48 4.64-3.08-4.75-5.58-13.96-4.48-18.72.53-6.71 6.49-7.73 16.4-7.78 25.24h.7c1.71-2.32 3.26-4.97 6.02-6.18 5.61-3.3 12.97-1.78 17.69 2.4 6.6 5.69 9.14 15.26 7.26 23.64-1.46 7.34-7.08 13.75-14.3 15.88-7.05 2.46-15.37-.66-19.4-6.87-4.92-7.52-5.81-16.81-6.05-25.57-.13-10.83 3.52-22.26 11.74-29.66m7.46 20.29c-3.28.48-6.12 2.62-7.8 5.43-2.88 4.75-3.5 10.5-3.07 15.94.36 4.06.53 8.29 2.35 12.03 1.86 4.02 6.19 7.06 10.72 6.6 5.75-.1 9.7-5.76 10.38-11.03.78-6.82.95-13.89-.71-20.59-1.23-5.2-6.39-9.43-11.87-8.38z"/></svg>