<?xml version="1.0" encoding="UTF-8"?>
<!DOCTYPE svg  PUBLIC '-//W3C//DTD SVG 1.1//EN'  'http://www.w3.org/Graphics/SVG/1.1/DTD/svg11.dtd'>
<svg version="1.1" viewBox="0 0 492 362" xmlns="http://www.w3.org/2000/svg">
 <path d="m276.05 0.18c0.76-0.02 2.28-0.04 3.04-0.05 0.06 37.86-0.05 75.73 0.05 113.59 70.95 0.14 141.91-0.03 212.86 0.09v3.28c-70.97 0.18-141.95-0.15-212.92 0.17 0.05 55.58 0.01 111.17 0.02 166.75-0.1 25.66 0.21 51.33-0.15 76.98-0.71 0.17-2.13 0.52-2.84 0.69-0.21-11.9-0.04-23.81-0.1-35.72 0.02-108.59-0.04-217.19 0.04-325.78z" stroke="#000" stroke-width=".09375"/>
 <path d="m347.44 17.74c3.08 1.45 5.95 3.7 9.55 3.47 9.77 0.23 19.54-0.27 29.32-0.03-0.78 4.06-3.85 6.98-5.96 10.37-3.41 5.31-7.59 10.14-10.51 15.76-4.74 9.81-5.19 20.96-5.16 31.65-0.19 2.47 0.44 5.54-1.53 7.44-2.5 2.22-6.92 0.01-6.78-3.3-0.02-13.99 4.83-27.73 12.49-39.34 3.38-5.28 7.36-10.18 10.49-15.63-8.79-0.1-17.59-0.09-26.38 0.01-1.52 0.21-3.56-0.25-4.53 1.27-1.31 2.53-1.48 5.45-2.03 8.2-0.51 0.03-1.53 0.08-2.04 0.1 0.95-6.67 2.02-13.32 3.07-19.97z" stroke="#000" stroke-width=".09375"/>
 <path d="m6.19 24.22c7.52-7.24 20.82-6.75 28.28 0.33 4.58 4.5 4.03 11.97 0.72 17.04-2.25 3.71-6.28 5.62-9.53 8.29 2.89 1.95 6.42 2.92 8.92 5.45 4.5 4.15 6.97 10.65 5.46 16.7-1.5 7.33-7.91 12.94-15.06 14.59-9.97 2.58-21.89-2.62-24.98-12.88v-3.67c1.01-1.94 2.41-4.37 5.04-3.95 3.56-0.39 6.24 3.94 4.51 7-1.09 2.09-3.68 2.51-5.54 3.64 4.51 5.48 11.75 9.18 18.93 7.49 4.92-1.28 7.21-6.55 7.9-11.15 0.94-6.36 0.72-13.89-4.15-18.7-3.69-3.77-9.38-2.91-14.16-3.08-0.03-0.4-0.07-1.21-0.09-1.61 4.08-0.58 8.87-0.07 12.07-3.19 4.26-4.2 5.49-10.72 4.75-16.47-0.44-4-3.34-7.79-7.41-8.53-5.69-1.14-11.26 1.55-15.34 5.35 2.02 1.38 5.07 2.26 5.42 5.1 0.68 3.99-4.95 6.93-7.69 3.78-2.81-3.42-0.89-8.69 1.95-11.53z" stroke="#000" stroke-width=".09375"/>
 <path d="m198.24 21.9c1.14-1.83 2.6-3.58 4.82-4.1 0.48 15.95 0.02 31.91 0.24 47.86 3.26 0.04 6.53 0.05 9.8 0.05 0.03 0.92 0.06 1.84 0.09 2.76-3.28 0.04-6.56 0.05-9.84 0.06 0.14 4.05-0.84 8.37 0.67 12.24 2.19 2.51 5.96 1.35 8.85 1.68-0.07 0.65-0.21 1.96-0.28 2.61-8.58 0.25-17.16 0.05-25.74 0.08 0.06-0.68 0.18-2.05 0.24-2.73 2.94-0.35 7.17 0.68 8.87-2.47 0.64-3.76 0.22-7.62 0.24-11.42-8.74 0-17.47-0.04-26.21 0.03 0.11-1.54 0.18-3.16 1.14-4.46 8.98-14.09 18.29-27.99 27.11-42.19m-25.41 43.72c7.95 0.11 15.89 0.08 23.84 0.02 0.05-12.46 0.12-24.92-0.05-37.37-7.89 12.47-16.18 24.71-23.79 37.35z" stroke="#000" stroke-width=".09375"/>
 <path d="m100.78 23.79c3.12-0.97 5.53-3.29 8.34-4.87 1.78 0.94 0.7 3.44 1.05 5.06-0.07 17.02 0.03 34.04-0.06 51.06-0.05 2.09 0.33 4.14 0.87 6.15 3.56 1.49 7.47 1.31 11.25 1.21 0.02 0.69 0.06 2.06 0.07 2.75-10.37 0.02-20.74 0.03-31.12-0.01 0.04-0.68 0.11-2.05 0.14-2.74 4.01-0.22 11.52 1.42 12-4.41 0.12-17.37 0.08-34.75 0.01-52.12-4.07 1.21-8.23 2.22-12.49 2.34-0.01-0.91-0.01-1.82 0-2.73 3.36-0.25 6.76-0.51 9.94-1.69z" stroke="#000" stroke-width=".09375"/>
 <path d="m372.88 138.72c1.56-1.2 2 1.01 1.92 2.19 0.12 15.11-0.05 30.22 0.08 45.33 3.38 0.01 6.76 0.02 10.14 0.11-0.14 0.62-0.44 1.85-0.58 2.46-3.13 0.73-6.4 0.18-9.58 0.39 0.09 3.8-0.42 7.67 0.37 11.41 1.64 3.2 5.95 1.88 8.9 2.22 0.03 0.89 0.06 1.79 0.09 2.69-8.66 0.09-17.32 0.08-25.97-0.01 0.12-0.91 0.24-1.81 0.36-2.72 3.08-0.41 7.91 0.87 9.04-3.02 0.45-3.51 0.14-7.06 0.14-10.58-8.87-0.39-17.8 0.58-26.62-0.59 0.48-1.57 0.92-3.18 1.8-4.59 7.45-11.56 14.93-23.1 22.41-34.64 2.42-3.59 4.18-7.76 7.5-10.65m-10.11 17.96c-5.4 8.37-10.74 16.78-16.2 25.13-0.93 1.39-1.41 3-1.91 4.58 7.9 0.11 15.79 0.01 23.69 0.06-0.1-12.32 0.18-24.65-0.15-36.96-2.46 1.84-3.78 4.68-5.43 7.19z" stroke="#000" stroke-width=".09375"/>
 <path d="m97.13 141.14c7.5-3.2 17.04-1.9 22.99 3.81 5.1 4.96 3.95 13.6-0.4 18.66-2.37 3.08-6.1 4.55-8.91 7.14 9 1.97 16.68 10.79 15.19 20.3-1.36 11.07-13.4 18.33-23.99 16.34-8.39-1.02-17.37-8.14-15.9-17.38 1.01-4.74 8.4-4.6 9.45 0.05 1.31 3.8-2.58 6.21-5.77 6.65 4.05 6.32 12.1 9.65 19.4 7.78 3.46-1.05 5.61-4.4 6.6-7.7 1.65-5.81 1.93-12.3-0.55-17.92-1.35-2.95-3.83-5.68-7.06-6.49-3.48-0.46-7.03-0.24-10.51-0.83 2.14-3.33 6.9-1.09 9.97-2.83 5.63-2.87 7.58-9.75 7.53-15.66 0.13-4.24-1.79-9.14-6.09-10.63-6.02-1.43-13.14 0.18-16.84 5.44 1.87 0.89 4.55 1.25 5.1 3.64 1.13 2.77-1.32 6.18-4.32 5.97-2.81 0.13-4.72-2.86-4.41-5.44 0.1-5.05 4.12-9.04 8.52-10.9z" stroke="#000" stroke-width=".09375"/>
 <path d="m197.95 142.76c1.26-1.95 2.62-4.15 5.13-4.56 0.44 16.01-0.1 32.05 0.28 48.06 3.29 0 6.58 0 9.88 0.03-0.13 0.72-0.4 2.17-0.53 2.89-3.14-0.06-6.28-0.06-9.42 0.01 0.44 4.27-1.48 9.53 1.69 13.05 2.46 0.72 5.05 0.54 7.57 0.56 0.08 0.92 0.15 1.84 0.22 2.76-8.72-0.13-17.46 0.31-26.16-0.24 0.2-0.63 0.59-1.91 0.79-2.55 2.73-0.41 6.49 0.69 8.32-1.94 1.07-3.78 0.36-7.82 0.47-11.69-8.73-0.04-17.47 0.05-26.2-0.05-0.23-3.77 2.56-6.55 4.35-9.55 7.81-12.3 15.98-24.37 23.61-36.78m-6.93 14.5c-5.32 8.23-10.57 16.51-15.93 24.71-0.89 1.37-1.57 2.86-2.22 4.36 7.92 0.03 15.84-0.01 23.76 0.02 0.13-12.26 0.22-24.52-0.04-36.77-2.41 2.11-3.84 5.04-5.57 7.68z" stroke="#000" stroke-width=".09375"/>
 <path d="m455.79 141.72c0.95-1.72 2.45-3 4.32-3.62 0.76 16.02-0.04 32.08 0.42 48.12 3.36 0.04 6.72 0.02 10.09 0.16 0.65 3.15-2.73 2.71-4.57 2.82-1.92 0.03-3.83-0.11-5.72-0.37 0.66 3.95-0.76 8.14 0.66 11.99 1.63 2.98 5.81 1.63 8.56 1.95 0.13 0.93 0.27 1.85 0.41 2.78-8.61 0.05-17.21-0.02-25.82 0.04 0.01-0.68 0.01-2.04 0.01-2.73 2.6-0.17 5.21-0.34 7.82-0.56 2.44-3.96 1.18-8.78 1.38-13.17-8.79-0.11-17.59 0.24-26.37-0.2 0.26-1.54 0.4-3.17 1.34-4.49 9.12-14.26 18.51-28.35 27.47-42.72m-7.52 15.48c-6.03 9.72-12.67 19.06-18.31 29.01 7.96 0.03 15.91 0.14 23.86-0.06 0.01-11.87 0.13-23.73-0.06-35.59-2.78 1.25-3.83 4.31-5.49 6.64z" stroke="#000" stroke-width=".09375"/>
 <path d="m183.36 265.32c5.08-4.73 12.84-6.89 19.47-4.39 3.14 1.14 6 3.71 6.61 7.13 0.76 2.51-0.38 6-3.28 6.39-3.01 0.86-5.88-2.71-4.6-5.46 0.54-2.16 2.88-2.48 4.64-3.08-4.75-5.58-13.96-4.48-18.72 0.53-6.71 6.49-7.73 16.4-7.78 25.24h0.7c1.71-2.32 3.26-4.97 6.02-6.18 5.61-3.3 12.97-1.78 17.69 2.4 6.6 5.69 9.14 15.26 7.26 23.64-1.46 7.34-7.08 13.75-14.3 15.88-7.05 2.46-15.37-0.66-19.4-6.87-4.92-7.52-5.81-16.81-6.05-25.57-0.13-10.83 3.52-22.26 11.74-29.66m7.46 20.29c-3.28 0.48-6.12 2.62-7.8 5.43-2.88 4.75-3.5 10.5-3.07 15.94 0.36 4.06 0.53 8.29 2.35 12.03 1.86 4.02 6.19 7.06 10.72 6.6 5.75-0.1 9.7-5.76 10.38-11.03 0.78-6.82 0.95-13.89-0.71-20.59-1.23-5.2-6.39-9.43-11.87-8.38z" stroke="#000" stroke-width=".09375"/>
</svg>
