<svg xmlns="http://www.w3.org/2000/svg" xmlns:svg="http://www.w3.org/2000/svg" id="svg41" width="512" height="512" version="1.1" viewBox="0 0 512 512"><metadata id="metadata45"/><defs id="defs4"><style id="style2">.cls-1{fill:#333}.cls-2{fill:#4d4d4d}.cls-3{fill:#1f1f1f}.cls-4{fill:#666}.cls-5{fill:#ffc219}.cls-6{fill:#ffce47}.cls-7{fill:#f47c27}.cls-8{fill:#f69652}.cls-9{fill:#ffda75}</style></defs><circle id="path837" cx="256" cy="256" r="255.667" style="fill:#fff;fill-opacity:1;stroke:#000;stroke-width:.66579974;stroke-miterlimit:4;stroke-dasharray:none;stroke-opacity:0"/><g id="g900" transform="matrix(3.6434381,0,0,3.6434381,22.819962,19.170872)"><g id="_20_Graduation" data-name="20 Graduation"><path style="fill:#333" id="path8" d="m 32,56 v 24.14 a 6,6 0 0 0 2,4.5 45.26,45.26 0 0 0 60,0 6,6 0 0 0 2,-4.5 V 56 Z" class="cls-1"/><path style="fill:#4d4d4d" id="path10" d="M 34.08,60.76 H 96 V 56 H 32 v 24.14 a 6,6 0 0 0 2.08,4.55 z" class="cls-2"/><path style="fill:#1f1f1f" id="path12" d="m 32,56 v 7.48 l 35.4,17.69 a 4.22,4.22 0 0 0 3.77,0 L 89.5,72 a 2.57,2.57 0 0 1 3.72,2.3 v 5.83 a 6,6 0 0 1 -2,4.49 A 45.08,45.08 0 0 1 62.61,96 45.12,45.12 0 0 0 94,84.61 6,6 0 0 0 96,80.14 V 56 Z" class="cls-3"/><path style="fill:#4d4d4d" id="path14" d="M 62.11,32.45 17.17,54.94 a 2.11,2.11 0 0 0 0,3.77 l 44.94,22.46 a 4.22,4.22 0 0 0 3.77,0 L 110.83,58.7 a 2.11,2.11 0 0 0 0,-3.77 L 65.89,32.45 a 4.22,4.22 0 0 0 -3.78,0 z" class="cls-2"/><path style="fill:#666" id="path16" d="m 20.54,58.77 a 2.18,2.18 0 0 1 0,-3.9 c 0,0 42.67,-23 41.58,-22.42 L 17.17,54.94 a 2.11,2.11 0 0 0 0,3.77 L 62.11,81.17 C 63.2,81.72 20.54,58.77 20.54,58.77 Z" class="cls-4"/><path style="fill:#333" id="path18" d="m 107.46,58.77 a 2.18,2.18 0 0 0 0,-3.9 c 0,0 -42.67,-23 -41.58,-22.42 l 44.95,22.48 a 2.11,2.11 0 0 1 0,3.77 L 65.89,81.17 c -1.09,0.55 41.57,-22.4 41.57,-22.4 z" class="cls-1"/><path style="fill:#1f1f1f" id="path20" d="m 40.7,89.54 q 0.86,0.52 1.74,1 V 71.37 L 40.7,70.7 Z" class="cls-3"/><path style="fill:#1f1f1f" id="path22" d="m 39.7,83.24 a 4,4 0 0 0 -3.84,2.94 45,45 0 0 0 6.3,4.2 4,4 0 0 0 -2.46,-7.14 z" class="cls-3"/><path style="fill:#ffc219" id="path24" d="M 36.7,96 V 69.47 a 2,2 0 0 1 1.11,-1.79 L 63.11,55 a 2.0012808,2.0012808 0 0 1 1.79,3.58 L 40.7,70.7 V 96 a 2,2 0 0 1 -4,0 z" class="cls-5"/><path style="fill:#ffce47" id="path26" d="M 63.11,55 37.8,67.68 a 2,2 0 0 0 -1.11,1.79 V 96 l 0.72,-26.57 a 1.15,1.15 0 0 1 0.61,-1 z" class="cls-6"/><path style="fill:#f47c27" id="path28" d="m 65.06,55.12 a 2,2 0 0 1 -0.73,2.94 l -23.87,12 a 1,1 0 0 0 -0.56,0.91 l 0.23,24.48 a 2,2 0 0 1 -3.06,1.69 2,2 0 0 0 3.63,-1.26 V 70.7 l 24.09,-12 a 2,2 0 0 0 0.27,-3.58 z" class="cls-7"/><path style="fill:#f47c27" id="path30" d="m 36.7,89.69 a 3.92,3.92 0 0 0 4,0.64 v -7.42 a 3.92,3.92 0 0 0 -4,0.64 z" class="cls-7"/><circle style="fill:#ffce47" id="circle32" cx="38.7" cy="86.24" r="4" class="cls-6"/><path style="fill:#f69652" id="path34" d="m 41.4,83.31 c 3.46,3.74 -1.91,9.08 -5.64,5.64 a 4,4 0 1 0 5.64,-5.64 z" class="cls-8"/><path style="fill:#ffda75" id="path36" d="M 41.62,83.53 A 4,4 0 1 0 36,89.16 C 32.51,85.43 37.88,80 41.62,83.53 Z" class="cls-9"/><polygon style="fill:#333" id="polygon38" points="64.89 58.6 42.43 71.37 40.7 70.7" class="cls-1"/></g></g></svg>