<svg xmlns="http://www.w3.org/2000/svg" xmlns:xlink="http://www.w3.org/1999/xlink" width="680.713pt" height="227.17pt" viewBox="0 0 680.713 227.17"><defs><path id="b" d="M.59375-.73437c0 .53125.4375.95312 1.1875.95312 1.28125 0 1.98438-1.26562 2.76563-2.51562l.75-1.23438h.04687L5.6875-2.0625C6.03125-.57812 6.375.21875 7.32813.21875c1.375 0 2.07812-1.40625 2.64062-2.54687l-.46875-.25C9.03125-1.75 8.51563-.75 8-.75c-.35937 0-.5-.42187-.90625-2.09375L6.5-5.28125c.67188-1.1875 1.625-2.6875 2.15625-2.6875.5625 0 .57813.29688 1.14063.29688.40625 0 .78125-.39063.78125-.89063 0-.57812-.4375-.8125-.95313-.8125-.98437 0-1.8125.89063-2.46875 1.95313l-.82812 1.26562h-.03125l-.75-3.14062L5.4375-9.375l-3.07812.9375.04687.45313L3.875-8.07812c.29688 0 .4375.14062.60938.92187l.65625 2.70313-.51563.89062c-.79687 1.375-1.48437 2.34375-1.9375 2.34375-.54687 0-.6875-.45312-1.28125-.45312-.46875 0-.8125.48437-.8125.9375m0 0"/><path id="c" d="M.78125-6.23437C.78125-2.5 1.85938.21875 4.9375.21875S9.14063-2.5 9.14063-6.23437s-1.125-6.45313-4.20313-6.45313S.78125-9.96875.78125-6.23437m1.875 0c0-3.04688.51563-5.79688 2.28125-5.79688 1.78125 0 2.29688 2.75 2.29688 5.79688 0 3.03125-.51563 5.79687-2.29688 5.79687-1.76562 0-2.28125-2.76562-2.28125-5.79687m0 0"/><path id="d" d="M2.03125 0h6.125v-.53125l-1.5625-.14062c-.39062-.04688-.60937-.1875-.60937-.92188v-11L5.875-12.6875l-3.84375.65625v.45313l1.73438.21875c.32812.04687.4375.17187.4375.71875v9.04687c0 .73438-.17188.875-.60938.92188l-1.5625.14062Zm0 0"/><path id="e" d="M1.59375-4.71875h4.57813v4.57813h1.09375v-4.57813h4.59375V-5.8125H7.26563v-4.59375H6.17188v4.59375H1.59375Zm0 0"/><path id="f" d="M.29688-3.95312C.29688-1.73437 2.5.20313 4.5625.20313c2.625 0 4.29688-2.625 4.60938-3.14063.35937.67188 2.17187 3.15625 5.0625 3.15625 3.45312 0 4.45312-2.625 4.45312-4.82812 0-2.21875-2.07812-3.98438-4.15625-3.98438-2.48437 0-3.82812 1.78125-4.625 2.875-.73437-1.1875-2.35937-2.84375-4.9375-2.84375-3.40625 0-4.67187 2.40625-4.67187 4.60938m1.17187.0625c0-1.875 1.3125-3.34375 2.875-3.34375 1.875 0 3.4375 1.96875 4.3125 3.35937C7.9375-2.60937 6.60938-.65625 4.51563-.65625c-1.35938 0-3.04688-1.54687-3.04688-3.23437m8.98438-1c.70312-1.26563 2.0625-2.82813 4.15625-2.82813 1.35937 0 2.98437 1.34375 2.98437 3.03125 0 1.89063-1.01562 3.60938-2.8125 3.60938-1.9375 0-3.46875-2.14063-4.32812-3.8125m0 0"/><path id="g" d="M1.53125-3.34375h.85938v-1.375h11.96875c-.15625.26563-.64063.90625-1.14063 1.375l.35938.5c.76562-.625 2.40625-1.76562 3.5625-2.14062v-.5625c-1.17188-.375-2.79688-1.5-3.5625-2.14063l-.35938.5c.5.4375.95313 1.04688 1.14063 1.375H2.39063v-1.375h-.85938Zm0 0"/><path id="k" d="M1.60938-5.26562c0 4.21875.95312 8.84375 4.90625 9v-.5625c-1.32813-.25-3.42188-1.90625-3.42188-8.4375 0-6.48438 1.98438-8.14063 3.42188-8.4375v-.5625c-3.95313.17187-4.90625 4.79687-4.90625 9m0 0"/><path id="l" d="M1.10938 3.17188v.5625c3.95312-.15625 4.90625-4.78125 4.90625-9 0-4.20313-.95313-8.82813-4.90625-9v.5625c1.4375.29687 3.42187 1.95312 3.42187 8.4375 0 6.53125-2.09375 8.1875-3.42187 8.4375m0 0"/><path id="m" d="M1.59375-4.71875h10.26563V-5.8125H1.59375Zm0 0"/><path id="h" d="M.375 0h4.54688v-.53125C3.59375-.64062 3.53125-.67187 3.53125-1.625V-13.75l-.14062-.09375-2.90625.45313v.48437l.6875.0625c.46875.04688.59375.15625.59375.875V-1.625c0 .95313-.03126.98438-1.39063 1.09375Zm0 0"/><path id="i" d="M.59375 0h4.54688v-.53125C3.8125-.64062 3.75-.67187 3.75-1.625V-6c0-.46875.01563-.71875.1875-1.01562.39063-.73438 1.21875-1.34375 2.21875-1.34375 1.26563 0 1.96875.6875 1.96875 2.32812V-1.625c0 .95313-.0625.98438-1.40625 1.09375V0h4.5625v-.53125C9.95313-.64062 9.875-.67187 9.875-1.625v-4.76562c0-1.89063-1.03125-2.98438-2.75-2.98438-1.39062 0-2.23437.67188-3.39062 1.4375L3.46875-9.375.6875-8.89062v.45312l.70313.09375C1.85938-8.26562 2-8.1875 2-7.5v5.875C2-.67187 1.95313-.64062.59375-.53125Zm0 0"/><path id="j" d="M.57813-.70312c0 .0625.15624.1875.34375.1875.10937 0 .3125-.03126.34375-.10938l2.32812-5.96875c.09375-.20312.09375-.3125.09375-.35937 0-.28125-.42187-.39063-.82812-.39063-.39063 0-1.01563.14063-1.04688.39063Zm0 0"/><clipPath id="a"><path d="M1.09766 0h678.23437v226.34375H1.09766Zm0 0"/></clipPath><clipPath id="n"><path d="M114 0h1v226.34375h-1Zm0 0"/></clipPath><clipPath id="o"><path d="M1.09766 0h678.23437v226.34375H1.09766Zm0 0"/></clipPath><clipPath id="p"><path d="M1.09766 56h678.23437v1H1.09766Zm0 0"/></clipPath><clipPath id="q"><path d="M1.09766 112h678.23437v2H1.09766Zm0 0"/></clipPath></defs><g clip-path="url(#a)"><path fill="#FFF" d="M1.29297.19922v225.94922h677.84766V.19922Zm0 0"/></g><use xlink:href="#b" x="52.09371" y="33.01737"/><use xlink:href="#c" x="165.81123" y="34.67531"/><use xlink:href="#d" x="391.7567" y="34.78491"/><use xlink:href="#e" x="606.41641" y="33.53348"/><use xlink:href="#f" x="619.83686" y="33.53348"/><use xlink:href="#b" x="14.26592" y="90.70858"/><use xlink:href="#g" x="29.92974" y="90.70858"/><use xlink:href="#h" x="52.46037" y="90.70858"/><use xlink:href="#i" x="57.66179" y="90.70858"/><use xlink:href="#j" x="69.19722" y="82.7676"/><use xlink:href="#k" x="74.23681" y="90.70858"/><use xlink:href="#b" x="81.86026" y="90.70858"/><use xlink:href="#l" x="93.67265" y="90.70858"/><use xlink:href="#e" x="389.99016" y="90.1297"/><use xlink:href="#b" x="16.78671" y="174.91891"/><use xlink:href="#g" x="32.45053" y="174.91891"/><use xlink:href="#h" x="54.98116" y="174.91891"/><use xlink:href="#i" x="60.18258" y="174.91891"/><use xlink:href="#k" x="71.71602" y="174.91891"/><use xlink:href="#b" x="79.33947" y="174.91891"/><use xlink:href="#l" x="91.15186" y="174.91891"/><use xlink:href="#m" x="177.76754" y="202.09063"/><use xlink:href="#f" x="191.188" y="202.09063"/><use xlink:href="#c" x="391.7567" y="175.89135"/><use xlink:href="#e" x="606.41641" y="146.50672"/><use xlink:href="#f" x="619.83686" y="146.50672"/><path fill="none" stroke="#000" stroke-miterlimit="10" stroke-width=".39705" d="m217.2422 194.66412 163.9649-22.84766"/><path d="M384.7461 171.32422c-1.07813-.05078-2.86329-.40234-4.13673-.92578l.41016 2.94922c1.08203-.85547 2.70313-1.6797 3.72656-2.02344"/><path fill="none" stroke="#000" stroke-miterlimit="10" stroke-width=".39705" d="m408.66024 168.16802 187.2032-23.40626"/><path d="M599.40625 144.3164c-1.07422-.0625-2.85547-.4414-4.1211-.98437l.3672 2.95703c1.09765-.83984 2.73046-1.64453 3.7539-1.97265"/><path fill="none" stroke="#000" stroke-miterlimit="10" stroke-width="2.7794" d="M170.7539 118.82035v101.67972"/><path fill="none" stroke="#FFF" stroke-miterlimit="10" stroke-width="1.9853" d="M170.7539 118.82035v101.67972"/><g clip-path="url(#n)"><path fill="none" stroke="#000" stroke-miterlimit="10" stroke-width=".39705" d="M114.2656.19921v225.9493"/></g><g clip-path="url(#o)"><path fill="none" stroke="#000" stroke-miterlimit="10" stroke-width=".39705" d="M1.2929.19921v225.9493h677.8479V.1992Zm0 0"/></g><g clip-path="url(#p)"><path fill="none" stroke="#000" stroke-miterlimit="10" stroke-width=".39705" d="M1.2929 56.68751h677.8479"/></g><g clip-path="url(#q)"><path fill="none" stroke="#000" stroke-miterlimit="10" stroke-width=".39705" d="M1.2929 113.1719h677.8479"/></g></svg>