<svg xmlns="http://www.w3.org/2000/svg" xmlns:xlink="http://www.w3.org/1999/xlink" width="286.324pt" height="107.164" viewBox="0 0 286.324 80.373"><defs><path id="b" d="M4.8125-11.73437c1.73438 0 2.21875 2.6875 2.21875 5.65625S6.54688-.42187 4.8125-.42187c-1.71875 0-2.21875-2.6875-2.21875-5.65625s.5-5.65625 2.21875-5.65625m0-.64063c-3 0-4.0625 2.65625-4.0625 6.29688S1.8125.21875 4.8125.21875c3.01563 0 4.07813-2.65625 4.07813-6.29687S7.82813-12.375 4.8125-12.375m0 0"/><path id="c" d="M7.95313 0v-.53125l-1.53125-.125c-.39063-.03125-.60938-.1875-.60938-.89062v-10.71875l-.07812-.10938-3.75.64063v.45312l1.6875.20313c.3125.03125.4375.1875.4375.71875v8.8125c0 .34375-.04688.5625-.15625.6875-.09375.125-.25.1875-.4375.20312l-1.53125.125V0Zm0 0"/><path id="d" d="m8.82813-2.40625-.51563-.07812c-.375.96875-.75 1.10937-1.46875 1.10937H2.1875c.28125-.95312 1.35938-2.25 3.04688-3.46875 1.75-1.26562 3.09375-2.07812 3.09375-4.125C8.32813-11.5 6.65625-12.375 4.75-12.375c-2.5 0-3.78125 1.51563-3.78125 2.46875 0 .60938.6875.90625 1 .90625.32813 0 .45313-.1875.51563-.5.29687-1.23437 1-2.23437 2.14062-2.23437 1.39063 0 1.79688 1.1875 1.79688 2.51562 0 1.9375-.98438 3.03125-2.5625 4.4375C1.625-2.84375.84375-1.59375.48438-.1875L.67188 0h7.53125Zm0 0"/><path id="e" d="M2.35938-6.65625c0 .3125.09375.51563.32812.51563.21875 0 .71875-.1875 1.59375-.1875 1.53125 0 2.40625 1.40625 2.40625 2.98437 0 2.15625-1.0625 2.92188-2.35937 2.92188C3.125-.42187 2.34375-1.32812 2-2.34375c-.10937-.34375-.29687-.51562-.54687-.51562-.32813 0-.96875.34375-.96875 1C.48438-1.07812 1.75.21875 4.3125.21875c2.64063 0 4.29688-1.32812 4.29688-3.65625 0-2.4375-2.09375-3.17187-3.09375-3.25v-.07812c.98437-.15625 2.5625-.89063 2.5625-2.6875 0-2.01563-1.57813-2.92188-3.53125-2.92188-2.40625 0-3.57813 1.39063-3.57813 2.17188 0 .5625.625.875.89063.875.23437 0 .375-.125.45312-.35938.39063-1.25 1.09375-2.04687 2.10938-2.04687 1.4375 0 1.78125 1.28125 1.78125 2.29687 0 1.09375-.39063 2.45313-1.92188 2.45313-.875 0-1.375-.1875-1.59375-.1875-.23437 0-.32812.1875-.32812.51562m0 0"/><path id="f" d="M5.45313-3.25v1.84375c0 .625-.20313.73438-.64063.76563l-1.15625.10937V0h4.79688v-.53125L7.64063-.625c-.42188-.04687-.54688-.15625-.54688-.78125V-3.25h1.875v-.85937h-1.875v-8.04688H5.76563c-1.70313 2.51563-3.75 5.6875-5.42188 8.51563L.51563-3.25Zm-3.79688-.85937C2.75-6.09375 4.01563-8.1875 5.42188-10.39062h.03125v6.28125Zm0 0"/><path id="g" d="M7.75-10.76562 8.1875-12l-.09375-.15625H2.01563l-.17188.17188-.375 6.09375.4375.21875c.76563-.875 1.51563-1.29688 2.5-1.29688 1.15625 0 2.4375.85938 2.4375 3.26563 0 1.85937-.76562 3.28125-2.34375 3.28125-1.28125 0-1.9375-.92188-2.29687-1.95313-.09375-.28125-.25-.4375-.51563-.4375-.35937 0-.95312.35938-.95312.95313C.73438-1.01562 2 .21875 4.35938.21875c3 0 4.375-1.8125 4.375-4.125 0-2.54687-1.60938-3.85937-3.76563-3.85937-1 0-2.07812.4375-2.65625.96875l-.03125-.04688.40625-3.39062c.0625-.45313.1875-.53125.53125-.53125Zm0 0"/><path id="h" d="M4.95313.21875c2.6875 0 4.125-1.64062 4.125-4.10937 0-2.45313-1.57813-3.82813-3.46875-3.78125-1.39063-.04688-2.48438.95312-2.96875 1.5625h-.04688c.03125-4 1.17188-5.625 2.8125-5.625.82813 0 1.42188.71875 1.6875 1.75.04688.21875.20313.375.46875.375.40625 0 .96875-.29688.96875-.8125 0-.73438-.89062-1.95313-3.07812-1.95313-1.4375 0-2.45313.54688-3.21875 1.42188C1.42188-10 .79688-8.25.79688-5.625c0 3.9375 1.42187 5.84375 4.15625 5.84375M4.98438-6.75C6.125-6.75 7.25-5.70312 7.25-3.625c0 1.92188-.73437 3.20313-2.26562 3.20313-1.57813 0-2.34375-1.6875-2.34375-3.875 0-1.10938.8125-2.45313 2.34375-2.45313m0 0"/><path id="i" d="M1.3125-12.15625.75-9.60937h.48438l.1875-.375c.23437-.51563.46875-.78125 1.28125-.78125H7.625c-.1875.65625-.51562 1.70312-1.98437 3.8125-1.5625 2.25-2.60938 4.28125-2.60938 6.42187 0 .60938.42188.75.98438.75.53125 0 .90625-.17187.89062-.6875C4.8125-2.875 5.3125-4.79687 6.28125-6.5c1.15625-2.03125 2.125-3.15625 2.76563-5.45312l-.17188-.20313Zm0 0"/><path id="j" d="M4.8125-6.14062c1.46875 0 2.25 1.23437 2.25 2.89062 0 1.59375-.70312 2.82813-2.25 2.82813-1.5 0-2.23437-1.23438-2.23437-2.82813 0-1.65625.8125-2.89062 2.23437-2.89062m0 6.35937c2.95313 0 4.0625-1.6875 4.0625-3.53125 0-1.85937-1.15625-2.90625-2.40625-3.20312v-.04688c1.10938-.29687 2-1.21875 2-2.71875 0-1.98437-1.54687-3.09375-3.65625-3.09375-2.0625 0-3.65625 1.14063-3.65625 3.09375 0 1.5.92188 2.42188 2.01563 2.71875v.04688C1.95313-6.21875.76563-5.17187.76563-3.3125c0 1.84375 1.09375 3.53125 4.04687 3.53125m0-7.01562c-1.29687 0-1.89062-1.28125-1.89062-2.51563 0-1.40625.65625-2.42187 1.89062-2.42187 1.25 0 1.85938 1.01562 1.90625 2.42187 0 1.23438-.57812 2.51563-1.90625 2.51563m0 0"/><path id="k" d="M4.17188-4.875c1.125 0 2.0625-.64062 2.6875-1.53125h.03125c0 1.15625-.09375 2.625-.42188 3.875-.32812 1.20313-.95312 2.10938-2.125 2.10938-1.23437 0-1.6875-.95313-1.96875-1.8125-.0625-.23438-.1875-.39063-.5-.39063-.34375 0-.85937.375-.85937.9375 0 .79688.96875 1.90625 3.17187 1.90625 1.46875 0 2.59375-.54687 3.28125-1.51562.75-1.03125 1.20313-2.625 1.20313-5.26563 0-2.26562-.45313-3.73437-1.15625-4.59375-.6875-.8125-1.70313-1.21875-2.85938-1.21875-2.32812 0-4 1.54688-4 4.0625 0 2.28125 1.64063 3.4375 3.51563 3.4375m.53125-.96875c-1.40625 0-2.23438-1.23437-2.23438-2.98437 0-1.67188.75-2.90625 2.17188-2.90625 1.45312 0 2.15625 1.73437 2.15625 3.5 0 .29687-.01563.67187-.125.95312-.28125.85938-1 1.4375-1.96875 1.4375m0 0"/><clipPath id="a"><path d="M2 28h282.8789v1H2Zm0 0"/></clipPath></defs><g clip-path="url(#a)"><path fill="none" stroke="#000" stroke-miterlimit="10" stroke-width=".79084" d="M3.21485 28.52344H284.4882"/></g><path fill="none" stroke="#000" stroke-miterlimit="10" stroke-width=".79084" d="M17.27734 56.64843V.39453"/><use xlink:href="#b" x="12.45367" y="76.75225"/><path fill="none" stroke="#00ADEF" stroke-miterlimit="10" stroke-width=".79084" d="M45.40624 56.64843V.39453"/><use xlink:href="#c" x="40.58125" y="76.80186" fill="#00ADEF"/><path fill="none" stroke="#000" stroke-miterlimit="10" stroke-width=".79084" d="M73.53124 56.64843V.39453"/><use xlink:href="#d" x="68.70783" y="76.80186"/><path fill="none" stroke="#000" stroke-miterlimit="10" stroke-width=".79084" d="M101.66013 56.64843V.39453"/><use xlink:href="#e" x="96.8354" y="76.75225"/><path fill="none" stroke="#00ADEF" stroke-miterlimit="10" stroke-width=".79084" d="M129.78903 56.64843V.39453"/><use xlink:href="#f" x="124.96198" y="76.80186" fill="#00ADEF"/><path fill="none" stroke="#000" stroke-miterlimit="10" stroke-width=".79084" d="M157.91403 56.64843V.39453"/><use xlink:href="#g" x="153.08856" y="76.75225"/><path fill="none" stroke="#000" stroke-miterlimit="10" stroke-width=".79084" d="M186.04293 56.64843V.39453"/><use xlink:href="#h" x="181.21614" y="76.75225"/><path fill="none" stroke="#00ADEF" stroke-miterlimit="10" stroke-width=".79084" d="M214.16792 56.64843V.39453"/><use xlink:href="#i" x="209.34272" y="76.75225" fill="#00ADEF"/><path fill="none" stroke="#000" stroke-miterlimit="10" stroke-width=".79084" d="M242.29682 56.64843V.39453"/><use xlink:href="#j" x="237.47029" y="76.75225"/><path fill="none" stroke="#000" stroke-miterlimit="10" stroke-width=".79084" d="M270.42572 56.64843V.39453"/><use xlink:href="#k" x="265.59687" y="76.75225"/></svg>