<svg xmlns="http://www.w3.org/2000/svg" xmlns:xlink="http://www.w3.org/1999/xlink" width="109.33pt" height="71.731pt" viewBox="0 0 109.33 71.731"><defs><path id="a" d="M2.375-6.67187c0 .3125.07813.51562.32813.51562.21875 0 .70312-.1875 1.57812-.1875 1.54688 0 2.42188 1.40625 2.42188 2.98438 0 2.17187-1.07813 2.9375-2.35938 2.9375-1.20312 0-2-.90625-2.34375-1.92188-.10937-.35937-.28125-.51562-.54687-.51562-.32813 0-.96875.34375-.96875 1C.48438-1.07812 1.75.21875 4.3125.21875c2.64063 0 4.3125-1.32812 4.3125-3.65625 0-2.45312-2.10937-3.17187-3.10937-3.26562v-.07813C6.5-6.9375 8.09375-7.67187 8.09375-9.46875c0-2.03125-1.59375-2.92187-3.53125-2.92187-2.40625 0-3.59375 1.39062-3.59375 2.17187 0 .5625.64063.875.89063.875.23437 0 .375-.125.45312-.35937.40625-1.25 1.09375-2.04688 2.10938-2.04688 1.4375 0 1.79687 1.28125 1.79687 2.29688C6.21875-8.35937 5.82813-7 4.28125-7c-.875 0-1.35937-.17187-1.57812-.17187-.25 0-.32813.17187-.32813.5m0 0"/><path id="b" d="M7.96875 0v-.53125l-1.53125-.125c-.39062-.03125-.60937-.1875-.60937-.89062v-10.73438l-.09375-.10937-3.75.64062v.45313l1.70312.20312c.29688.03125.4375.1875.4375.70313v8.84375c0 .34375-.0625.5625-.17187.6875-.09375.125-.23438.1875-.4375.20312l-1.53125.125V0Zm0 0"/><path id="c" d="M5.46875-3.26562v1.85937c0 .625-.20312.73438-.64062.76563l-1.17188.10937V0h4.8125v-.53125L7.65625-.625c-.42187-.04687-.54687-.15625-.54687-.78125v-1.85937h1.875V-4.125h-1.875v-8.04687H5.78125C4.0625-9.65625 2.01563-6.48437.34375-3.64062l.17188.375ZM1.65625-4.125c1.09375-1.98437 2.375-4.07812 3.76563-6.28125h.04687V-4.125Zm0 0"/><path id="d" d="M4.95313.21875c2.70312 0 4.14062-1.64062 4.14062-4.125 0-2.45312-1.59375-3.8125-3.48437-3.78125-1.375-.03125-2.46875.96875-2.96875 1.5625h-.03125c.01562-4 1.15625-5.625 2.79687-5.625.84375 0 1.42188.70313 1.70313 1.75.04687.21875.20312.375.46875.375.40625 0 .96875-.29687.96875-.8125 0-.73437-.89063-1.95312-3.07813-1.95312-1.4375 0-2.46875.54687-3.23437 1.42187-.8125.95313-1.4375 2.70313-1.4375 5.34375 0 3.9375 1.42187 5.84375 4.15625 5.84375m.03125-6.98437c1.15625 0 2.28125 1.04687 2.28125 3.14062 0 1.90625-.75 3.20313-2.28125 3.20313-1.57813 0-2.34375-1.6875-2.34375-3.875 0-1.10938.82812-2.46875 2.34375-2.46875m0 0"/><path id="f" d="M1.3125-12.17187.75-9.625h.48438l.1875-.375c.23437-.51562.46875-.78125 1.29687-.78125h4.92188c-.1875.65625-.51563 1.70313-2 3.82813-1.5625 2.23437-2.59375 4.28125-2.59375 6.42187 0 .60938.42187.75.98437.75.53125 0 .90625-.17187.89063-.6875C4.82813-2.875 5.3125-4.8125 6.28125-6.5c1.17188-2.04687 2.14063-3.17187 2.78125-5.46875l-.17187-.20312Zm0 0"/><clipPath id="e"><path d="M60 .08594h2V71.3789h-2Zm0 0"/></clipPath></defs><use xlink:href="#a" x="3.88221" y="16.91861"/><use xlink:href="#b" x="21.30015" y="16.91861"/><use xlink:href="#c" x="38.73631" y="16.91861"/><use xlink:href="#a" x="21.30941" y="40.68298"/><use xlink:href="#c" x="38.72735" y="40.68298"/><use xlink:href="#d" x="38.73661" y="64.44734"/><g clip-path="url(#e)"><path fill="none" stroke="#000" stroke-miterlimit="10" stroke-width=".79115" d="M60.9961 71.3789V.08205"/></g><path fill="none" stroke="#000" stroke-miterlimit="10" stroke-width=".79115" d="M60.9961 22.85938h43.5703"/><use xlink:href="#f" x="73.59102" y="16.91861"/><use xlink:href="#c" x="73.59102" y="40.68298"/><use xlink:href="#c" x="91.00896" y="40.68298"/></svg>