<svg xmlns="http://www.w3.org/2000/svg" xmlns:xlink="http://www.w3.org/1999/xlink" viewBox="0 0 133.08 76.707"><defs><symbol id="a" overflow="visible"><path d="M4.8594-6.625c-.15625-.42188-.57812-.5625-.76562-.5625h-.89062c-.1875 0-.625.14062-.76562.5625L.32814-.5938c-.046875.125-.046875.14062-.046875.1875 0 .28125.39062.40625.53125.40625h.35938c.17188 0 .60938-.125.75-.53125l.34375-.96875h2.5938l.28125.82812c.125.34375.32812.67188.8125.67188h.53125c.14062 0 .53125-.125.53125-.40625 0-.046875 0-.0625-.0625-.1875zM3.3282-4.6094c.15625-.4375.28125-.8125.32812-1.0469H3.4532c.03125.10938.03125.14062.10938.35938l.89062 2.6719H2.6563z"/></symbol><symbol id="b" overflow="visible"><path d="M1.3906-7.1875c-.35938 0-.625.25-.625.625v5.9531c0 .35938.25.60938.625.60938h2.7188c.75 0 2.7031-.26562 2.7031-2.0625 0-1.4062-1.5156-1.7656-1.875-1.8281v.26562c.92188-.20312 1.5781-.84375 1.5781-1.625 0-1.7969-2.2656-1.9375-2.6719-1.9375zm1.0469 3.0938v-1.9688h1.0469c.39062 0 1.4062-.09375 1.4062.84375 0 1.125-1.1719.98438-1.4219.98438H2.4375zm0 3.1094v-2.25h1.125c.35938 0 1.5938-.14062 1.5938 1.1562 0 1.0156-.92188.95312-1.3906.95312H2.4376z"/></symbol><symbol id="c" overflow="visible"><path d="M6.5156-1.5625c0-.078125-.20312-.25-.25-.25-.23438 0-.53125.64062-1.9219.64062-1.7656 0-2.125-.9375-2.125-2.4219s.40625-2.4375 2.0312-2.4375c.89062 0 1.2656.3125 1.5312.53125.0625.046875.1875.125.26562.125.03125 0 .21875-.17188.21875-.21875l.20312-1.1094c.015625-.03125-.125-.21875-.20312-.25-.59375-.21875-1.2031-.35938-1.9844-.35938-2.4219 0-3.8125 1.3281-3.8125 3.7031 0 2.4375 1.4062 3.7031 3.8281 3.7031.84375 0 1.4688-.15625 2.1875-.60938.078125-.046875.0625-.10938.0625-.10938l.046875-.09375z"/></symbol><symbol id="d" overflow="visible"><path d="M1.3906-7.1875c-.35938 0-.625.25-.625.625v5.9531c0 .35938.25.60938.625.60938h2.625c2.4375 0 3.4062-1.5781 3.4062-3.5312 0-.79688-.17188-1.8594-.71875-2.5625-.75-.9375-2.0312-1.0938-2.6875-1.0938zM2.4687-.9844v-5.0781h1.1562c2.1406 0 2.0938 1.4062 2.0938 2.5312s.03125 2.4062-2.0938 2.4062H2.4687z"/></symbol><symbol id="e" overflow="visible"><path d="M4.7188-3.375c0-.79688-.09375-1.8125-.51562-2.625-.40625-.75-1.2031-1.0312-1.7031-1.0312-.59375 0-1.4688.40625-1.875 1.2969-.32812.73438-.375 1.5625-.375 2.3594 0 .78125.046875 1.5156.34375 2.2344.39062.96875 1.3125 1.3594 1.8906 1.3594.71875 0 1.5156-.53125 1.8281-1.2188.29688-.65625.40625-1.3125.40625-2.375zM2.5-.6562c-.53125 0-.78125-.23438-.96875-.95312-.17188-.57812-.17188-1.1094-.17188-1.8906 0-.625 0-1.2188.17188-1.7812.046875-.1875.14062-.875.95312-.875.78125 0 .85938.64062.9375.8125.1875.5625.1875 1.2344.1875 1.8438 0 .65625 0 1.2812-.1875 1.9219-.25.90625-.60938.92188-.92188.92188z"/></symbol><symbol id="f" overflow="visible"><path d="M1.6094-2.1094L.3282-.8125V0h4.3125v-.98438H2.6563c-.10938 0-.23438.015625-.35938.015625H1.5938c.046875-.046875.8125-.79688 1.125-1.0781.1875-.1875.6875-.60938.875-.78125.45312-.45312 1.0469-1.0625 1.0469-1.9219 0-1.1406-.96875-2.2812-2.2812-2.2812-1.1406 0-1.875.92188-2.125 1.7969.1875.23438.23438.29688.25.32812.03125.015625.125.15625.40625.5625.29688-1.125.42188-1.7812 1.3281-1.7812.9375 0 1.2656.625 1.2656 1.4062 0 .84375-.51562 1.3125-1.1094 1.9062z"/></symbol><symbol id="g" overflow="visible"><path d="M3.7031-1.7031h1.1562v-.875h-.98438v-4.2344h-1.1719L.10922-2.4687v.76562h2.6406v1.7031h1.125v-1.7031zm-2.5312-.65625c.51562-.84375 1.9688-3.2969 1.9688-3.875h-.32812v3.6562h-1.5z"/></symbol><symbol id="h" overflow="visible"><path d="M2.3125-5.8281c.125 0 .23438-.015625.35938-.015625h.875c-1.2656 1.3906-2.2031 3.4844-2.2031 5.9531h1.1719c0-3.125 1.375-5.1562 2.2031-6.0938v-.82812H.24998v.98438z"/></symbol></defs><path fill="#91c7ff" stroke="#000" stroke-miterlimit="10" stroke-width=".399" d="M76.19 66.81c0-5.3594-4.3438-9.7031-9.7031-9.7031-5.3594 0-9.7031 4.3438-9.7031 9.7031 0 5.3555 4.3438 9.7031 9.7031 9.7031 5.3594 0 9.7031-4.3476 9.7031-9.7031z"/><use width="100%" height="100%" x="211.546" y="195.064" transform="translate(-148.71 -124.8)" xlink:href="#a"/><path fill="#91c7ff" stroke="#000" stroke-miterlimit="10" stroke-width=".399" d="M132.88 38.46c0-5.3594-4.3438-9.7031-9.6992-9.7031-5.3594 0-9.7031 4.3438-9.7031 9.7031 0 5.3594 4.3438 9.7031 9.7031 9.7031 5.3555 0 9.6992-4.3438 9.6992-9.7031z"/><use width="100%" height="100%" x="268.239" y="166.717" transform="translate(-148.71 -124.8)" xlink:href="#b"/><path fill="#91c7ff" stroke="#000" stroke-miterlimit="10" stroke-width=".399" d="M19.39 38.46c0-5.3008-4.2969-9.5976-9.5976-9.5976-5.2969 0-9.5938 4.2969-9.5938 9.5976s4.2969 9.5938 9.5938 9.5938c5.3008 0 9.5976-4.293 9.5976-9.5938z"/><use width="100%" height="100%" x="155.005" y="166.717" transform="translate(-148.71 -124.8)" xlink:href="#c"/><path fill="#91c7ff" stroke="#000" stroke-miterlimit="10" stroke-width=".399" d="M76.4 10.11c0-5.4727-4.4375-9.9102-9.9102-9.9102s-9.9102 4.4375-9.9102 9.9102c0 5.4726 4.4375 9.9102 9.9102 9.9102S76.4 15.5827 76.4 10.11z"/><use width="100%" height="100%" x="211.242" y="138.371" transform="translate(-148.71 -124.8)" xlink:href="#d"/><use width="100%" height="100%" x="241.055" y="192.035" transform="translate(-148.71 -124.8)" xlink:href="#e"/><use width="100%" height="100%" x="184.362" y="192.035" transform="translate(-148.71 -124.8)" xlink:href="#f"/><use width="100%" height="100%" x="243.89" y="159.437" transform="translate(-148.71 -124.8)" xlink:href="#g"/><use width="100%" height="100%" x="218.378" y="176.445" transform="translate(-148.71 -124.8)" xlink:href="#h"/><path fill="none" stroke="#000" stroke-miterlimit="10" stroke-width=".399" d="M75.34 62.38l38.574-19.285"/><path fill="none" stroke="#000" stroke-linecap="round" stroke-linejoin="round" stroke-miterlimit="10" stroke-width=".319" d="M112.13 42.2c.35547.48828 1.7383.80078 2.0508.75781-.22265.22266-.80078 1.5117-.625 2.0938"/><path fill="none" stroke="#000" stroke-miterlimit="10" stroke-width=".399" d="M113.28 38.46H20.046"/><path fill="none" stroke="#000" stroke-linecap="round" stroke-linejoin="round" stroke-miterlimit="10" stroke-width=".319" d="M21.24 40.05c-.09766-.59765-1.1953-1.4961-1.4922-1.5938.29687-.10156 1.3945-.99609 1.4922-1.5938"/><path fill="none" stroke="#000" stroke-miterlimit="10" stroke-width=".399" d="M18.56 42.84l38.668 19.336"/><path fill="none" stroke="#000" stroke-linecap="round" stroke-linejoin="round" stroke-miterlimit="10" stroke-width=".319" d="M56.87 60.21c-.17969.57812.39843 1.8711.62109 2.0938-.3125-.04688-1.6914.26562-2.0469.75781"/><path fill="none" stroke="#000" stroke-miterlimit="10" stroke-width=".399" d="M66.49 56.9V20.677"/><path fill="none" stroke="#000" stroke-linecap="round" stroke-linejoin="round" stroke-miterlimit="10" stroke-width=".319" d="M64.9 21.88c.59766-.10156 1.4922-1.1953 1.5938-1.4961.09766.30078.99609 1.3945 1.5938 1.4961"/></svg>