<svg xmlns="http://www.w3.org/2000/svg" xmlns:xlink="http://www.w3.org/1999/xlink" viewBox="0 0 366.07 67.681">
  <defs>
    <symbol id="a" overflow="visible">
      <path d="M5.172-3.547c0-1.375-.125-3.86-2.438-3.86S.297-4.936.297-3.546C.297-2.187.422.22 2.734.22s2.438-2.375 2.438-3.766zM2.734-.766c-.734 0-.718-.78-.75-1.047-.078-.53-.078-1.468-.078-1.875 0-.593 0-1.234.063-1.718.031-.266 0-1.016.765-1.016.735 0 .72.703.75.906.063.516.063 1.297.063 1.828 0 .563 0 1.344-.063 1.891-.03.266 0 1.031-.75 1.031z"/>
    </symbol>
    <symbol id="b" overflow="visible">
      <path d="M3.672-6.781c0-.203-.14-.625-.578-.625a.652.652 0 00-.453.172c-.172.172-.453.5-1.438.515-.187 0-.578.203-.578.5 0 .36.484.485.61.485.296 0 .656-.047.796-.094v4.844h-.64c-.125 0-.61.14-.61.5s.485.484.61.484h2.843c.11 0 .61-.125.61-.484s-.5-.5-.61-.5h-.562z"/>
    </symbol>
    <symbol id="c" overflow="visible">
      <path d="M.547-1.078c-.094.094-.14.219-.14.39v.079c0 .359.25.609.624.609h3.422c.375 0 .594-.266.594-.61v-.124c0-.157-.125-.485-.234-.532-.079-.046-.485-.078-.688-.078-.219 0-.453.016-.672.016H1.828l.094.219 1.312-1.25c.157-.125.532-.438.688-.578.547-.532 1.125-1.157 1.125-2.032 0-1.218-1-2.437-2.469-2.437-.344 0-1.015.094-1.484.484C1-6.859.5-6.406.312-5.703L.86-5c.063.078.188.156.25.156.094 0 .25-.203.282-.312.187-.703.406-.985 1.046-.985.766 0 .954.579.954 1.188 0 .64-.344 1.203-.938 1.844z"/>
    </symbol>
    <symbol id="d" overflow="visible">
      <path d="M2.297-1.172c0-.25-.14-.406-.39-.406H1.14c-.266 0-.407.156-.407.406v.766c0 .265.141.406.407.406h.765c.25 0 .39-.14.39-.406z"/>
    </symbol>
    <symbol id="e" overflow="visible">
      <path d="M3.484-3.172c-.015.094 0 .281-.03.703-.048.61-.095 1.485-1.188 1.485-.313 0-.516-.047-.782-.297a.482.482 0 00-.218-.11c-.078 0-.203.078-.25.172-.188.313-.375.64-.375.703 0 .078.672.735 1.64.735 2.735 0 2.86-3 2.86-3.89C5.14-4.75 5-7.407 2.734-7.407c-.609 0-1.375.156-1.89.781-.422.547-.531 1.156-.531 1.922 0 .625.062 1.281.5 1.86.39.515.953.702 1.593.702.735 0 1.22-.718 1.344-1.03zm-.828.047c-.797 0-.672-.578-.672-1.563 0-.968-.125-1.562.782-1.562.687 0 .703.64.703 1.687 0 .141.14 1.438-.813 1.438z"/>
    </symbol>
    <symbol id="f" overflow="visible">
      <path d="M4.719-3.375c0-.797-.094-1.813-.516-2.625C3.797-6.75 3-7.031 2.5-7.031c-.594 0-1.469.406-1.875 1.297C.297-5 .25-4.172.25-3.374c0 .78.047 1.515.344 2.233.39.97 1.312 1.36 1.89 1.36C3.204.219 4-.312 4.313-1c.296-.656.406-1.312.406-2.375zM2.5-.656c-.531 0-.781-.235-.969-.953-.172-.578-.172-1.11-.172-1.89 0-.626 0-1.22.172-1.782.047-.188.14-.875.953-.875.782 0 .86.64.938.812.187.563.187 1.235.187 1.844 0 .656 0 1.281-.187 1.922-.25.906-.61.922-.922.922z"/>
    </symbol>
    <symbol id="k" overflow="visible">
      <path d="M2.984-7.031h-.28c-.626.656-1.345.64-1.985.672v.843c.5-.015.969-.03 1.312-.171v4.843H.781V0h3.61v-.844H3.14V-7.03z"/>
    </symbol>
    <symbol id="g" overflow="visible">
      <path d="M2.234-5.047H2c-.5.469-.937.453-1.547.469v.765c.453-.015.813-.03.969-.093v3.14H.5V0h2.844v-.766h-.922v-4.28z"/>
    </symbol>
    <symbol id="h" overflow="visible">
      <path d="M1.969-.86H.922l.125.282 1.078-.953c.14-.11.469-.375.61-.485.296-.28.765-.75.765-1.359 0-.781-.766-1.672-1.766-1.672C1-5.047.36-4.484.11-3.75l.594.766c.266-.954.328-1.25.938-1.25.593 0 .843.25.843.875 0 .578-.28.78-.703 1.187-.14.14-.515.453-.656.594-.203.172-.687.64-.937.875V0H3.5v-.86z"/>
    </symbol>
    <symbol id="i" overflow="visible">
      <path d="M.406-.219c.344.25.781.36 1.11.36C2.5.14 3.563-1 3.563-2.5c0-1.89-1.016-2.547-1.688-2.547-.625 0-1.031.344-1.234.547-.453.453-.516 1.047-.516 1.328 0 .89.672 1.828 1.36 1.828.78 0 1.343-.578 1.374-.61l-.312-.109C2.453-.969 2.094-.64 1.516-.64c-.36 0-.453-.078-.797-.359l-.406.703zm2.11-2.969c.015.047.015.11.015.157 0 .515-.125.906-.734.906-.266 0-.344-.031-.531-.328-.172-.266-.141-.406-.141-.719 0-.281-.047-.484.172-.781.14-.219.219-.328.578-.328.672 0 .625.656.64 1.094z"/>
    </symbol>
    <symbol id="j" overflow="visible">
      <path d="M3.578-2.422c0-.344-.047-1.265-.375-1.844-.36-.625-1.015-.78-1.36-.78-.312 0-.984.14-1.327.75C.172-3.75.109-2.86.109-2.423c0 .516.078 1.266.375 1.781.297.578.953.782 1.36.782.703 0 1.265-.563 1.469-1 .25-.5.265-1.141.265-1.563zM1.844-.64c-.297 0-.438 0-.625-.5-.125-.422-.14-.86-.14-1.375 0-.64-.173-1.75.765-1.75.953 0 .765 1.11.765 1.75 0 .453 0 .985-.172 1.422-.187.516-.359.453-.593.453z"/>
    </symbol>
    <symbol id="l" overflow="visible">
      <path d="M.828-3.625c.281-.563.656-.656.985-.656.421 0 .53.078.53.468 0 .376-.062.657-.593.75-.031 0-.063 0-.703.047v.782h.734c.657 0 .719.359.719.797 0 .546-.156.796-.687.796-.5 0-.938-.187-1.516-.937l-.188.922C.58-.141 1.281.14 1.813.14c.921 0 1.75-.844 1.75-1.563 0-.578-.641-1.203-.75-1.234.218-.125.546-.703.546-1.156 0-.594-.78-1.235-1.53-1.235-.61 0-1.25.375-1.641.906l.515.735z"/>
    </symbol>
  </defs>
  <path fill="#91c7ff" stroke="#000" stroke-miterlimit="10" stroke-width=".3985" d="M25.71 24.86c0-7.043-5.71-12.754-12.754-12.754-7.047 0-12.758 5.71-12.758 12.754 0 7.047 5.71 12.758 12.758 12.758 7.043 0 12.754-5.71 12.754-12.758z"/>
  <use width="100%" height="100%" x="158.928" y="322.789" xlink:href="#a" transform="translate(-148.71 -294.47)"/>
  <path fill="#91c7ff" stroke="#000" stroke-miterlimit="10" stroke-width=".3985" d="M82.41 24.86c0-7.043-5.71-12.754-12.758-12.754-7.043 0-12.754 5.71-12.754 12.754 0 7.047 5.71 12.758 12.754 12.758 7.047 0 12.758-5.71 12.758-12.758z"/>
  <use width="100%" height="100%" x="215.621" y="322.789" xlink:href="#b" transform="translate(-148.71 -294.47)"/>
  <path fill="#91c7ff" stroke="#000" stroke-miterlimit="10" stroke-width=".3985" d="M139.1 24.86c0-7.043-5.71-12.754-12.754-12.754-7.047 0-12.758 5.71-12.758 12.754 0 7.047 5.71 12.758 12.758 12.758 7.043 0 12.754-5.71 12.754-12.758z"/>
  <use width="100%" height="100%" x="272.313" y="322.789" xlink:href="#c" transform="translate(-148.71 -294.47)"/>
  <use width="100%" height="100%" x="329.006" y="319.98" xlink:href="#d" transform="translate(-148.71 -294.47)"/>
  <use width="100%" height="100%" x="332.051" y="319.98" xlink:href="#d" transform="translate(-148.71 -294.47)"/>
  <use width="100%" height="100%" x="335.095" y="319.98" xlink:href="#d" transform="translate(-148.71 -294.47)"/>
  <path fill="#91c7ff" stroke="#000" stroke-miterlimit="10" stroke-width=".3985" d="M252.49 24.86c0-7.043-5.715-12.754-12.758-12.754-7.047 0-12.754 5.71-12.754 12.754 0 7.047 5.707 12.758 12.754 12.758 7.043 0 12.758-5.71 12.758-12.758z"/>
  <use width="100%" height="100%" x="385.699" y="322.789" xlink:href="#e" transform="translate(-148.71 -294.47)"/>
  <path fill="#91c7ff" stroke="#000" stroke-miterlimit="10" stroke-width=".3985" d="M309.18 24.86c0-7.043-5.71-12.754-12.754-12.754-7.047 0-12.758 5.71-12.758 12.754 0 7.047 5.71 12.758 12.758 12.758 7.043 0 12.754-5.71 12.754-12.758z"/>
  <g transform="translate(-148.71 -294.47)">
    <use width="100%" height="100%" x="439.652" y="322.789" xlink:href="#b"/>
    <use width="100%" height="100%" x="445.131" y="322.789" xlink:href="#a"/>
  </g>
  <path fill="#91c7ff" stroke="#000" stroke-miterlimit="10" stroke-width=".3985" d="M365.88 24.86c0-7.043-5.71-12.754-12.758-12.754-7.043 0-12.754 5.71-12.754 12.754 0 7.047 5.71 12.758 12.754 12.758 7.047 0 12.758-5.71 12.758-12.758z"/>
  <g transform="translate(-148.71 -294.47)">
    <use width="100%" height="100%" x="496.345" y="322.789" xlink:href="#b"/>
    <use width="100%" height="100%" x="501.824" y="322.789" xlink:href="#b"/>
  </g>
  <use width="100%" height="100%" x="159.177" y="359.446" xlink:href="#f" transform="translate(-148.71 -294.47)"/>
  <use width="100%" height="100%" x="216.508" y="354.789" xlink:href="#g" transform="translate(-148.71 -294.47)"/>
  <path fill="none" stroke="#000" stroke-miterlimit="10" stroke-width=".398" d="M65.95 61.75h7.41"/>
  <use width="100%" height="100%" x="214.655" y="362.148" xlink:href="#g" transform="translate(-148.71 -294.47)"/>
  <use width="100%" height="100%" x="218.36" y="362.148" xlink:href="#g" transform="translate(-148.71 -294.47)"/>
  <use width="100%" height="100%" x="273.201" y="354.789" xlink:href="#h" transform="translate(-148.71 -294.47)"/>
  <path fill="none" stroke="#000" stroke-miterlimit="10" stroke-width=".398" d="M122.64 61.75h7.41"/>
  <use width="100%" height="100%" x="271.348" y="362.148" xlink:href="#g" transform="translate(-148.71 -294.47)"/>
  <use width="100%" height="100%" x="275.053" y="362.148" xlink:href="#g" transform="translate(-148.71 -294.47)"/>
  <use width="100%" height="100%" x="386.586" y="354.789" xlink:href="#i" transform="translate(-148.71 -294.47)"/>
  <path fill="none" stroke="#000" stroke-miterlimit="10" stroke-width=".398" d="M236.02 61.75h7.41"/>
  <use width="100%" height="100%" x="384.734" y="362.147" xlink:href="#g" transform="translate(-148.71 -294.47)"/>
  <use width="100%" height="100%" x="388.439" y="362.147" xlink:href="#g" transform="translate(-148.71 -294.47)"/>
  <use width="100%" height="100%" x="441.427" y="354.789" xlink:href="#g" transform="translate(-148.71 -294.47)"/>
  <use width="100%" height="100%" x="445.132" y="354.789" xlink:href="#j" transform="translate(-148.71 -294.47)"/>
  <path fill="none" stroke="#000" stroke-miterlimit="10" stroke-width=".398" d="M292.72 61.75h7.41"/>
  <use width="100%" height="100%" x="441.427" y="362.147" xlink:href="#g" transform="translate(-148.71 -294.47)"/>
  <use width="100%" height="100%" x="445.132" y="362.147" xlink:href="#g" transform="translate(-148.71 -294.47)"/>
  <use width="100%" height="100%" x="499.334" y="359.446" xlink:href="#k" transform="translate(-148.71 -294.47)"/>
  <use width="100%" height="100%" x="187.523" y="304.17" xlink:href="#k" transform="translate(-148.71 -294.47)"/>
  <use width="100%" height="100%" x="243.002" y="299.514" xlink:href="#g" transform="translate(-148.71 -294.47)"/>
  <use width="100%" height="100%" x="246.707" y="299.514" xlink:href="#j" transform="translate(-148.71 -294.47)"/>
  <path fill="none" stroke="#000" stroke-miterlimit="10" stroke-width=".398" d="M94.29 6.48h7.406"/>
  <use width="100%" height="100%" x="243.002" y="306.872" xlink:href="#g" transform="translate(-148.71 -294.47)"/>
  <use width="100%" height="100%" x="246.707" y="306.872" xlink:href="#g" transform="translate(-148.71 -294.47)"/>
  <use width="100%" height="100%" x="301.547" y="299.514" xlink:href="#i" transform="translate(-148.71 -294.47)"/>
  <path fill="none" stroke="#000" stroke-miterlimit="10" stroke-width=".398" d="M150.99 6.48h7.41"/>
  <use width="100%" height="100%" x="299.695" y="306.872" xlink:href="#g" transform="translate(-148.71 -294.47)"/>
  <use width="100%" height="100%" x="303.4" y="306.872" xlink:href="#g" transform="translate(-148.71 -294.47)"/>
  <use width="100%" height="100%" x="358.24" y="299.514" xlink:href="#l" transform="translate(-148.71 -294.47)"/>
  <path fill="none" stroke="#000" stroke-miterlimit="10" stroke-width=".398" d="M207.68 6.48h7.41"/>
  <use width="100%" height="100%" x="356.387" y="306.872" xlink:href="#g" transform="translate(-148.71 -294.47)"/>
  <use width="100%" height="100%" x="360.092" y="306.872" xlink:href="#g" transform="translate(-148.71 -294.47)"/>
  <use width="100%" height="100%" x="414.933" y="299.514" xlink:href="#h" transform="translate(-148.71 -294.47)"/>
  <path fill="none" stroke="#000" stroke-miterlimit="10" stroke-width=".398" d="M264.37 6.48h7.41"/>
  <use width="100%" height="100%" x="413.08" y="306.872" xlink:href="#g" transform="translate(-148.71 -294.47)"/>
  <use width="100%" height="100%" x="416.785" y="306.872" xlink:href="#g" transform="translate(-148.71 -294.47)"/>
  <use width="100%" height="100%" x="471.626" y="299.514" xlink:href="#g" transform="translate(-148.71 -294.47)"/>
  <path fill="none" stroke="#000" stroke-miterlimit="10" stroke-width=".398" d="M321.06 6.48h7.41"/>
  <use width="100%" height="100%" x="469.773" y="306.872" xlink:href="#g" transform="translate(-148.71 -294.47)"/>
  <use width="100%" height="100%" x="473.478" y="306.872" xlink:href="#g" transform="translate(-148.71 -294.47)"/>
  <path fill="none" stroke="#000" stroke-miterlimit="10" stroke-width=".3985" d="M25.91 24.86h30.324"/>
  <path fill="none" stroke="#000" stroke-linecap="round" stroke-linejoin="round" stroke-miterlimit="10" stroke-width=".31880000000000003" d="M55.04 23.26c.098.602 1.191 1.496 1.492 1.594-.3.101-1.394.996-1.492 1.597"/>
  <path fill="none" stroke="#000" stroke-miterlimit="10" stroke-width=".3985" d="M82.61 24.86h30.324"/>
  <path fill="none" stroke="#000" stroke-linecap="round" stroke-linejoin="round" stroke-miterlimit="10" stroke-width=".31880000000000003" d="M111.74 23.26c.102.602 1.195 1.496 1.492 1.594-.297.101-1.39.996-1.492 1.597"/>
  <path fill="none" stroke="#000" stroke-miterlimit="10" stroke-width=".3985" d="M139.3 24.86h33.828M192.95 24.86h33.367"/>
  <path fill="none" stroke="#000" stroke-linecap="round" stroke-linejoin="round" stroke-miterlimit="10" stroke-width=".31880000000000003" d="M225.12 23.26c.102.602 1.195 1.496 1.496 1.594-.3.101-1.394.996-1.496 1.597"/>
  <path fill="none" stroke="#000" stroke-miterlimit="10" stroke-width=".3985" d="M252.69 24.86h30.324"/>
  <path fill="none" stroke="#000" stroke-linecap="round" stroke-linejoin="round" stroke-miterlimit="10" stroke-width=".31880000000000003" d="M281.82 23.26c.098.602 1.195 1.496 1.492 1.594-.297.101-1.394.996-1.492 1.597"/>
  <path fill="none" stroke="#000" stroke-miterlimit="10" stroke-width=".3985" d="M309.38 24.86h30.324"/>
  <path fill="none" stroke="#000" stroke-linecap="round" stroke-linejoin="round" stroke-miterlimit="10" stroke-width=".31880000000000003" d="M338.51 23.26c.102.602 1.195 1.496 1.496 1.594-.3.101-1.394.996-1.496 1.597"/>
  <path fill="none" stroke="#000" stroke-miterlimit="10" stroke-width=".3985" d="M16.31 37.37c5.414 20.207-12.121 20.207-7.082 1.406"/>
  <path fill="none" stroke="#000" stroke-linecap="round" stroke-linejoin="round" stroke-miterlimit="10" stroke-width=".31880000000000003" d="M7.38 39.52c.602.059 1.754-.77 1.926-1.031.02.312.601 1.605 1.152 1.855"/>
  <path fill="none" stroke="#000" stroke-miterlimit="10" stroke-width=".3985" d="M73 37.37c5.414 20.207-12.121 20.207-7.082 1.406"/>
  <path fill="none" stroke="#000" stroke-linecap="round" stroke-linejoin="round" stroke-miterlimit="10" stroke-width=".31880000000000003" d="M64.07 39.52c.605.059 1.754-.77 1.93-1.031.015.312.597 1.605 1.152 1.855"/>
  <path fill="none" stroke="#000" stroke-miterlimit="10" stroke-width=".3985" d="M129.7 37.37c5.414 20.207-12.117 20.207-7.082 1.406"/>
  <path fill="none" stroke="#000" stroke-linecap="round" stroke-linejoin="round" stroke-miterlimit="10" stroke-width=".31880000000000003" d="M120.77 39.52c.602.059 1.754-.77 1.926-1.031.02.312.601 1.605 1.152 1.855"/>
  <path fill="none" stroke="#000" stroke-miterlimit="10" stroke-width=".3985" d="M243.08 37.37c5.414 20.207-12.117 20.207-7.078 1.406"/>
  <path fill="none" stroke="#000" stroke-linecap="round" stroke-linejoin="round" stroke-miterlimit="10" stroke-width=".31880000000000003" d="M234.15 39.52c.602.059 1.754-.77 1.926-1.031.02.312.601 1.605 1.152 1.855"/>
  <path fill="none" stroke="#000" stroke-miterlimit="10" stroke-width=".3985" d="M299.78 37.37c5.414 20.207-12.121 20.207-7.082 1.406"/>
  <path fill="none" stroke="#000" stroke-linecap="round" stroke-linejoin="round" stroke-miterlimit="10" stroke-width=".31880000000000003" d="M290.85 39.52c.602.059 1.75-.77 1.926-1.031.02.312.601 1.605 1.152 1.855"/>
  <path fill="none" stroke="#000" stroke-miterlimit="10" stroke-width=".3985" d="M356.47 37.37c5.418 20.207-12.117 20.207-7.078 1.406"/>
  <path fill="none" stroke="#000" stroke-linecap="round" stroke-linejoin="round" stroke-miterlimit="10" stroke-width=".31880000000000003" d="M347.54 39.52c.605.059 1.754-.77 1.926-1.031.02.312.601 1.605 1.152 1.855"/>
</svg>
