<svg xmlns="http://www.w3.org/2000/svg" xmlns:xlink="http://www.w3.org/1999/xlink" viewBox="0 0 195.44 155.68"><defs><symbol id="b" overflow="visible"><path d="M6.5156-1.5625c0-.078125-.20312-.25-.25-.25-.23438 0-.53125.64062-1.9219.64062-1.7656 0-2.125-.9375-2.125-2.4219s.40625-2.4375 2.0312-2.4375c.89062 0 1.2656.3125 1.5312.53125.0625.046875.1875.125.26562.125.03125 0 .21875-.17188.21875-.21875l.20312-1.1094c.015625-.03125-.125-.21875-.20312-.25-.59375-.21875-1.2031-.35938-1.9844-.35938-2.4219 0-3.8125 1.3281-3.8125 3.7031 0 2.4375 1.4062 3.7031 3.8281 3.7031.84375 0 1.4688-.15625 2.1875-.60938.078125-.046875.0625-.10938.0625-.10938l.046875-.09375z"/></symbol><symbol id="a" overflow="visible"><path d="M2.5-1.1406v-5.4219c0-.32812-.20312-.625-.60938-.625h-.5c-.35938 0-.625.25-.625.625v5.9531c0 .35938.25.60938.625.60938h3.4531c.375 0 .60938-.26562.60938-.60938v-.09375c0-.21875-.14062-.60938-.59375-.60938l-2.3594.03125z"/></symbol><symbol id="c" overflow="visible"><path d="M2.375-2.6719h1.5156c1.5625 0 2.625-.78125 2.625-2.2188 0-1.5156-1.1094-2.2969-2.6406-2.2969H1.3906c-.35938 0-.625.25-.625.625v5.9531c0 .35938.25.60938.625.60938h.5c.375 0 .60938-.26562.60938-.60938V-2.672zm1.1875-3.3906c1.3125 0 1.2969.46875 1.2969 1.1719 0 .65625.03125 1.1562-1.2969 1.1562H2.4687v-2.3281z"/></symbol><symbol id="d" overflow="visible"><path d="M4.7188-3.375c0-.79688-.09375-1.8125-.51562-2.625-.40625-.75-1.2031-1.0312-1.7031-1.0312-.59375 0-1.4688.40625-1.875 1.2969-.32812.73438-.375 1.5625-.375 2.3594 0 .78125.046875 1.5156.34375 2.2344.39062.96875 1.3125 1.3594 1.8906 1.3594.71875 0 1.5156-.53125 1.8281-1.2188.29688-.65625.40625-1.3125.40625-2.375zM2.5-.6562c-.53125 0-.78125-.23438-.96875-.95312-.17188-.57812-.17188-1.1094-.17188-1.8906 0-.625 0-1.2188.17188-1.7812.046875-.1875.14062-.875.95312-.875.78125 0 .85938.64062.9375.8125.1875.5625.1875 1.2344.1875 1.8438 0 .65625 0 1.2812-.1875 1.9219-.25.90625-.60938.92188-.92188.92188z"/></symbol><symbol id="g" overflow="visible"><path d="M1.6094-2.1094L.3282-.8125V0h4.3125v-.98438H2.6563c-.10938 0-.23438.015625-.35938.015625H1.5938c.046875-.046875.8125-.79688 1.125-1.0781.1875-.1875.6875-.60938.875-.78125.45312-.45312 1.0469-1.0625 1.0469-1.9219 0-1.1406-.96875-2.2812-2.2812-2.2812-1.1406 0-1.875.92188-2.125 1.7969.1875.23438.23438.29688.25.32812.03125.015625.125.15625.40625.5625.29688-1.125.42188-1.7812 1.3281-1.7812.9375 0 1.2656.625 1.2656 1.4062 0 .84375-.51562 1.3125-1.1094 1.9062z"/></symbol><symbol id="i" overflow="visible"><path d="M3.7031-1.7031h1.1562v-.875h-.98438v-4.2344h-1.1719L.10922-2.4687v.76562h2.6406v1.7031h1.125v-1.7031zm-2.5312-.65625c.51562-.84375 1.9688-3.2969 1.9688-3.875h-.32812v3.6562h-1.5z"/></symbol><symbol id="f" overflow="visible"><path d="M2.3125-5.8281c.125 0 .23438-.015625.35938-.015625h.875c-1.2656 1.3906-2.2031 3.4844-2.2031 5.9531h1.1719c0-3.125 1.375-5.1562 2.2031-6.0938v-.82812H.24998v.98438z"/></symbol><symbol id="e" overflow="visible"><path d="M1.9531-.14062v-.95312H.7969v1.0938h.21875l-.25 1.25h.71875z"/></symbol><symbol id="h" overflow="visible"><path d="M2.9844-7.0312h-.28125c-.625.65625-1.3438.64062-1.9844.67188v.84375c.5-.015625.96875-.03125 1.3125-.17188v4.8438h-1.25V.0001h3.6094v-.84375h-1.25v-6.1875z"/></symbol><symbol id="j" overflow="visible"><path d="M1.0781-5.25c.28125-.70312.78125-.9375 1.3906-.9375.51562 0 .82812.17188.82812.8125 0 .60938-.23438 1.0625-.84375 1.2031-.0625 0-.078125 0-.95312.078125v.85938h.875c1.0781 0 1.125.79688 1.125 1.2969 0 .78125-.29688 1.2812-1.0625 1.2812-.6875 0-1.3594-.3125-1.7969-.98438l-.28125.09375-.10938.625c.78125 1 1.8125 1.1406 2.2188 1.1406 1.2031 0 2.25-1.0938 2.25-2.1406 0-.90625-.85938-1.6719-1.2031-1.7656.53125-.29688.9375-1.0625.9375-1.6875 0-.85938-1-1.6562-1.9844-1.6562-.76562 0-1.6094.4375-2.0938 1.2344l.57812.85938z"/></symbol><symbol id="k" overflow="visible"><path d="M1.5312-5.9062h2.7812v-.90625H.6405v3.9531h.92188c.23438-.53125.4375-.79688 1.0156-.79688.46875 0 .84375.28125.84375 1.4844 0 1.6562-1.0469 1.5156-1.1406 1.5156-.67188 0-1.1719-.34375-1.5625-1.0938l-.51562.875c.46875.64062 1.2812 1.0938 2.0938 1.0938 1.1875 0 2.3438-1.1094 2.3438-2.375 0-1.25-1.0156-2.375-2.0469-2.375-.40625 0-.90625.1875-.90625.20312v-1.5781z"/></symbol></defs><path fill="#91c7ff" stroke="#000" stroke-miterlimit="10" stroke-width=".399" d="M106.79 38.41c0-5.043-4.0898-9.1328-9.1328-9.1328-5.0469 0-9.1367 4.0898-9.1367 9.1328 0 5.0469 4.0898 9.1367 9.1367 9.1367 5.043 0 9.1328-4.0898 9.1328-9.1367z"/><use width="100%" height="100%" x="247.045" y="411.148" transform="translate(-152.28 -369.28)" xlink:href="#a"/><path fill="#91c7ff" stroke="#000" stroke-miterlimit="10" stroke-width=".399" d="M50.56 95.1c0-5.3008-4.2969-9.5976-9.5976-9.5976-5.2969 0-9.5938 4.2969-9.5938 9.5976 0 5.2969 4.2969 9.5938 9.5938 9.5938 5.3008 0 9.5976-4.2969 9.5976-9.5938z"/><use width="100%" height="100%" x="189.743" y="467.841" transform="translate(-152.28 -369.28)" xlink:href="#b"/><path fill="#91c7ff" stroke="#000" stroke-miterlimit="10" stroke-width=".399" d="M163.95 95.1c0-5.3008-4.2969-9.5976-9.5976-9.5976-5.2969 0-9.5938 4.2969-9.5938 9.5976 0 5.2969 4.2969 9.5938 9.5938 9.5938 5.3008 0 9.5976-4.2969 9.5976-9.5938z"/><use width="100%" height="100%" x="303.129" y="467.841" transform="translate(-152.28 -369.28)" xlink:href="#c"/><g transform="translate(-152.28 -369.28)"><use width="100%" height="100%" x="152.033" y="467.025" xlink:href="#d"/><use width="100%" height="100%" x="157.014" y="467.025" xlink:href="#e"/></g><use width="100%" height="100%" x="161.446" y="467.025" transform="translate(-152.28 -369.28)" xlink:href="#f"/><g transform="translate(-152.28 -369.28)"><use width="100%" height="100%" x="197.387" y="410.332" xlink:href="#d"/><use width="100%" height="100%" x="202.369" y="410.332" xlink:href="#e"/></g><use width="100%" height="100%" x="206.8" y="410.332" transform="translate(-152.28 -369.28)" xlink:href="#g"/><g transform="translate(-152.28 -369.28)"><use width="100%" height="100%" x="242.741" y="489.702" xlink:href="#d"/><use width="100%" height="100%" x="247.722" y="489.702" xlink:href="#e"/></g><use width="100%" height="100%" x="252.154" y="489.702" transform="translate(-152.28 -369.28)" xlink:href="#h"/><g transform="translate(-152.28 -369.28)"><use width="100%" height="100%" x="333.45" y="467.025" xlink:href="#d"/><use width="100%" height="100%" x="338.431" y="467.025" xlink:href="#e"/></g><use width="100%" height="100%" x="342.863" y="467.025" transform="translate(-152.28 -369.28)" xlink:href="#i"/><g transform="translate(-152.28 -369.28)"><use width="100%" height="100%" x="288.096" y="410.332" xlink:href="#d"/><use width="100%" height="100%" x="293.078" y="410.332" xlink:href="#e"/></g><use width="100%" height="100%" x="297.509" y="410.332" transform="translate(-152.28 -369.28)" xlink:href="#j"/><g transform="translate(-152.28 -369.28)"><use width="100%" height="100%" x="242.741" y="523.718" xlink:href="#d"/><use width="100%" height="100%" x="247.722" y="523.718" xlink:href="#e"/></g><use width="100%" height="100%" x="252.154" y="523.718" transform="translate(-152.28 -369.28)" xlink:href="#j"/><g transform="translate(-152.28 -369.28)"><use width="100%" height="100%" x="242.741" y="376.316" xlink:href="#d"/><use width="100%" height="100%" x="247.722" y="376.316" xlink:href="#e"/></g><use width="100%" height="100%" x="252.154" y="376.316" transform="translate(-152.28 -369.28)" xlink:href="#k"/><g transform="translate(-152.28 -369.28)"><use width="100%" height="100%" x="225.733" y="438.678" xlink:href="#d"/><use width="100%" height="100%" x="230.714" y="438.678" xlink:href="#e"/></g><use width="100%" height="100%" x="235.145" y="438.678" transform="translate(-152.28 -369.28)" xlink:href="#j"/><g transform="translate(-152.28 -369.28)"><use width="100%" height="100%" x="259.749" y="438.678" xlink:href="#d"/><use width="100%" height="100%" x="264.73" y="438.678" xlink:href="#e"/></g><use width="100%" height="100%" x="269.162" y="438.678" transform="translate(-152.28 -369.28)" xlink:href="#g"/><path fill="none" stroke="#000" stroke-miterlimit="10" stroke-width=".399" d="M97.66 47.74c0 26.078 46.898 73.438 46.898 47.816"/><path fill="none" stroke="#000" stroke-linecap="round" stroke-linejoin="round" stroke-miterlimit="10" stroke-width=".319" d="M142.96 96.76c.59765-.09766 1.4961-1.1953 1.5938-1.4961.10156.30078.99609 1.3984 1.5938 1.4961"/><path fill="none" stroke="#000" stroke-miterlimit="10" stroke-width=".399" d="M97.66 47.74c0 26.078-46.898 73.438-46.898 47.816"/><path fill="none" stroke="#000" stroke-linecap="round" stroke-linejoin="round" stroke-miterlimit="10" stroke-width=".319" d="M49.16 96.76c.59765-.09766 1.4961-1.1953 1.5976-1.4961.09766.30078.9961 1.3984 1.5938 1.4961"/><path fill="none" stroke="#000" stroke-miterlimit="10" stroke-width=".399" d="M40.96 85.31c0-26.082 47.359-72.98 47.359-47.359"/><path fill="none" stroke="#000" stroke-linecap="round" stroke-linejoin="round" stroke-miterlimit="10" stroke-width=".319" d="M89.92 36.76c-.59765.09765-1.4922 1.1953-1.5938 1.4922-.09765-.29687-.99609-1.3945-1.5938-1.4922"/><path fill="none" stroke="#000" stroke-miterlimit="10" stroke-width=".399" d="M45.88 103.61c20.191 34.977 83.367 34.977 103.33.39844"/><path fill="none" stroke="#000" stroke-linecap="round" stroke-linejoin="round" stroke-miterlimit="10" stroke-width=".32" d="M147.22 104.25c.57031.21485 1.8984-.28906 2.1328-.5-.0625.3125.16797 1.7148.63672 2.1016"/><path fill="none" stroke="#000" stroke-miterlimit="10" stroke-width=".399" d="M157.7 104.32c16.02 44.008-136.11 44.008-120.25.42968"/><path fill="none" stroke="#000" stroke-linecap="round" stroke-linejoin="round" stroke-miterlimit="10" stroke-width=".319" d="M35.54 105.33c.59766.11328 1.8164-.61328 2.0117-.85938-.01172.31641.46094 1.6524.98828 1.9531"/><path fill="none" stroke="#000" stroke-miterlimit="10" stroke-width=".399" d="M154.35 85.31c0-26.082-47.359-72.98-47.359-47.359"/><path fill="none" stroke="#000" stroke-linecap="round" stroke-linejoin="round" stroke-miterlimit="10" stroke-width=".319" d="M108.58 36.76c-.59765.09765-1.4922 1.1953-1.5938 1.4922-.09765-.29687-.99609-1.3945-1.5938-1.4922"/><path fill="none" stroke="#000" stroke-miterlimit="10" stroke-width=".399" d="M95.24 29.38c-3.9102-14.59 8.75-14.59 5.2188-1.4102"/><path fill="none" stroke="#000" stroke-linecap="round" stroke-linejoin="round" stroke-miterlimit="10" stroke-width=".319" d="M102.31 27.22c-.60546-.0586-1.7578.76953-1.9336 1.0312-.01953-.3125-.60156-1.6055-1.1523-1.8594"/><path fill="none" stroke="#000" stroke-miterlimit="10" stroke-width=".399" d="M31.49 97.64c-15.309 4.1016-15.309-9.1836-1.4102-5.457"/><path fill="none" stroke="#000" stroke-linecap="round" stroke-linejoin="round" stroke-miterlimit="10" stroke-width=".319" d="M29.33 90.33c-.05859.60156.76953 1.7539 1.0312 1.9297-.3125.01953-1.6055.60156-1.8594 1.1562"/><path fill="none" stroke="#000" stroke-miterlimit="10" stroke-width=".399" d="M163.83 92.56c15.309-4.1055 15.309 9.1797 1.4062 5.457"/><path fill="none" stroke="#000" stroke-linecap="round" stroke-linejoin="round" stroke-miterlimit="10" stroke-width=".319" d="M165.98 99.87c.05859-.60547-.76953-1.7578-1.0352-1.9297.31641-.01954 1.6094-.60547 1.8633-1.1562"/></svg>