<svg xmlns="http://www.w3.org/2000/svg" xmlns:xlink="http://www.w3.org/1999/xlink" width="194.504" height="156.787pt" viewBox="0 0 145.878 156.787"><defs><clipPath id="a"><path d="M1 108h48v48.57422H1Zm0 0"/></clipPath><clipPath id="c"><path d="M108 119h37.71875v37.57422H108Zm0 0"/></clipPath><clipPath id="d"><path d="M102 113h43.71875v43.57422H102Zm0 0"/></clipPath><clipPath id="f"><path d="M96 0h49.71875v44H96Zm0 0"/></clipPath><clipPath id="h"><path d="M.03906 11H39v39H.03906Zm0 0"/></clipPath><clipPath id="i"><path d="M.03906 5H45v51H.03906Zm0 0"/></clipPath><path id="b" d="M-.39062 0h4.34375v-.71875L2.84375-.79687c-.42187-.03126-.4375-.25-.34375-.67188.21875-1.01562.54688-2.03125.875-3.125h3.64063L8-1.46875c.14063.39063.07813.60938-.32812.65625l-1.09375.09375V0h5.9375v-.71875c-.98438-.01562-1.23438-.10937-1.46875-.89062l-3.6875-11.3125H5L2.84375-6.64062c-.67187 1.92187-1.29687 3.8125-1.75 4.95312-.29687.76563-.48437.90625-1.48437.96875ZM3.6875-5.48437l1.54688-4.85938H5.25l1.46875 4.85938Zm0 0"/><path id="e" d="M.71875 0h6.1875c2.125 0 3.4375-.375 4.21875-1.01562.76563-.60938 1.04688-1.51563 1.04688-2.53125 0-2.0625-1.54688-3.09375-3.28125-3.35938v-.03125c1.8125-.40625 2.76562-1.35937 2.76562-2.89062 0-2.28125-1.79687-3.09375-4.75-3.09375H.71875v.6875c1.32813.0625 1.48438.15625 1.48438 1.10937v9.3125c0 .95313-.15625 1.03125-1.48438 1.09375Zm4.5-2.0625v-4.34375h.95313c1.85937 0 2.71875 1.3125 2.71875 2.89063 0 2-1.03125 2.65625-2.34375 2.65625-.9375 0-1.32813-.29688-1.32813-1.20313m0-5.21875V-11.375c0-.64062.29688-.70312 1.04688-.70312 1.6875 0 2.35937 1 2.35937 2.39062s-.73437 2.40625-2.51562 2.40625Zm0 0"/><path id="g" d="M.89063-6.34375c0 4 2.04687 6.625 6.84375 6.625 1.3125 0 3.26562-.21875 4.375-.89062L12.32813-4.25h-.71875C10.90625-2.20312 10.10938-.57812 8-.57812c-3.32812 0-3.78125-3.95313-3.78125-6.0625 0-1.375.25-5.71875 3.64063-5.71875 2.39062 0 3.01562 1.95312 3.45312 3.3125h.71875v-3.34375c-1.10937-.67188-3.07812-.84375-4.01562-.84375-2.64063 0-4.42188.75-5.51563 1.96875C1.375-9.98437.89063-8.21875.89063-6.34375m0 0"/><path id="j" d="M.71875 0H6.3125c2.92188 0 7.54688-.39062 7.54688-6.60937q0-3.11719-1.64063-4.73438c-1.09375-1.0625-2.65625-1.5625-5.07812-1.57812H.71875v.6875c1.32813.0625 1.48438.15625 1.48438 1.10937v9.3125c0 .95313-.15625 1.03125-1.48438 1.09375Zm4.5-1.6875v-9.875c0-.4375.34375-.51562 1.53125-.51562 2.5 0 3.8125 1.875 3.8125 5.46875 0 4.9375-2.0625 5.75-3.875 5.75-1.17187 0-1.46875-.23438-1.46875-.82813m0 0"/></defs><path fill="#99F" d="M43.28125 132.16016c0-10.06641-8.16016-18.22657-18.22266-18.22657-10.0664 0-18.22656 8.16016-18.22656 18.22657 0 10.0625 8.16016 18.22265 18.22656 18.22265 10.0625 0 18.22266-8.16015 18.22266-18.22265m0 0"/><g clip-path="url(#a)"><path fill="none" stroke="#000" stroke-miterlimit="10" stroke-width=".39796" d="M43.28124 132.16016c0-10.0664-8.16015-18.22656-18.22265-18.22656-10.0664 0-18.22655 8.16015-18.22655 18.22656 0 10.0625 8.16015 18.22265 18.22655 18.22265 10.0625 0 18.22265-8.16016 18.22265-18.22265Zm0 0"/></g><use xlink:href="#b" x="18.94835" y="138.62567"/><g clip-path="url(#c)"><path fill="#99F" d="M145.51953 137.82031c0-10.2461-8.30469-18.55469-18.55469-18.55469-10.24609 0-18.55468 8.3086-18.55468 18.5547 0 10.25 8.30859 18.55468 18.55468 18.55468 10.25 0 18.5547-8.30469 18.5547-18.55469m0 0"/></g><g clip-path="url(#d)"><path fill="none" stroke="#000" stroke-miterlimit="10" stroke-width=".39796" d="M145.5195 137.82031c0-10.24609-8.3047-18.55468-18.55469-18.55468-10.24609 0-18.55468 8.3086-18.55468 18.55468 0 10.25 8.30859 18.55468 18.55468 18.55468 10.25 0 18.55468-8.30468 18.55468-18.55468Zm0 0"/></g><use xlink:href="#e" x="120.47842" y="144.28798"/><path fill="#99F" d="M140.03125 18.92578c0-10.34375-8.38281-18.72656-18.72656-18.72656s-18.72656 8.38281-18.72656 18.72656 8.3828 18.72656 18.72656 18.72656 18.72656-8.3828 18.72656-18.72656m0 0"/><g clip-path="url(#f)"><path fill="none" stroke="#000" stroke-miterlimit="10" stroke-width=".39796" d="M140.03121 18.92582c0-10.34375-8.3828-18.72656-18.72655-18.72656S102.5781 8.58207 102.5781 18.92582s8.3828 18.72656 18.72656 18.72656c10.34374 0 18.72655-8.38281 18.72655-18.72656Zm0 0"/></g><use xlink:href="#g" x="114.76717" y="25.40349"/><g clip-path="url(#h)"><path fill="#99F" d="M38.55469 30.25c0-10.58203-8.57813-19.16016-19.16016-19.16016S.23828 19.66797.23828 30.25 8.8125 49.40625 19.39453 49.40625 38.5547 40.83203 38.5547 30.25m0 0"/></g><g clip-path="url(#i)"><path fill="none" stroke="#000" stroke-miterlimit="10" stroke-width=".39796" d="M38.55468 30.25003c0-10.58202-8.57812-19.16015-19.16015-19.16015S.2383 19.66801.2383 30.25003s8.5742 19.15625 19.15623 19.15625 19.16015-8.57422 19.16015-19.15625Zm0 0"/></g><use xlink:href="#j" x="12.03274" y="36.71812"/><path fill="none" stroke="#000" stroke-miterlimit="10" stroke-width=".39796" d="m43.64843 133.1914 64.39451 3.57813m18.02343-17.8789-3.85156-80.86326M102.29685 21.0391l-63.46482 7.05078M20.48047 49.77346l3.54297 63.79295m13.09374 4.40235 71.80076-84.47263m4.64844 90.92184L33.22265 44.07815"/></svg>