<svg xmlns="http://www.w3.org/2000/svg" xmlns:xlink="http://www.w3.org/1999/xlink" width="208.241pt" height="162.125pt" viewBox="0 0 208.241 162.125"><defs><clipPath id="b"><path d="M170 16h37.30469v38H170Zm0 0"/></clipPath><clipPath id="c"><path d="M164 11h43.30469v49H164Zm0 0"/></clipPath><clipPath id="e"><path d="M102 123h38v38.2539h-38Zm0 0"/></clipPath><clipPath id="f"><path d="M96 118h50v43.2539H96Zm0 0"/></clipPath><clipPath id="h"><path d="M.17969 112H39v39H.17969Zm0 0"/></clipPath><clipPath id="i"><path d="M.17969 106H45v50H.17969Zm0 0"/></clipPath><path id="a" d="M-.39062 0H3.9375v-.71875L2.82813-.79687c-.40625-.03126-.4375-.25-.32813-.67188.21875-1.01562.53125-2.01562.875-3.10937H7l.96875 3.10937c.14063.40625.07813.60938-.32812.65625L6.5625-.71875V0h5.90625v-.71875C11.48438-.73437 11.23438-.82812 11-1.60937L7.32813-12.875H4.96875l-2.14062 6.25c-.67188 1.92188-1.28125 3.8125-1.73438 4.9375-.29687.78125-.48437.92188-1.48437.96875Zm4.0625-5.46875 1.53125-4.82812h.03125l1.46875 4.82812Zm0 0"/><path id="d" d="M.71875 0H6.875C9 0 10.29688-.375 11.07813-1.01562c.76562-.60938 1.04687-1.5 1.04687-2.51563 0-2.0625-1.54687-3.09375-3.26562-3.34375v-.04687c1.79687-.39063 2.75-1.34375 2.75-2.85938 0-2.28125-1.78125-3.09375-4.73438-3.09375H.71875v.6875c1.32813.0625 1.48438.15625 1.48438 1.10938v9.28125c0 .9375-.15625 1.03125-1.48438 1.07812ZM5.1875-2.0625V-6.375h.95313C8-6.375 8.85938-5.07812 8.85938-3.5c0 2-1.03125 2.64063-2.34375 2.64063-.92188 0-1.32813-.29688-1.32813-1.20313m0-5.1875v-4.07812c0-.64063.29688-.70313 1.04688-.70313 1.6875 0 2.35937 1 2.35937 2.375 0 1.39063-.73437 2.40625-2.51562 2.40625Zm0 0"/><path id="g" d="M.89063-6.3125c0 3.96875 2.04687 6.59375 6.8125 6.59375 1.3125 0 3.25-.21875 4.35937-.89062l.21875-3.625h-.70312C10.85938-2.20312 10.0625-.57812 7.96875-.57812c-3.3125 0-3.76562-3.9375-3.76562-6.04688 0-1.35937.25-5.67187 3.625-5.67187 2.375 0 3.01562 1.9375 3.4375 3.28125h.71875v-3.32813c-1.10938-.67187-3.0625-.82812-4-.82812-2.64063 0-4.39063.73437-5.48438 1.95312C1.35938-9.95312.89063-8.1875.89063-6.3125m0 0"/><path id="j" d="M.71875 0h5.5625C9.1875 0 13.8125-.39062 13.8125-6.57812c0-2.07813-.5625-3.64063-1.64062-4.71875-1.09375-1.0625-2.64063-1.5625-5.0625-1.57813H.71875v.6875c1.32813.0625 1.48438.15625 1.48438 1.10938v9.28125c0 .9375-.15625 1.03125-1.48438 1.07812ZM5.1875-1.6875v-9.82812c0-.4375.35938-.51563 1.53125-.51563 2.5 0 3.79688 1.875 3.79688 5.45313 0 4.90625-2.0625 5.71875-3.85938 5.71875-1.17187 0-1.46875-.23438-1.46875-.82813m0 0"/><path id="k" d="M.71875 0h10.42188l.21875-3.89062h-.71875C9.96875-1.875 9.67188-.85937 7.46875-.85937c-1.70312 0-2.28125-.17188-2.28125-1.35938v-4.0625h1.75c1.17188 0 1.40625.3125 1.70313 1.6875h.70312v-4.32812h-.70312C8.34375-7.54687 8.10938-7.25 6.9375-7.25h-1.75v-4.10937c0-.53125.14063-.67188.65625-.67188h1.375c1.92188 0 2.25.73438 2.82813 2.57813h.73437V-12.875H.71875v.6875c1.32813.0625 1.48438.15625 1.48438 1.10938v9.28125c0 .9375-.15625 1.03125-1.48438 1.07812Zm0 0"/></defs><path fill="#99F" stroke="#000" stroke-miterlimit="10" stroke-width=".39636" d="M94 18.34765C94 8.3242 85.875.1953 75.85158.1953c-10.02735 0-18.15235 8.1289-18.15235 18.15235 0 10.02343 8.125 18.15234 18.15235 18.15234C85.875 36.49999 94 28.37109 94 18.34765Zm0 0"/><use xlink:href="#a" x="69.76492" y="24.79021"/><g clip-path="url(#b)"><path fill="#99F" d="M207.10938 35.26563c0-10.20704-8.27344-18.48047-18.48047-18.48047s-18.48047 8.27343-18.48047 18.48046 8.27344 18.48047 18.48047 18.48047 18.48047-8.27343 18.48047-18.48047m0 0"/></g><g clip-path="url(#c)"><path fill="none" stroke="#000" stroke-miterlimit="10" stroke-width=".39636" d="M207.1094 35.26562c0-10.20704-8.27345-18.48048-18.48048-18.48048s-18.48047 8.27344-18.48047 18.48048 8.27344 18.48047 18.48047 18.48047 18.48047-8.27344 18.48047-18.48047Zm0 0"/></g><use xlink:href="#d" x="182.16529" y="41.7069"/><g clip-path="url(#e)"><path fill="#99F" d="M139.61328 142.40234c0-10.30078-8.35156-18.65234-18.65234-18.65234s-18.65235 8.35156-18.65235 18.65234c0 10.3047 8.35157 18.65235 18.65235 18.65235s18.65234-8.34766 18.65234-18.65235m0 0"/></g><g clip-path="url(#f)"><path fill="none" stroke="#000" stroke-miterlimit="10" stroke-width=".39636" d="M139.6133 142.40234c0-10.30078-8.35157-18.65234-18.65235-18.65234-10.30079 0-18.65235 8.35156-18.65235 18.65234 0 10.3047 8.35156 18.65235 18.65235 18.65235s18.65234-8.34766 18.65234-18.65235Zm0 0"/></g><use xlink:href="#g" x="114.44975" y="148.85562"/><g clip-path="url(#h)"><path fill="#99F" d="M38.54297 131.125c0-10.53516-8.54297-19.07812-19.08203-19.07812S.3789 120.58984.3789 131.125c0 10.53906 8.54297 19.08203 19.08203 19.08203s19.08203-8.54297 19.08203-19.08203m0 0"/></g><g clip-path="url(#i)"><path fill="none" stroke="#000" stroke-miterlimit="10" stroke-width=".39636" d="M38.54297 131.125c0-10.53516-8.54297-19.07813-19.08203-19.07813-10.53907 0-19.08204 8.54297-19.08204 19.07813 0 10.53906 8.54297 19.08203 19.08204 19.08203s19.08203-8.54297 19.08203-19.08203Zm0 0"/></g><use xlink:href="#j" x="12.12799" y="137.56754"/><path fill="#99F" stroke="#000" stroke-miterlimit="10" stroke-width=".39636" d="M122.09767 74.73828c0-9.97266-8.08204-18.0547-18.0547-18.0547-9.96874 0-18.05078 8.08204-18.05078 18.0547 0 9.96875 8.08204 18.05078 18.05079 18.05078 9.97265 0 18.05469-8.08203 18.05469-18.05078Zm0 0"/><use xlink:href="#k" x="98.08806" y="81.17887"/><path fill="none" stroke="#000" stroke-miterlimit="10" stroke-width=".39636" d="m94.19141 21.09765 75.37892 11.30859"/><path fill="none" stroke="#000" stroke-linecap="round" stroke-linejoin="round" stroke-miterlimit="10" stroke-width=".39634" d="M168.08203 29.77734c.16016 1.46875.89063 2.25782 1.6836 2.66016-.87891.14844-1.8086.6875-2.39063 2.04297"/><path fill="none" stroke="#000" stroke-miterlimit="10" stroke-width=".39636" d="m178.54689 51.22265-47.20313 74.7422"/><path fill="none" stroke="#000" stroke-linecap="round" stroke-linejoin="round" stroke-miterlimit="10" stroke-width=".39635" d="M134.35156 125.66016c-1.41015-.44531-2.42578-.09375-3.11328.47265.21875-.86328.09375-1.9336-.91015-3.01562"/><path fill="none" stroke="#000" stroke-miterlimit="10" stroke-width=".39636" d="m102.03126 140.30078-62.82032-6.98047"/><path fill="none" stroke="#000" stroke-linecap="round" stroke-linejoin="round" stroke-miterlimit="10" stroke-width=".39635" d="M40.80078 135.89062c-.21484-1.46093-.97656-2.22265-1.78516-2.59375.8711-.17968 1.77735-.7578 2.3086-2.1328"/><path fill="none" stroke="#000" stroke-miterlimit="10" stroke-width=".39636" d="M84.14454 34.93749 95.6172 57.88281"/><path fill="none" stroke="#000" stroke-linecap="round" stroke-linejoin="round" stroke-miterlimit="10" stroke-width=".39634" d="M96.91016 55.15234c-1.10547.97266-1.33594 2.02735-1.20313 2.90625-.6289-.6328-1.60547-1.08203-3.05078-.78125"/><path fill="none" stroke="#000" stroke-miterlimit="10" stroke-width=".39636" d="M35.66797 120.32422 88.36329 85.1914"/><path fill="none" stroke="#000" stroke-linecap="round" stroke-linejoin="round" stroke-miterlimit="10" stroke-width=".39634" d="M85.4961 84.2461c1.10546.97655 2.17577 1.07421 3.03124.83593-.54687.69922-.8711 1.72266-.39453 3.1211"/></svg>