<svg xmlns="http://www.w3.org/2000/svg" xmlns:xlink="http://www.w3.org/1999/xlink" width="264.503pt" height="94.093pt" viewBox="0 0 264.503 94.093"><defs><clipPath id="a"><path d="M108 51h48v42.19531h-48Zm0 0"/></clipPath><clipPath id="c"><path d="M225 0h37.9961v38H225Zm0 0"/></clipPath><clipPath id="d"><path d="M220 0h42.9961v43H220Zm0 0"/></clipPath><clipPath id="f"><path d="M1.01563 0H39v38H1.01563Zm0 0"/></clipPath><clipPath id="g"><path d="M1.01563 0H44v43H1.01563Zm0 0"/></clipPath><path id="b" d="M-.39062 0h4.3125v-.70312L2.82813-.79688c-.42188-.03124-.4375-.25-.34375-.65624.21875-1.01563.53125-2.01563.875-3.10938h3.60937l.96875 3.10938c.14063.39062.07813.60937-.3125.64062l-1.09375.10938V0h5.875v-.70312c-.95312-.03126-1.21875-.125-1.45312-.89063L7.29688-12.82812H4.95313l-2.125 6.23437c-.67188 1.92188-1.28125 3.79688-1.75 4.92188-.28126.76562-.46875.90625-1.46875.96875Zm4.04687-5.45312 1.53125-4.8125h.01563l1.46875 4.8125Zm0 0"/><path id="e" d="M.70313 0h6.14062c2.10938 0 3.42188-.375 4.1875-1s1.04688-1.5 1.04688-2.51562c0-2.04688-1.54688-3.07813-3.25-3.32813v-.04687C10.60938-7.28125 11.5625-8.23437 11.5625-9.75c0-2.26562-1.78125-3.07812-4.71875-3.07812H.70313v.6875c1.32812.0625 1.48437.15625 1.48437 1.10937v9.23438c0 .95312-.15625 1.03125-1.48437 1.09375Zm4.46875-2.04687v-4.3125H6.125c1.84375 0 2.70313 1.3125 2.70313 2.85937 0 2-1.03125 2.65625-2.32813 2.65625-.9375 0-1.32812-.29687-1.32812-1.20312m0-5.17188v-4.0625c0-.64062.29687-.70312 1.04687-.70312 1.67188 0 2.34375 1 2.34375 2.375s-.73437 2.39062-2.5 2.39062Zm0 0"/><path id="h" d="M.89063-6.29687c0 3.96875 2.03125 6.57812 6.78125 6.57812 1.3125 0 3.23437-.21875 4.34375-.89062l.21875-3.60938h-.70313c-.71875 2.03125-1.5 3.64063-3.59375 3.64063-3.29687 0-3.75-3.92188-3.75-6.01563 0-1.35937.25-5.65625 3.60938-5.65625 2.35937 0 3 1.92188 3.4375 3.26563h.70312v-3.3125c-1.10937-.67188-3.0625-.82813-3.98437-.82813-2.625 0-4.375.73438-5.46875 1.95313-1.125 1.26562-1.59375 3.01562-1.59375 4.875m0 0"/></defs><path fill="#99F" d="M150.16406 74.92188c0-9.98047-8.08984-18.07422-18.07422-18.07422-9.98047 0-18.07422 8.09375-18.07422 18.07422 0 9.98437 8.09376 18.07421 18.07422 18.07421 9.98438 0 18.07422-8.08984 18.07422-18.07421m0 0"/><g clip-path="url(#a)"><path fill="none" stroke="#000" stroke-miterlimit="10" stroke-width=".39469" d="M150.16407 74.92185c0-9.98047-8.08985-18.07422-18.07423-18.07422-9.98047 0-18.07422 8.09375-18.07422 18.07422 0 9.98438 8.09375 18.07423 18.07422 18.07423 9.98438 0 18.07423-8.08985 18.07423-18.07423Zm0 0"/></g><use xlink:href="#b" x="126.03245" y="81.33696"/><g clip-path="url(#c)"><path fill="#99F" d="M262.79688 18.76953c0-10.16406-8.23829-18.40234-18.40235-18.40234S225.9922 8.60547 225.9922 18.76953s8.23828 18.40235 18.40234 18.40235 18.40234-8.23829 18.40234-18.40235m0 0"/></g><g clip-path="url(#d)"><path fill="none" stroke="#000" stroke-miterlimit="10" stroke-width=".39469" d="M262.79692 18.76949c0-10.16407-8.23828-18.40235-18.40235-18.40235s-18.40235 8.23828-18.40235 18.40235 8.23829 18.40235 18.40235 18.40235c10.16407 0 18.40235-8.23828 18.40235-18.40235Zm0 0"/></g><use xlink:href="#e" x="237.96053" y="25.18523"/><g clip-path="url(#f)"><path fill="#99F" d="M38.35938 18.76953c0-10.25781-8.31641-18.57422-18.57422-18.57422S1.21094 8.51171 1.21094 18.76953c0 10.25781 8.3164 18.57422 18.57422 18.57422 10.2578 0 18.57421-8.3164 18.57421-18.57422m0 0"/></g><g clip-path="url(#g)"><path fill="none" stroke="#000" stroke-miterlimit="10" stroke-width=".39469" d="M38.35934 18.76949c0-10.25782-8.3164-18.57423-18.57423-18.57423C9.5273.19526 1.2109 8.51167 1.2109 18.7695s8.31639 18.5742 18.5742 18.5742 18.57423-8.3164 18.57423-18.57422Zm0 0"/></g><use xlink:href="#h" x="13.30507" y="25.19513"/><path fill="none" stroke="#000" stroke-miterlimit="10" stroke-width=".39469" d="m148.60938 66.66404 78.62112-39.31252"/><path fill="none" stroke="#000" stroke-linecap="round" stroke-linejoin="round" stroke-miterlimit="10" stroke-width=".39466" d="M224.51172 26.0625c.97266 1.10547 2.01953 1.33203 2.89453 1.20312-.6289.6211-1.07422 1.59375-.77344 3.03516"/><path fill="none" stroke="#000" stroke-miterlimit="10" stroke-width=".39469" d="M225.5977 18.76949H39.1484"/><path fill="none" stroke="#000" stroke-linecap="round" stroke-linejoin="round" stroke-miterlimit="10" stroke-width=".39469" d="M41.0039 21.13672c-.375-1.41797-1.21093-2.08985-2.05078-2.36719.83985-.27734 1.67579-.94531 2.05079-2.36719"/><path fill="none" stroke="#000" stroke-miterlimit="10" stroke-width=".39469" d="m36.74996 27.25387 78.46878 39.23439"/><path fill="none" stroke="#000" stroke-linecap="round" stroke-linejoin="round" stroke-miterlimit="10" stroke-width=".39466" d="M114.6211 63.53906c-.30079 1.4375.14453 2.41406.77343 3.03516-.875-.1289-1.92187.09765-2.89453 1.19922"/></svg>