<svg xmlns="http://www.w3.org/2000/svg" xmlns:xlink="http://www.w3.org/1999/xlink" width="264.503pt" height="145.018pt" viewBox="0 0 264.503 145.018"><defs><clipPath id="b"><path d="M226 0h37.36719v38H226Zm0 0"/></clipPath><clipPath id="c"><path d="M220 0h43.36719v43H220Zm0 0"/></clipPath><clipPath id="e"><path d="M.64453 0H39v38H.64453Zm0 0"/></clipPath><clipPath id="f"><path d="M.64453 0H44v44H.64453Zm0 0"/></clipPath><clipPath id="h"><path d="M118 95h51v49.04297h-51Zm0 0"/></clipPath><clipPath id="j"><path d="M209 102h49v42.04297h-49Zm0 0"/></clipPath><path id="a" d="M-.39062 0H3.9375v-.71875L2.82813-.79687c-.40625-.03126-.4375-.25-.32813-.67188.21875-1 .53125-2.01562.85938-3.10937h3.625l.96875 3.10937c.14062.40625.07812.625-.3125.65625l-1.09375.09375V0h5.90625v-.71875c-.96875-.01562-1.23438-.10937-1.46875-.89062L7.32813-12.875H4.96875L2.82813-6.60937C2.15625-4.6875 1.54688-2.8125 1.09375-1.6875c-.29687.78125-.48437.92188-1.48437.96875Zm4.04687-5.46875 1.54688-4.82812h.01562L6.6875-5.46875Zm0 0"/><path id="d" d="M.71875 0H6.875c2.10938 0 3.42188-.375 4.1875-1.01562.78125-.60938 1.04688-1.5 1.04688-2.51563 0-2.04687-1.53125-3.07812-3.26563-3.34375v-.03125c1.8125-.40625 2.75-1.34375 2.75-2.875 0-2.28125-1.78125-3.09375-4.71875-3.09375H.71875v.70313c1.32813.0625 1.48438.15625 1.48438 1.10937v9.26563c0 .95312-.15625 1.03125-1.48438 1.07812ZM5.1875-2.0625V-6.375h.95313C8-6.375 8.84375-5.0625 8.84375-3.5c0 2-1.03125 2.65625-2.32812 2.65625-.9375 0-1.32813-.29687-1.32813-1.21875m0-5.1875v-4.07812c0-.625.29688-.6875 1.04688-.6875 1.6875 0 2.35937.98437 2.35937 2.375C8.59375-8.25 7.85938-7.25 6.07813-7.25Zm0 0"/><path id="g" d="M.89063-6.3125c0 3.96875 2.04687 6.59375 6.8125 6.59375 1.29687 0 3.25-.21875 4.35937-.89062l.21875-3.625h-.71875c-.71875 2.03125-1.5 3.65625-3.60937 3.65625-3.29688 0-3.75-3.9375-3.75-6.03125 0-1.375.25-5.6875 3.60937-5.6875 2.39063 0 3.01563 1.9375 3.45313 3.29687h.71875v-3.32812c-1.10938-.67188-3.07813-.84375-4-.84375-2.64063 0-4.40625.73437-5.48438 1.96875C1.35938-9.9375.89063-8.17187.89063-6.3125m0 0"/><path id="i" d="M.71875 0h5.5625c2.90625 0 7.51563-.39062 7.51563-6.57812 0-2.07813-.54688-3.64063-1.64063-4.70313-1.09375-1.07812-2.64062-1.5625-5.04687-1.59375H.71875v.70313c1.32813.0625 1.48438.15625 1.48438 1.10937v9.26563c0 .95312-.15625 1.03125-1.48438 1.07812ZM5.1875-1.6875V-11.5c0-.4375.35938-.51562 1.53125-.51562 2.48438 0 3.79688 1.85937 3.79688 5.4375 0 4.92187-2.0625 5.73437-3.85938 5.73437-1.17187 0-1.46875-.25-1.46875-.84375m0 0"/><path id="k" d="M.71875 0H11.125l.21875-3.875H10.625c-.67187 2-.96875 3.03125-3.15625 3.03125-1.70312 0-2.28125-.1875-2.28125-1.375v-4.0625h1.73438c1.17187 0 1.40625.32813 1.70312 1.6875h.71875v-4.3125H8.625C8.32813-7.54687 8.09375-7.25 6.92188-7.25H5.1875v-4.09375c0-.53125.14063-.67187.65625-.67187h1.35938c1.92187 0 2.26562.73437 2.82812 2.57812h.73438v-3.4375H.71875v.70313c1.32813.0625 1.48438.15625 1.48438 1.10937v9.26563c0 .95312-.15625 1.03125-1.48438 1.07812Zm0 0"/></defs><path fill="#99F" stroke="#000" stroke-miterlimit="10" stroke-width=".39582" d="M150.21875 30.08594c0-10.01172-8.11719-18.125-18.1289-18.125-10.01173 0-18.125 8.11328-18.125 18.125s8.11327 18.125 18.125 18.125c10.01171 0 18.1289-8.11329 18.1289-18.125Zm0 0"/><use xlink:href="#a" x="126.01473" y="36.51871"/><g clip-path="url(#b)"><path fill="#99F" d="M263.17188 18.82422c0-10.19531-8.26563-18.45703-18.45704-18.45703s-18.45312 8.26172-18.45312 18.45703c0 10.1914 8.26172 18.45312 18.45312 18.45312 10.19141 0 18.45703-8.26172 18.45703-18.45312m0 0"/></g><g clip-path="url(#c)"><path fill="none" stroke="#000" stroke-miterlimit="10" stroke-width=".39582" d="M263.17188 18.82422c0-10.19532-8.26563-18.45704-18.45703-18.45704s-18.45313 8.26172-18.45313 18.45704c0 10.1914 8.26172 18.45312 18.45313 18.45312 10.1914 0 18.45703-8.26172 18.45703-18.45312Zm0 0"/></g><use xlink:href="#d" x="238.26164" y="25.25697"/><g clip-path="url(#e)"><path fill="#99F" d="M38.09375 18.82422c0-10.28906-8.33984-18.6289-18.6289-18.6289-10.28516 0-18.625 8.33984-18.625 18.6289 0 10.28516 8.33984 18.625 18.625 18.625 10.28906 0 18.6289-8.33984 18.6289-18.625m0 0"/></g><g clip-path="url(#f)"><path fill="none" stroke="#000" stroke-miterlimit="10" stroke-width=".39582" d="M38.09375 18.82422C38.09375 8.53515 29.7539.1953 19.46485.1953 9.17967.1953.83983 8.53515.83983 18.8242c0 10.28516 8.33984 18.625 18.625 18.625 10.28906 0 18.6289-8.33984 18.6289-18.625Zm0 0"/></g><use xlink:href="#g" x="12.96625" y="25.2669"/><path fill="#99F" d="M162.40625 120.1875c0-10.52734-8.53125-19.0586-19.05469-19.0586s-19.05469 8.53126-19.05469 19.0586c0 10.52344 8.53126 19.05469 19.0547 19.05469 10.52343 0 19.05468-8.53125 19.05468-19.05469m0 0"/><g clip-path="url(#h)"><path fill="none" stroke="#000" stroke-miterlimit="10" stroke-width=".39582" d="M162.40625 120.1875c0-10.52734-8.53125-19.0586-19.05469-19.0586-10.52343 0-19.05468 8.53126-19.05468 19.0586 0 10.52344 8.53125 19.05469 19.05468 19.05469s19.0547-8.53125 19.0547-19.0547Zm0 0"/></g><use xlink:href="#i" x="136.02991" y="126.6176"/><path fill="#99F" d="M251.48047 125.8164c0-9.95703-8.07031-18.02734-18.02734-18.02734s-18.02735 8.07031-18.02735 18.02735 8.07031 18.02734 18.02734 18.02734 18.02735-8.07031 18.02735-18.02734m0 0"/><g clip-path="url(#j)"><path fill="none" stroke="#000" stroke-miterlimit="10" stroke-width=".39582" d="M251.48047 125.8164c0-9.95703-8.07031-18.02734-18.02734-18.02734s-18.02735 8.07031-18.02735 18.02735 8.07032 18.02734 18.02735 18.02734 18.02734-8.07031 18.02734-18.02734Zm0 0"/></g><use xlink:href="#k" x="227.50449" y="132.24847"/><path fill="none" stroke="#000" stroke-miterlimit="10" stroke-width=".39582" d="m145.55469 42.80078 74.21484 70.09375"/><path fill="none" stroke="#000" stroke-linecap="round" stroke-linejoin="round" stroke-miterlimit="10" stroke-width=".39579" d="M220.05078 109.89063c-.70703 1.29296-.5586 2.35937-.13672 3.14062-.80468-.3789-1.875-.46484-3.125.3125"/><path fill="none" stroke="#000" stroke-miterlimit="10" stroke-width=".39582" d="m215.0664 124.66797-51.90624-3.2461"/><path fill="none" stroke="#000" stroke-linecap="round" stroke-linejoin="round" stroke-miterlimit="10" stroke-width=".39579" d="M164.86719 123.91015c-.28516-1.4453-1.07813-2.17187-1.90625-2.5.85937-.22265 1.73828-.84374 2.20312-2.24218"/><path fill="none" stroke="#000" stroke-miterlimit="10" stroke-width=".39582" d="m157.10547 106.4336 74-74"/><path fill="none" stroke="#000" stroke-linecap="round" stroke-linejoin="round" stroke-miterlimit="10" stroke-width=".39581" d="M228.10938 32.07031c1.27343.74219 2.34375.625 3.13671.22266-.40234.79297-.51953 1.85937.22266 3.13281"/><path fill="none" stroke="#000" stroke-miterlimit="10" stroke-width=".39582" d="M37.83984 13.90234c29.67188-7.95313 29.67188 17.79297 1.33985 10.20313"/><path fill="none" stroke="#000" stroke-linecap="round" stroke-linejoin="round" stroke-miterlimit="10" stroke-width=".39582" d="M40.35938 26.8789c.0078-1.47265-.62891-2.33984-1.3711-2.82421.88672-.05078 1.8711-.48438 2.60156-1.76172"/></svg>