<svg xmlns="http://www.w3.org/2000/svg" xmlns:xlink="http://www.w3.org/1999/xlink" width="472.664pt" height="343.99pt" viewBox="0 0 472.664 343.99"><defs><path id="a" d="M.70313-2.89062 1.09375 0h5.17188c.03125 0 .1875-.42187.1875-.45312-2.75-2.9375-3.17188-5.5-3.17188-7.625 0-2.59375 1.60938-4.39063 4.1875-4.39063 2.60938 0 4.23438 1.79688 4.23438 4.39063 0 2.125-.4375 4.6875-3.1875 7.625 0 .03125.15625.45312.1875.45312H13.875l.39063-2.89062h-.53125c-.3125 1.0625-.59375 1.23437-1.46875 1.23437h-2.04688c1.0625-.85937 3.5-3.375 3.5-6.5 0-3.73437-3.5625-5.01562-6.23437-5.01562s-6.20313 1.28125-6.20313 5.01562c.04688 3.125 2.40625 5.64063 3.46875 6.5H2.70313c-.875 0-1.15625-.17187-1.46875-1.23437Zm0 0"/><path id="b" d="M-6.4375-11.17187h5.375v-1.10938h-5.375Zm0 0"/><path id="c" d="M-.35937 0h4.21875l.125-.53125-1.03125-.10937c-.25-.01563-.34375-.14063-.34375-.3125q0-.16407.09375-.375C3.32813-2.53125 3.92188-3.75 4.625-5h4.1875l.46875 3.85938s-.10937.46875-.5.5l-1 .10937L7.6875 0h4.59375l.125-.53125-.71875-.0625c-.57812-.0625-.65625-.32812-.76562-1.09375l-1.35938-11.25H8.21875L5.07813-7.42187C4.125-5.75 2.5625-2.96875 1.875-1.84375 1.28125-.875.95313-.67187.375-.60937l-.60937.07812ZM5-5.71875l3.04688-5.48437.67187 5.48437Zm0 0"/><path id="d" d="M0 0h5.67188c4.51562 0 5.4375-2.32812 5.4375-3.875 0-1.98437-1.45313-2.82812-2.82813-3.09375L8.29688-7c2.5-.3125 3.54687-1.71875 3.54687-3.125 0-1.51562-.89062-2.8125-4.34375-2.8125H2.76563l-.125.53125 1.125.10938c.3125.01562.45312.15625.45312.45312 0 .125-.03125.28125-.07812.45313L1.9375-1.54687c-.14062.60937-.32812.82812-.78125.89062l-1.0625.125Zm3.75-1.4375c0-.14062.01563-.28125.04688-.40625L4.875-6.65625h.73438c1.85937 0 3.48437.54688 3.48437 2.67188 0 1.67187-1.01562 3.32812-3.51562 3.32812C4.09375-.65625 3.75-.95312 3.75-1.4375m1.26563-5.875.96875-4.32812c.14062-.5625.25-.65625 1.5-.65625 1.57812 0 2.45312.79687 2.45312 2.10937 0 1.95313-1.64062 2.875-3.70312 2.875Zm0 0"/><path id="e" d="m0 0 5.10938 1.45313.25-.48438L4.15625.51563c-.3125-.10938-.42187-.29688-.32812-.57813.03125-.125.09375-.25.17187-.40625l1.82813-3.3125 1.32812.39063c1.53125.4375 3.01563.625 4.21875.28125 1.34375-.375 2.375-1.40625 2.75-2.75.35938-1.21875.0625-2.32813-.6875-3.07813-.70312-.71875-1.8125-1.1875-3-1.53125l-4.21875-1.20312-.28125.46875 1.07813.375c.28125.125.375.3125.29687.60937-.03125.125-.09375.25-.1875.40625L2.25-.95312c-.3125.54687-.53125.71875-.96875.64062L.23438-.48437Zm6.35938-4.71875c.03125-.10937.09375-.23437.17187-.375l2.45313-4.4375c.23437-.4375.40625-.57812 1.3125-.3125 1.79687.5 2.46875 1.60938 2.03125 3.14063-.73438 2.5625-2.51563 3.39062-4.95313 2.6875-.90625-.26563-1.10937-.40625-1.01562-.70313m0 0"/><path id="h" d="M3-4.64062C1.84375-.57812 1.48438 4.14063 5.25 5.40625l.15625-.54687c-1.20312-.625-2.78125-2.76563-.96875-9.07813 1.78125-6.25 4.14063-7.29687 5.60938-7.1875l.15625-.54687c-3.84375-.9375-6.04688 3.25-7.20313 7.3125m0 0"/><path id="i" d="m-3.125-12.5 5.17188 1.46875.3125-1.07812-5.17188-1.46875Zm0 0"/><path id="j" d="m0 0 5.45313 1.5625c4.34375 1.23438 5.875-.75 6.29687-2.23437.54688-1.92188-.625-3.10938-1.85937-3.75l.01562-.03125c2.48438.39062 3.875-.6875 4.26563-2.03125.42187-1.45313-.09375-2.9375-3.40625-3.89063l-4.5625-1.29687-.26563.46875L7-10.79687c.29688.10937.39063.28125.3125.5625-.03125.125-.10937.26562-.20312.42187L2.28125-.95312C1.98438-.40625 1.75-.25 1.29688-.3125L.23438-.48437Zm4-.34375c.04688-.14062.09375-.28125.15625-.375L6.51563-5.0625l.70312.20313c1.79688.5 3.20313 1.48437 2.625 3.53125C9.39063.28124 7.95313 1.59375 5.54688.90625 4.125.5 3.875.10938 4-.34375m2.84375-5.3125 2.10938-3.89062c.29687-.5.42187-.5625 1.625-.21875 1.51562.42187 2.14062 1.4375 1.78125 2.70312C11.82813-5.1875 10-4.75 8.01563-5.3125Zm0 0"/><path id="k" d="m.1875 3.375-.15625.54688C3.89063 4.82813 6.09375.64063 7.25-3.42187s1.51563-8.78125-2.26562-10.01563l-.15625.54688c1.3125.67187 2.76562 2.8125.98437 9.0625C4 2.48438 1.5625 3.48438.1875 3.375m0 0"/><path id="f" d="m-2.1875-8.75 3.625 1.03125.21875-.75L-1.96875-9.5Zm0 0"/><path id="g" d="M-.23437-.0625 2.625.75l.1875-.375-.67187-.25c-.15625-.0625-.21875-.1875-.1875-.29687.0625-.21875 2.04687-2.23438 2.0625-2.25l2.75.79687L6.34375.95313s-.15625.29687-.4375.25l-.67187-.125-.20313.35937 3.28125.9375L8.5 2l-.46875-.1875c-.375-.14062-.35937-.39062-.28125-.90625L9-6.85937l-1.03125-.29688L4.76563-4C3.75-3.01562 2.1875-1.45312 1.53125-.85937 1-.375.75-.3125.34375-.375L-.0625-.4375ZM4.4375-2.84375l3.03125-3.04687-.60937 3.73437Zm0 0"/><path id="l" d="m0 0 5.10938-1.45312L5.07813-2l-1.29688.23438c-.3125.07812-.48437-.01563-.57812-.29688-.03125-.125-.03125-.28125-.04688-.4375l-.20312-3.78125 1.32812-.39062c1.53125-.4375 2.89063-1.0625 3.75-1.96875.9375-1.03125 1.25-2.46875.875-3.8125-.35937-1.21875-1.1875-1.98438-2.21875-2.23438-.98437-.25-2.15625-.0625-3.34375.28125L-.875-13.20312v.5625l1.10938-.25c.3125-.0625.5.0625.57812.35937.03125.125.0625.25.0625.4375l.53125 10.07813c.03125.64062-.0625.90625-.5 1.07812l-.95312.39063Zm2.89063-7.375c-.03125-.10937-.03125-.23437-.04688-.40625l-.26562-5.0625c-.01563-.5.0625-.70312.96875-.96875 1.79687-.5 2.9375.07813 3.375 1.60938C7.65625-9.64062 6.5625-8 4.125-7.29687c-.90625.26562-1.14062.21875-1.23437-.07813m0 0"/><path id="o" d="M.09375-5.51562C1.25-1.45312 3.45313 2.73438 7.3125 1.8125l-.15625-.54687c-1.35937.125-3.8125-.89063-5.625-7.20313-1.78125-6.25-.32812-8.39062.98438-9.0625l-.15625-.54687c-3.78125 1.25-3.42188 5.96875-2.26563 10.03125m0 0"/><path id="p" d="m0 0 5.45313-1.5625C9.79688-2.79687 10.04688-5.28125 9.625-6.76562 9.07813-8.6875 7.4375-9.09375 6.04688-8.98437l.01562-.03125C8.35938-10 9-11.64062 8.60938-12.98437c-.42188-1.45313-1.625-2.46875-4.9375-1.51563l-4.5625 1.29688.01562.5625 1.125-.21875c.29688-.07813.48438.03125.5625.3125.03125.125.04688.26562.04688.45312L1.4375-2.01562c.04688.60937-.09375.89062-.51562 1.07812l-.96875.39063Zm3.21875-2.40625c-.04687-.14062-.0625-.28125-.0625-.40625L2.85938-7.75l.70312-.20312c1.79688-.5 3.51563-.42188 4.09375 1.625.45313 1.60937-.07812 3.48437-2.48437 4.17187-1.42188.40625-1.82813.20313-1.95313-.25m-.40625-6-.26562-4.42187c-.01563-.59375.07812-.71875 1.28125-1.0625 1.51562-.42188 2.57812.09375 2.9375 1.35937.53125 1.875-.79688 3.21875-2.78125 3.78125Zm0 0"/><path id="q" d="m1.9375 2.75.15625.54688c3.76563-1.25 3.40625-5.96875 2.25-10.03125s-3.35937-8.25-7.20312-7.32813l.15625.54688c1.46875-.10938 3.82812.9375 5.60937 7.1875 1.8125 6.3125.25 8.46875-.96875 9.07812m0 0"/><path id="m" d="m-6.46875-6.28125 3.625-1.03125-.21875-.75-3.625 1.03125Zm0 0"/><path id="n" d="M-.23437.0625 2.625-.75l-.03125-.40625-.70312.125c-.1875.03125-.28126-.03125-.3125-.14062-.0625-.21876.54687-2.98438.5625-3l2.75-.79688.98437 2.42188s.03125.32812-.21875.4375l-.64062.25.01562.42187L8.3125-2.375l-.03125-.40625-.5.09375c-.40625.07813-.51562-.17187-.71875-.625l-3.03125-7.26562L3-10.28125l-1.07812 4.375C1.59375-4.54687 1.09375-2.39062.84375-1.54687c-.1875.70312-.375.89062-.75 1.04687l-.375.15625ZM2.25-4.75l.96875-4.20312L4.67188-5.4375Zm0 0"/><path id="r" d="m0 0 4.75 2.375.32813-.42187L3.98438 1.25C3.6875 1.10938 3.625.90625 3.76563.64063c.04687-.10938.14062-.21876.25-.375l2.40625-2.90625 1.25.60937C9.09375-1.3125 10.5-.84375 11.76563-.95312c1.39062-.125 2.59375-.95313 3.20312-2.20313.57813-1.14062.48438-2.28125-.125-3.14062-.54687-.84375-1.54687-1.51563-2.64062-2.07813l-3.9375-1.95312-.35938.42187.98438.5625c.25.17188.3125.375.17187.65625-.04687.10938-.125.21875-.25.35938L2.39063-.53125c-.42188.48438-.65625.625-1.07813.45313l-1-.34375Zm7.10938-3.46875c.04687-.10937.14062-.20312.23437-.32812l3.23438-3.92188c.32812-.39062.51562-.48437 1.35937-.0625 1.67188.82813 2.125 2.04688 1.40625 3.46875C12.15625-1.9375 10.25-1.45312 8-2.59375c-.85937-.42187-1.03125-.60937-.89062-.875m0 0"/><path id="s" d="M3.79688-4C1.90625-.23437.70313 4.34375 4.17188 6.28125l.25-.51562c-1.07813-.82813-2.21875-3.23438.71875-9.09375 2.90625-5.8125 5.4375-6.40625 6.84375-6.03125l.25-.5C8.625-11.5 5.6875-7.78125 3.79688-4m0 0"/><path id="t" d="m-.76562-12.875 4.8125 2.40625.48437-.98437-4.8125-2.40625Zm0 0"/><path id="u" d="m-.32812-.15625 3.78125 1.875.34375-.40625-.875-.5625C2.71875.60938 2.67188.46875 2.75.3125c.04688-.09375.14063-.1875.26563-.29687C4.10938-.78125 5.1875-1.60937 6.375-2.40625l3.73438 1.875L8.8125 3.14063S8.5 3.5 8.14063 3.34375l-.95313-.32812-.3125.42187 4.10938 2.04688.34375-.40625-.60938-.39063c-.48437-.3125-.45312-.57812-.20312-1.3125l3.8125-10.67187-1.20313-.60938L7.85938-4.375C6.26563-3.29687 3.625-1.51562 2.5-.8125c-.96875.60938-1.34375.64063-1.90625.4375l-.5625-.20312ZM7.03125-2.875l5.1875-3.54687-1.85937 5.21875Zm0 0"/><path id="v" d="m-.42187 3.34375-.25.51563C2.95313 5.46875 5.85938 1.75 7.75-2.01562c1.89063-3.78125 3.125-8.35938-.35937-10.26563l-.25.5C8.29688-10.875 9.3125-8.5 6.40625-2.6875 3.46875 3.17188.875 3.70313-.42187 3.34375m0 0"/><path id="w" d="m0 0 4.75-2.375-.14062-.51562-1.21875.45312c-.29688.14063-.48438.0625-.625-.20312-.04688-.10938-.07813-.25-.125-.40625l-.90625-3.6875 1.25-.60938c1.42187-.71875 2.64062-1.5625 3.3125-2.64062.73437-1.1875.78125-2.64063.17187-3.89063-.57812-1.14062-1.54687-1.75-2.59375-1.79687-1.01562-.0625-2.14062.32812-3.23437.89062l-3.9375 1.95313.10937.54687 1.04688-.4375c.28125-.10937.48437-.03125.625.25.04687.10938.10937.25.14062.42188L1.01563-2.25c.14062.64063.09374.90625-.29688 1.14063l-.875.59375Zm1.48438-7.78125c-.04688-.10937-.07813-.23437-.10938-.39062L.17188-13.09375c-.10938-.48437-.07813-.70312.76562-1.125 1.67188-.82812 2.90625-.48437 3.625.9375 1.1875 2.375.40625 4.20313-1.84375 5.34375-.85937.42188-1.09375.42188-1.23437.15625m0 0"/><path id="x" d="M-.92187-5.4375c1.89062 3.76563 4.8125 7.5 8.4375 5.875l-.25-.51562C5.96875.28125 3.35938-.25.42188-6.10937c-2.90625-5.8125-1.875-8.1875-.71875-9.09375l-.25-.5c-3.48438 1.92187-2.26563 6.48437-.375 10.26562m0 0"/><path id="y" d="m-.32812.15625 3.78125-1.875-.125-.53125-.96875.34375c-.23438.10938-.375.03125-.45313-.125-.04687-.09375-.07812-.21875-.07812-.35937.03124-1.35938.01562-2.71875.07812-4.14063l3.73438-1.875 2.14062 3.23438s.125.48437-.20312.67187l-.85938.54688.15625.51562 4.10938-2.04687-.125-.53125-.67188.26562c-.54687.1875-.73437-.01562-1.17187-.65625l-6.25-9.45312L1.5625-15.25l-.32812 6.34375C1.10938-6.98437.96875-3.79687.84375-2.5.75-1.35937.5625-1.01562.0625-.71875l-.5.35938Zm2.23437-7.5.28125-6.26562 3.04688 4.59375Zm0 0"/><path id="z" d="m2.42188 2.34375.25.51563c3.46875-1.92188 2.25-6.51563.35937-10.28125-1.89062-3.78125-4.8125-7.48438-8.42187-5.85938l.25.5c1.40625-.375 3.92187.21875 6.82812 6.03125C4.625-.89062 3.5 1.51563 2.42188 2.34375m0 0"/></defs><use xlink:href="#a" x="38.93133" y="179.99831"/><use xlink:href="#b" x="250.46795" y="276.81049"/><use xlink:href="#c" x="238.32259" y="280.57382"/><path fill="none" stroke="#000" stroke-miterlimit="10" stroke-width=".39822" d="m73.69532 187.03516 140.93755 70.45706"/><path d="M446.01953 329.20313c0-1.64844-1.33594-2.98438-2.98828-2.98438-1.64844 0-2.98437 1.33594-2.98437 2.98438 0 1.65234 1.33593 2.98828 2.98437 2.98828 1.65234 0 2.98828-1.33594 2.98828-2.98829m0 0"/><use xlink:href="#b" x="464.3569" y="333.46322"/><use xlink:href="#d" x="453.44666" y="337.22654"/><path fill="none" stroke="#000" stroke-miterlimit="10" stroke-width=".39822" d="M291.60165 285.93754 439.7775 328.2735"/><use xlink:href="#e" x="344.52309" y="289.18669"/><use xlink:href="#f" x="363.50196" y="296.42363"/><use xlink:href="#g" x="354.84405" y="296.6894"/><use xlink:href="#h" x="365.83944" y="295.27697"/><use xlink:href="#i" x="384.71534" y="296.75624"/><use xlink:href="#j" x="373.1915" y="297.37752"/><use xlink:href="#k" x="385.76927" y="300.9711"/><path d="M446.01953 215.89844c0-1.64844-1.33594-2.98828-2.98828-2.98828-1.64844 0-2.98437 1.33984-2.98437 2.98828s1.33593 2.98437 2.98437 2.98437c1.65234 0 2.98828-1.33594 2.98828-2.98437m0 0"/><use xlink:href="#d" x="453.44666" y="222.36819"/><path fill="none" stroke="#000" stroke-miterlimit="10" stroke-width=".39822" d="m291.60165 259.1641 148.17584-42.33596"/><use xlink:href="#l" x="338.25155" y="233.96195"/><use xlink:href="#m" x="358.18955" y="230.08206"/><use xlink:href="#n" x="350.97886" y="234.88163"/><use xlink:href="#o" x="359.5679" y="227.87167"/><use xlink:href="#p" x="366.91929" y="225.77131"/><use xlink:href="#q" x="379.49707" y="222.17773"/><use xlink:href="#r" x="130.13049" y="203.19882"/><use xlink:href="#s" x="141.95548" y="209.11032"/><use xlink:href="#t" x="161.33993" y="214.59376"/><use xlink:href="#u" x="148.7943" y="212.52915"/><use xlink:href="#v" x="160.99326" y="218.62761"/><use xlink:href="#c" x="238.32259" y="80.73687"/><path fill="none" stroke="#000" stroke-miterlimit="10" stroke-width=".39822" d="M73.69532 159.78125 217.73834 87.7695"/><path d="M446.01953 130.91797c0-1.64844-1.33594-2.98828-2.98828-2.98828-1.64844 0-2.98437 1.33984-2.98437 2.98828s1.33593 2.98828 2.98437 2.98828c1.65234 0 2.98828-1.33984 2.98828-2.98828m0 0"/><use xlink:href="#b" x="464.3569" y="135.17917"/><use xlink:href="#d" x="453.44666" y="138.9425"/><path fill="none" stroke="#000" stroke-miterlimit="10" stroke-width=".39822" d="m291.60165 87.65231 148.17584 42.33596"/><use xlink:href="#e" x="345.48041" y="91.17545"/><use xlink:href="#g" x="353.8869" y="98.13326"/><use xlink:href="#h" x="364.88285" y="96.7189"/><use xlink:href="#i" x="383.75874" y="98.19817"/><use xlink:href="#j" x="372.2349" y="98.81945"/><use xlink:href="#k" x="384.81267" y="102.41304"/><path d="M446.01953 17.60938c0-1.64844-1.33594-2.98438-2.98828-2.98438-1.64844 0-2.98437 1.33594-2.98437 2.98438 0 1.65234 1.33593 2.98828 2.98437 2.98828 1.65234 0 2.98828-1.33594 2.98828-2.98829m0 0"/><use xlink:href="#d" x="453.44666" y="24.08414"/><path fill="none" stroke="#000" stroke-miterlimit="10" stroke-width=".39822" d="M291.60165 60.87887 439.7775 18.539"/><use xlink:href="#l" x="339.20887" y="35.4051"/><use xlink:href="#n" x="350.02171" y="36.86968"/><use xlink:href="#o" x="358.6113" y="29.86164"/><use xlink:href="#p" x="365.9627" y="27.76129"/><use xlink:href="#q" x="378.54047" y="24.1677"/><use xlink:href="#w" x="122.04624" y="123.56143"/><use xlink:href="#x" x="133.87103" y="117.64973"/><use xlink:href="#y" x="140.70946" y="114.23092"/><use xlink:href="#z" x="152.90822" y="108.13225"/></svg>