<svg xmlns="http://www.w3.org/2000/svg" xmlns:xlink="http://www.w3.org/1999/xlink" width="631.652pt" height="349.106pt" viewBox="0 0 631.652 349.106"><defs><path id="a" d="M.70313-2.875 1.09375 0h5.17188c.01562 0 .17187-.42187.17187-.45312C3.70313-3.375 3.28125-5.9375 3.28125-8.0625c0-2.59375 1.60938-4.375 4.17188-4.375 2.60937 0 4.23437 1.78125 4.23437 4.375 0 2.125-.4375 4.6875-3.1875 7.60938C8.5-.42187 8.67188 0 8.6875 0h5.17188L14.25-2.875h-.53125C13.39063-1.82812 13.125-1.65625 12.25-1.65625h-2.04687c1.0625-.84375 3.48437-3.375 3.48437-6.5 0-3.70312-3.54687-5-6.21875-5-2.65625 0-6.20312 1.29688-6.20312 5 .0625 3.125 2.40625 5.65625 3.48437 6.5H2.70313c-.875 0-1.15625-.17187-1.46875-1.21875Zm0 0"/><path id="b" d="M-6.42187-11.15625h5.375v-1.10937h-5.375Zm0 0"/><path id="c" d="M-.35937 0h4.21875l.10937-.53125L2.9375-.64062c-.23437-.01563-.32812-.14063-.32812-.3125 0-.09376.03125-.23438.09375-.375.60937-1.20313 1.21875-2.40625 1.90625-3.65625h4.1875l.46875 3.84375s-.10938.46875-.5.5l-1 .10937L7.67188 0h4.59375l.10937-.53125-.70312-.0625c-.57813-.0625-.65625-.32812-.76563-1.09375L9.54688-12.92187H8.20313L5.0625-7.40625c-.95312 1.65625-2.5 4.4375-3.1875 5.5625C1.26563-.875.95313-.67187.375-.60937l-.60937.07812Zm5.34375-5.70312 3.04687-5.48438.67188 5.48438Zm0 0"/><path id="d" d="M0 0h5.67188c4.5 0 5.42187-2.32812 5.42187-3.875 0-1.96875-1.45312-2.82812-2.82812-3.07812L8.28125-7c2.48438-.29687 3.54688-1.70312 3.54688-3.10937 0-1.51563-.89063-2.8125-4.32813-2.8125H2.76563l-.125.54687 1.10937.09375c.32813.01563.46875.15625.46875.45313 0 .125-.04687.28125-.07812.45312L1.92188-1.54687c-.14063.60937-.3125.82812-.76563.89062l-1.0625.125Zm3.73438-1.4375c0-.125.01562-.26562.0625-.40625L4.875-6.64062h.73438c1.84375 0 3.46875.53125 3.46875 2.67187 0 1.65625-1.01563 3.3125-3.51563 3.3125-1.46875 0-1.82812-.29687-1.82812-.78125m1.28125-5.85937.96875-4.32813c.14062-.5625.23437-.65625 1.48437-.65625 1.57813 0 2.45313.79688 2.45313 2.10938 0 1.9375-1.64063 2.875-3.70313 2.875Zm0 0"/><path id="e" d="M0 0h5.3125l.09375-.53125-1.29687-.125c-.3125-.01562-.45313-.15625-.45313-.45312 0-.125.01563-.26563.0625-.4375l.82813-3.6875H5.9375c1.59375 0 3.0625-.21875 4.14063-.875 1.1875-.73438 1.89062-2 1.89062-3.39063 0-1.26562-.59375-2.25-1.51562-2.76562-.875-.5-2.0625-.65625-3.29688-.65625h-4.375l-.14062.54687 1.10937.07813c.32813.01562.46875.17187.46875.48437 0 .125-.03125.26563-.0625.4375l-2.25 9.82813c-.15625.625-.3125.84375-.76562.89062l-1.04688.125Zm4.8125-6.28125c0-.125.01563-.23437.0625-.39062L6-11.625c.125-.48437.23438-.65625 1.1875-.65625 1.85938 0 2.8125.875 2.8125 2.46875 0 2.65625-1.5 3.92188-4.01562 3.92188-.95313 0-1.17188-.09375-1.17188-.39063m0 0"/><path id="f" d="M1.60938-5.26562c0 4.21875.95312 8.84375 4.90625 9V3.1875C5.1875 2.92188 3.09375 1.26563 3.09375-5.26562c0-6.5 2-8.15625 3.42188-8.45313v-.54687c-3.95313.15625-4.90625 4.78125-4.90625 9m0 0"/><path id="g" d="M1.59375 0H2.6875v-6.79687c0-1.51563 2.1875-2.6875 4.03125-2.6875 1.8125 0 4.04688 1.17187 4.04688 2.6875V0h1.09375v-6.79687c0-2.28125-2.45313-3.73438-5.14063-3.73438s-5.125 1.45313-5.125 3.73438Zm0 0"/><path id="h" d="M1.10938 3.1875v.54688c3.95312-.15625 4.90625-4.78125 4.90625-9s-.95313-8.84375-4.90625-9v.54687c1.4375.29688 3.42187 1.95313 3.42187 8.45313 0 6.53125-2.09375 8.1875-3.42187 8.45312m0 0"/><path id="i" d="M1.59375-2.65625h10.26563V-3.75H1.59375Zm0-4.125h10.26563V-7.875H1.59375Zm0 0"/><path id="l" d="m2.70313-2.03125.78125.78125 3.23437-3.26562L9.98438-1.25l.75-.78125L7.5-5.26562l3.23438-3.26563-.75-.75-3.26563 3.23438-3.23437-3.23438-.78125.75 3.26562 3.26563Zm0 0"/><path id="j" d="m.26563-2.625.15625.29688h3.5V-1c0 .42188-.15625.48438-.45313.51563l-.82812.07812V0h3.59375v-.40625L5.625-.46875C5.35938-.51562 5.25-.57812 5.25-1v-1.32812h1.34375V-3H5.25v-5.73437H4.14063C2.875-6.875 1.45313-4.65625.26563-2.625M1.32813-3c.73437-1.35937 1.64062-2.84375 2.59375-4.375V-3Zm0 0"/><path id="k" d="m.53125-6.79687.39063.03125.125-.26563c.15624-.35937.32812-.5625.90625-.5625h3.51562C5.34375-7.14062 5.0625-6.29687 4-4.85937 2.89063-3.32812 2.15625-1.89062 2.15625-.45312c0 .51562.35938.60937.8125.60937.375 0 .70313-.09375.70313-.59375C3.6875-2.34375 4-3.60937 4.64063-4.65625c.9375-1.5625 1.59375-2.39062 1.98437-3.9375L6.5-8.73437H.96875Zm0 0"/><path id="m" d="M.46875-5.92187c0 1.78125 1.10938 2.73437 2.5 2.73437 1 0 1.73438-.64062 2.125-1.10937C5.07813-1.875 4.4375-.32812 3.23438-.32812c-.57813 0-.98438-.51563-1.1875-1.29688-.0625-.17187-.1875-.3125-.40625-.3125-.3125 0-.76563.23438-.76563.64063 0 .5625.6875 1.45312 2.29688 1.45312 2.17187 0 3.42187-1.65625 3.42187-4.79687 0-2.78125-.98437-4.25-3.07812-4.25-2.03125 0-3.04688 1.25-3.04688 2.96875m1.48438-.21875c0-1.34375.46875-2.26563 1.51562-2.26563 1.09375 0 1.625 1.23438 1.625 2.76563 0 .78125-.5625 1.6875-1.59375 1.6875-.79687 0-1.54687-.70313-1.54687-2.1875m0 0"/><path id="w" d="M.5625-1.39062c0 .5625.84375 1.54687 2.6875 1.54687 2.23438 0 3.17188-1.32812 3.17188-2.96875 0-1.67187-1-2.78125-2.75-2.78125-.76563 0-1.53125.34375-1.96875.71875l.26562-2.29687c.0625-.35938.10938-.42188.39063-.42188h3.3125l.375-1.01562-.07813-.125H1.4375l-.10937.125L1.0625-4.25l.375.21875c.51563-.625 1.03125-.92187 1.73438-.92187.84375 0 1.70312.625 1.70312 2.29687 0 1.32813-.5 2.32813-1.54687 2.32813-.84375 0-1.28125-.60938-1.57813-1.45313-.07812-.21875-.21875-.35937-.4375-.35937-.3125 0-.75.28125-.75.75m0 0"/><path id="M" d="M.35938-1.39062c0 .54687.85937 1.54687 2.84375 1.54687 1.9375 0 3.15625-.95312 3.15625-2.625 0-1.76562-1.54688-2.25-2.21875-2.3125v-.0625c.71875-.125 1.84375-.64062 1.84375-1.92187 0-1.51563-1.25-2.125-2.64063-2.125-1.67187 0-2.65625.9375-2.65625 1.60937 0 .4375.51563.67188.75.67188.1875 0 .29688-.125.375-.3125.28125-.92188.73438-1.48438 1.4375-1.48438.98438 0 1.21875.92188 1.21875 1.625 0 .6875-.23437 1.76563-1.29687 1.76563-.59375 0-.98438-.14063-1.1875-.14063-.1875 0-.26563.15625-.26563.40625s.07813.39063.26563.39063c.20312 0 .59375-.125 1.1875-.125 1 0 1.625.82812 1.625 2.07812 0 1.5-.6875 2.07813-1.57813 2.07813-.79687 0-1.34375-.60938-1.625-1.45313-.07812-.25-.21875-.39062-.42187-.39062-.29688 0-.8125.28125-.8125.78125m0 0"/><path id="O" d="M1.42188 0h4.375v-.40625L4.75-.5c-.28125-.03125-.42187-.125-.42187-.60937V-8.8125l-.09375-.07812-2.79688.48437v.34375l1.125.15625c.25.03125.32813.125.32813.53125v6.26563c0 .48437-.125.57812-.42188.60937l-1.04687.09375Zm0 0"/><path id="n" d="m0 0 5.10938 1.45313.23437-.48438L4.14063.5c-.29688-.09375-.40625-.28125-.3125-.5625.03125-.125.07812-.25.17187-.40625l1.8125-3.3125 1.32813.375c1.53125.4375 3.01562.625 4.21875.29688 1.34375-.375 2.39062-1.40625 2.76562-2.75.34375-1.20313.04688-2.3125-.70312-3.0625-.71875-.73438-1.8125-1.1875-3-1.53125l-4.20313-1.20313-.28125.46875 1.04688.39063c.3125.10937.40625.29687.32812.59375-.04687.125-.10937.25-.1875.40625L2.25-.95312c-.3125.54687-.53125.71875-.96875.64062L.23438-.48437Zm6.34375-4.71875c.04688-.10937.09375-.21875.17188-.35937l2.4375-4.45313c.26562-.42187.42187-.5625 1.32812-.3125 1.79688.51563 2.46875 1.625 2.03125 3.15625-.73437 2.5625-2.51562 3.35938-4.9375 2.67188-.90625-.26563-1.10937-.40625-1.03125-.70313m0 0"/><path id="q" d="M3-4.625C1.82813-.5625 1.48438 4.14063 5.23438 5.39063l.15625-.53125C4.1875 4.23438 2.625 2.0625 4.42188-4.21875c1.78125-6.25 4.15625-7.28125 5.60937-7.17187l.15625-.53125C6.34375-12.85937 4.15625-8.6875 3-4.625m0 0"/><path id="r" d="m-3.10937-12.5 5.17187 1.48438.3125-1.0625-5.17187-1.48438Zm0 0"/><path id="s" d="m0 0 5.45313 1.5625c4.32812 1.23438 5.85937-.75 6.28125-2.23437.54687-1.90625-.625-3.125-1.875-3.75l.03125-.03125c2.45312.39062 3.875-.67188 4.26562-2.01563.40625-1.45312-.09375-2.95312-3.39062-3.89062l-4.5625-1.29688-.26563.46875 1.04688.40625c.3125.10938.40625.28125.32812.5625-.03125.125-.125.25-.20312.42188L2.26563-.95312C1.96875-.42187 1.75-.25 1.29688-.3125L.23438-.48437Zm3.98438-.34375c.03125-.125.09375-.26562.17187-.375l2.35938-4.32812.70312.20312C9-4.34375 10.40625-3.375 9.82813-1.3125 9.375.28125 7.9375 1.59375 5.53125.90625 4.125.5 3.85938.10938 3.98438-.34375m2.84375-5.29687L8.9375-9.53125c.29688-.5.42188-.57812 1.625-.23437 1.51563.4375 2.14063 1.4375 1.78125 2.70312-.53125 1.85938-2.375 2.32813-4.35937 1.75Zm0 0"/><path id="t" d="m.1875 3.375-.15625.53125c3.85938.92188 6.03125-3.25 7.20313-7.3125 1.15625-4.0625 1.51562-8.76562-2.25-10l-.15625.53125c1.3125.67188 2.76562 2.8125.98437 9.0625C4.01563 2.46875 1.54688 3.48438.1875 3.375m0 0"/><path id="o" d="M-2.17187-8.73437 1.4375-7.70312l.21875-.75-3.60937-1.03125Zm0 0"/><path id="p" d="M-.23437-.0625 2.60938.75 2.8125.375 2.125.125c-.14062-.0625-.21875-.17187-.1875-.28125C2-.39062 4-2.39062 4.01563-2.42187L6.75-1.64062 6.32813.95313s-.14063.28124-.4375.23437l-.67188-.125-.1875.375 3.26563.9375.1875-.375-.46875-.17187c-.375-.15626-.35938-.42188-.28125-.92188l1.25-7.73437L7.95313-7.125 4.73438-3.98437C3.75-3 2.1875-1.4375 1.53125-.85937 1-.375.75-.3125.34375-.375L-.0625-.4375Zm4.65625-2.78125L7.4375-5.875l-.59375 3.71875Zm0 0"/><path id="u" d="m.96875-2.45312.07813.32812 3.35937.96875L4.04688.10938c-.125.40625-.28125.42187-.57813.375L2.64063.32813l-.10938.39062 3.46875 1 .10938-.39062-.57813-.23438c-.23437-.125-.32812-.21875-.20312-.625L5.6875-.79687l1.29688.375.1875-.65625-1.29688-.375 1.57813-5.5L6.39063-7.25C4.65625-5.8125 2.67188-4.07812.96875-2.45312m1.14063-.07813C3.1875-3.625 4.46875-4.8125 5.79688-6.01562L4.59375-1.8125Zm0 0"/><path id="v" d="M2.07813-5.5625c-.48438 1.70313.3125 2.9375 1.65625 3.3125.95312.28125 1.82812-.14062 2.34375-.46875-.6875 2.3125-1.71875 3.625-2.875 3.29688C2.64063.42187 2.39063-.1875 2.42188-1c-.01563-.1875-.10938-.34375-.3125-.40625-.29688-.09375-.79688 0-.90625.39063C1.04687-.46875 1.45313.57813 3 1.03125 5.09375 1.625 6.75.375 7.625-2.65625 8.375-5.32812 7.82813-7 5.8125-7.57812c-1.95312-.5625-3.26562.35937-3.73437 2.01562m1.48437.1875c.375-1.29687 1.07813-2.03125 2.07813-1.75 1.0625.29688 1.21875 1.64063.79687 3.10938-.21875.75-.98437 1.46875-1.98437 1.1875-.76563-.21875-1.29688-1.125-.89063-2.54688m0 0"/><path id="N" d="M.71875-1.25C.57813-.71875 1.125.48438 3.03125 1.03125c1.85938.53125 3.29688-.04687 3.75-1.65625.48438-1.70312-.85937-2.57812-1.48437-2.82812l.01562-.0625c.71875.0625 1.9375-.10938 2.29688-1.34375.42187-1.46875-.625-2.39063-1.95313-2.76563-1.60937-.46875-2.8125.17188-3 .8125-.125.42188.3125.78125.53125.84375.1875.0625.32813-.03125.46875-.1875.51563-.8125 1.10938-1.21875 1.78125-1.03125.95313.26563.92188 1.21875.71875 1.90625-.1875.65625-.70312 1.60938-1.73437 1.32813-.5625-.17188-.89063-.40625-1.09375-.45313-.17188-.04687-.29688.0625-.35938.3125-.07812.23438-.03125.40625.14063.45313.20312.04687.60937.03125 1.17187.20312C5.25-3.17187 5.60938-2.20312 5.26563-1 4.85938.4375 4.04688.8125 3.1875.57813 2.42188.35937 2.04688-.39062 2.01563-1.28125c0-.25-.09375-.4375-.29688-.48437-.28125-.09376-.85937.04687-1 .51562m0 0"/><path id="x" d="m0 0 5.10938-1.45312L5.0625-2l-1.29687.25c-.29688.0625-.46875-.03125-.5625-.3125-.03125-.125-.04688-.28125-.04688-.4375L2.9375-6.28125l1.32813-.375c1.53125-.4375 2.89062-1.0625 3.75-1.98437.9375-1.03125 1.26562-2.4375.89062-3.78125-.34375-1.20313-1.20312-2-2.23437-2.25-.96875-.23438-2.15625-.0625-3.34375.28125L-.875-13.1875v.5625l1.10938-.23437c.3125-.07813.5.04687.57812.34375.04688.125.04688.25.0625.4375l.53125 10.0625c.03125.64062-.0625.90625-.5 1.07812l-.95312.39063Zm2.90625-7.375c-.04687-.10937-.0625-.21875-.04687-.39062l-.28125-5.04688c-.01563-.51562.04687-.71875.95312-.96875 1.79688-.51562 2.9375.0625 3.375 1.59375.73438 2.5625-.35937 4.20313-2.78125 4.89063-.90625.26562-1.14062.21875-1.21875-.07813m0 0"/><path id="A" d="M.09375-5.5c1.17188 4.0625 3.35938 8.23438 7.20313 7.29688l-.15625-.53125c-1.35938.125-3.82813-.89063-5.625-7.17188-1.78125-6.25-.3125-8.40625.98437-9.07812l-.15625-.53125c-3.75 1.25-3.40625 5.95312-2.25 10.01562m0 0"/><path id="B" d="m0 0 5.45313-1.5625c4.32812-1.23437 4.57812-3.71875 4.15625-5.20312-.54688-1.90625-2.1875-2.3125-3.5625-2.1875v-.0625c2.29687-.95313 2.9375-2.60938 2.54687-3.95313-.40625-1.45312-1.625-2.45312-4.92187-1.51562l-4.5625 1.29687.01562.5625 1.10938-.21875c.3125-.07812.5.03125.57812.3125.03125.125.03125.28125.04688.45313l.5625 10.0625c.04687.625-.07813.89062-.5 1.07812l-.96875.39063Zm3.20313-2.40625c-.03125-.125-.0625-.26562-.04688-.40625l-.29687-4.92187.70312-.20313c1.78125-.5 3.5-.4375 4.07813 1.625.45312 1.59375-.07813 3.46875-2.48438 4.15625-1.40625.40625-1.82812.20313-1.95312-.25m-.375-5.98437L2.5625-12.8125c-.01562-.59375.04688-.70312 1.25-1.04687 1.51563-.4375 2.57813.09375 2.9375 1.35937.53125 1.85938-.78125 3.20313-2.76562 3.78125Zm0 0"/><path id="C" d="m1.9375 2.75.15625.53125c3.76563-1.23437 3.40625-5.9375 2.23438-10-1.15625-4.0625-3.32813-8.23437-7.1875-7.3125l.15625.53125c1.46875-.10937 3.82812.9375 5.60937 7.1875C4.70313-.03125 3.14063 2.14063 1.9375 2.75m0 0"/><path id="y" d="m-6.45312-6.26562 3.60937-1.03125-.21875-.75-3.60937 1.03125Zm0 0"/><path id="z" d="M-.23437.0625 2.60938-.75l-.01563-.40625-.71875.125c-.17187.03125-.28125-.01562-.3125-.125-.0625-.23437.5625-2.98437.57813-3.01562L4.875-4.95312l.98438 2.40625s.04687.34375-.21875.45312L5-1.84375l.03125.40625 3.26563-.9375-.03125-.40625-.5.10938c-.40625.0625-.51563-.17188-.71875-.64063l-3.03125-7.23437-1.03125.29687-1.0625 4.35938C1.59375-4.53125 1.09375-2.375.84375-1.54687c-.1875.70312-.375.89062-.75 1.04687l-.375.15625ZM2.23438-4.75l.98437-4.1875 1.4375 3.5Zm0 0"/><path id="D" d="M.17188-1.5c.14062.54688 1.23437 1.26563 3 .76563 2.14062-.60938 2.67187-2.15625 2.23437-3.73438C4.9375-6.07812 3.6875-6.85937 2-6.39062c-.73437.21875-1.375.75-1.70312 1.23437l-.375-2.28125c-.03126-.35937-.01563-.4375.25-.5l3.1875-.92187.09375-1.07813-.125-.09375-4.35938 1.25-.04687.14063.92187 4.25.42188.125c.32812-.75.75-1.17188 1.42187-1.375C2.5-5.875 3.5-5.5 3.95313-3.89062c.375 1.26562.15625 2.375-.84375 2.65625-.8125.23437-1.39063-.23438-1.90625-.96875C1.0625-2.375.875-2.48437.67188-2.42187c-.29688.07812-.64063.48437-.5.92187m0 0"/><path id="E" d="M-1.17187-5.8125C-.6875-4.10937.64063-3.5 1.98438-3.875c.95312-.28125 1.48437-1.10937 1.71875-1.65625.65625 2.34375.46875 4-.6875 4.32813-.5625.15624-1.09375-.23438-1.5-.92188-.10938-.15625-.26563-.25-.46875-.1875C.75-2.21875.375-1.875.48438-1.48437c.15625.54687 1.0625 1.21875 2.60937.76562C5.1875-1.3125 5.9375-3.25 5.0625-6.28125c-.75-2.67187-2.10937-3.8125-4.125-3.23437-1.95312.5625-2.57812 2.04687-2.10937 3.70312m1.35937-.625c-.375-1.29687-.17187-2.3125.82813-2.59375 1.0625-.29687 1.90625.73438 2.32812 2.20313.21875.75-.07812 1.78125-1.07812 2.0625C1.5-4.54687.59375-5.01562.1875-6.4375m0 0"/><path id="P" d="m1.35938-.39062 4.21875-1.20313-.10938-.39062-1.04687.1875c-.26563.04687-.4375.01562-.57813-.45313L1.73438-9.65625l-.09376-.04687L-.9375-8.46875l.09375.32813L.29688-8.3125c.25-.03125.34375.03125.45312.42188l1.71875 6.03125c.14063.46875.04688.57812-.23437.70312l-.98438.375Zm0 0"/><path id="Q" d="m-.46875-2.60937.23438.26562L3.125-3.3125l.35938 1.26563c.125.40625 0 .51562-.29688.625l-.76562.3125.10937.39062 3.46875-1-.10937-.39062L5.28125-2c-.26562.03125-.39062 0-.51562-.40625l-.35938-1.26562 1.29688-.375-.1875-.65625-1.29688.375-1.57812-5.5-1.0625.29687C.875-7.40625.10938-4.89062-.46875-2.60937M.45313-3.25c.32812-1.5.79687-3.1875 1.28125-4.92187L2.9375-3.96875Zm0 0"/><path id="F" d="m0 0 4.75 2.375.3125-.42187L3.96875 1.25C3.6875 1.10938 3.625.90625 3.76563.64063c.04687-.10938.125-.23438.25-.375l2.39062-2.92188 1.25.625c1.42188.71875 2.82813 1.1875 4.09375 1.0625 1.39063-.125 2.57813-.92187 3.20313-2.17187.5625-1.125.46875-2.28125-.125-3.15625-.5625-.84375-1.54688-1.51563-2.64063-2.0625L8.26563-10.3125l-.375.4375.96875.54688c.26562.17187.34375.375.20312.65625-.0625.10937-.15625.21875-.25.35937L2.39063-.53125c-.42188.48438-.65625.625-1.07813.45313l-1-.34375Zm7.10938-3.46875c.04687-.10937.10937-.20312.23437-.3125l3.21875-3.92187c.34375-.39063.5-.5 1.34375-.0625 1.67188.82812 2.125 2.03125 1.42188 3.45312C12.14063-1.9375 10.25-1.46875 8-2.59375c-.85937-.42187-1.03125-.60937-.89062-.875m0 0"/><path id="G" d="M3.79688-3.98437C1.90625-.21875.70313 4.34375 4.15625 6.25l.25-.5c-1.07812-.82812-2.20312-3.23437.71875-9.0625 2.90625-5.82812 5.4375-6.40625 6.84375-6.04687l.23438-.5c-3.59375-1.625-6.53125 2.09375-8.40625 5.875m0 0"/><path id="H" d="m-.76562-12.85937 4.8125 2.40625.5-.98438-4.8125-2.40625Zm0 0"/><path id="I" d="m-.32812-.15625 3.78125 1.875.32812-.40625-.875-.57812C2.71875.60938 2.67188.46875 2.75.3125c.04688-.07812.14063-.1875.26563-.29687C4.09375-.78125 5.1875-1.59375 6.35938-2.39062l3.75 1.875L8.79688 3.125s-.3125.375-.67188.21875L7.1875 3l-.32812.4375 4.10937 2.04688.32813-.42188-.59375-.375c-.48438-.32812-.4375-.59375-.20313-1.32812l3.82813-10.65625-1.20313-.59375-5.28125 3.53125C6.25-3.29687 3.625-1.51562 2.5-.8125c-.98437.59375-1.34375.64063-1.90625.4375l-.5625-.20312ZM7-2.85937l5.1875-3.54688-1.85937 5.20313Zm0 0"/><path id="J" d="m-.42187 3.34375-.25.5C2.9375 5.46875 5.84375 1.75 7.73438-2.01562c1.875-3.78125 3.10937-8.34375-.35938-10.25l-.23437.5C8.28125-10.85937 9.3125-8.5 6.40625-2.67187 3.48438 3.15625.875 3.70313-.42187 3.34375m0 0"/><path id="K" d="m1.40625-2.21875.01563.32813L4.5625-.32812 3.96875.85938c-.1875.375-.35937.35937-.64062.25L2.54688.82812l-.1875.35938 3.21875 1.59375.1875-.35937-.53125-.32813c-.20313-.17187-.26563-.26562-.07813-.64062L5.75.26563 6.9375.875l.29688-.60937-1.1875-.60938 2.5625-5.125-1-.5C5.65625-4.875 3.375-3.51562 1.40625-2.21875m1.125.125c1.26563-.89062 2.73438-1.8125 4.28125-2.75L4.85938-.9375Zm0 0"/><path id="L" d="m3.51563-5.84375.34375.20313.21875-.1875c.29687-.25.54687-.35938 1.0625-.09375l3.14062 1.57812C7.96875-4 7.34375-3.35937 5.75-2.5625c-1.6875.875-2.98437 1.84375-3.625 3.125-.23437.46875.0625.70313.46875.90625.32813.17188.65625.23438.89063-.21875.85937-1.6875 1.70312-2.70312 2.75-3.34375 1.53125-.96875 2.5-1.42187 3.53125-2.625l-.04688-.1875L4.76563-7.375Zm0 0"/><path id="R" d="m0 0 4.75-2.375-.15625-.51562L3.375-2.4375c-.28125.14063-.46875.0625-.60937-.20312-.04688-.10938-.09375-.23438-.125-.40625l-.92188-3.67188 1.25-.625c1.42188-.71875 2.64063-1.5625 3.3125-2.625.73438-1.1875.79688-2.64062.17188-3.89062-.5625-1.125-1.53125-1.75-2.59375-1.78125-1-.0625-2.14063.32812-3.23438.875l-3.92187 1.95312.125.5625 1.03125-.42187c.29687-.14063.48437-.0625.625.21875q.09375.16406.14062.42187L1.01563-2.25c.14062.64063.09374.90625-.29688 1.14063l-.875.59375Zm1.48438-7.78125c-.04688-.10937-.07813-.20312-.10938-.375L.15625-13.07812c-.09375-.48438-.0625-.6875.78125-1.125 1.67188-.82813 2.90625-.46875 3.60938.95312 1.1875 2.375.42187 4.1875-1.82813 5.3125-.85937.42188-1.09375.42188-1.23437.15625m0 0"/><path id="S" d="M-.92187-5.42187C.96875-1.65625 3.89063 2.0625 7.5.4375l-.25-.5C5.95313.29688 3.32813-.26562.40625-6.09375-2.5-11.92187-1.4375-14.28125-.3125-15.17187l-.23437-.5c-3.46875 1.90625-2.25 6.46875-.375 10.25m0 0"/><path id="T" d="m-.32812.15625 3.78125-1.875L3.3125-2.25l-.96875.35938c-.21875.09374-.35937.01562-.4375-.14063-.04687-.07812-.07812-.21875-.07812-.35937.01562-1.35938.01562-2.70313.0625-4.125l3.75-1.875 2.125 3.23437s.125.46875-.20313.65625l-.84375.5625.14063.5 4.10937-2.04687L10.82813-6l-.65625.25C9.625-5.54687 9.45313-5.75 9-6.39062l-6.23437-9.4375-1.20313.59375-.34375 6.34375c-.125 1.90625-.25 5.09375-.375 6.39062C.73438-1.34375.5625-1.01562.0625-.71875l-.5.35938Zm2.23437-7.48437.28125-6.26563 3.04688 4.60938Zm0 0"/><path id="U" d="m2.42188 2.34375.25.5C6.125.9375 4.90625-3.625 3.01563-7.39062c-1.875-3.78125-4.79688-7.5-8.39063-5.875l.23438.5c1.42187-.375 3.92187.20312 6.82812 6.03125 2.92188 5.82812 1.8125 8.25.73438 9.07812m0 0"/><path id="V" d="M-.29687-1.40625c.25.5 1.45312 1 3.21875.10938 1.73437-.85938 2.40625-2.26563 1.65625-3.75C3.79688-6.625 2.1875-6.375 1.5625-6.125l-.03125-.04687c.59375-.4375 1.375-1.40625.79688-2.54688-.67188-1.35937-2.0625-1.34375-3.3125-.73437-1.48438.75-1.96875 2.03125-1.65625 2.625.1875.39062.76562.39062.96875.28125C-1.5-6.64062-1.46875-6.8125-1.46875-7c-.15625-.95312-.01562-1.65625.60938-1.96875.875-.4375 1.51562.28125 1.82812.90625.3125.60938.5625 1.6875-.375 2.15625-.53125.26563-.95312.3125-1.125.40625-.17187.09375-.17187.26563-.0625.48438.10938.21875.25.3125.42188.21875s.48437-.375 1.01562-.64063c.89063-.4375 1.8125.03125 2.375 1.14063.67188 1.34375.3125 2.15625-.48437 2.5625C2.03125-1.375 1.25-1.6875.625-2.3125c-.17187-.17187-.35937-.23437-.54687-.15625-.26563.14063-.59375.625-.375 1.0625m0 0"/><path id="W" d="m-2.57812-6.3125.375-.14062V-6.75c-.03125-.39062.04687-.65625.5625-.92187L1.5-9.25c.09375.46875.21875 1.35938-.09375 3.125-.3125 1.84375-.32812 3.46875.3125 4.75.23438.46875.59375.39063 1 .1875.32813-.17187.59375-.39062.35938-.84375C2.25-3.75 1.96875-5.01562 2.07813-6.25c.125-1.8125.34375-2.82812 0-4.40625l-.17188-.0625L-3.04687-8.25Zm0 0"/></defs><use xlink:href="#a" x="39.49264" y="180.7242"/><use xlink:href="#b" x="250.63893" y="277.35773"/><use xlink:href="#c" x="238.51598" y="281.11412"/><path fill="none" stroke="#000" stroke-miterlimit="10" stroke-width=".39748" d="m74.19141 187.7461 140.67973 70.32814"/><path d="M445.82813 329.65234c0-1.64453-1.33204-2.98046-2.98047-2.98046-1.64454 0-2.98047 1.33593-2.98047 2.98046 0 1.64844 1.33594 2.98438 2.98047 2.98438 1.64843 0 2.98046-1.33594 2.98046-2.98438m0 0"/><use xlink:href="#b" x="464.13321" y="330.68517"/><use xlink:href="#d" x="453.2431" y="334.44155"/><use xlink:href="#e" x="486.17496" y="334.44155"/><use xlink:href="#f" x="499.37155" y="334.44155"/><use xlink:href="#b" x="519.12638" y="330.68517"/><use xlink:href="#c" x="507.00343" y="334.44155"/><use xlink:href="#g" x="523.36005" y="334.44155"/><use xlink:href="#b" x="550.46413" y="330.68517"/><use xlink:href="#d" x="539.57203" y="334.44155"/><use xlink:href="#h" x="552.6295" y="334.44155"/><use xlink:href="#i" x="564.11689" y="334.44155"/><use xlink:href="#j" x="583.83069" y="326.45201"/><path fill="none" stroke="#000" stroke-miterlimit="10" stroke-width="1.0932" d="M583.83203 329.17578h7.05078"/><use xlink:href="#k" x="583.83069" y="341.43764"/><use xlink:href="#l" x="596.02945" y="334.44155"/><use xlink:href="#j" x="614.60987" y="326.45201"/><path fill="none" stroke="#000" stroke-miterlimit="10" stroke-width="1.0932" d="M614.60937 329.17578h7.05469"/><use xlink:href="#m" x="614.60987" y="341.43764"/><path fill="none" stroke="#000" stroke-miterlimit="10" stroke-width=".39748" d="m291.69929 286.46488 147.90238 42.26173"/><use xlink:href="#n" x="344.52052" y="289.7101"/><use xlink:href="#o" x="363.46382" y="296.9356"/><use xlink:href="#p" x="354.82188" y="297.20088"/><use xlink:href="#q" x="365.79754" y="295.78914"/><use xlink:href="#r" x="384.6386" y="297.26568"/><use xlink:href="#s" x="373.13603" y="297.88581"/><use xlink:href="#t" x="385.69059" y="301.47277"/><use xlink:href="#u" x="357.92545" y="321.77758"/><path fill="none" stroke="#000" stroke-miterlimit="10" stroke-width="1.09316" d="m357.17578 324.39453 6.78516 1.9375"/><use xlink:href="#v" x="353.80882" y="336.18604"/><path d="M445.82813 216.55469c0-1.64453-1.33204-2.98047-2.98047-2.98047-1.64454 0-2.98047 1.33594-2.98047 2.98047 0 1.64844 1.33594 2.98437 2.98047 2.98437 1.64843 0 2.98046-1.33594 2.98046-2.98437m0 0"/><use xlink:href="#d" x="453.2431" y="221.34517"/><use xlink:href="#e" x="485.34023" y="221.34517"/><use xlink:href="#f" x="498.53682" y="221.34517"/><use xlink:href="#b" x="518.29252" y="217.58879"/><use xlink:href="#c" x="506.16757" y="221.34517"/><use xlink:href="#g" x="522.52419" y="221.34517"/><use xlink:href="#d" x="538.72181" y="221.34517"/><use xlink:href="#h" x="551.77928" y="221.34517"/><use xlink:href="#i" x="563.28655" y="221.34517"/><use xlink:href="#j" x="582.99483" y="213.35563"/><path fill="none" stroke="#000" stroke-miterlimit="10" stroke-width="1.0932" d="M582.9961 216.07813h7.05077"/><use xlink:href="#k" x="582.99483" y="228.34126"/><use xlink:href="#l" x="595.19359" y="221.34517"/><use xlink:href="#w" x="613.77401" y="213.35563"/><path fill="none" stroke="#000" stroke-miterlimit="10" stroke-width="1.0932" d="M613.77344 216.07813h7.05468"/><use xlink:href="#m" x="613.77401" y="228.34126"/><path fill="none" stroke="#000" stroke-miterlimit="10" stroke-width=".39748" d="m291.69929 259.74612 147.90238-42.26173"/><use xlink:href="#x" x="338.26055" y="234.58826"/><use xlink:href="#y" x="358.16176" y="230.71553"/><use xlink:href="#z" x="350.96438" y="235.50625"/><use xlink:href="#A" x="359.53757" y="228.50922"/><use xlink:href="#B" x="366.8754" y="226.41274"/><use xlink:href="#C" x="379.42996" y="222.82579"/><use xlink:href="#D" x="366.58159" y="254.73463"/><path fill="none" stroke="#000" stroke-miterlimit="10" stroke-width="1.09316" d="m367.32813 257.35156 6.78515-1.9375"/><use xlink:href="#E" x="370.69821" y="269.14308"/><use xlink:href="#F" x="130.52353" y="203.8809"/><use xlink:href="#G" x="142.32669" y="209.78149"/><use xlink:href="#H" x="161.67537" y="215.25481"/><use xlink:href="#I" x="149.15289" y="213.19402"/><use xlink:href="#J" x="161.32935" y="219.28122"/><use xlink:href="#K" x="134.32794" y="235.42653"/><path fill="none" stroke="#000" stroke-miterlimit="10" stroke-width="1.09314" d="m133.10937 237.86328 6.3086 3.15235"/><use xlink:href="#L" x="127.62741" y="248.82982"/><use xlink:href="#c" x="238.51598" y="81.64492"/><path fill="none" stroke="#000" stroke-miterlimit="10" stroke-width=".39748" d="M74.19532 160.54296 217.9688 88.66404"/><path d="M445.82813 131.73438c0-1.64844-1.33204-2.98047-2.98047-2.98047-1.64454 0-2.98047 1.33203-2.98047 2.98047 0 1.64453 1.33594 2.98046 2.98047 2.98046 1.64843 0 2.98046-1.33593 2.98046-2.98047m0 0"/><use xlink:href="#b" x="464.13321" y="132.84281"/><use xlink:href="#d" x="453.2431" y="136.59919"/><use xlink:href="#e" x="486.17496" y="136.59919"/><use xlink:href="#f" x="499.37155" y="136.59919"/><use xlink:href="#c" x="507.00331" y="136.59919"/><use xlink:href="#g" x="523.35993" y="136.59919"/><use xlink:href="#b" x="550.46413" y="132.84281"/><use xlink:href="#d" x="539.57203" y="136.59919"/><use xlink:href="#h" x="552.6295" y="136.59919"/><use xlink:href="#i" x="564.11689" y="136.59919"/><use xlink:href="#M" x="583.83069" y="128.60965"/><path fill="none" stroke="#000" stroke-miterlimit="10" stroke-width="1.0932" d="M583.83203 131.33203h7.05078"/><use xlink:href="#k" x="583.83069" y="143.59528"/><use xlink:href="#l" x="596.02945" y="136.59919"/><use xlink:href="#M" x="614.60987" y="128.60965"/><path fill="none" stroke="#000" stroke-miterlimit="10" stroke-width="1.0932" d="M614.60937 131.33203h7.05469"/><use xlink:href="#j" x="614.60987" y="143.59528"/><path fill="none" stroke="#000" stroke-miterlimit="10" stroke-width=".39748" d="m291.69929 88.54685 147.90238 42.25783"/><use xlink:href="#n" x="345.47607" y="92.06524"/><use xlink:href="#p" x="353.86705" y="99.0102"/><use xlink:href="#q" x="364.84271" y="97.59846"/><use xlink:href="#r" x="383.68377" y="99.075"/><use xlink:href="#s" x="372.1812" y="99.69513"/><use xlink:href="#t" x="384.73576" y="103.28209"/><use xlink:href="#N" x="357.88356" y="124.00704"/><path fill="none" stroke="#000" stroke-miterlimit="10" stroke-width="1.09316" d="m357.13672 126.625 6.78125 1.9375"/><use xlink:href="#u" x="353.76693" y="138.41549"/><path d="M445.82813 18.63672c0-1.64844-1.33204-2.98047-2.98047-2.98047-1.64454 0-2.98047 1.33203-2.98047 2.98047 0 1.64453 1.33594 2.98047 2.98047 2.98047 1.64843 0 2.98046-1.33594 2.98046-2.98047m0 0"/><use xlink:href="#d" x="453.2431" y="23.50381"/><use xlink:href="#e" x="485.34023" y="23.50381"/><use xlink:href="#f" x="498.53682" y="23.50381"/><use xlink:href="#c" x="506.16859" y="23.50381"/><use xlink:href="#g" x="522.52521" y="23.50381"/><use xlink:href="#d" x="538.72283" y="23.50381"/><use xlink:href="#h" x="551.7803" y="23.50381"/><use xlink:href="#i" x="563.28757" y="23.50381"/><use xlink:href="#M" x="582.99483" y="15.51427"/><path fill="none" stroke="#000" stroke-miterlimit="10" stroke-width="1.0932" d="M582.9961 18.23438h7.05077"/><use xlink:href="#k" x="582.99483" y="30.4979"/><use xlink:href="#l" x="595.19359" y="23.50381"/><use xlink:href="#O" x="613.77401" y="15.51427"/><path fill="none" stroke="#000" stroke-miterlimit="10" stroke-width="1.0932" d="M613.77344 18.23438h7.05468"/><use xlink:href="#j" x="613.77401" y="30.4979"/><path fill="none" stroke="#000" stroke-miterlimit="10" stroke-width=".39748" d="m291.69929 61.82419 147.90238-42.26173"/><use xlink:href="#x" x="339.2161" y="36.39679"/><use xlink:href="#z" x="350.00954" y="37.8606"/><use xlink:href="#A" x="358.58274" y="30.86357"/><use xlink:href="#B" x="365.92056" y="28.76709"/><use xlink:href="#C" x="378.47512" y="25.18013"/><use xlink:href="#P" x="366.6254" y="56.96254"/><path fill="none" stroke="#000" stroke-miterlimit="10" stroke-width="1.09316" d="m367.375 59.58203 6.78125-1.9375"/><use xlink:href="#Q" x="370.74202" y="71.37099"/><use xlink:href="#R" x="122.45419" y="124.39046"/><use xlink:href="#S" x="134.25716" y="118.48967"/><use xlink:href="#T" x="141.08297" y="115.07716"/><use xlink:href="#U" x="153.25922" y="108.98975"/><use xlink:href="#V" x="150.03952" y="140.41464"/><path fill="none" stroke="#000" stroke-miterlimit="10" stroke-width="1.09313" d="m151.25781 142.85156 6.3086-3.15625"/><use xlink:href="#W" x="156.74027" y="153.81771"/></svg>