<svg xmlns="http://www.w3.org/2000/svg" id="Badges" width="128" height="40" enable-background="new 44.2 -25 128 128" version="1.1" viewBox="44.2 -25 128 40" xml:space="preserve"><metadata id="metadata1170"/><g id="g1163" transform="translate(0,-44)"><path id="path1115" d="m168.2 59h-120c-2.2 0-4-1.8-4-4v-32c0-2.2 1.8-4 4-4h120c2.2 0 4 1.8 4 4v32c0 2.2-1.8 4-4 4z"/><path id="path1117" fill="#fff" d="m71.2 38.8c0-3.1 2.6-4.6 2.7-4.7-1.5-2.1-3.7-2.4-4.5-2.5-1.9-0.2-3.8 1.1-4.7 1.1-1 0-2.5-1.1-4.1-1.1-2.1 0-4 1.2-5.1 3.1-2.2 3.8-0.6 9.4 1.5 12.5 1.1 1.5 2.3 3.2 3.9 3.1s2.2-1 4.1-1 2.4 1 4.1 1 2.8-1.5 3.8-3c1.2-1.7 1.7-3.4 1.7-3.5-0.1-0.1-3.4-1.3-3.4-5z"/><path id="path1119" fill="#fff" d="m68.1 29.6c0.8-1.1 1.4-2.5 1.3-4-1.2 0.1-2.8 0.8-3.6 1.9-0.8 0.9-1.5 2.4-1.3 3.8 1.3 0.1 2.7-0.7 3.6-1.7z"/><path id="path1121" fill="#fff" d="m94 50.1h-2.2l-1.2-3.8h-4.2l-1.1 3.8h-2.1l4.2-12.9h2.6zm-3.8-5.4-1.1-3.4c-0.1-0.3-0.3-1.2-0.7-2.4-0.1 0.5-0.3 1.4-0.6 2.4l-1.1 3.4z"/><path id="path1123" fill="#fff" d="m104.7 45.4c0 1.6-0.4 2.8-1.3 3.8-0.8 0.8-1.7 1.2-2.9 1.2s-2.1-0.4-2.6-1.3v4.9h-2.1v-10c0-1 0-2-0.1-3.1h1.8l0.1 1.5c0.7-1.1 1.7-1.7 3.1-1.7 1.1 0 2 0.4 2.7 1.3 0.9 0.8 1.3 1.9 1.3 3.4zm-2.1 0c0-0.9-0.2-1.7-0.6-2.2-0.4-0.6-1-0.9-1.8-0.9-0.5 0-1 0.2-1.4 0.5s-0.7 0.8-0.8 1.3c-0.1 0.3-0.1 0.5-0.1 0.6v1.6c0 0.7 0.2 1.2 0.6 1.7s1 0.7 1.6 0.7c0.8 0 1.4-0.3 1.8-0.9 0.5-0.6 0.7-1.4 0.7-2.4z"/><path id="path1125" fill="#fff" d="m115.4 45.4c0 1.6-0.4 2.8-1.3 3.8-0.8 0.8-1.7 1.2-2.9 1.2s-2.1-0.4-2.6-1.3v4.9h-2.1v-10c0-1 0-2-0.1-3.1h1.8l0.1 1.5c0.7-1.1 1.7-1.7 3.1-1.7 1.1 0 2 0.4 2.7 1.3 0.9 0.8 1.3 1.9 1.3 3.4zm-2.1 0c0-0.9-0.2-1.7-0.6-2.2-0.4-0.6-1-0.9-1.8-0.9-0.5 0-1 0.2-1.4 0.5s-0.7 0.8-0.8 1.3c-0.1 0.3-0.1 0.5-0.1 0.6v1.6c0 0.7 0.2 1.2 0.6 1.7s1 0.7 1.6 0.7c0.8 0 1.4-0.3 1.8-0.9 0.5-0.6 0.7-1.4 0.7-2.4z"/><path id="path1127" fill="#fff" d="m127.4 46.5c0 1.1-0.4 2-1.1 2.7-0.8 0.8-2 1.1-3.5 1.1-1.4 0-2.5-0.3-3.3-0.8l0.5-1.7c0.9 0.5 1.9 0.8 3 0.8 0.8 0 1.4-0.2 1.8-0.5 0.4-0.4 0.6-0.8 0.6-1.4 0-0.5-0.2-1-0.5-1.3-0.4-0.4-1-0.7-1.8-1-2.3-0.8-3.4-2.1-3.4-3.7 0-1.1 0.4-1.9 1.2-2.6s1.8-1 3.2-1c1.2 0 2.1 0.2 2.9 0.6l-0.5 1.7c-0.7-0.4-1.5-0.6-2.5-0.6-0.7 0-1.3 0.2-1.7 0.5-0.3 0.3-0.5 0.7-0.5 1.2s0.2 0.9 0.6 1.3c0.3 0.3 1 0.6 1.9 1 1.1 0.4 1.9 1 2.5 1.6 0.3 0.5 0.6 1.2 0.6 2.1z"/><path id="path1129" fill="#fff" d="m134.2 42.4h-2.3v4.5c0 1.1 0.4 1.7 1.2 1.7 0.4 0 0.7 0 0.9-0.1l0.1 1.6c-0.4 0.2-0.9 0.2-1.6 0.2-0.8 0-1.5-0.2-1.9-0.7-0.5-0.5-0.7-1.3-0.7-2.5v-4.7h-1.4v-1.6h1.4v-1.7l2-0.6v2.3h2.3z"/><path id="path1131" fill="#fff" d="m144.5 45.4c0 1.4-0.4 2.6-1.2 3.5-0.9 0.9-2 1.4-3.4 1.4s-2.5-0.5-3.3-1.4-1.2-2-1.2-3.4 0.4-2.6 1.3-3.5c0.8-0.9 2-1.4 3.4-1.4s2.5 0.5 3.3 1.4c0.7 0.9 1.1 2 1.1 3.4zm-2.2 0.1c0-0.9-0.2-1.6-0.6-2.2-0.4-0.7-1.1-1.1-1.9-1.1s-1.5 0.4-1.9 1.1c-0.4 0.6-0.6 1.4-0.6 2.2 0 0.9 0.2 1.6 0.6 2.2 0.4 0.7 1.1 1.1 1.9 1.1s1.4-0.4 1.9-1.1c0.4-0.6 0.6-1.4 0.6-2.2z"/><path id="path1133" fill="#fff" d="m151.2 42.6c-0.2 0-0.4-0.1-0.7-0.1-0.7 0-1.3 0.3-1.7 0.8-0.3 0.5-0.5 1.1-0.5 1.8v4.9h-2.1v-6.4c0-1.1 0-2-0.1-2.9h1.8l0.1 1.8h0.1c0.2-0.6 0.6-1.1 1-1.5 0.5-0.3 1-0.5 1.5-0.5h0.5v2.1z"/><path id="path1135" fill="#fff" d="m160.4 45c0 0.4 0 0.7-0.1 0.9h-6.2c0 0.9 0.3 1.6 0.9 2.1 0.5 0.4 1.2 0.7 2 0.7 0.9 0 1.8-0.1 2.5-0.4l0.3 1.4c-0.9 0.4-1.9 0.6-3.1 0.6-1.4 0-2.6-0.4-3.4-1.3-0.8-0.8-1.2-2-1.2-3.4s0.4-2.6 1.1-3.5c0.8-1 1.9-1.5 3.3-1.5 1.3 0 2.4 0.5 3 1.5 0.7 0.8 0.9 1.8 0.9 2.9zm-1.9-0.5c0-0.6-0.1-1.1-0.4-1.6-0.4-0.6-0.9-0.9-1.6-0.9s-1.2 0.3-1.6 0.8c-0.3 0.4-0.5 1-0.6 1.6h4.2z"/><path id="path1137" fill="#fff" d="m89.6 29.3c0 1.1-0.3 2-1 2.6-0.6 0.5-1.5 0.8-2.7 0.8-0.6 0-1.1 0-1.5-0.1v-6.2c0.5-0.1 1.1-0.1 1.8-0.1 1.1 0 1.9 0.2 2.5 0.7 0.5 0.5 0.9 1.3 0.9 2.3zm-1.1 0c0-0.7-0.2-1.3-0.6-1.7s-1-0.6-1.7-0.6c-0.3 0-0.6 0-0.8 0.1v4.7h0.7c0.8 0 1.4-0.2 1.8-0.6s0.6-1.1 0.6-1.9z"/><path id="path1139" fill="#fff" d="m95.2 30.3c0 0.7-0.2 1.3-0.6 1.7-0.4 0.5-1 0.7-1.7 0.7s-1.2-0.2-1.6-0.7c-0.4-0.4-0.6-1-0.6-1.7s0.2-1.3 0.6-1.7c0.4-0.5 1-0.7 1.7-0.7s1.2 0.2 1.6 0.7c0.4 0.4 0.6 1 0.6 1.7zm-1 0c0-0.4-0.1-0.8-0.3-1.1-0.2-0.4-0.5-0.5-0.9-0.5s-0.7 0.2-0.9 0.5-0.3 0.7-0.3 1.1 0.1 0.8 0.3 1.1c0.2 0.4 0.5 0.5 0.9 0.5s0.7-0.2 0.9-0.6c0.2-0.2 0.3-0.6 0.3-1z"/><path id="path1141" fill="#fff" d="m102.9 28-1.4 4.6h-0.9l-0.6-2c-0.2-0.5-0.3-1-0.4-1.5-0.1 0.5-0.2 1-0.4 1.5l-0.6 2h-0.9l-1.5-4.6h1l0.5 2.2 0.3 1.5c0.1-0.4 0.2-0.9 0.4-1.5l0.6-2.2h0.8l0.6 2.1c0.2 0.5 0.3 1 0.4 1.5l0.3-1.5 0.6-2.1z"/><path id="path1143" fill="#fff" d="m108.1 32.6h-1v-2.6c0-0.8-0.3-1.2-0.9-1.2-0.3 0-0.5 0.1-0.7 0.3s-0.3 0.5-0.3 0.8v2.7h-1v-3.3-1.3h0.9v0.7c0.1-0.2 0.3-0.4 0.5-0.6 0.3-0.2 0.6-0.3 0.9-0.3 0.4 0 0.8 0.1 1.1 0.4 0.4 0.3 0.5 0.8 0.5 1.5z"/><path id="path1145" fill="#fff" d="m110.9 32.6h-1v-6.7h1z"/><path id="path1147" fill="#fff" d="m116.9 30.3c0 0.7-0.2 1.3-0.6 1.7-0.4 0.5-1 0.7-1.7 0.7s-1.2-0.2-1.6-0.7c-0.4-0.4-0.6-1-0.6-1.7s0.2-1.3 0.6-1.7 1-0.7 1.7-0.7 1.2 0.2 1.6 0.7c0.4 0.4 0.6 1 0.6 1.7zm-1 0c0-0.4-0.1-0.8-0.3-1.1-0.2-0.4-0.5-0.5-0.9-0.5s-0.7 0.2-0.9 0.5-0.3 0.7-0.3 1.1 0.1 0.8 0.3 1.1c0.2 0.4 0.5 0.5 0.9 0.5s0.7-0.2 0.9-0.6c0.2-0.2 0.3-0.6 0.3-1z"/><path id="path1149" fill="#fff" d="m121.8 32.6h-0.9l-0.1-0.5c-0.3 0.4-0.8 0.6-1.3 0.6-0.4 0-0.8-0.1-1-0.4s-0.4-0.6-0.4-0.9c0-0.6 0.2-1 0.7-1.3s1.1-0.4 2-0.4v-0.1c0-0.6-0.3-0.9-0.9-0.9-0.5 0-0.8 0.1-1.2 0.3l-0.2-0.7c0.4-0.3 0.9-0.4 1.6-0.4 1.2 0 1.8 0.6 1.8 1.9v1.7c-0.1 0.5-0.1 0.8-0.1 1.1zm-1-1.6v-0.7c-1.1 0-1.7 0.3-1.7 0.9 0 0.2 0.1 0.4 0.2 0.5s0.3 0.2 0.5 0.2 0.4-0.1 0.6-0.2 0.3-0.3 0.4-0.5v-0.2z"/><path id="path1151" fill="#fff" d="m127.6 32.6h-0.9v-0.7c-0.3 0.6-0.8 0.8-1.5 0.8-0.6 0-1-0.2-1.4-0.6s-0.5-1-0.5-1.7 0.2-1.3 0.6-1.8c0.4-0.4 0.9-0.6 1.4-0.6 0.6 0 1 0.2 1.3 0.6v-2.6h1v5.4 1.2zm-1-1.9v-0.8-0.3c-0.1-0.2-0.2-0.4-0.4-0.6s-0.4-0.2-0.7-0.2c-0.4 0-0.7 0.2-0.9 0.5s-0.3 0.7-0.3 1.2 0.1 0.8 0.3 1.1 0.5 0.5 0.9 0.5c0.3 0 0.6-0.1 0.8-0.4 0.2-0.4 0.3-0.7 0.3-1z"/><path id="path1153" fill="#fff" d="m136.3 30.3c0 0.7-0.2 1.3-0.6 1.7-0.4 0.5-1 0.7-1.7 0.7s-1.2-0.2-1.6-0.7c-0.4-0.4-0.6-1-0.6-1.7s0.2-1.3 0.6-1.7c0.4-0.5 1-0.7 1.7-0.7s1.2 0.2 1.6 0.7c0.4 0.4 0.6 1 0.6 1.7zm-1.1 0c0-0.4-0.1-0.8-0.3-1.1-0.2-0.4-0.5-0.5-0.9-0.5s-0.7 0.2-0.9 0.5-0.3 0.7-0.3 1.1 0.1 0.8 0.3 1.1c0.2 0.4 0.5 0.5 0.9 0.5s0.7-0.2 0.9-0.6c0.2-0.2 0.3-0.6 0.3-1z"/><path id="path1155" fill="#fff" d="m141.8 32.6h-1v-2.6c0-0.8-0.3-1.2-0.9-1.2-0.3 0-0.5 0.1-0.7 0.3s-0.3 0.5-0.3 0.8v2.7h-1v-3.3-1.3h0.9v0.7c0.1-0.2 0.3-0.4 0.5-0.6 0.3-0.2 0.6-0.3 0.9-0.3 0.4 0 0.8 0.1 1.1 0.4 0.4 0.3 0.5 0.8 0.5 1.5z"/><path id="path1157" fill="#fff" d="m148.6 28.8h-1.1v2.2c0 0.6 0.2 0.8 0.6 0.8h0.5v0.8c-0.2 0.1-0.5 0.1-0.8 0.1-0.4 0-0.7-0.1-0.9-0.4-0.2-0.2-0.3-0.7-0.3-1.2v-2.3h-0.7v-0.8h0.7v-0.8l1-0.3v1.1h1.1v0.8z"/><path id="path1159" fill="#fff" d="m154 32.6h-1v-2.6c0-0.8-0.3-1.2-0.9-1.2-0.5 0-0.8 0.2-1 0.7v0.4 2.7h-1v-6.7h1v2.8c0.3-0.5 0.8-0.8 1.4-0.8 0.4 0 0.8 0.1 1 0.4 0.3 0.3 0.5 0.9 0.5 1.5z"/><path id="path1161" fill="#fff" d="m159.5 30.1v0.5h-3c0 0.5 0.2 0.8 0.4 1 0.3 0.2 0.6 0.3 1 0.3 0.5 0 0.9-0.1 1.2-0.2l0.2 0.7c-0.4 0.2-0.9 0.3-1.5 0.3-0.7 0-1.3-0.2-1.7-0.6s-0.6-1-0.6-1.7 0.2-1.3 0.6-1.7c0.4-0.5 0.9-0.7 1.6-0.7s1.2 0.2 1.5 0.7c0.2 0.3 0.3 0.8 0.3 1.4zm-0.9-0.3c0-0.3-0.1-0.6-0.2-0.8-0.2-0.3-0.4-0.4-0.8-0.4-0.3 0-0.6 0.1-0.8 0.4-0.2 0.2-0.3 0.5-0.3 0.8z"/></g></svg>