<svg xmlns="http://www.w3.org/2000/svg" id="Badges" width="128" height="40" enable-background="new 185.5 -25.5 128 128" version="1.1" viewBox="185.5 -25.5 128 40" xml:space="preserve"><metadata id="metadata93"/><g id="g86" transform="translate(0,-44)"><path id="path2" d="m309.5 58.5h-120c-2.2 0-4-1.8-4-4v-32c0-2.2 1.8-4 4-4h120c2.2 0 4 1.8 4 4v32c0 2.2-1.8 4-4 4z"/><linearGradient id="SVGID_1_" x1="201.77" x2="207.37" y1="25.074" y2="48.064" gradientUnits="userSpaceOnUse"><stop id="stop4" offset="0" stop-color="#006884"/><stop id="stop6" offset="1" stop-color="#8AD1D0"/></linearGradient><path id="path9" fill="url(#SVGID_1_)" fill-rule="evenodd" d="m195.3 38.1v-10.5c0-0.6 0.5-1.1 1-1.1s0.7 0.1 1 0.3l19.3 10.6c0.4 0.2 0.6 0.5 0.6 0.8s-0.2 0.6-0.6 0.8l-19.3 10.6c-0.2 0.1-0.5 0.3-1 0.3s-1-0.5-1-1.1z" clip-rule="evenodd"/><linearGradient id="SVGID_2_" x1="194.94" x2="210.2" y1="28.344" y2="36.591" gradientUnits="userSpaceOnUse"><stop id="stop11" offset="0" stop-color="#24BBB6"/><stop id="stop13" offset="1" stop-color="#DBE692"/></linearGradient><path id="path16" fill="url(#SVGID_2_)" fill-rule="evenodd" d="m207.8 38.2-11.7-11.7h0.2c0.5 0 0.7 0.1 1 0.3l14.2 7.8z" clip-rule="evenodd"/><linearGradient id="SVGID_3_" x1="212.49" x2="212.49" y1="42.12" y2="34.172" gradientUnits="userSpaceOnUse"><stop id="stop18" offset="0" stop-color="#FCC072"/><stop id="stop20" offset="1" stop-color="#F58A5B"/></linearGradient><path id="path23" fill="url(#SVGID_3_)" fill-rule="evenodd" d="m211.4 41.7-3.6-3.6 3.7-3.7 5.1 2.8c0.4 0.2 0.6 0.5 0.6 0.8s-0.2 0.6-0.6 0.8z" clip-rule="evenodd"/><linearGradient id="SVGID_4_" x1="197.89" x2="209.95" y1="51.769" y2="39.504" gradientUnits="userSpaceOnUse"><stop id="stop25" offset="0" stop-color="#712B8F"/><stop id="stop27" offset="1" stop-color="#EA1D27"/></linearGradient><path id="path30" fill="url(#SVGID_4_)" fill-rule="evenodd" d="m196.2 49.7 11.6-11.6 3.6 3.6-14.1 7.7c-0.3 0.2-0.5 0.3-1.1 0.3 0.1 0 0.1 0 0 0z" clip-rule="evenodd"/><path id="path32" fill="#fff" fill-rule="evenodd" d="m256.6 52.4c-0.5-0.4-0.9-1.1-1.1-1.5l1.6-0.7c0.1 0.2 0.3 0.5 0.5 0.8 0.4 0.4 1 0.8 1.6 0.8s1.3-0.3 1.7-0.8c0.3-0.5 0.5-1 0.5-1.7v-0.6c-1.2 1.5-3.7 1.3-5.1-0.3-1.5-1.6-1.5-4.3 0-5.9 1.5-1.5 3.7-1.7 5-0.3v-0.7h1.7v7.5c0 1.9-0.7 3-1.6 3.7-0.6 0.5-1.5 0.7-2.3 0.7-0.9-0.1-1.8-0.4-2.5-1zm41.9 0.4 1.7-4-3-6.9h1.7l2.1 4.9 2.1-4.9h1.7l-4.6 10.9zm-8.1-3.8c-0.5-0.5-0.7-1.2-0.7-1.9 0-0.6 0.2-1.2 0.6-1.6 0.7-0.7 1.7-1 2.8-1 0.7 0 1.3 0.1 1.8 0.4 0-1.2-1-1.7-1.8-1.7-0.7 0-1.4 0.4-1.7 1.1l-1.5-0.6c0.3-0.7 1.1-2 3.1-2 1 0 2 0.3 2.6 1s0.8 1.5 0.8 2.6v4.2h-1.7v-0.7c-0.2 0.3-0.6 0.5-0.9 0.7-0.4 0.2-0.9 0.3-1.4 0.3-0.6-0.1-1.5-0.3-2-0.8zm-53.3-3.6c0-2 1.5-4.2 4.2-4.2 2.6 0 4.2 2.2 4.2 4.2s-1.5 4.2-4.2 4.2-4.2-2.2-4.2-4.2zm9 0c0-2 1.5-4.2 4.2-4.2 2.6 0 4.2 2.2 4.2 4.2s-1.5 4.2-4.2 4.2c-2.6 0-4.2-2.2-4.2-4.2zm-20.3 2.2c-2.5-2.5-2.4-6.6 0.1-9.2 1.3-1.3 2.9-1.9 4.6-1.9 1.6 0 3.2 0.6 4.4 1.8l-1.2 1.3c-1.8-1.8-4.7-1.7-6.4 0.1-1.8 1.9-1.8 4.8 0 6.7s4.8 2 6.6 0.1c0.6-0.6 0.8-1.4 0.9-2.2h-4.2v-1.8h5.9c0.1 0.4 0.1 0.9 0.1 1.4 0 1.5-0.6 3-1.6 4-1.1 1.1-2.7 1.7-4.3 1.7-1.8-0.1-3.6-0.7-4.9-2zm42.3 0.7c-1.5-1.6-1.5-4.3 0-6 1.5-1.6 4-1.6 5.4 0 0.5 0.5 0.8 1.2 1.1 1.9l-5.5 2.3c0.3 0.7 1 1.3 2 1.3 0.9 0 1.5-0.3 2.1-1.2l1.5 1c-0.2 0.2-0.4 0.4-0.5 0.6-1.7 1.7-4.6 1.7-6.1 0.1zm10.4 1.2v-11.1h3.6c2.1 0 3.8 1.5 3.8 3.3s-1.5 3.3-3.4 3.3h-2.2v4.4h-1.8zm8.4 0v-11.1h1.7v11.1zm-22.6-0.2v-12.4h1.8v12.4zm30.5-3.1c-0.4-0.3-1-0.4-1.6-0.4-1.2 0-1.9 0.6-1.9 1.3s0.7 1.1 1.4 1.1c1 0 2.1-0.8 2.1-2zm-51.2-0.8c0-1.2-0.8-2.5-2.3-2.5s-2.3 1.3-2.3 2.5 0.8 2.5 2.3 2.5c1.4 0 2.3-1.3 2.3-2.5zm9 0c0-1.2-0.8-2.5-2.3-2.5s-2.3 1.3-2.3 2.5 0.8 2.5 2.3 2.5 2.3-1.3 2.3-2.5zm8.9 0.7c0-0.1 0-0.2 0.1-0.3v-0.4-0.4-0.1c0-0.1-0.1-0.3-0.1-0.4-0.3-1-1.2-1.7-2.1-1.7-1.2 0-2.2 1.2-2.2 2.5 0 1.4 1 2.5 2.3 2.5 0.8 0.1 1.6-0.6 2-1.7zm7.3-0.9 3.7-1.6c-0.4-0.7-1-0.9-1.5-0.9-1.5 0.1-2.4 1.7-2.2 2.5zm15.3-3.4c0-1-0.8-1.7-1.9-1.7h-2v3.5h2.1c1 0 1.8-0.8 1.8-1.8z" clip-rule="evenodd"/><polygon id="polygon34" fill="#fff" fill-rule="evenodd" points="299.7 50.8 299.7 50.7 299.7 50.7 299.8 50.7 299.8 50.7 299.7 50.7 299.7 50.7 299.7 50.8 299.7 50.8 299.8 50.8" clip-rule="evenodd"/><path id="path36" fill="#fff" fill-rule="evenodd" d="m299.8 50.8v0 0zm0-0.1z" clip-rule="evenodd"/><polygon id="polygon38" fill="#fff" fill-rule="evenodd" points="299.8 50.7 299.8 50.7 299.8 50.7 299.8 50.7 299.8 50.7 299.8 50.7 299.8 50.7 299.8 50.8" clip-rule="evenodd"/><path id="path40" fill="#fff" fill-rule="evenodd" d="m299.8 50.8zm0-0.1z" clip-rule="evenodd"/><polygon id="polygon42" fill="#fff" fill-rule="evenodd" points="299.8 50.7 299.8 50.8 299.8 50.8" clip-rule="evenodd"/><polygon id="polygon44" fill="#fff" fill-rule="evenodd" points="299.8 50.7 299.8 50.7 299.8 50.7 299.8 50.7 299.8 50.7 299.8 50.7 299.8 50.7 299.8 50.8" clip-rule="evenodd"/><path id="path46" fill="#fff" fill-rule="evenodd" d="m299.8 50.8v0zm0 0v0z" clip-rule="evenodd"/><path id="path48" fill="#fff" fill-rule="evenodd" d="m299.9 50.8v0 0 0zm0-0.1zm0 0.1v0z" clip-rule="evenodd"/><polygon id="polygon50" fill="#fff" fill-rule="evenodd" points="299.9 50.7 299.9 50.7 299.9 50.7 299.9 50.7 299.9 50.7 299.9 50.8 299.9 50.8" clip-rule="evenodd"/><polygon id="polygon52" fill="#fff" fill-rule="evenodd" points="299.9 50.7 299.9 50.8" clip-rule="evenodd"/><path id="path54" fill="#fff" fill-rule="evenodd" d="m299.9 50.8v0 0zm0-0.1v0 0z" clip-rule="evenodd"/><path id="path56" fill="#fff" fill-rule="evenodd" d="m299.9 50.8v0 0 0 0z" clip-rule="evenodd"/><path id="path58" fill="#fff" fill-rule="evenodd" d="m300 50.8v0c-0.1-0.1-0.1-0.1 0 0-0.1 0-0.1 0 0 0zm0-0.1v0c0 0.1-0.1 0.1 0 0-0.1 0 0 0 0 0z" clip-rule="evenodd"/><polygon id="polygon60" fill="#fff" fill-rule="evenodd" points="300 50.7 300 50.7 300 50.7 300 50.8 300 50.8 300 50.7 300 50.7 300 50.8 300 50.8 300 50.7 300 50.7 300 50.8" clip-rule="evenodd"/><path id="path62" fill="#fff" fill-rule="evenodd" d="m300 50.8zm0-0.1z" clip-rule="evenodd"/><path id="path64" fill="#fff" fill-rule="evenodd" d="m300 50.8v0 0 0 0 0 0 0 0z" clip-rule="evenodd"/><polygon id="polygon66" fill="#fff" fill-rule="evenodd" points="300.1 50.7 300.1 50.8 300.1 50.8 300.1 50.7 300 50.7" clip-rule="evenodd"/><polygon id="polygon68" fill="#fff" fill-rule="evenodd" points="300.1 50.7 300.1 50.7 300.1 50.7 300.1 50.7 300.1 50.7 300.1 50.7 300.1 50.7 300.1 50.8" clip-rule="evenodd"/><path id="path70" fill="#fff" fill-rule="evenodd" d="m300.1 50.8v0 0zm0-0.1z" clip-rule="evenodd"/><path id="path72" fill="#fff" d="m224.4 28.6c0-1.8 1.3-2.9 2.9-2.9 1.1 0 1.8 0.5 2.3 1.2l-0.8 0.5c-0.3-0.4-0.8-0.7-1.5-0.7-1.1 0-1.9 0.8-1.9 2s0.8 2 1.9 2c0.6 0 1.1-0.3 1.3-0.5v-0.9h-1.6v-0.9h2.7v2.1c-0.5 0.6-1.3 1-2.3 1-1.7 0-3-1.2-3-2.9z"/><path id="path74" fill="#fff" d="m230.9 31.4v-5.6h3.8v0.9h-2.9v1.4h2.8v0.9h-2.8v1.6h2.9v0.9z"/><path id="path76" fill="#fff" d="m237.5 31.4v-4.7h-1.7v-0.9h4.4v0.9h-1.7v4.7z"/><path id="path78" fill="#fff" d="m243.6 31.4v-5.6h1v5.6h-1z"/><path id="path80" fill="#fff" d="m247.3 31.4v-4.7h-1.7v-0.9h4.4v0.9h-1.7v4.7z"/><path id="path82" fill="#fff" d="m253.2 28.6c0-1.7 1.2-2.9 2.9-2.9s2.9 1.2 2.9 2.9-1.2 2.9-2.9 2.9-2.9-1.3-2.9-2.9zm4.7 0c0-1.2-0.7-2-1.9-2-1.1 0-1.9 0.9-1.9 2 0 1.2 0.7 2 1.9 2s1.9-0.9 1.9-2z"/><path id="path84" fill="#fff" d="m264 31.4-2.9-4v4h-1v-5.6h1l2.9 3.9v-3.9h1v5.6z"/></g></svg>