<svg id="Capa_1" enable-background="new 0 0 512 512" height="512" viewBox="0 0 512 512" width="512" xmlns="http://www.w3.org/2000/svg"><g><path d="m324.195 282.327-41.868 41.868c-4.057 4.057-10.634 4.057-14.691 0l-26.59-26.59 56.56-56.56 26.59 26.59c4.056 4.057 4.056 10.635-.001 14.692z" fill="#2b4d66"/><path d="m296.232 296.232h47.993v47.993h-47.993z" fill="#4a80aa" transform="matrix(.707 -.707 .707 .707 -132.643 320.229)"/><path d="m508.957 467.089-41.868 41.868c-4.057 4.057-10.634 4.057-14.691 0l-136.136-136.135c-4.057-4.057-4.057-10.634 0-14.691l41.868-41.868c4.057-4.057 10.634-4.057 14.691 0l136.135 136.135c4.058 4.056 4.058 10.634.001 14.691z" fill="#407093"/><path d="m508.957 467.089-11.508 11.508-150.826-150.827 11.508-11.508c4.057-4.057 10.634-4.057 14.691 0l136.135 136.135c4.057 4.057 4.057 10.635 0 14.692z" fill="#365e7d"/><circle cx="159.976" cy="159.976" fill="#407093" r="159.976"/><path d="m256.72 32.57c20.433 26.867 32.57 60.386 32.57 96.744 0 88.352-71.624 159.976-159.976 159.976-36.358 0-69.877-12.137-96.744-32.57 29.22 38.421 75.412 63.232 127.406 63.232 88.352 0 159.976-71.624 159.976-159.976-.001-51.994-24.812-98.187-63.232-127.406z" fill="#365e7d"/><circle cx="159.976" cy="159.976" fill="#e4f6ff" r="117.315"/><path d="m230.821 66.467c14.938 19.685 23.807 44.228 23.807 70.845 0 64.792-52.524 117.315-117.315 117.315-26.617 0-51.16-8.87-70.845-23.807 21.423 28.233 55.334 46.47 93.508 46.47 64.792 0 117.315-52.524 117.315-117.315 0-38.174-18.238-72.084-46.47-93.508z" fill="#d3effb"/></g></svg>