<?xml version="1.0" encoding="UTF-8" standalone="no"?>
<svg
   xmlns:dc="http://purl.org/dc/elements/1.1/"
   xmlns:cc="http://creativecommons.org/ns#"
   xmlns:rdf="http://www.w3.org/1999/02/22-rdf-syntax-ns#"
   xmlns:svg="http://www.w3.org/2000/svg"
   xmlns="http://www.w3.org/2000/svg"
   id="svg24"
   version="1.1"
   height="19.976032"
   width="19.976032">
  <metadata
     id="metadata30">
    <rdf:RDF>
      <cc:Work
         rdf:about="">
        <dc:format>image/svg+xml</dc:format>
        <dc:type
           rdf:resource="http://purl.org/dc/dcmitype/StillImage" />
        <dc:title></dc:title>
      </cc:Work>
    </rdf:RDF>
  </metadata>
  <defs
     id="defs28" />
  <g
     transform="translate(-1.8740558,-2.0705126)"
     id="g22">
    <g
       id="g20"
       transform="matrix(1.0607,1.0607,-1.0607,1.0607,1146.8,-993.474)">
      <path
         style="fill:#ecf0f1"
         id="path2"
         d="m -63,1003.4 v 11.3 0.7 1 l 2,2 2,-2 v -1 -0.7 -11.3 z" />
      <path
         style="fill:#bdc3c7"
         id="path4"
         d="m -61,1003.4 v 15 l 2,-2 v -1 -0.7 -11.3 z" />
      <rect
         style="fill:#e67e22"
         id="rect6"
         y="1004.4"
         x="-63"
         height="11"
         width="4" />
      <path
         style="fill:#7f8c8d"
         id="path8"
         d="m -61,1000.4 c -1.105,0 -2,0.9 -2,2 v 1 h 4 v -1 c 0,-1.1 -0.895,-2 -2,-2 z" />
      <g
         id="g14">
        <path
           style="fill:#34495e"
           id="path10"
           transform="translate(-7,1)"
           d="m -55.406,1016 1.406,1.4 1.406,-1.4 H -54 Z" />
        <path
           style="fill:#2c3e50"
           id="path12"
           transform="translate(-7,1)"
           d="m -54,1016 v 1.4 l 1.406,-1.4 z" />
      </g>
      <path
         style="fill:#95a5a6"
         id="path16"
         d="m -61,1000.4 c -1.105,0 -2,0.9 -2,2 v 1 h 2 z" />
      <rect
         style="fill:#d35400"
         id="rect18"
         y="1004.4"
         x="-61"
         height="11"
         width="2" />
    </g>
  </g>
</svg>
