<svg xmlns="http://www.w3.org/2000/svg" width="24" height="24"><g><title>background</title><rect id="canvas_background" width="582" height="402" x="-1" y="-1" fill="none"/></g><g><title>Layer 1</title><path id="svg_2" fill="#e67e22" d="m3,8l0,2l0,1l0,3l0,1l0,5l0,1c0,1.105 0.8954,2 2,2l14,0c1.105,0 2,-0.895 2,-2l0,-1l0,-5l0,-4l0,-3l-18,0z"/><path id="svg_3" fill="#ecf0f1" d="m2.956012,6.999976l0,2l0,1l0,3l0,1l0,5l0,1c0,1.1 0.8954,2 2,2l14,0c1.105,0 2,-0.9 2,-2l0,-1l0,-5l0,-4l0,-3l-18,0z"/><path id="svg_4" fill="#bdc3c7" d="m3,5.999976l0,2l0,1l0,3l0,1l0,5l0,1c0,1.1 0.8954,2 2,2l14,0c1.105,0 2,-0.9 2,-2l0,-1l0,-5l0,-4l0,-3l-18,0z"/><path id="svg_5" fill="#ecf0f1" d="m3,4.999976l0,2l0,1l0,3l0,1l0,5l0,1c0,1.1 0.8954,2 2,2l14,0c1.105,0 2,-0.9 2,-2l0,-1l0,-5l0,-4l0,-3l-18,0z"/><path id="svg_6" fill="#e67e22" d="m4.956012,0.956012c-1.1046,0 -2,0.8954 -2,2l0,1l0,4l0,2l0,1l0,3l0,1l0,5l0,1c0,1.105 0.8954,2 2,2l2,0l0,-1l-1.5,0c-0.8284,0 -1.5,-0.672 -1.5,-1.5s0.6716,-1.5 1.5,-1.5l12.5,0l1,0c1.105,0 2,-0.895 2,-2l0,-1l0,-5l0,-4l0,-3l0,-1c0,-1.1046 -0.895,-2 -2,-2l-4,0l-10,0z"/><path id="svg_7" fill="#f1c40f" d="m8,1l0,18l1,0l9,0l1,0c1.105,0 2,-0.895 2,-2l0,-1l0,-5l0,-4l0,-3l0,-1c0,-1.1046 -0.895,-2 -2,-2l-4,0l-6,0l-1,0z"/></g></svg>