<svg xmlns="http://www.w3.org/2000/svg" width="24" height="24" version="1.1"><g transform="translate(0 -1028.4)"><path fill="#95a5a6" d="m8.875 19c0.0128 0.169 0.0312 0.327 0.0312 0.5 0 1.863-0.7465 3.505-1.9062 4.5h4 2 4c-1.16-0.995-1.906-2.637-1.906-4.5 0-0.173 0.018-0.331 0.031-0.5h-2.125-2-2.125z" transform="translate(0 1028.4)"/><path fill="#7f8c8d" d="m8.875 1047.4c0.0128 0.1 0.0312 0.3 0.0312 0.5 0 0.5-0.0462 1-0.1562 1.5h6.5c-0.11-0.5-0.156-1-0.156-1.5 0-0.2 0.018-0.4 0.031-0.5h-2.125-2-2.125z"/><path fill="#bdc3c7" d="m1 1031.4c-0.55228 0-1 0.4-1 1v1 2 2 2 1 1 1 2 2 1c0 0.5 0.44772 1 1 1h1 13 6 1 1c0.552 0 1-0.5 1-1v-1-7-1-1-2-2-1c0-0.6-0.448-1-1-1h-1-5-1-9-4-1-1z"/><rect width="22" height="14" x="1" y="1032.4" fill="#34495e"/><path fill="#2c3e50" d="m23 1033.4-21 13h19.582 1.418v-1.6-11.4z"/></g></svg>