<svg xmlns="http://www.w3.org/2000/svg" width="24" height="24" version="1.1"><g><path fill="#27ae60" d="m22 12c0 5.523-4.477 10-10 10-5.5228 0-10-4.477-10-10 0-5.5228 4.4772-10 10-10 5.523 0 10 4.4772 10 10z" transform="translate(0 -1028.4) translate(0 1029.4)"/><path fill="#2ecc71" d="m22 12c0 5.523-4.477 10-10 10-5.5228 0-10-4.477-10-10 0-5.5228 4.4772-10 10-10 5.523 0 10 4.4772 10 10z" transform="translate(0 -1028.4) translate(0 1028.4)"/><path fill="#27ae60" d="m16 1037.4-6 6-2.5-2.5-2.125 2.1 2.5 2.5 2 2 0.125 0.1 8.125-8.1-2.125-2.1z" transform="translate(0 -1028.4)"/><path fill="#ecf0f1" d="m16 1036.4-6 6-2.5-2.5-2.125 2.1 2.5 2.5 2 2 0.125 0.1 8.125-8.1-2.125-2.1z" transform="translate(0 -1028.4)"/></g></svg>