<svg xmlns="http://www.w3.org/2000/svg" xmlns:xlink="http://www.w3.org/1999/xlink" width="425.599pt" height="425.599pt" viewBox="0 0 425.599 425.599"><defs><path id="c" d="M1.79688 0h1.92187v-20.42187L17.48438 0h6.20312v-23.32812h-1.96875v20.42187L7.98438-23.32812h-6.1875Zm2.9375-21.64062h2.6875L20.78124-1.6875h-2.6875Zm0 0"/><path id="g" d="M2.04688 0h19.5625v-1.6875H8.20312l13.40626-19.95312v-1.6875H2.90624v1.6875H15.4375L2.04688-1.6875Zm1.78125-1.6875 13.375-19.95312h2.71874L6.51564-1.6875Zm0 0"/><path id="j" d="M1.96875 0h10.5c5.76563 0 9.75-6.625 9.75-11.78125 0-5.01562-3.73437-11.54687-9.89062-11.54687H1.96875Zm1.6875-1.6875v-19.95312h2.6875V-1.6875Zm4.375 0v-19.95312H11.75c1.75 0 2.65625.25 4.01563.85937v18.01563C14.35938-1.90625 13.5-1.6875 11.75-1.6875Zm9.42188-2.4375v-15.29687c1.89062 1.90624 3.07812 4.625 3.07812 7.64062 0 3.04688-1.1875 5.71875-3.07812 7.65625m0 0"/><path id="p" d="M1.5-11.78125C1.5-5.95312 5.26563-1 10.39063.14063c1.35937 3.79687 2.96875 4.76562 7.3125 6.5625h1.96874c-2.35937-2.26563-2.90624-4.01563-3.125-6.92188 4.375-1.64062 7.53126-6.29687 7.53126-11.5625 0-6.67187-5.04688-12.1875-11.28126-12.1875S1.5-18.45312 1.5-11.78125m1.6875 0c0-3.04687 1.21875-5.95312 3.15625-7.85937v15.73437c-1.9375-1.9375-3.15625-4.82812-3.15625-7.875m4.84375 9.20313V-21c1.39063-.85937 3-1.35937 4.76563-1.35937 1.75 0 3.4375.5 4.82812 1.40624v18.375c-1.39062.85938-3.07812 1.28125-4.82812 1.28125-1.76563 0-3.375-.42187-4.76563-1.28124m4.1875 2.9375c.17188.03125.67188.10937 1.14063.10937.57812 0 1.04687-.07812 1.51562-.1875.09375 1.875.42188 2.9375 1.46875 4.45313-1.875-1.10938-3.26562-2.21875-4.125-4.375M19.3125-3.9375v-15.65625c1.89063 1.89063 3.07813 4.79688 3.07813 7.8125 0 3.04688-1.1875 5.90625-3.07813 7.84375m0 0"/><path id="s" d="M1.79688 0h6.04687v-9.45312h2.10938L15.40625 0h6.125l-5.54687-9.75c3-.92187 4.82812-3.90625 4.82812-6.65625 0-3.90625-2.96875-6.92187-7.04687-6.92187H1.79688Zm1.67187-1.6875v-19.95312h2.6875V-1.6875Zm4.375-9.45312v-10.5h5.98438v10.5Zm4.125 1.6875h2.6875l4.29688 7.76562h-2.6875Zm3.54688-1.90625V-21.5c2.25.60938 3.6875 3.01563 3.6875 5.09375 0 2.14063-1.60938 4.6875-3.6875 5.04688m0 0"/><path id="v" d="M1.1875-11.64062C1.1875-4.98437 6.23438.39063 12.46875.39063c4.65625 0 6.76563-1.53125 8.73438-4.04688l-.89063-1.39062c-1.57812 2.1875-3.60937 3.75-7.84375 3.75-1.57812 0-3.26562-.45313-4.6875-1.3125v-17.92188C9.17188-21.39062 10.67188-22 12.35938-22c3.54687 0 6.125 1.10938 7.95312 3.21875l.75-1.46875c-1.46875-1.92187-3.79687-3.46875-8.59375-3.46875-6.23437 0-11.28125 5.40625-11.28125 12.07813m1.67188 0c0-2.98438 1.26562-5.67188 3.23437-7.59375V-3.875c-1.9375-1.75-3.23437-4.32812-3.23437-7.76562m0 0"/><path id="d" d="M.78125-6.25C.78125-2.51562 1.875.21875 4.95313.21875c3.09375 0 4.20312-2.73437 4.20312-6.46875 0-3.75-1.10937-6.46875-4.20312-6.46875C1.875-12.71875.78125-10 .78125-6.25m1.89063 0c0-3.04687.51562-5.8125 2.28125-5.8125C6.73438-12.0625 7.25-9.29687 7.25-6.25S6.73438-.4375 4.95313-.4375c-1.76563 0-2.28125-2.76562-2.28125-5.8125m0 0"/><path id="e" d="M.5-1.90625c0 .79688 1.29688 2.125 3.9375 2.125 2.70313 0 4.42188-1.375 4.42188-3.76562 0-2.5-2.15625-3.23438-3.1875-3.34375v-.07813c1.01562-.15625 2.625-.92187 2.625-2.76562 0-2.0625-1.60938-2.98438-3.625-2.98438C2.20313-12.71875 1-11.28125 1-10.48437c0 .57812.65625.89062.90625.89062s.39063-.14062.46875-.375C2.78125-11.25 3.48438-12.0625 4.53125-12.0625c1.48438 0 1.85938 1.29688 1.85938 2.34375 0 1.125-.40625 2.53125-1.98438 2.53125-.90625 0-1.42187-.17187-1.64062-.17187-.23438 0-.34375.17187-.34375.51562 0 .3125.10937.51563.34375.51563.21875 0 .73437-.1875 1.64062-.1875 1.57813 0 2.48438 1.4375 2.48438 3.07812 0 2.21875-1.09375 3-2.4375 3-1.23438 0-2.04688-.92187-2.40625-1.96875C1.9375-2.76562 1.75-2.95312 1.5-2.95312c-.34375 0-1 .35937-1 1.04687m0 0"/><path id="f" d="M2.03125 0H8.1875v-.53125L6.60938-.67187c-.40625-.04688-.625-.1875-.625-.92188V-12.625l-.09375-.09375-3.85938.65625v.45313l1.75.21875c.3125.04687.4375.1875.4375.71875v9.07812c0 .73438-.17187.875-.60937.92188l-1.57813.14062Zm0 0"/><path id="h" d="M1.59375-4.73437h10.29688v-1.09375H1.59375Zm0 0"/><path id="i" d="M.75-1.90625c0 .84375 1.3125 2.125 3.75 2.125 3.07813 0 4.48438-1.875 4.48438-4.23437 0-2.64063-1.64063-3.96875-3.875-3.96875-1.03125 0-2.15625.45312-2.76563 1l.42188-3.54688c.0625-.48437.1875-.53125.53125-.53125h4.67187l.45313-1.28125L8.32813-12.5H2.0625l-.17187.17188-.375 6.25.45312.25C2.75-6.73437 3.5-7.17187 4.51563-7.17187c1.20312 0 2.51562.875 2.51562 3.34375C7.03125-1.89062 6.25-.4375 4.625-.4375c-1.32812 0-1.98437-.9375-2.35937-2.01562-.09375-.28125-.28125-.45313-.53125-.45313-.375 0-.98438.375-.98438 1m0 0"/><path id="m" d="m.95313 2.29688.35937.34375c.9375-.875 2.29688-2.125 2.29688-3.59375 0-1-.54688-1.6875-1.26563-1.6875-.57812 0-.9375.45312-.9375.92187 0 .6875.625 1.04688.625 1.84375 0 .76563-.48437 1.5-1.07812 2.17188m0 0"/><path id="n" d="M.5-.17187.70313 0H8.4375l.64063-2.46875-.51563-.09375c-.40625 1.01563-.78125 1.15625-1.53125 1.15625H2.25c.29688-.98437 1.40625-2.3125 3.14063-3.57812 1.79687-1.3125 3.1875-2.14063 3.1875-4.23438 0-2.60937-1.73438-3.5-3.70313-3.5-2.5625 0-3.875 1.54688-3.875 2.53125 0 .625.71875.9375 1.03125.9375.34375 0 .45313-.20312.53125-.53125.29688-1.26562 1.04688-2.28125 2.1875-2.28125 1.4375 0 1.85938 1.1875 1.85938 2.5625 0 2.01563-1.01563 3.15625-2.64063 4.57813C1.65625-2.90625.85938-1.625.5-.17187m0 0"/><path id="o" d="M.8125-5.76562c0 4.03125 1.48438 5.98437 4.28125 5.98437 2.76563 0 4.25-1.67187 4.25-4.21875 0-2.53125-1.5625-3.90625-3.57812-3.90625-1.46875 0-2.5625 1-3.0625 1.60938.03125-4.10938 1.15625-5.76563 2.84375-5.76563.85937 0 1.48437.71875 1.76562 1.79688.04688.21875.1875.39062.46875.39062.42188 0 1-.34375 1-.85937 0-.75-.92187-1.98438-3.17187-1.98438-2.96875 0-4.79688 2.28125-4.79688 6.95313m1.89063 1.34375c0-1.125.85937-2.53125 2.4375-2.53125 1.17187 0 2.32812 1.07812 2.32812 3.23437 0 1.96875-.76562 3.28125-2.32812 3.28125-1.64063 0-2.4375-1.73437-2.4375-3.98437m0 0"/><path id="q" d="M1.95313-.95312c0 .67187.45312 1.17187 1.17187 1.17187.73438 0 1.15625-.5 1.17188-1.17187 0-.70313-.4375-1.21875-1.17188-1.21875-.71875 0-1.17187.51562-1.17187 1.21875m6.23437 0c0 .67187.45313 1.17187 1.17188 1.17187.73437 0 1.15625-.5 1.17187-1.17187 0-.70313-.4375-1.21875-1.17187-1.21875-.71875 0-1.17188.51562-1.17188 1.21875m6.21875 0c0 .67187.46875 1.17187 1.1875 1.17187.73438 0 1.14063-.5 1.17188-1.17187 0-.70313-.4375-1.21875-1.17188-1.21875-.71875 0-1.1875.51562-1.1875 1.21875m0 0"/><path id="t" d="m2.3125-5.98437.25.34375c.29688-.10938.84375-.21875 1.04688-.21875.07812.1875 4.21875 9.84375 4.21875 9.84375h.73437L18.95313-17.75c.09374-.20312.14062-.28125.14062-.34375 0-.20312-.10937-.71875-.375-.71875-.14062 0-.3125.26563-.42187.5l-9.53126 20-3.84374-8.96875c-.07813-.15625-.10938-.28125-.25-.28125-.04688 0-.07813.01563-.25.15625Zm0 0"/><path id="u" d="M.65625-.45312c0 .4375.57813.67187.85938.67187 1 0 1.6875-1.23437 2.03125-2.0625.4375-1.10937 1.07812-3.45312 1.625-6.125h2.35937L6.3125-2.3125c-.0625.40625-.10937.76563-.10937 1.0625 0 .95313.3125 1.46875.98437 1.46875 1.375 0 2.40625-1.03125 3.0625-2.60937l-.4375-.25C9.34375-1.6875 8.57813-.73437 8.15625-.73437c-.21875 0-.26562-.21876-.26562-.5625 0-.20313.01562-.45313.04687-.6875l1.26563-5.98438h1.625l.75-1.42187c-.53125.14062-1.3125.1875-2.1875.1875h-5.3125c-.95313 0-2.26563.48437-2.98438 1.625l.29688.32812c.76562-.57812 1.73437-.71875 2.73437-.71875-.79687 3.29688-1.35937 6.25-2.40625 6.4375-.48437.07813-1.0625.35938-1.0625 1.07813m0 0"/><path id="w" d="M2.1875-.85937c0 .65625.32813 1.07812 1.07813 1.07812 1.35937 0 2.39062-1.28125 3.03125-2.6875l-.46875-.26562C5.5-2.0625 4.67188-.75 4.15625-.75c-.21875 0-.29687-.14062-.29687-.39062 0-.17188.04687-.39063.10937-.625l2.04688-7.53125-.10938-.09375-3.39062.51562-.125.45313 1.07812.09375c.32813.03125.46875.125.46875.39062 0 .10938-.01562.28125-.07812.46875l-1.5625 5.85938c-.09375.28124-.10938.51562-.10938.75m2.40625-11.28125c0 .6875.48438 1.04687 1.04688 1.04687.73437 0 1.1875-.48437 1.1875-1.25 0-.73437-.5-1.03125-1.01563-1.03125-.79687 0-1.21875.64063-1.21875 1.23438m0 0"/><path id="x" d="M1.59375-4.73437H6.1875v4.59375h1.09375v-4.59375h4.60938v-1.09375H7.28125v-4.60938H6.1875v4.60938H1.59375Zm0 0"/><path id="k" d="M1.42188 0H5.8125v-.40625L4.76563-.5c-.29688-.03125-.4375-.125-.4375-.60937v-7.73438L4.25-8.90625l-2.8125.46875v.35938l1.125.14062c.25.04688.34375.14063.34375.54688v6.28125c0 .48437-.125.57812-.4375.60937l-1.04687.09375Zm0 0"/><path id="l" d="m.26563-2.64062.15625.3125H3.9375V-1c0 .42188-.15625.48438-.45312.51563l-.84375.07812V0H6.25v-.40625l-.60937-.0625c-.28125-.04687-.375-.10937-.375-.53125v-1.32812h1.34375v-.6875H5.26563V-8.75H4.15625C2.89063-6.89062 1.46875-4.67187.26563-2.64062m1.0625-.375C2.0625-4.375 2.96875-5.85937 3.9375-7.39062v4.375Zm0 0"/><path id="r" d="M.35938-1.39062c0 .54687.85937 1.54687 2.84375 1.54687 1.95312 0 3.17187-.95312 3.17187-2.625 0-1.78125-1.54687-2.25-2.21875-2.32812v-.04688C4.85938-4.96875 6-5.48437 6-6.78125c0-1.53125-1.26562-2.125-2.65625-2.125-1.67187 0-2.64062.9375-2.64062 1.60938 0 .4375.51562.67187.73437.67187.1875 0 .29688-.125.375-.3125.29688-.92187.73438-1.48437 1.45313-1.48437.96875 0 1.20312.92187 1.20312 1.625 0 .6875-.21875 1.76562-1.29687 1.76562-.59375 0-.98438-.14062-1.17188-.14062-.20312 0-.26562.15625-.26562.40625s.0625.40625.26562.40625c.1875 0 .57813-.14063 1.17188-.14063 1.01562 0 1.64062.82813 1.64062 2.09375 0 1.5-.70312 2.07813-1.59375 2.07813-.79687 0-1.34375-.60938-1.60937-1.45313-.09376-.25-.23438-.39062-.4375-.39062-.29688 0-.8125.28125-.8125.78125m0 0"/><clipPath id="a"><path d="M0 0h425.19922v425H0Zm0 0"/></clipPath><clipPath id="b"><path d="M0 0h425.19922v425.19922H0Zm0 0"/></clipPath></defs><g clip-path="url(#a)"><path fill="#0F0" fill-opacity=".2" d="M425.0039 212.59766C425.0039 95.28906 329.90626.1953 212.60157.1953 95.29296.19531.19531 95.28906.19531 212.59766S95.29297 425 212.60156 425c117.30469 0 212.40235-95.09375 212.40235-212.40234m0 0"/></g><g clip-path="url(#b)"><path fill="none" stroke="#000" stroke-miterlimit="10" stroke-width=".39813" d="M425.00397 212.59766c0-117.30863-95.09768-212.40241-212.4024-212.40241C95.29292.19525.19524 95.28903.19524 212.59765c0 117.30864 95.09768 212.40242 212.40631 212.40242 117.30473 0 212.40241-95.09378 212.40241-212.40241Zm0 0"/></g><path fill="#0F0" fill-opacity=".2" stroke="#000" stroke-miterlimit="10" stroke-width=".39813" d="M394.41803 229.58985c0-100.4141-81.40237-181.81646-181.81647-181.81646-100.418 0-181.82037 81.40236-181.82037 181.81646 0 100.418 81.40237 181.81646 181.82037 181.81646 100.4141 0 181.81647-81.39846 181.81647-181.81646Zm0 0"/><path fill="#0F0" fill-opacity=".2" stroke="#000" stroke-miterlimit="10" stroke-width=".39813" d="M362.13286 246.58204c0-82.58596-66.94924-149.5313-149.5313-149.5313-82.58596 0-149.5352 66.94534-149.5352 149.5313s66.94924 149.5313 149.5352 149.5313c82.58206 0 149.5313-66.94534 149.5313-149.5313Zm0 0"/><path fill="#0F0" fill-opacity=".2" stroke="#000" stroke-miterlimit="10" stroke-width=".39813" d="M329.8477 263.57423c0-64.75392-52.49221-117.24613-117.24614-117.24613-64.75783 0-117.25003 52.4922-117.25003 117.24613s52.4922 117.24614 117.25003 117.24614c64.75393 0 117.24613-52.4922 117.24613-117.24614Zm0 0"/><path fill="#0F0" fill-opacity=".2" stroke="#000" stroke-miterlimit="10" stroke-width=".39813" d="M302.66018 280.56643c0-49.7383-40.32032-90.05862-90.05862-90.05862-49.7422 0-90.06253 40.32032-90.06253 90.05862s40.32033 90.05862 90.06253 90.05862c49.7383 0 90.05862-40.32033 90.05862-90.05862Zm0 0"/><path fill="#0F0" fill-opacity=".2" stroke="#000" stroke-miterlimit="10" stroke-width=".39813" d="M273.77346 297.55862c0-33.78517-27.39064-61.1719-61.1719-61.1719-33.78516 0-61.1758 27.38673-61.1758 61.1719s27.39064 61.1719 61.1758 61.1719c33.78126 0 61.1719-27.38673 61.1719-61.1719Zm0 0"/><use xlink:href="#c" x="199.89666" y="292.23066"/><use xlink:href="#d" x="177.05718" y="320.80174"/><use xlink:href="#e" x="204.24456" y="337.79373"/><use xlink:href="#f" x="231.57281" y="312.30575"/><use xlink:href="#d" x="241.48626" y="312.30575"/><use xlink:href="#g" x="200.8108" y="225.9611"/><use xlink:href="#h" x="149.93773" y="234.03249"/><use xlink:href="#i" x="163.39454" y="234.03249"/><use xlink:href="#h" x="248.49187" y="244.44668"/><use xlink:href="#f" x="261.94868" y="244.44668"/><use xlink:href="#j" x="200.61398" y="180.08233"/><use xlink:href="#k" x="171.68524" y="173.86319"/><path fill="none" stroke="#000" stroke-miterlimit="10" stroke-width="1.09497" d="M171.6836 176.58984h7.0664"/><use xlink:href="#l" x="171.68524" y="188.87304"/><use xlink:href="#f" x="246.82045" y="190.44756"/><use xlink:href="#m" x="256.73389" y="190.44756"/><use xlink:href="#n" x="263.90024" y="190.44756"/><use xlink:href="#o" x="273.81369" y="190.44756"/><use xlink:href="#p" x="199.86169" y="129.47801"/><use xlink:href="#n" x="136.84007" y="139.47159"/><use xlink:href="#m" x="146.75352" y="139.47159"/><use xlink:href="#f" x="153.91987" y="139.47159"/><use xlink:href="#f" x="163.83332" y="139.47159"/><use xlink:href="#f" x="173.74677" y="139.47159"/><use xlink:href="#q" x="185.86984" y="139.47159"/><use xlink:href="#k" x="260.04399" y="131.30628"/><path fill="none" stroke="#000" stroke-miterlimit="10" stroke-width="1.09497" d="M260.04297 134.03516h7.0664"/><use xlink:href="#r" x="260.04399" y="146.31614"/><use xlink:href="#s" x="201.45619" y="84.92798"/><use xlink:href="#t" x="138.81421" y="91.42186"/><path fill="none" stroke="#000" stroke-miterlimit="10" stroke-width="1.09497" d="M157.52734 73.15625h9.91016"/><use xlink:href="#n" x="157.52658" y="91.60169"/><use xlink:href="#u" x="257.4844" y="84.64924"/><use xlink:href="#v" x="201.16946" y="37.34981"/><use xlink:href="#w" x="173.1039" y="39.0622"/><use xlink:href="#f" x="245.31386" y="40.76159"/><use xlink:href="#x" x="257.97441" y="40.76159"/><use xlink:href="#w" x="274.19823" y="40.76159"/></svg>