<svg xmlns="http://www.w3.org/2000/svg" xmlns:xlink="http://www.w3.org/1999/xlink" width="605.256" height="227.17pt" viewBox="0 0 453.942 227.17"><defs><path id="b" d="M.59375-.73437c0 .53125.4375.95312 1.1875.95312 1.28125 0 1.98438-1.26562 2.76563-2.51562l.75-1.23438h.04687L5.6875-2.0625C6.03125-.57812 6.375.21875 7.32813.21875c1.375 0 2.07812-1.40625 2.64062-2.54687l-.46875-.25C9.03125-1.75 8.51563-.75 8-.75c-.35937 0-.5-.42187-.90625-2.09375L6.5-5.28125c.67188-1.1875 1.625-2.6875 2.15625-2.6875.5625 0 .57813.29688 1.14063.29688.40625 0 .78125-.39063.78125-.89063 0-.57812-.4375-.8125-.95313-.8125-.98437 0-1.8125.89063-2.46875 1.95313l-.82812 1.26562h-.03125l-.75-3.14062L5.4375-9.375l-3.07812.9375.04687.45313L3.875-8.07812c.29688 0 .4375.14062.60938.92187l.65625 2.70313-.51563.89062c-.79687 1.375-1.48437 2.34375-1.9375 2.34375-.54687 0-.6875-.45312-1.28125-.45312-.46875 0-.8125.48437-.8125.9375m0 0"/><path id="c" d="M1.59375-4.71875h10.26563V-5.8125H1.59375Zm0 0"/><path id="d" d="M.29688-3.95312C.29688-1.73437 2.5.20313 4.5625.20313c2.625 0 4.29688-2.625 4.60938-3.14063.35937.67188 2.17187 3.15625 5.0625 3.15625 3.45312 0 4.45312-2.625 4.45312-4.82812 0-2.21875-2.07812-3.98438-4.15625-3.98438-2.48437 0-3.82812 1.78125-4.625 2.875-.73437-1.1875-2.35937-2.84375-4.9375-2.84375-3.40625 0-4.67187 2.40625-4.67187 4.60938m1.17187.0625c0-1.875 1.3125-3.34375 2.875-3.34375 1.875 0 3.4375 1.96875 4.3125 3.35937C7.9375-2.60937 6.60938-.65625 4.51563-.65625c-1.35938 0-3.04688-1.54687-3.04688-3.23437m8.98438-1c.70312-1.26563 2.0625-2.82813 4.15625-2.82813 1.35937 0 2.98437 1.34375 2.98437 3.03125 0 1.89063-1.01562 3.60938-2.8125 3.60938-1.9375 0-3.46875-2.14063-4.32812-3.8125m0 0"/><path id="e" d="M1.59375-4.71875h4.57813v4.57813h1.09375v-4.57813h4.59375V-5.8125H7.26563v-4.59375H6.17188v4.59375H1.59375Zm0 0"/><path id="f" d="M1.60938-5.26562c0 4.21875.95312 8.84375 4.90625 9v-.5625c-1.32813-.25-3.42188-1.90625-3.42188-8.4375 0-6.48438 1.98438-8.14063 3.42188-8.4375v-.5625c-3.95313.17187-4.90625 4.79687-4.90625 9m0 0"/><path id="g" d="M1.53125-3.34375h.85938v-1.375h11.96875c-.15625.26563-.64063.90625-1.14063 1.375l.35938.5c.76562-.625 2.40625-1.76562 3.5625-2.14062v-.5625c-1.17188-.375-2.79688-1.5-3.5625-2.14063l-.35938.5c.5.4375.95313 1.04688 1.14063 1.375H2.39063v-1.375h-.85938Zm0 0"/><path id="h" d="M1.78125-2.84375c0 2.625 1.6875 3.0625 2.78125 3.0625 1.375 0 3.03125-.59375 4.29688-2.65625l-.4375-.375c-.67188.85938-1.6875 2.125-3.07813 2.125-1.3125 0-1.70312-1.125-1.70312-2.59375 0-.09375 0-.15625.01562-.29687 3.14063-.625 4.5-1.39063 5.29688-2.14063C9.60938-6.375 9.75-6.98437 9.75-7.5c0-1-.79687-1.875-2.32812-1.875-1.6875 0-3.04688.85938-4.07813 2.125-1 1.21875-1.5625 2.84375-1.5625 4.40625M3.6875-4.20312c.32813-2.26563 1.73438-4.51563 3.21875-4.51563.65625 0 1.07813.4375 1.07813 1.09375 0 1.3125-1.14063 2.73438-4.29688 3.42188m0 0"/><path id="j" d="M1.10938 3.17188v.5625c3.95312-.15625 4.90625-4.78125 4.90625-9 0-4.20313-.95313-8.82813-4.90625-9v.5625c1.4375.29687 3.42187 1.95312 3.42187 8.4375 0 6.53125-2.09375 8.1875-3.42187 8.4375m0 0"/><path id="l" d="M.78125-6.23437C.78125-2.5 1.85938.21875 4.9375.21875S9.14063-2.5 9.14063-6.23437s-1.125-6.45313-4.20313-6.45313S.78125-9.96875.78125-6.23437m1.875 0c0-3.04688.51563-5.79688 2.28125-5.79688 1.78125 0 2.29688 2.75 2.29688 5.79688 0 3.03125-.51563 5.79687-2.29688 5.79687-1.76562 0-2.28125-2.76562-2.28125-5.79687m0 0"/><path id="i" d="M.4375-.5625c0 .39063.34375.71875.89063.71875.875 0 1.35937-.84375 1.89062-1.71875l.5-.85937H3.75l.23438 1c.23437 1 .48437 1.57812 1.1875 1.57812C6.1875.15625 6.76563-.875 7.15625-1.75l-.34375-.1875c-.32812.625-.70312 1.32813-1.0625 1.32813-.25 0-.34375-.28126-.59375-1.29688L4.6875-3.75c.45313-.78125 1.0625-1.71875 1.42188-1.71875.39062 0 .46875.21875.84375.21875.3125 0 .60937-.3125.60937-.6875 0-.4375-.32812-.625-.70312-.625-.67188 0-1.23438.5625-1.6875 1.28125l-.59375.90625H4.5625l-.5-2.125-.07812-.0625-2.29688.65625.03125.34375.96875-.0625c.23438 0 .34375.09375.45313.59375l.46875 1.95313L3.25-2.4375c-.5.875-.9375 1.5-1.25 1.5-.39062 0-.51562-.34375-.9375-.34375-.34375 0-.625.35938-.625.71875m0 0"/><path id="k" d="M.57813-.70312c0 .0625.15624.1875.34375.1875.10937 0 .3125-.03126.34375-.10938l2.32812-5.96875c.09375-.20312.09375-.3125.09375-.35937 0-.28125-.42187-.39063-.82812-.39063-.39063 0-1.01563.14063-1.04688.39063Zm0 0"/><clipPath id="a"><path d="M.79688 0H453v226.34375H.79688Zm0 0"/></clipPath><clipPath id="m"><path d="M113 0h2v226.34375h-2Zm0 0"/></clipPath><clipPath id="n"><path d="M.79688 0h452.28906v226.34375H.79688Zm0 0"/></clipPath><clipPath id="o"><path d="M.79688 56h452.28906v1H.79688Zm0 0"/></clipPath><clipPath id="p"><path d="M.79688 112h452.28906v2H.79688Zm0 0"/></clipPath></defs><g clip-path="url(#a)"><path fill="#FFF" d="M.99219.19922v225.94922h451.89844V.19922Zm0 0"/></g><use xlink:href="#b" x="51.79503" y="33.01737"/><use xlink:href="#c" x="154.22579" y="32.63078"/><use xlink:href="#d" x="167.64624" y="32.63078"/><use xlink:href="#e" x="380.17226" y="33.53348"/><use xlink:href="#d" x="393.59271" y="33.53348"/><use xlink:href="#f" x="18.09915" y="90.70858"/><use xlink:href="#b" x="25.7226" y="90.70858"/><use xlink:href="#g" x="41.38641" y="90.70858"/><use xlink:href="#h" x="63.89943" y="90.70858"/><use xlink:href="#i" x="74.89364" y="82.7676"/><use xlink:href="#j" x="84.20163" y="90.70858"/><use xlink:href="#k" x="91.82577" y="82.7676"/><use xlink:href="#e" x="276.71824" y="90.1297"/><use xlink:href="#b" x="28.24209" y="176.79904"/><use xlink:href="#g" x="43.9059" y="176.79904"/><use xlink:href="#h" x="66.41891" y="176.79904"/><use xlink:href="#i" x="77.41642" y="168.85805"/><use xlink:href="#l" x="165.51255" y="204.13516"/><use xlink:href="#e" x="380.17226" y="146.50672"/><use xlink:href="#d" x="393.59271" y="146.50672"/><path fill="none" stroke="#000" stroke-miterlimit="10" stroke-width=".39705" d="m182.41407 194.91803 187.28131-46.83205"/><path d="M373.16016 147.21875c-1.07422.0664-2.88672-.09766-4.21094-.48047l.71875 2.88672c.98828-.96094 2.51172-1.95703 3.49219-2.40625"/><g clip-path="url(#m)"><path fill="none" stroke="#000" stroke-miterlimit="10" stroke-width=".39705" d="M113.96873.19921v225.9493"/></g><g clip-path="url(#n)"><path fill="none" stroke="#000" stroke-miterlimit="10" stroke-width=".39705" d="M.99213.19921v225.9493h451.8986V.1992Zm0 0"/></g><g clip-path="url(#o)"><path fill="none" stroke="#000" stroke-miterlimit="10" stroke-width=".39705" d="M.99213 56.68751h451.8986"/></g><g clip-path="url(#p)"><path fill="none" stroke="#000" stroke-miterlimit="10" stroke-width=".39705" d="M.99213 113.1719h451.8986"/></g></svg>