<svg xmlns="http://www.w3.org/2000/svg" width="24" height="24" version="1.1"><g><g transform="translate(0 -1028.4) matrix(1.0607 1.0607 -1.0607 1.0607 1146.8 34.926)"><path fill="#ecf0f1" d="m-63 1003.4v11.3 0.7 1l2 2 2-2v-1-0.7-11.3h-4z"/><path fill="#bdc3c7" d="m-61 1003.4v15l2-2v-1-0.7-11.3h-2z"/><rect width="4" height="11" x="-63" y="1004.4" fill="#e67e22"/><path fill="#7f8c8d" d="m-61 1000.4c-1.105 0-2 0.9-2 2v1h4v-1c0-1.1-0.895-2-2-2z"/><g><path fill="#34495e" d="m-55.406 1016 1.406 1.4 1.406-1.4h-1.406-1.406z" transform="translate(-7,1)"/><path fill="#2c3e50" d="m-54 1016v1.4l1.406-1.4h-1.406z" transform="translate(-7,1)"/></g><path fill="#95a5a6" d="m-61 1000.4c-1.105 0-2 0.9-2 2v1h2v-3z"/><rect width="2" height="11" x="-61" y="1004.4" fill="#d35400"/></g></g></svg>