<svg xmlns="http://www.w3.org/2000/svg" viewBox="0 0 759.84 257.23"><path fill="#000" d="M30.87,0H729a30.89,30.89,0,0,1,30.86,30.87V226.36A30.89,30.89,0,0,1,729,257.23H30.87A30.89,30.89,0,0,1,0,226.36V30.87A30.89,30.89,0,0,1,30.87,0Z"/><path fill="#fff" d="M125.4,80.73c-1-8.29,3.09-17.09,7.67-22.49,5.19-6.12,14.25-10.8,21.45-11.11.93,8.64-2.47,17.13-7.46,23.36C141.87,76.61,133.53,81.34,125.4,80.73Z"/><path fill="#fff" d="M184.87,154a72.28,72.28,0,0,1-10.13,20.68c-6,9-12.25,17.7-22.23,17.85-9.67.21-12.91-5.71-24-5.71s-14.66,5.56-23.93,5.92c-9.51.36-16.71-9.57-22.94-18.41-12.39-18.12-22-51-9.11-73.42,6.23-11,17.7-18.06,29.9-18.26,9.46-.15,18.31,6.43,24.13,6.43s16.61-7.93,27.82-6.74c4.69.16,18.06,1.9,26.7,14.46-.66.4-15.89,9.36-15.73,27.77C165.53,146.62,184.62,153.93,184.87,154Z"/><path fill="#fff" d="M268.25,115.5H253.13l-24.44,76H241.3L248,169.16h24.7l7.1,22.33h13Zm-18.06,44.29,6.33-19.8c1.65-6.28,2.83-11.06,3.61-14.3h.25c1.85,7.51,3.14,12.24,3.81,14.3l6.43,19.8Z"/><path fill="#fff" d="M349,143.23a20.31,20.31,0,0,0-16.15-7.66q-12.36,0-18.47,9.82h-.21l-.67-8.7h-10.7c.31,6.18.47,12.15.47,18v59h12.19V185c3.19,5.2,8.38,7.77,15.64,7.77a22.19,22.19,0,0,0,16.87-7.2c5.1-5.41,7.62-12.76,7.62-22.07C355.61,155.06,353.44,148.37,349,143.23Zm-9.67,34.62a12.55,12.55,0,0,1-10.7,5.3,12.18,12.18,0,0,1-9.52-4.11A14.74,14.74,0,0,1,315.48,169v-9.16a16.15,16.15,0,0,1,.57-3.7,13.69,13.69,0,0,1,4.78-7.82,13,13,0,0,1,8.18-3,12.49,12.49,0,0,1,10.6,5.4c2.41,3.45,3.6,7.82,3.6,13.17C343.21,169.67,341.92,174.3,339.35,177.85Z"/><path fill="#fff" d="M412,143.23a20.32,20.32,0,0,0-16.16-7.66c-8.22,0-14.4,3.28-18.46,9.82h-.21l-.67-8.7h-10.7c.31,6.18.46,12.15.46,18v59h12.2V185c3.19,5.2,8.39,7.77,15.64,7.77a22.21,22.21,0,0,0,16.87-7.2q7.64-8.11,7.62-22.07C418.58,155.06,416.42,148.37,412,143.23Zm-9.67,34.62a12.49,12.49,0,0,1-10.7,5.3A12.18,12.18,0,0,1,382.1,179,14.74,14.74,0,0,1,378.45,169v-9.16a17.23,17.23,0,0,1,.56-3.7,14,14,0,0,1,4.79-7.82,12.94,12.94,0,0,1,8.18-3,12.46,12.46,0,0,1,10.59,5.4c2.43,3.45,3.61,7.82,3.61,13.17C406.18,169.67,404.94,174.3,402.32,177.85Z"/><path fill="#fff" d="M484.37,157a19.21,19.21,0,0,1,4.68,13.22A20.34,20.34,0,0,1,482.31,186q-7.4,6.63-20.67,6.64c-8.19,0-14.72-1.6-19.66-4.74l2.83-10.13a34.27,34.27,0,0,0,17.6,4.73c4.58,0,8.18-1,10.7-3.08a10.1,10.1,0,0,0,3.86-8.28,10.73,10.73,0,0,0-3.14-7.77q-3.16-3.16-10.5-5.87c-13.43-5-20.06-12.25-20.06-21.76a19.29,19.29,0,0,1,7-15.33q7-6,18.68-6c6.89,0,12.66,1.19,17.23,3.6l-3.08,9.88a30.43,30.43,0,0,0-14.61-3.5c-4.27,0-7.67,1.08-10.09,3.14a9.14,9.14,0,0,0-3,6.89,9.24,9.24,0,0,0,3.5,7.41c2,1.8,5.71,3.76,11.06,5.86C476.5,150.33,481.28,153.41,484.37,157Z"/><path fill="#fff" d="M516,136.69h13.43v9.16H516v26.6c0,6.74,2.37,10.13,7.1,10.13a22.61,22.61,0,0,0,5.4-.56l.36,9.26a28.31,28.31,0,0,1-9.46,1.34c-4.84,0-8.54-1.5-11.27-4.43S504,180.32,504,173.43V145.8h-8v-9.11h8v-10l11.94-3.6Z"/><path fill="#fff" d="M582.79,143.64q-7.34-8-19.4-8c-8.33,0-15,2.73-19.9,8.14s-7.36,12.34-7.36,20.83c0,8.13,2.36,14.87,7.14,20.17s11.22,8,19.25,8q12.5,0,20.06-8.34c4.78-5.4,7.21-12.29,7.21-20.73Q589.79,151.38,582.79,143.64ZM573.84,177q-4,6.63-11,6.63c-4.73,0-8.44-2.16-11.06-6.53a24.44,24.44,0,0,1-3.24-12.92c0-5.19,1-9.56,3.24-13.16A12.14,12.14,0,0,1,563,144.46c4.74,0,8.39,2.16,11,6.54a24.55,24.55,0,0,1,3.24,12.91A25,25,0,0,1,573.84,177Z"/><path fill="#fff" d="M629.35,135.77l0,11.63a22.08,22.08,0,0,0-3.85-.31,11.48,11.48,0,0,0-9.93,4.84,18.29,18.29,0,0,0-3,10.79v28.77H600.38V153.93c0-6.33-.1-12.09-.36-17.24h10.6l.46,10.5h.37a18.67,18.67,0,0,1,6.06-8.7,14.84,14.84,0,0,1,8.8-2.92A26.55,26.55,0,0,1,629.35,135.77Z"/><path fill="#fff" d="M683.83,161.49c0-6.84-1.65-12.55-4.89-17.29-4-5.86-10-8.79-17.91-8.79s-14.4,2.93-19.13,8.79c-4.53,5.51-6.79,12.41-6.79,20.64,0,8.38,2.42,15.12,7.25,20.11s11.52,7.51,20,7.51a45.63,45.63,0,0,0,18.37-3.4l-1.9-8.43a41,41,0,0,1-14.77,2.57c-4.89,0-8.85-1.29-11.93-3.8-3.4-2.83-5.15-7-5.3-12.4h36.52A27.72,27.72,0,0,0,683.83,161.49Zm-36.94-3.19a18.24,18.24,0,0,1,3.6-9.46,11.57,11.57,0,0,1,9.67-4.94c4.32,0,7.57,1.7,9.67,5.09a16.38,16.38,0,0,1,2.37,9.36Z"/><path fill="#fff" d="M255.23,51.35c12.61,0,20.08,7.76,20.08,21.14s-7.44,21.3-20.08,21.3h-15V51.35Zm-8.38,36.73h7.76c9,0,14-5.5,14-15.53s-5-15.53-14-15.53h-7.76Z"/><path fill="#fff" d="M279.43,78.32c0-9.94,5.85-16,14.68-16s14.67,6.09,14.67,16S303,94.37,294.11,94.37,279.43,88.29,279.43,78.32Zm22.88,0c0-6.86-3.23-10.8-8.2-10.8s-8.21,3.94-8.21,10.8,3.24,10.82,8.21,10.82S302.31,85.2,302.31,78.32Z"/><path fill="#fff" d="M345.93,93.79h-6.62l-6.5-23.18h-.15l-6.44,23.18h-6.56l-8.5-30.94h6.36l5.64,24.35h.12l6.44-24.35h6.12l6.47,24.35h.15l5.64-24.35h6.3Z"/><path fill="#fff" d="M358.28,62.85h6.06V68h.14c1.68-3.53,5-5.7,9.74-5.7C381,62.32,385,66.67,385,73.76v20h-6.38V75c0-4.64-2.17-7.2-6.59-7.2s-7.35,3.17-7.35,8v18h-6.35Z"/><path fill="#fff" d="M391.31,51.35h6.35V93.79h-6.35Z"/><path fill="#fff" d="M402.81,78.32c0-9.94,5.85-16,14.67-16s14.68,6.09,14.68,16-5.83,16.05-14.68,16.05S402.81,88.29,402.81,78.32Zm22.88,0c0-6.86-3.24-10.8-8.21-10.8s-8.2,3.94-8.2,10.8,3.23,10.82,8.2,10.82S425.69,85.2,425.69,78.32Z"/><path fill="#fff" d="M435.83,85c0-5.41,4.15-8.73,11.5-9.14l8.47-.5V73c0-3.44-2.32-5.5-6.2-5.5-3.68,0-6,1.77-6.53,4.53h-6c.35-5.59,5.12-9.7,12.76-9.7s12.3,4,12.3,10.17V93.79H456V88.7h-.15a11,11,0,0,1-9.76,5.61C440.07,94.31,435.83,90.55,435.83,85Zm20-2.79V79.76l-7.61.47c-3.8.26-5.95,1.94-5.95,4.59s2.24,4.47,5.65,4.47C452.33,89.29,455.8,86.23,455.8,82.2Z"/><path fill="#fff" d="M466.89,78.32c0-9.77,5.18-16,12.94-16A10.56,10.56,0,0,1,489.54,68h.11V51.35H496V93.79h-6.18V88.52h-.12a10.7,10.7,0,0,1-9.85,5.79C472.07,94.31,466.89,88.08,466.89,78.32Zm6.5,0c0,6.53,3.15,10.61,8.18,10.61s8.14-4.14,8.14-10.61-3.26-10.62-8.14-10.62S473.39,71.82,473.39,78.32Z"/><path fill="#fff" d="M513.36,78.32c0-9.94,5.85-16,14.67-16s14.68,6.09,14.68,16S536.89,94.37,528,94.37,513.36,88.29,513.36,78.32Zm22.88,0c0-6.86-3.24-10.8-8.21-10.8s-8.2,3.94-8.2,10.8,3.23,10.82,8.2,10.82S536.24,85.2,536.24,78.32Z"/><path fill="#fff" d="M547.62,62.85h6.06V68h.15c1.67-3.53,5-5.7,9.73-5.7,6.82,0,10.74,4.35,10.74,11.44v20h-6.39V75c0-4.64-2.17-7.2-6.58-7.2S554,71,554,75.76v18h-6.35Z"/><path fill="#fff" d="M600.85,55.52v7.33h5.88v5h-5.88V84.93c0,2.68,1.18,3.89,3.77,3.89a13.57,13.57,0,0,0,2.08-.15v5a17.91,17.91,0,0,1-3.52.29c-6.27,0-8.71-2.38-8.71-8.35V67.88H590v-5h4.5V55.52Z"/><path fill="#fff" d="M612.18,51.35h6.29V68h.15c1.7-3.61,5.08-5.7,9.79-5.7,6.79,0,10.85,4.53,10.85,11.53V93.79h-6.38V75.08c0-4.56-2.29-7.29-6.76-7.29-4.71,0-7.59,3.23-7.59,8.11V93.79h-6.35Z"/><path fill="#fff" d="M671.91,84.7c-.89,5.64-6.24,9.67-13.33,9.67-9.08,0-14.58-6.14-14.58-15.91s5.58-16.17,14.32-16.17c8.59,0,13.94,6.06,13.94,15.44V79.9H650.41v.39c0,5.38,3.23,8.94,8.32,8.94,3.62,0,6.29-1.83,7.15-4.53Zm-21.47-9.24h15.47c-.15-4.73-3.15-8.06-7.59-8.06S650.76,70.79,650.44,75.46Z"/></svg>