<svg xmlns="http://www.w3.org/2000/svg" id="Layer_1" enable-background="new 0 0 512 512" version="1.1" viewBox="0 0 512 512" xml:space="preserve"><metadata id="metadata119"/><path id="path4" fill="#807D7D" d="m303.78 93.036c11.519 20.54 26.299 40.229 44.248 58.173 17.949 17.949 37.638 32.729 58.173 44.248 7.094 2.309 10.226-6.351 4.739-10.134-19.408-10.951-38.031-24.978-55.037-41.985-17.006-17.006-31.034-35.634-41.985-55.042-4.577-5.94-13.224-2.111-10.134 4.739h-4e-3z"/><path id="path6" fill="#fff" d="m303.11 301.47-23.389 28.992 16.226-34.105 7.163 5.113z"/><path id="path8" fill="#20D0C2" d="m444.29 108.43-23.473-23.473-122.44 197.98-2.434 13.418 7.159 5.113 9.967-7.201 131.22-185.84zm-48.991-48.991 23.473 23.473-200.89 124.51-13.385-11.99 190.8-136v5e-3z"/><path id="path10" fill="#FF5B61" d="m471.93 83.221-25.759-25.653-25.653-25.759c-1.764-1.769-4.337-1.52-6.295-0.125l-33.667 23.926c-1.958 1.395-1.635 4.531 0.125 6.295l61.152 61.152c1.764 1.764 4.905 2.083 6.295 0.129l23.925-33.666c1.39-1.958 1.644-4.531-0.125-6.295v-4e-3z"/><path id="path12" fill="#EC4B53" d="m436.43 67.305c-5.108-5.104-13.224-5.27-18.129-0.365s-4.743 13.025 0.365 18.129c5.104 5.108 13.224 5.27 18.129 0.365s4.743-13.025-0.365-18.133v4e-3z"/><path id="path14" fill="#fff" d="m433.66 70.081c-3.51-3.51-9.09-3.621-12.466-0.249-3.372 3.372-3.261 8.951 0.249 12.461s9.09 3.621 12.466 0.249c3.373-3.372 3.262-8.951-0.249-12.461z"/><path id="path16" fill="#ECF0F1" d="m433.66 70.081c-0.273-0.273-0.554-0.522-0.845-0.753l-12.12 12.12c0.231 0.296 0.48 0.577 0.753 0.85s0.554 0.522 0.845 0.753l12.12-12.12c-0.231-0.296-0.48-0.578-0.753-0.85z"/><g id="g22" fill="#FF5B61"><path id="path18" d="m475.55 39.865-8.623-8.623c-1.811-1.811-4.309-1.774-6.074-0.503l-24.161 17.334 22.032 22.032 17.334-24.161c1.27-1.769 1.307-4.263-0.503-6.074l-5e-3 -5e-3z"/><path id="path20" d="m235.07 171.42-10.064-14.272-48.756 33.366c4.115-0.67 2.919 4.138 2.919 4.138 2.78-0.217 3.847 1.815 3.847 1.815s1.561 1.69 0.383 4.185c0 0 4.988 0.573 2.914 4.138l48.76-33.366-3e-3 -4e-3z"/></g><path id="path24" fill="#fff" d="m235.07 171.42-10.064-14.272 5.944-4.065 10.06 14.272-5.94 4.065z"/><path id="path26" fill="#20D0C2" d="m246 157.84-4.254-6.032c-1.598-2.268-3.011-4.051-4.536-3.002l-6.258 4.282 10.06 14.272 6.258-4.282c1.533-1.049 0.328-2.97-1.27-5.238z"/><path id="path28" fill="#FED198" d="m172.64 207.01-3.284-4.656 6.882-11.838c4.115-0.67 2.919 4.138 2.919 4.138 2.781-0.217 3.847 1.815 3.847 1.815s1.561 1.69 0.383 4.185c0 0 4.988 0.573 2.914 4.138l-13.662 2.222v-4e-3z"/><path id="path30" fill="#807D7D" d="m172.64 207.01-1.644-2.328-9.432 6.452 11.076-4.129v5e-3z"/><path id="path32" fill="#666" d="m169.37 202.36 1.64 2.328-9.432 6.452 7.792-8.78z"/><g id="g38" fill="#EC4B53"><path id="path34" d="m235.07 171.42-2.919-4.138-48.756 33.366s4.988 0.573 2.914 4.138l48.761-33.366z"/><path id="path36" d="m227.92 161.29-2.919-4.138-48.756 33.366c4.115-0.67 2.919 4.138 2.919 4.138l48.756-33.366z"/></g><g id="g44" fill="#15BDB1"><path id="path40" d="m245.98 157.82-7.893 5.399 2.914 4.138 6.258-4.282c1.529-1.048 0.767-2.351-0.296-3.857l-0.988-1.399h5e-3z"/><path id="path42" d="m237.2 148.8-6.263 4.282 2.919 4.138 7.893-5.404-0.988-1.399c-1.058-1.506-2.033-2.666-3.561-1.617z"/></g><g id="g50" fill="#F0B97D"><path id="path46" d="m183.39 200.65-12.388 4.032 1.644 2.328 13.662-2.217c2.074-3.566-2.914-4.138-2.914-4.138l-4e-3 -5e-3z"/><path id="path48" d="m179.16 194.66-8.157 10.027-1.64-2.328 6.882-11.838c4.115-0.67 2.919 4.138 2.919 4.138h-4e-3z"/></g><path id="path52" fill="#FBB429" d="m366.44 132.52c-2.67-2.674-7.039-2.674-9.709 0l-20.073 20.073c-2.67 2.67-2.67 7.039 0 9.709 2.67 2.674 7.044 2.67 9.713 0l20.069-20.069c2.674-2.674 2.674-7.039 0-9.713z"/><path id="path54" fill="#fff" d="m225.34 201.37-13.33-13.33c-0.647-0.647-1.704-0.647-2.351 0l-2.12 2.12c-0.647 0.647-0.647 1.704 0 2.356l13.325 13.33c0.647 0.647 1.709 0.647 2.356 0l2.12-2.12c0.647-0.647 0.647-1.704 0-2.351v-5e-3z"/><path id="path56" fill="#F5A209" d="m365.22 138.45-4.711-4.711c-0.753-0.753-1.848-0.891-2.439-0.305-0.587 0.591-0.453 1.686 0.305 2.439l4.711 4.711c0.753 0.753 1.848 0.887 2.439 0.305 0.587-0.587 0.448-1.686-0.305-2.439zm-20.498 20.503-4.711-4.711c-0.753-0.753-1.852-0.887-2.439-0.305-0.587 0.587-0.453 1.686 0.3 2.439l4.711 4.711c0.753 0.753 1.852 0.891 2.439 0.305 0.587-0.587 0.449-1.686-0.3-2.439zm5.123-5.127c0.753 0.753 0.887 1.848 0.305 2.439-0.587 0.587-1.686 0.453-2.439-0.305l-4.711-4.711c-0.753-0.753-0.891-1.848-0.3-2.439 0.587-0.587 1.686-0.453 2.439 0.305l4.711 4.711h-5e-3zm5.126-5.127-4.711-4.711c-0.753-0.753-1.852-0.891-2.439-0.305-0.587 0.587-0.453 1.686 0.3 2.439l4.711 4.711c0.753 0.753 1.848 0.891 2.439 0.305 0.587-0.587 0.448-1.686-0.305-2.439h5e-3zm5.127-5.127c0.753 0.753 0.887 1.848 0.305 2.439-0.587 0.587-1.686 0.453-2.439-0.305l-4.711-4.711c-0.753-0.753-0.891-1.848-0.3-2.439 0.587-0.587 1.686-0.453 2.439 0.305l4.711 4.711h-5e-3z"/><path id="path58" fill="#fff" d="m213.54 185.3-10.05-13.459c-1.15-1.543-3.362-1.875-4.919-0.744l-2.984 2.175c-1.557 1.136-1.884 3.321-0.734 4.864l10.05 13.459c1.155 1.543 3.367 1.875 4.924 0.744l2.984-2.175c1.557-1.132 1.884-3.321 0.734-4.859l-5e-3 -5e-3z"/><g id="g66" fill="#EC4B53"><path id="path60" d="m468.17 38.622c-0.554-0.55-1.455-0.55-2.009 0l-17.103 17.103c-0.554 0.554-0.554 1.455 0 2.009s1.455 0.554 2.009 0l17.103-17.103c0.554-0.554 0.554-1.455 0-2.009z"/><path id="path62" d="m472.2 42.673c-0.628-0.471-1.547-0.356-2.046 0.249l-15.325 18.618c-0.499 0.605-0.393 1.483 0.236 1.949l5e-3 5e-3c0.628 0.466 1.547 0.356 2.046-0.249l15.325-18.618c0.499-0.605 0.393-1.483-0.236-1.954h-5e-3z"/><path id="path64" d="m464.12 34.595c0.471 0.628 0.356 1.547-0.249 2.046l-18.618 15.325c-0.61 0.499-1.483 0.393-1.954-0.236-0.466-0.633-0.356-1.552 0.249-2.051l18.618-15.325c0.605-0.499 1.483-0.393 1.954 0.236v5e-3z"/></g><path id="path68" fill="#FBB429" d="m73.323 135.7 249.78 249.78h-249.78v-249.78zm42.082 101.59v106.11h106.11l-106.11-106.11z"/><path id="path70" fill="#F5A209" d="m73.323 135.7 3.672 3.672v242.55h242.55l3.561 3.561h-249.78v-249.78z"/><g id="g76" fill="#fff"><path id="path72" d="m77.886 364.38h3.039v16.909h-3.039v-16.909zm222.42 9.053h3.044v7.857h-3.044v-7.857zm-8.235-9.053h3.039v16.909h-3.039v-16.909zm-8.24 9.053h3.039v7.857h-3.039v-7.857zm-8.24-9.053h3.039v16.909h-3.039v-16.909zm-8.235 9.053h3.039v7.857h-3.039v-7.857zm-8.24-9.053h3.039v16.909h-3.039v-16.909zm-8.24 9.053h3.039v7.857h-3.039v-7.857zm-8.235-9.053h3.039v16.909h-3.039v-16.909zm-8.24 9.053h3.039v7.857h-3.039v-7.857zm-8.24-9.053h3.039v16.909h-3.039v-16.909zm-8.24 9.053h3.039v7.857h-3.039v-7.857zm-8.235-9.053h3.039v16.909h-3.039v-16.909zm-8.24 9.053h3.039v7.857h-3.039v-7.857zm-8.24-9.053h3.039v16.909h-3.039v-16.909zm-8.235 9.053h3.039v7.857h-3.039v-7.857zm-8.24-9.053h3.039v16.909h-3.039v-16.909zm-8.236 9.053h3.039v7.857h-3.039v-7.857zm-8.24-9.053h3.039v16.909h-3.039v-16.909zm-8.239 9.053h3.039v7.857h-3.039v-7.857zm-8.236-9.053h3.039v16.909h-3.039v-16.909zm-8.24 9.053h3.039v7.857h-3.039v-7.857zm-8.235-9.053h3.039v16.909h-3.039v-16.909zm-8.24 9.053h3.039v7.857h-3.039v-7.857zm-8.24-9.053h3.039v16.909h-3.039v-16.909zm-8.235 9.053h3.039v7.857h-3.039v-7.857zm-8.24-9.053h3.039v16.909h-3.039v-16.909zm-8.24 9.053h3.039v7.857h-3.039v-7.857z"/><path id="path74" d="m85.743 171.52v-3.039h-7.857v3.039h7.857zm9.053 8.24v-3.039h-16.91v3.039h16.91zm-9.053 8.235v-3.039h-7.857v3.039h7.857zm9.053 8.24v-3.039h-16.91v3.039h16.91zm-9.053 8.24v-3.039h-7.857v3.039h7.857zm9.053 8.235v-3.039h-16.91v3.039h16.91zm-9.053 8.24v-3.039h-7.857v3.039h7.857zm9.053 8.235v-3.039h-16.91v3.039h16.91zm-9.053 8.24v-3.039h-7.857v3.039h7.857zm9.053 8.24v-3.039h-16.91v3.039h16.91zm-9.053 8.235v-3.039h-7.857v3.039h7.857zm9.053 8.24v-3.044h-16.91v3.044h16.91zm-9.053 8.236v-3.039h-7.857v3.039h7.857zm9.053 8.239v-3.039h-16.91v3.039h16.91zm-9.053 8.24v-3.044h-7.857v3.044h7.857zm9.053 8.236v-3.039h-16.91v3.039h16.91zm-9.053 8.24v-3.039h-7.857v3.039h7.857zm9.053 8.235v-3.039h-16.91v3.039h16.91zm-9.053 8.24v-3.039h-7.857v3.039h7.857zm9.053 8.24v-3.039h-16.91v3.039h16.91zm-9.053 8.235v-3.039h-7.857v3.039h7.857zm9.053 8.24v-3.039h-16.91v3.039h16.91zm-9.053 8.235v-3.039h-7.857v3.039h7.857zm9.053 8.24v-3.039h-16.91v3.039h16.91z"/></g><path id="path78" fill="#FBB429" d="m29.574 414.43h452.85v58.631h-452.85v-58.631z"/><path id="path80" fill="#fff" d="m36.156 435.05h3.039v-16.914h-3.039v16.914zm230.7 0h3.039v-16.914h-3.039v16.914zm205.95-9.053h3.039v-7.857h-3.039v7.857zm-8.239 9.053h3.039v-16.914h-3.039v16.914zm-8.236-9.053h3.039v-7.857h-3.039v7.857zm-8.24 9.053h3.039v-16.914h-3.039v16.914zm-8.239-9.053h3.039v-7.857h-3.039v7.857zm-8.236 9.053h3.039v-16.914h-3.039v16.914zm-8.24-9.053h3.039v-7.857h-3.039v7.857zm-8.239 9.053h3.039v-16.914h-3.039v16.914zm-8.24-9.053h3.039v-7.857h-3.039v7.857zm-8.24 9.053h3.039v-16.914h-3.039v16.914zm-8.236-9.053h3.039v-7.857h-3.039v7.857zm-8.239 9.053h3.039v-16.914h-3.039v16.914zm-8.236-9.053h3.039v-7.857h-3.039v7.857zm-8.24 9.053h3.039v-16.914h-3.039v16.914zm-8.239-9.053h3.039v-7.857h-3.039v7.857zm-8.236 9.053h3.039v-16.914h-3.039v16.914zm-8.24-9.053h3.039v-7.857h-3.039v7.857zm-8.235 9.053h3.039v-16.914h-3.039v16.914zm-8.24-9.053h3.039v-7.857h-3.039v7.857zm-8.235 9.053h3.039v-16.914h-3.039v16.914zm-8.24-9.053h3.039v-7.857h-3.039v7.857zm-8.24 9.053h3.039v-16.914h-3.039v16.914zm-8.235-9.053h3.039v-7.857h-3.039v7.857zm-8.24 9.053h3.039v-16.914h-3.039v16.914zm-8.24-9.053h3.039v-7.857h-3.039v7.857zm-16.512 0h3.044v-7.857h-3.044v7.857zm-8.235 9.053h3.039v-16.914h-3.039v16.914zm-8.24-9.053h3.039v-7.857h-3.039v7.857zm-8.24 9.053h3.039v-16.914h-3.039v16.914zm-8.235-9.053h3.039v-7.857h-3.039v7.857zm-8.24 9.053h3.039v-16.914h-3.039v16.914zm-8.24-9.053h3.039v-7.857h-3.039v7.857zm-8.235 9.053h3.039v-16.914h-3.039v16.914zm-8.24-9.053h3.039v-7.857h-3.039v7.857zm-8.24 9.053h3.039v-16.914h-3.039v16.914zm-8.24-9.053h3.039v-7.857h-3.039v7.857zm-8.24 9.053h3.039v-16.914h-3.039v16.914zm-8.235-9.053h3.039v-7.857h-3.039v7.857zm-8.24 9.053h3.039v-16.914h-3.039v16.914zm-8.235-9.053h3.039v-7.857h-3.039v7.857zm-8.24 9.053h3.039v-16.914h-3.039v16.914zm-8.24-9.053h3.039v-7.857h-3.039v7.857zm-8.235 9.053h3.039v-16.914h-3.039v16.914zm-8.24-9.053h3.039v-7.857h-3.039v7.857zm-8.235 9.053h3.039v-16.914h-3.039v16.914zm-8.24-9.053h3.039v-7.857h-3.039v7.857zm-8.236 9.053h3.039v-16.914h-3.039v16.914zm-8.24-9.053h3.039v-7.857h-3.039v7.857zm-8.239 9.053h3.039v-16.914h-3.039v16.914zm-8.236-9.053h3.039v-7.857h-3.039v7.857zm-8.24 9.053h3.039v-16.914h-3.039v16.914zm-8.239-9.053h3.039v-7.857h-3.039v7.857z"/><path id="path82" fill="#F5A209" d="m29.574 414.43h452.85v3.483h-452.85v-3.483z"/></svg>