<svg xmlns="http://www.w3.org/2000/svg" xmlns:xlink="http://www.w3.org/1999/xlink" viewBox="0 0 141.44 81.982"><defs/><defs><symbol id="a" overflow="visible"><path d="M5.3906-3.3906c-.20312.51562-.57812 1.4219-.625 1.6406h.20312c-.0625-.21875-.46875-1.2031-.6875-1.7344l-1.2656-3.1562c-.17188-.40625-.625-.54688-.79688-.54688h-.82812c-.35938 0-.625.25-.625.625v5.9531c0 .35938.25.60938.625.60938h.26562c.375 0 .60938-.26562.60938-.60938v-5.0156h-.23438c.078125.3125.53125 1.4219.76562 2l1.1562 2.8438c.1875.4375.5625.5625.90625.5625.32812 0 .70312-.125.875-.5625l1.2812-3.125c.10938-.23438.64062-1.5938.6875-1.7188h-.23438v5.0156c0 .3125.20312.60938.60938.60938h.28125c.375 0 .60938-.26562.60938-.60938v-5.9531c0-.32812-.20312-.625-.60938-.625h-.84375c-.25 0-.64062.15625-.8125.5625z"/></symbol><symbol id="b" overflow="visible"><path d="M2.6875-4.6719c-.21875-.046875-.70312-.14062-.70312-.70312 0-.84375.71875-.73438 1.0625-.73438.54688 0 .95312.09375 1.4375.5625.15625.15625.26562.20312.3125.20312.0625 0 .23438-.15625.26562-.3125l.15625-.85938c.015625-.078125.015625-.10938.015625-.14062 0-.078125-.046875-.1875-.29688-.3125l-.09375-.046875c-.70312-.34375-1.2969-.39062-1.7969-.39062-.89062 0-2.5781.34375-2.5781 2.2188 0 .70312.40625 1.25.59375 1.4531.51562.51562 1.0781.65625 1.8594.82812.5625.14062.67188.14062.89062.34375.10938.09375.28125.21875.28125.59375 0 .9375-.71875.82812-1.0469.82812-.84375 0-1.4844-.29688-1.9844-.75-.10938-.10938-.21875-.15625-.26562-.15625-.0625 0-.25.17188-.28125.32812l-.14062.85938c-.03125.078125-.03125.10938-.03125.125 0 .21875 1.1875.70312 1.2344.71875.67188.21875 1.2031.23438 1.4688.23438 1.4844 0 2.5625-.79688 2.5625-2.3438 0-1.1094-.96875-2.0938-1.9531-2.3281z"/></symbol><symbol id="c" overflow="visible"><path d="M4.7188-3.375c0-.79688-.09375-1.8125-.51562-2.625-.40625-.75-1.2031-1.0312-1.7031-1.0312-.59375 0-1.4688.40625-1.875 1.2969-.32812.73438-.375 1.5625-.375 2.3594 0 .78125.046875 1.5156.34375 2.2344.39062.96875 1.3125 1.3594 1.8906 1.3594.71875 0 1.5156-.53125 1.8281-1.2188.29688-.65625.40625-1.3125.40625-2.375zM2.5-.6562c-.53125 0-.78125-.23438-.96875-.95312-.17188-.57812-.17188-1.1094-.17188-1.8906 0-.625 0-1.2188.17188-1.7812.046875-.1875.14062-.875.95312-.875.78125 0 .85938.64062.9375.8125.1875.5625.1875 1.2344.1875 1.8438 0 .65625 0 1.2812-.1875 1.9219-.25.90625-.60938.92188-.92188.92188z"/></symbol><symbol id="e" overflow="visible"><path d="M3.7031-1.7031h1.1562v-.875h-.98438v-4.2344h-1.1719L.10922-2.4687v.76562h2.6406v1.7031h1.125v-1.7031zm-2.5312-.65625c.51562-.84375 1.9688-3.2969 1.9688-3.875h-.32812v3.6562h-1.5z"/></symbol><symbol id="d" overflow="visible"><path d="M1.9531-.14062v-.95312H.7969v1.0938h.21875l-.25 1.25h.71875z"/></symbol><symbol id="f" overflow="visible"><path d="M4.1406-6.8281c-.51562-.20312-.92188-.20312-1.0625-.20312-1.4062 0-2.8281 1.5469-2.8281 3.6875C.25-.51562 1.6562.21878 2.5.21878c.59375 0 1.1406-.26562 1.5312-.71875.4375-.5.6875-1.0625.6875-1.8438 0-1.2812-.82812-2.5312-1.7812-2.5312-.3125 0-1.1875.125-1.7969.875l.28125.09375c.125-1.6094.75-2.2812 1.6719-2.2812.375 0 .6875.078125 1.2031.28125v-.85938zM1.4218-2.3125c0-.14062 0-.15625.015625-.28125 0-.73438.28125-1.4062 1.1094-1.4062.48438 0 .64062.21875.84375.57812.20312.375.17188.625.17188 1.0781 0 .34375.0625.70312-.1875 1.1094-.17188.28125-.29688.57812-.875.57812-1.0469 0-1.0469-1.3281-1.0781-1.6562z"/></symbol><symbol id="g" overflow="visible"><path d="M2.9844-7.0312h-.28125c-.625.65625-1.3438.64062-1.9844.67188v.84375c.5-.015625.96875-.03125 1.3125-.17188v4.8438h-1.25V.0001h3.6094v-.84375h-1.25v-6.1875z"/></symbol><symbol id="h" overflow="visible"><path d="M.59375-.28125c.34375.25.82812.5 1.4531.5 1.2969 0 2.6719-1.5156 2.6719-3.6875 0-2.7969-1.3438-3.5625-2.2031-3.5625-.6875 0-1.2188.34375-1.5625.71875-.64062.67188-.70312 1.4219-.70312 1.8594 0 1.2656.82812 2.5156 1.7812 2.5156.625 0 1.375-.32812 1.7969-.85938l-.28125-.09375c-.10938 1.6094-.70312 2.2344-1.5 2.2344-.32812 0-.54688-.046875-1.0625-.46875L.51563-.3281zm2.9219-4.1875c.015625.078125.015625.17188.015625.23438 0 .82812-.32812 1.4219-1.1094 1.4219-.46875 0-.64062-.1875-.84375-.5625-.21875-.39062-.1875-.65625-.1875-1.0781 0-.4375-.03125-.76562.25-1.2031.1875-.28125.35938-.53125.875-.53125.98438 0 .98438 1.2344 1 1.7188z"/></symbol></defs><path fill="#91c7ff" stroke="#000" stroke-miterlimit="10" stroke-width=".3985" d="M108.25 41.24c0-5.8516-4.7422-10.594-10.59-10.594S87.07 35.3882 87.07 41.24c0 5.8477 4.7422 10.59 10.59 10.59s10.59-4.7422 10.59-10.59z"/><use width="100%" height="100%" x="245.066" y="250.021" transform="translate(-152.28 -205.32)" xlink:href="#a"/><path fill="#91c7ff" stroke="#000" stroke-miterlimit="10" stroke-width=".3985" d="M50.2 41.24c0-5.1016-4.1328-9.2344-9.2344-9.2344-5.0977 0-9.2305 4.1328-9.2305 9.2344 0 5.0977 4.1328 9.2305 9.2305 9.2305 5.1016 0 9.2344-4.1328 9.2344-9.2305z"/><use width="100%" height="100%" x="190.2" y="250.021" transform="translate(-152.28 -205.32)" xlink:href="#b"/><g transform="translate(-152.28 -205.32)"><use width="100%" height="100%" x="214.395" y="212.354" xlink:href="#c"/><use width="100%" height="100%" x="219.376" y="212.354" xlink:href="#d"/></g><use width="100%" height="100%" x="223.807" y="212.354" transform="translate(-152.28 -205.32)" xlink:href="#e"/><g transform="translate(-152.28 -205.32)"><use width="100%" height="100%" x="279.592" y="249.204" xlink:href="#c"/><use width="100%" height="100%" x="284.573" y="249.204" xlink:href="#d"/></g><use width="100%" height="100%" x="289.005" y="249.204" transform="translate(-152.28 -205.32)" xlink:href="#f"/><g transform="translate(-152.28 -205.32)"><use width="100%" height="100%" x="214.395" y="286.055" xlink:href="#c"/><use width="100%" height="100%" x="219.376" y="286.055" xlink:href="#d"/></g><use width="100%" height="100%" x="223.807" y="286.055" transform="translate(-152.28 -205.32)" xlink:href="#g"/><g transform="translate(-152.28 -205.32)"><use width="100%" height="100%" x="152.033" y="249.204" xlink:href="#c"/><use width="100%" height="100%" x="157.014" y="249.204" xlink:href="#d"/></g><use width="100%" height="100%" x="161.445" y="249.204" transform="translate(-152.28 -205.32)" xlink:href="#h"/><path fill="none" stroke="#000" stroke-miterlimit="10" stroke-width=".3985" d="M108.1 38.44c16.863-4.5195 16.863 10.117 1.4062 5.9727"/><path fill="none" stroke="#000" stroke-linecap="round" stroke-linejoin="round" stroke-miterlimit="10" stroke-width=".3194" d="M110.25 46.27c.05859-.60546-.76953-1.7578-1.0352-1.9297.31641-.01953 1.6094-.60547 1.8594-1.1562"/><path fill="none" stroke="#000" stroke-miterlimit="10" stroke-width=".3985" d="M31.83 43.69c-14.738 3.9492-14.738-8.8438-1.4062-5.2695"/><path fill="none" stroke="#000" stroke-linecap="round" stroke-linejoin="round" stroke-miterlimit="10" stroke-width=".3194" d="M29.68 36.57c-.05859.60156.76954 1.7539 1.0312 1.9297-.3125.01953-1.6055.60156-1.8594 1.1562"/><path fill="none" stroke="#000" stroke-miterlimit="10" stroke-width=".3985" d="M97.66 30.45c0-22.195-56.695-20.836-56.695.90235"/><path fill="none" stroke="#000" stroke-linecap="round" stroke-linejoin="round" stroke-miterlimit="10" stroke-width=".31880000000000003" d="M42.56 30.16c-.59766.09766-1.4922 1.1953-1.5938 1.4922-.09766-.29687-.9961-1.3945-1.5938-1.4922"/><path fill="none" stroke="#000" stroke-miterlimit="10" stroke-width=".3985" d="M40.96 50.67c0 22.195 56.695 23.555 56.695 1.8164"/><path fill="none" stroke="#000" stroke-linecap="round" stroke-linejoin="round" stroke-miterlimit="10" stroke-width=".31880000000000003" d="M96.06 53.68c.59766-.09766 1.4922-1.1953 1.5938-1.4922.09766.29687.99609 1.3945 1.5938 1.4922"/></svg>