<svg xmlns="http://www.w3.org/2000/svg" xmlns:xlink="http://www.w3.org/1999/xlink" viewBox="0 0 366.07 67.681"><defs/><defs><symbol id="a" overflow="visible"><path d="M5.1719-3.5469c0-1.375-.125-3.8594-2.4375-3.8594S.2969-4.9375.2969-3.5469c0 1.3594.125 3.7656 2.4375 3.7656s2.4375-2.375 2.4375-3.7656zM2.7344-.7657c-.73438 0-.71875-.78125-.75-1.0469-.078125-.53125-.078125-1.4688-.078125-1.875 0-.59375 0-1.2344.0625-1.7188.03125-.26562 0-1.0156.76562-1.0156.73438 0 .71875.70312.75.90625.0625.51562.0625 1.2969.0625 1.8281 0 .5625 0 1.3438-.0625 1.8906-.03125.26562 0 1.0312-.75 1.0312z"/></symbol><symbol id="b" overflow="visible"><path d="M3.6719-6.7812c0-.20312-.14062-.625-.57812-.625-.1875 0-.32812.0625-.45312.17188-.17188.17188-.45312.5-1.4375.51562-.1875 0-.57812.20312-.57812.5 0 .35938.48438.48438.60938.48438.29688 0 .65625-.046875.79688-.09375v4.8438h-.64062c-.125 0-.60938.14062-.60938.5s.48438.48438.60938.48438h2.8438c.10938 0 .60938-.125.60938-.48438s-.5-.5-.60938-.5h-.5625z"/></symbol><symbol id="c" overflow="visible"><path d="M.54688-1.0781c-.09375.09375-.14062.21875-.14062.39062v.078125c0 .35938.25.60938.625.60938h3.4219c.375 0 .59375-.26562.59375-.60938v-.125c0-.15625-.125-.48438-.23438-.53125-.078125-.046875-.48438-.078125-.6875-.078125-.21875 0-.45312.015625-.67188.015625h-1.625l.09375.21875 1.3125-1.25c.15625-.125.53125-.4375.6875-.57812.54688-.53125 1.125-1.1562 1.125-2.0312 0-1.2188-1-2.4375-2.4688-2.4375-.34375 0-1.0156.09375-1.4844.48438-.09375.0625-.59375.51562-.78125 1.2188l.54688.70312c.0625.078125.1875.15625.25.15625.09375 0 .25-.20312.28125-.3125.1875-.70312.40625-.98438 1.0469-.98438.76562 0 .95312.57812.95312 1.1875 0 .64062-.34375 1.2031-.9375 1.8438z"/></symbol><symbol id="d" overflow="visible"><path d="M2.2969-1.1719c0-.25-.14062-.40625-.39062-.40625h-.76562c-.26562 0-.40625.15625-.40625.40625v.76562c0 .26562.14062.40625.40625.40625h.76562c.25 0 .39062-.14062.39062-.40625z"/></symbol><symbol id="e" overflow="visible"><path d="M3.4844-3.1719c-.015625.09375 0 .28125-.03125.70312-.046875.60938-.09375 1.4844-1.1875 1.4844-.3125 0-.51562-.046875-.78125-.29688-.046875-.046875-.17188-.10938-.21875-.10938-.078125 0-.20312.078125-.25.17188-.1875.3125-.375.64062-.375.70312 0 .078125.67188.73438 1.6406.73438 2.7344 0 2.8594-3 2.8594-3.8906 0-1.0781-.14062-3.7344-2.4062-3.7344-.60938 0-1.375.15625-1.8906.78125-.42188.54688-.53125 1.1562-.53125 1.9219 0 .625.0625 1.2812.5 1.8594.39062.51562.95312.70312 1.5938.70312.73438 0 1.2188-.71875 1.3438-1.0312zm-.82812.046875c-.79688 0-.67188-.57812-.67188-1.5625 0-.96875-.125-1.5625.78125-1.5625.6875 0 .70312.64062.70312 1.6875 0 .14062.14062 1.4375-.8125 1.4375z"/></symbol><symbol id="h" overflow="visible"><path d="M2.9844-7.0312h-.28125c-.625.65625-1.3438.64062-1.9844.67188v.84375c.5-.015625.96875-.03125 1.3125-.17188v4.8438h-1.25V.0001h3.6094v-.84375h-1.25v-6.1875z"/></symbol><symbol id="f" overflow="visible"><path d="M2.2344-5.0469h-.23438c-.5.46875-.9375.45312-1.5469.46875v.76562c.45312-.015625.8125-.03125.96875-.09375v3.1406H.49999v.76562h2.8438v-.76562h-.92188v-4.2812z"/></symbol><symbol id="g" overflow="visible"><path d="M3.5781-2.4219c0-.34375-.046875-1.2656-.375-1.8438-.35938-.625-1.0156-.78125-1.3594-.78125-.3125 0-.98438.14062-1.3281.75-.34375.54688-.40625 1.4375-.40625 1.875 0 .51562.078125 1.2656.375 1.7812.29688.57812.95312.78125 1.3594.78125.70312 0 1.2656-.5625 1.4688-1 .25-.5.26562-1.1406.26562-1.5625zM1.8437-.6407c-.29688 0-.4375 0-.625-.5-.125-.42188-.14062-.85938-.14062-1.375 0-.64062-.17188-1.75.76562-1.75.95312 0 .76562 1.1094.76562 1.75 0 .45312 0 .98438-.17188 1.4219-.1875.51562-.35938.45312-.59375.45312z"/></symbol></defs><path fill="#91c7ff" stroke="#000" stroke-miterlimit="10" stroke-width=".3985" d="M25.71 24.86c0-7.043-5.7109-12.754-12.754-12.754C5.9091 12.106.198 17.8169.198 24.86c0 7.0469 5.7109 12.758 12.758 12.758 7.043 0 12.754-5.7109 12.754-12.758z"/><use width="100%" height="100%" x="158.928" y="322.789" transform="translate(-148.71 -294.47)" xlink:href="#a"/><path fill="#91c7ff" stroke="#000" stroke-miterlimit="10" stroke-width=".3985" d="M82.41 24.86c0-7.043-5.7109-12.754-12.758-12.754-7.043 0-12.754 5.7109-12.754 12.754 0 7.0469 5.7109 12.758 12.754 12.758 7.0469 0 12.758-5.7109 12.758-12.758z"/><use width="100%" height="100%" x="215.621" y="322.789" transform="translate(-148.71 -294.47)" xlink:href="#b"/><path fill="#91c7ff" stroke="#000" stroke-miterlimit="10" stroke-width=".3985" d="M139.1 24.86c0-7.043-5.7109-12.754-12.754-12.754-7.0469 0-12.758 5.7109-12.758 12.754 0 7.0469 5.7109 12.758 12.758 12.758 7.043 0 12.754-5.7109 12.754-12.758z"/><use width="100%" height="100%" x="272.313" y="322.789" transform="translate(-148.71 -294.47)" xlink:href="#c"/><use width="100%" height="100%" x="329.006" y="319.98" transform="translate(-148.71 -294.47)" xlink:href="#d"/><use width="100%" height="100%" x="332.051" y="319.98" transform="translate(-148.71 -294.47)" xlink:href="#d"/><use width="100%" height="100%" x="335.095" y="319.98" transform="translate(-148.71 -294.47)" xlink:href="#d"/><path fill="#91c7ff" stroke="#000" stroke-miterlimit="10" stroke-width=".3985" d="M252.49 24.86c0-7.043-5.7148-12.754-12.758-12.754-7.0469 0-12.754 5.7109-12.754 12.754 0 7.0469 5.707 12.758 12.754 12.758 7.043 0 12.758-5.7109 12.758-12.758z"/><use width="100%" height="100%" x="385.699" y="322.789" transform="translate(-148.71 -294.47)" xlink:href="#e"/><path fill="#91c7ff" stroke="#000" stroke-miterlimit="10" stroke-width=".3985" d="M309.18 24.86c0-7.043-5.7109-12.754-12.754-12.754-7.0469 0-12.758 5.7109-12.758 12.754 0 7.0469 5.7109 12.758 12.758 12.758 7.043 0 12.754-5.7109 12.754-12.758z"/><g transform="translate(-148.71 -294.47)"><use width="100%" height="100%" x="439.652" y="322.789" xlink:href="#b"/><use width="100%" height="100%" x="445.131" y="322.789" xlink:href="#a"/></g><path fill="#91c7ff" stroke="#000" stroke-miterlimit="10" stroke-width=".3985" d="M365.88 24.86c0-7.043-5.7109-12.754-12.758-12.754-7.043 0-12.754 5.7109-12.754 12.754 0 7.0469 5.7109 12.758 12.754 12.758 7.0469 0 12.758-5.7109 12.758-12.758z"/><g transform="translate(-148.71 -294.47)"><use width="100%" height="100%" x="496.345" y="322.789" xlink:href="#b"/><use width="100%" height="100%" x="501.824" y="322.789" xlink:href="#b"/></g><use width="100%" height="100%" x="157.962" y="354.789" transform="translate(-148.71 -294.47)" xlink:href="#f"/><use width="100%" height="100%" x="161.667" y="354.789" transform="translate(-148.71 -294.47)" xlink:href="#g"/><path fill="none" stroke="#000" stroke-miterlimit="10" stroke-width=".398" d="M9.25 61.75h7.4102"/><use width="100%" height="100%" x="157.962" y="362.148" transform="translate(-148.71 -294.47)" xlink:href="#f"/><use width="100%" height="100%" x="161.667" y="362.148" transform="translate(-148.71 -294.47)" xlink:href="#f"/><use width="100%" height="100%" x="214.655" y="354.789" transform="translate(-148.71 -294.47)" xlink:href="#f"/><use width="100%" height="100%" x="218.36" y="354.789" transform="translate(-148.71 -294.47)" xlink:href="#g"/><path fill="none" stroke="#000" stroke-miterlimit="10" stroke-width=".398" d="M65.95 61.75h7.4102"/><use width="100%" height="100%" x="214.655" y="362.147" transform="translate(-148.71 -294.47)" xlink:href="#f"/><use width="100%" height="100%" x="218.36" y="362.147" transform="translate(-148.71 -294.47)" xlink:href="#f"/><use width="100%" height="100%" x="271.348" y="354.789" transform="translate(-148.71 -294.47)" xlink:href="#f"/><use width="100%" height="100%" x="275.053" y="354.789" transform="translate(-148.71 -294.47)" xlink:href="#g"/><path fill="none" stroke="#000" stroke-miterlimit="10" stroke-width=".398" d="M122.64 61.75h7.4102"/><use width="100%" height="100%" x="271.348" y="362.147" transform="translate(-148.71 -294.47)" xlink:href="#f"/><use width="100%" height="100%" x="275.053" y="362.147" transform="translate(-148.71 -294.47)" xlink:href="#f"/><use width="100%" height="100%" x="384.734" y="354.789" transform="translate(-148.71 -294.47)" xlink:href="#f"/><use width="100%" height="100%" x="388.439" y="354.789" transform="translate(-148.71 -294.47)" xlink:href="#g"/><path fill="none" stroke="#000" stroke-miterlimit="10" stroke-width=".398" d="M236.02 61.75h7.4102"/><use width="100%" height="100%" x="384.734" y="362.147" transform="translate(-148.71 -294.47)" xlink:href="#f"/><use width="100%" height="100%" x="388.439" y="362.147" transform="translate(-148.71 -294.47)" xlink:href="#f"/><use width="100%" height="100%" x="441.427" y="354.789" transform="translate(-148.71 -294.47)" xlink:href="#f"/><use width="100%" height="100%" x="445.132" y="354.789" transform="translate(-148.71 -294.47)" xlink:href="#g"/><path fill="none" stroke="#000" stroke-miterlimit="10" stroke-width=".398" d="M292.72 61.75h7.4102"/><use width="100%" height="100%" x="441.427" y="362.147" transform="translate(-148.71 -294.47)" xlink:href="#f"/><use width="100%" height="100%" x="445.132" y="362.147" transform="translate(-148.71 -294.47)" xlink:href="#f"/><use width="100%" height="100%" x="499.334" y="359.446" transform="translate(-148.71 -294.47)" xlink:href="#h"/><use width="100%" height="100%" x="188.161" y="299.514" transform="translate(-148.71 -294.47)" xlink:href="#f"/><path fill="none" stroke="#000" stroke-miterlimit="10" stroke-width=".398" d="M37.6 6.48h7.4102"/><use width="100%" height="100%" x="186.309" y="306.872" transform="translate(-148.71 -294.47)" xlink:href="#f"/><use width="100%" height="100%" x="190.014" y="306.872" transform="translate(-148.71 -294.47)" xlink:href="#f"/><use width="100%" height="100%" x="244.854" y="299.514" transform="translate(-148.71 -294.47)" xlink:href="#f"/><path fill="none" stroke="#000" stroke-miterlimit="10" stroke-width=".398" d="M94.29 6.48h7.4062"/><use width="100%" height="100%" x="243.002" y="306.872" transform="translate(-148.71 -294.47)" xlink:href="#f"/><use width="100%" height="100%" x="246.707" y="306.872" transform="translate(-148.71 -294.47)" xlink:href="#f"/><use width="100%" height="100%" x="301.547" y="299.514" transform="translate(-148.71 -294.47)" xlink:href="#f"/><path fill="none" stroke="#000" stroke-miterlimit="10" stroke-width=".398" d="M150.99 6.48h7.4102"/><use width="100%" height="100%" x="299.695" y="306.872" transform="translate(-148.71 -294.47)" xlink:href="#f"/><use width="100%" height="100%" x="303.4" y="306.872" transform="translate(-148.71 -294.47)" xlink:href="#f"/><use width="100%" height="100%" x="358.24" y="299.514" transform="translate(-148.71 -294.47)" xlink:href="#f"/><path fill="none" stroke="#000" stroke-miterlimit="10" stroke-width=".398" d="M207.68 6.48h7.4102"/><use width="100%" height="100%" x="356.387" y="306.872" transform="translate(-148.71 -294.47)" xlink:href="#f"/><use width="100%" height="100%" x="360.092" y="306.872" transform="translate(-148.71 -294.47)" xlink:href="#f"/><use width="100%" height="100%" x="414.933" y="299.514" transform="translate(-148.71 -294.47)" xlink:href="#f"/><path fill="none" stroke="#000" stroke-miterlimit="10" stroke-width=".398" d="M264.37 6.48h7.4102"/><use width="100%" height="100%" x="413.08" y="306.872" transform="translate(-148.71 -294.47)" xlink:href="#f"/><use width="100%" height="100%" x="416.785" y="306.872" transform="translate(-148.71 -294.47)" xlink:href="#f"/><use width="100%" height="100%" x="471.626" y="299.514" transform="translate(-148.71 -294.47)" xlink:href="#f"/><path fill="none" stroke="#000" stroke-miterlimit="10" stroke-width=".398" d="M321.06 6.48h7.4102"/><use width="100%" height="100%" x="469.773" y="306.872" transform="translate(-148.71 -294.47)" xlink:href="#f"/><use width="100%" height="100%" x="473.478" y="306.872" transform="translate(-148.71 -294.47)" xlink:href="#f"/><path fill="none" stroke="#000" stroke-miterlimit="10" stroke-width=".3985" d="M25.91 24.86h30.324"/><path fill="none" stroke="#000" stroke-linecap="round" stroke-linejoin="round" stroke-miterlimit="10" stroke-width=".31880000000000003" d="M55.04 23.26c.09765.60156 1.1914 1.4961 1.4922 1.5938-.30078.10156-1.3945.99609-1.4922 1.5976"/><path fill="none" stroke="#000" stroke-miterlimit="10" stroke-width=".3985" d="M82.61 24.86h30.324"/><path fill="none" stroke="#000" stroke-linecap="round" stroke-linejoin="round" stroke-miterlimit="10" stroke-width=".31880000000000003" d="M111.74 23.26c.10157.60156 1.1953 1.4961 1.4922 1.5938-.29687.10156-1.3906.99609-1.4922 1.5976"/><path fill="none" stroke="#000" stroke-miterlimit="10" stroke-width=".3985" d="M139.3 24.86h33.828M192.95 24.86h33.367"/><path fill="none" stroke="#000" stroke-linecap="round" stroke-linejoin="round" stroke-miterlimit="10" stroke-width=".31880000000000003" d="M225.12 23.26c.10156.60156 1.1953 1.4961 1.4961 1.5938-.30079.10156-1.3945.99609-1.4961 1.5976"/><path fill="none" stroke="#000" stroke-miterlimit="10" stroke-width=".3985" d="M252.69 24.86h30.324"/><path fill="none" stroke="#000" stroke-linecap="round" stroke-linejoin="round" stroke-miterlimit="10" stroke-width=".31880000000000003" d="M281.82 23.26c.09766.60156 1.1953 1.4961 1.4922 1.5938-.29687.10156-1.3945.99609-1.4922 1.5976"/><path fill="none" stroke="#000" stroke-miterlimit="10" stroke-width=".3985" d="M309.38 24.86h30.324"/><path fill="none" stroke="#000" stroke-linecap="round" stroke-linejoin="round" stroke-miterlimit="10" stroke-width=".31880000000000003" d="M338.51 23.26c.10156.60156 1.1953 1.4961 1.4961 1.5938-.30078.10156-1.3945.99609-1.4961 1.5976"/><path fill="none" stroke="#000" stroke-miterlimit="10" stroke-width=".3985" d="M16.32 37.4c5.4258 20.25-12.145 20.25-7.0976 1.4102"/><path fill="none" stroke="#000" stroke-linecap="round" stroke-linejoin="round" stroke-miterlimit="10" stroke-width=".3194" d="M7.37 39.55c.60546.0586 1.7578-.76953 1.9297-1.0312.01953.3125.60157 1.6055 1.1562 1.8594"/><path fill="none" stroke="#000" stroke-miterlimit="10" stroke-width=".3985" d="M73.01 37.4c5.4258 20.25-12.145 20.25-7.0938 1.4102"/><path fill="none" stroke="#000" stroke-linecap="round" stroke-linejoin="round" stroke-miterlimit="10" stroke-width=".3194" d="M64.06 39.55c.60547.0586 1.7578-.76953 1.9297-1.0312.01953.3125.60547 1.6055 1.1562 1.8594"/><path fill="none" stroke="#000" stroke-miterlimit="10" stroke-width=".3985" d="M129.7 37.4c5.4258 20.25-12.145 20.25-7.0976 1.4102"/><path fill="none" stroke="#000" stroke-linecap="round" stroke-linejoin="round" stroke-miterlimit="10" stroke-width=".3194" d="M120.75 39.55c.60547.0586 1.7578-.76953 1.9297-1.0312.01953.3125.60156 1.6055 1.1562 1.8594"/><path fill="none" stroke="#000" stroke-miterlimit="10" stroke-width=".3985" d="M243.09 37.4c5.4258 20.25-12.145 20.25-7.0976 1.4102"/><path fill="none" stroke="#000" stroke-linecap="round" stroke-linejoin="round" stroke-miterlimit="10" stroke-width=".3194" d="M234.14 39.55c.60547.0586 1.7578-.76953 1.9297-1.0312.01953.3125.60156 1.6055 1.1562 1.8594"/><path fill="none" stroke="#000" stroke-miterlimit="10" stroke-width=".3985" d="M299.79 37.4c5.4258 20.25-12.145 20.25-7.0976 1.4102"/><path fill="none" stroke="#000" stroke-linecap="round" stroke-linejoin="round" stroke-miterlimit="10" stroke-width=".3194" d="M290.84 39.55c.60157.0586 1.7539-.76953 1.9297-1.0312.01953.3125.60156 1.6055 1.1562 1.8594"/><path fill="none" stroke="#000" stroke-miterlimit="10" stroke-width=".3985" d="M356.48 37.4c5.4258 20.25-12.145 20.25-7.0938 1.4102"/><path fill="none" stroke="#000" stroke-linecap="round" stroke-linejoin="round" stroke-miterlimit="10" stroke-width=".3194" d="M347.53 39.55c.60547.0586 1.7578-.76953 1.9297-1.0312.01953.3125.60547 1.6055 1.1562 1.8594"/></svg>