<svg xmlns="http://www.w3.org/2000/svg" xmlns:xlink="http://www.w3.org/1999/xlink" viewBox="0 0 214.33 164.81"><defs/><defs><symbol id="a" overflow="visible"><path d="M6.75-1.6094H6.5c-.046875.25-.09375.48438-.1875.71875-.046875.15625-.078125.25-.65625.25h-.79688c.14062-.5625.4375-1.0469.89062-1.7031.46875-.70312.875-1.3906.875-2.1875 0-1.375-1.3438-2.5-3.0312-2.5-1.7031 0-3.0312 1.1406-3.0312 2.5 0 .79688.40625 1.4844.875 2.1875.4375.65625.75 1.1406.89062 1.7031h-.79688c-.57812 0-.60938-.09375-.65625-.23438-.09375-.23438-.14062-.48438-.1875-.73438h-.25L.7657-.00001h1.5938c.21875 0 .25 0 .25-.20312 0-.70312-.3125-1.5781-.53125-2.2188-.21875-.57812-.5-1.3594-.5-2.1094 0-1.5938 1.1094-2.2812 2.0156-2.2812.95312 0 2.0156.71875 2.0156 2.2812 0 .75-.28125 1.5-.5625 2.3125-.15625.42188-.46875 1.3281-.46875 2.0156 0 .20312.03125.20312.25.20312H6.422z"/></symbol><symbol id="b" overflow="visible"><path d="M4.2812-5.5781v-.29688H.6874v.29688z"/></symbol><symbol id="c" overflow="visible"><path d="M1.7812-1.1406c-.39062.65625-.78125.79688-1.2188.82812-.125.015625-.21875.015625-.21875.20312 0 .0625.0625.10938.14062.10938.26562 0 .57812-.03125.84375-.03125.34375 0 .6875.03125 1 .03125.0625 0 .1875 0 .1875-.1875 0-.10938-.078125-.125-.15625-.125-.21875-.015625-.46875-.09375-.46875-.34375 0-.125.0625-.23438.14062-.375l.76562-1.2656h2.5c.015625.20312.15625 1.5625.15625 1.6562 0 .29688-.51562.32812-.71875.32812-.14062 0-.23438 0-.23438.20312 0 .10938.10938.10938.14062.10938.40625 0 .82812-.03125 1.2344-.03125.25 0 .89062.03125 1.1406.03125.046875 0 .17188 0 .17188-.20312 0-.10938-.09375-.10938-.23438-.10938-.60938 0-.60938-.0625-.64062-.35938L5.703-6.89069c-.015625-.20312-.015625-.25-.1875-.25-.15625 0-.20312.078125-.26562.17188zm1.2031-1.4688l1.9531-3.2969.32812 3.2969z"/></symbol><symbol id="d" overflow="visible"><path d="M1.5938-.78125c-.09375.39062-.125.46875-.90625.46875-.17188 0-.26562 0-.26562.20312C.42193 0 .51568 0 .68755 0h3.5625c1.5781 0 2.75-1.1719 2.75-2.1562 0-.71875-.57812-1.2969-1.5469-1.4062 1.0312-.1875 2.0781-.92188 2.0781-1.875 0-.73438-.65625-1.375-1.8438-1.375h-3.3594c-.1875 0-.28125 0-.28125.20312 0 .10938.09375.10938.28125.10938.015625 0 .20312 0 .375.015625.17188.03125.26562.03125.26562.17188 0 .03125-.015625.0625-.03125.1875zm1.5-2.875l.625-2.4688c.09375-.34375.10938-.375.53125-.375h1.2969c.875 0 1.0781.59375 1.0781 1.0312 0 .875-.85938 1.8125-2.0625 1.8125zm-.4375 3.3438h-.21875c-.10938-.015625-.14062-.03125-.14062-.10938 0-.03125 0-.046875.0625-.21875l.6875-2.7812h1.875c.95312 0 1.1562.73438 1.1562 1.1562 0 .98438-.89062 1.9531-2.0781 1.9531z"/></symbol><symbol id="e" overflow="visible"><path d="M.10938 1.2969c-.17188.3125-.23438.35938-.65625.23438-.09375-.03125-.20312-.046875-.25.14062-.015625.0625.015625.10938.078125.14062.26562.0625.54688.125.8125.20312.32812.078125.64062.20312.95312.29688.046875.015625.17188.046875.23438-.14062.015625-.10938-.078125-.14062-.21875-.17188-.48438-.14062-.45312-.20312-.4375-.29688.03125-.10938.89062-1.5625 1.0156-1.7969.0625.34375.23438.75.71875.89062 1.1094.3125 2.7188-.75 3.1094-2.1562.26562-.90625-.10938-1.6875-.84375-1.8906-.48438-.14062-1.0156.078125-1.4531.34375.0625-.54688-.29688-.85938-.65625-.95312-.4375-.125-.73438.17188-.85938.32812-.26562.29688-.5625.8125-.5625.84375-.03125.09375.0625.125.078125.125.10938.03125.125.046875.23438-.17188.34375-.64062.6875-1.0312 1.0312-.9375.15625.046875.26562.17188.17188.53125-.0625.23438-.125.3125-.21875.46875zm2.875-3.6719c.14062-.26562.48438-.45312.67188-.54688.4375-.20312.73438-.1875.89062-.14062.39062.10938.53125.5.35938 1.0781-.15625.5625-.78125 1.5938-1.0625 1.9062-.51562.57812-1.0781.75-1.4375.64062-.625-.17188-.53125-1-.5-1.0625 0 0 0-.015625.0625-.14062z"/></symbol><symbol id="j" overflow="visible"><path d="M1.75-.3125C1.54688.03125 1.5.10938.7344-.10938.57815-.156255.4844-.187505.43752 0c-.03125.10938.0625.14062.21875.1875l3.4375.98438c1.5156.42188 2.9844-.375 3.25-1.3281.20312-.6875-.20312-1.3906-1.0938-1.7656 1.0312.09375 2.2344-.32812 2.5-1.2344.20312-.71875-.25-1.5-1.4062-1.8281l-3.2188-.92188c-.1875-.046875-.28125-.078125-.34375.09375-.015625.10938.078125.14062.25.1875.015625 0 .20312.0625.34375.14062.1875.0625.25.09375.21875.21875 0 .03125-.015625.046875-.078125.17188zm2.2344-2.3438l1.2812-2.2188c.1875-.3125.21875-.34375.625-.21875l1.2344.35938c.85938.23438.89062.875.76562 1.2969-.23438.82812-1.3281 1.5156-2.5 1.1719zM2.625.4375C2.5.390625 2.48438.390625 2.42188.375 2.343755.328125 2.3125.3125 2.32813.23438c.015625-.03125.015625-.046875.125-.21875l1.4062-2.4844 1.8281.51562c.90625.26562.90625 1.0312.78125 1.4531-.26562.9375-1.4062 1.625-2.5312 1.3125z"/></symbol><symbol id="f" overflow="visible"><path d="M4.3125-2.8125l.078125-.26562-2.6719-.76562-.078125.26562z"/></symbol><symbol id="g" overflow="visible"><path d="M1.6094-.42188c-.34375.29688-.59375.42188-1 .34375C.531275-.093755.43752-.125005.40628-.000005c-.015625.078125.046875.125.078125.14062.15625.046875.40625.078125.57812.125.21875.0625.48438.17188.6875.23438.015625 0 .125.03125.17188-.125.015625-.078125-.078125-.09375-.09375-.10938-.03125-.03125-.28125-.09375-.23438-.29688.03125-.078125.125-.15625.1875-.20312l.76562-.70312 1.9219.5625-.15625 1.1562c-.0625.0625-.14062.15625-.53125.046875-.0625-.015625-.17188-.046875-.20312.09375-.015625.03125 0 .09375.09375.125.1875.0625.67188.15625.85938.21875.125.03125.28125.09375.39062.125.125.03125.26562.09375.375.125.09375.03125.15625-.03125.17188-.10938.03125-.09375-.046875-.10938-.14062-.14062-.39062-.10938-.39062-.17188-.375-.34375l.59375-4.3125c.03125-.15625.03125-.20312-.09375-.25-.125-.03125-.1875.015625-.28125.10938zM2.7656-1.125l2.0625-1.7969L4.49998-.625z"/></symbol><symbol id="h" overflow="visible"><path d="M2.5312 3.2031c.015625-.03125.015625-.046875-.10938-.25-.85938-1.5469-.65625-3.4688-.23438-4.9375.46875-1.6719 1.3281-3.2188 2.8438-4.0781.17188-.09375.17188-.10938.1875-.14062.015625-.0625-.015625-.10938-.078125-.125-.09375-.015625-1.1406.39062-2.0469 1.4531-.8125.92188-1.2188 1.9375-1.4531 2.7344-.21875.75-.45312 1.9375-.23438 3.1875.25 1.3438.89062 2.2188.98438 2.2344.0625.015625.125 0 .14062-.078125z"/></symbol><symbol id="i" overflow="visible"><path d="M5.6562-4.1719l.09375-.29688-3.4688-1-.09375.29688z"/></symbol><symbol id="k" overflow="visible"><path d="M3.4688-1.6094c.21875-.75.4375-1.9375.21875-3.1719-.25-1.3438-.89062-2.2188-.98438-2.2344-.0625-.015625-.10938 0-.125.0625-.015625.03125-.015625.046875.125.28125.67188 1.2031.76562 2.9062.20312 4.9062-.46875 1.6562-1.3125 3.2344-2.8438 4.0938-.15625.078125-.15625.09375-.17188.125-.015625.0625 0 .125.0625.14062.09375.015625 1.1562-.39062 2.0469-1.4375.8125-.92188 1.2344-1.9531 1.4688-2.7656z"/></symbol><symbol id="l" overflow="visible"><path d="M.76562 1.0469c.015625.34375.015625.42188-.40625.54688-.09375.03125-.20312.046875-.15625.23438.015625.0625.078125.10938.14062.078125.26562-.0625.54688-.1875.8125-.26562.32812-.078125.64062-.14062.95312-.23438.046875-.015625.17188-.046875.10938-.23438-.015625-.10938-.10938-.078125-.25-.046875-.48438.14062-.51562.078125-.53125-.015625-.03125-.10938-.078125-1.7812-.078125-2.0469.21875.25.57812.5 1.0625.35938 1.1094-.3125 1.9062-2.0625 1.5156-3.4688-.26562-.90625-.98438-1.375-1.7188-1.1719-.48438.14062-.82812.60938-1.0781 1.0625-.21875-.48438-.67188-.54688-1.0312-.45312-.4375.125-.54688.54688-.57812.73438-.078125.39062-.03125 1-.03125 1.0312.03125.09375.125.0625.14062.0625.10938-.03125.125-.046875.10938-.26562-.03125-.73438.03125-1.25.375-1.3438.15625-.046875.32812-.015625.42188.34375.0625.23438.0625.34375.0625.53125zm.5-4.6406c-.015625-.29688.17188-.64062.29688-.82812.25-.39062.51562-.53125.67188-.57812.39062-.10938.71875.15625.89062.73438.15625.5625.15625 1.75.09375 2.1562-.14062.76562-.51562 1.2188-.875 1.3281-.625.17188-.96875-.59375-1-.65625v-.14062z"/></symbol><symbol id="p" overflow="visible"><path d="M1.3125-1.1875c.015625.40625.03125.48438-.73438.70312-.15625.046875-.25.078125-.20312.26562.03125.10938.125.078125.28125.03125l3.4375-.98438c1.5156-.42188 2.3281-1.875 2.0625-2.8281-.20312-.6875-.92188-1.0781-1.875-.92188.9375-.46875 1.7344-1.4844 1.4688-2.3906-.20312-.71875-1-1.125-2.1562-.79688l-3.2188.92188c-.1875.046875-.28125.078125-.21875.25.015625.10938.10938.078125.28125.03125.015625 0 .20312-.0625.375-.078125.1875-.03125.28125-.03125.3125.09375 0 .03125.015625.046875.015625.17188zm.67188-3.1875l-.09375-2.5312c0-.375 0-.40625.40625-.53125l1.2344-.35938c.85938-.23438 1.2344.28125 1.3594.70312.23438.82812-.32812 1.9844-1.5 2.3281zm.48438 3.3438c-.125.046875-.14062.046875-.20312.0625-.10938.015625-.14062 0-.15625-.078125-.015625-.03125-.015625-.046875-.03125-.21875l-.09375-2.8906 1.8281-.51562c.90625-.26562 1.2812.40625 1.4062.82812.26562.9375-.3125 2.125-1.4375 2.4375z"/></symbol><symbol id="m" overflow="visible"><path d="M2.1875-4.6562l-.078125-.26562-2.6719.76562.078125.26562z"/></symbol><symbol id="n" overflow="visible"><path d="M1.1406-1.2031c-.125.42188-.28125.67188-.65625.8125-.078125.015625-.17188.046875-.14062.17188.015625.078125.10938.09375.14062.078125.15625-.046875.375-.14062.54688-.1875.21875-.0625.51562-.10938.71875-.17188.015625 0 .125-.03125.078125-.1875-.015625-.078125-.10938-.0625-.125-.046875-.0625 0-.3125.0625-.35938-.14062-.03125-.078125 0-.1875.03125-.26562l.29688-.98438 1.9219-.5625.46875 1.0625c0 .09375-.015625.21875-.40625.32812-.0625.015625-.17188.046875-.14062.1875.015625.03125.0625.09375.15625.0625.1875-.0625.64062-.21875.82812-.28125.125-.03125.3125-.0625.42188-.09375.125-.03125.26562-.0625.375-.09375.09375-.03125.125-.09375.10938-.17188-.03125-.09375-.10938-.078125-.20312-.046875-.39062.10938-.42188.046875-.5-.09375l-1.7812-3.9688c-.0625-.15625-.09375-.20312-.21875-.15625-.125.03125-.15625.10938-.1875.23438zm.625-1.2031l.78125-2.6094.95312 2.1094z"/></symbol><symbol id="o" overflow="visible"><path d="M3.8438 1.3906c-.015625-.03125-.015625-.046875-.23438-.15625-1.5469-.85938-2.375-2.5938-2.7969-4.0625-.46875-1.6719-.57812-3.4375.25-4.9844.10938-.15625.10938-.17188.09375-.20312-.015625-.0625-.078125-.078125-.14062-.0625-.09375.015625-.76562.92188-.98438 2.2969-.1875 1.2031 0 2.3125.23438 3.1094.21875.75.64062 1.875 1.4844 2.8125.90625 1 1.9219 1.4062 2.0156 1.3906.0625-.015625.09375-.0625.078125-.14062z"/></symbol><symbol id="q" overflow="visible"><path d="M2.0938-3.2031c-.21875-.75-.65625-1.875-1.5-2.7969-.90625-1.0312-1.9219-1.4062-2.0156-1.3906-.0625.015625-.078125.0625-.0625.125.015625.03125.015625.046875.25.1875 1.2031.67188 2.2031 2.0312 2.7656 4.0312.46875 1.6562.59375 3.4531-.25 5-.09375.14062-.09375.15625-.078125.1875.015625.0625.0625.09375.125.078125.09375-.015625.78125-.92188.98438-2.3125.1875-1.2031.015625-2.2969-.21875-3.1094z"/></symbol><symbol id="r" overflow="visible"><path d="M-.14062 1.2969c-.23438.26562-.28125.3125-.67188.10938-.10938-.046875-.20312-.09375-.28125.078125-.046875.078125 0 .125.0625.17188.23438.10938.5.21875.76562.34375.28125.14062.57812.32812.875.46875.046875.015625.15625.078125.23438-.10938.046875-.09375-.046875-.14062-.17188-.20312-.4375-.21875-.40625-.28125-.35938-.35938.0625-.10938 1.1562-1.375 1.3125-1.5625 0 .32812.10938.75.54688.96875 1.0469.53125 2.8125-.21875 3.4688-1.5312.4375-.85938.21875-1.6875-.46875-2.0312-.45312-.21875-1.0469-.125-1.5.09375.125-.53125-.14062-.90625-.46875-1.0781-.40625-.20312-.78125.046875-.92188.1875-.3125.21875-.70312.70312-.71875.71875-.03125.09375.046875.14062.078125.15625.078125.03125.09375.03125.23438-.15625.46875-.54688.85938-.89062 1.1875-.73438.15625.078125.25.21875.078125.5625-.09375.20312-.1875.28125-.29688.42188zm3.5-3.1094c.20312-.20312.5625-.32812.79688-.375.4375-.125.73438-.0625.89062.015625.34375.17188.42188.60938.15625 1.125-.26562.53125-1.0938 1.4062-1.4062 1.6719-.60938.46875-1.2031.54688-1.5312.39062-.59375-.29688-.32812-1.1094-.29688-1.1562 0-.015625.015625-.046875.078125-.125z"/></symbol><symbol id="u" overflow="visible"><path d="M2.125-.23438c-.65625.42188-1.0781.375-1.4844.20312C.5156-.06251.43748-.109385.35935.06249c-.03125.046875 0 .125.078125.15625.23438.10938.53125.21875.78125.34375.29688.15625.57812.34375.875.48438.0625.03125.17188.078125.25-.09375C2.3906.85937 2.3281.8125 2.2656.78124c-.20312-.125-.375-.28125-.26562-.51562C2.046855.15624 2.1406.07812 2.29686 0l1.2344-.8125 2.25 1.125C5.703135.5 5.21876 1.7969 5.17188 1.875c-.125.26562-.59375.0625-.78125-.03125-.125-.0625-.21875-.10938-.3125.078125-.046875.09375.0625.14062.09375.15625.35938.1875.75.34375 1.125.53125.21875.10938.76562.42188 1 .53125.046875.03125.14062.078125.23438-.10938.046875-.09375-.03125-.14062-.14062-.1875-.5625-.28125-.53125-.32812-.4375-.60938l2.25-5.8594c.078125-.20312.09375-.23438-.046875-.3125-.14062-.0625-.21875-.03125-.32812.046875zm1.7188-.78125l3.2344-2.0625L5.8907.01567z"/></symbol><symbol id="s" overflow="visible"><path d="M1.8906 3.6406c.015625-.03125.03125-.0625-.0625-.28125-.54688-1.6875 0-3.5156.6875-4.8906.76562-1.5469 1.9062-2.9531 3.5625-3.5156.17188-.03125.1875-.0625.20312-.09375.03125-.0625 0-.10938-.0625-.125-.078125-.046875-1.2031.15625-2.2812 1.0312-.95312.75-1.5625 1.6875-1.9375 2.4375-.35938.70312-.78125 1.8125-.79688 3.0938-.015625 1.3594.45312 2.3281.53125 2.375.0625.015625.125.015625.15625-.03125z"/></symbol><symbol id="t" overflow="visible"><path d="M6.3438-3.0781l.14062-.28125-3.2344-1.6094-.14062.28125z"/></symbol><symbol id="v" overflow="visible"><path d="M3.7031-.9375c.34375-.70312.78125-1.8281.8125-3.0938 0-1.3594-.46875-2.3281-.5625-2.375-.046875-.03125-.125-.015625-.14062.03125-.015625.03125-.03125.0625.078125.29688.42188 1.3281.21875 3-.70312 4.875-.76562 1.5156-1.8906 2.9219-3.5625 3.5156-.17188.03125-.1875.0625-.20312.09375s0 .09375.046875.125c.09375.046875 1.2188-.15625 2.3125-1.0312.9375-.75 1.5312-1.6875 1.9219-2.4375z"/></symbol><symbol id="w" overflow="visible"><path d="M.95312.89062c.078125.32812.09375.40625-.29688.60938-.10938.046875-.20312.09375-.125.26562.046875.078125.09375.09375.15625.046875.23438-.10938.5-.28125.76562-.40625.28125-.14062.57812-.26562.875-.40625.046875-.015625.15625-.078125.078125-.26562C2.35936.640625 2.265615.6875 2.140615.75c-.4375.21875-.46875.15625-.51562.078125-.0625-.10938-.40625-1.75-.46875-2 .25.20312.67188.375 1.1094.15625 1.0469-.53125 1.5312-2.375.875-3.6875-.4375-.85938-1.25-1.1875-1.9375-.84375-.45312.21875-.70312.75-.8125 1.25-.34375-.4375-.82812-.4375-1.1562-.26562-.40625.20312-.40625.64062-.39062.84375-.03125.375.14062.98438.15625 1 .03125.09375.10938.046875.14062.03125.078125-.03125.09375-.0625.046875-.28125-.15625-.70312-.20312-1.2344.125-1.3906.15625-.078125.3125-.0625.48438.28125.09375.20312.125.3125.14062.48438zm-.375-4.6719C.531245-4.0469.64062-4.4219.75-4.62503c.15625-.4375.39062-.65625.54688-.73438.34375-.17188.73438.046875 1 .5625.26562.53125.46875 1.7188.46875 2.1406.015625.78125-.26562 1.2969-.59375 1.4531-.59375.29688-1.0781-.39062-1.1094-.4375 0-.015625-.015625-.046875-.046875-.15625z"/></symbol><symbol id="y" overflow="visible"><path d="M1.0938-1.8281C1.0313-1.06248.73442-.7656.35942-.5312c-.09375.0625-.17188.10938-.09375.28125.03125.046875.09375.0625.17188.03125.23438-.10938.5-.28125.75-.40625.29688-.15625.60938-.28125.90625-.42188.0625-.03125.17188-.078125.09375-.25-.046875-.09375-.14062-.078125-.20312-.046875-.20312.09375-.46875.125-.57812-.10938-.046875-.10938-.046875-.21875-.046875-.39062l.10938-1.4688 2.25-1.125c.10938.1875.84375 1.3281.89062 1.4062.125.26562-.3125.53125-.5.625-.125.0625-.21875.10938-.125.29688.046875.09375.15625.046875.1875.03125.35938-.1875.71875-.40625 1.0938-.59375.21875-.10938.79688-.35938 1.0156-.46875.0625-.03125.15625-.078125.0625-.26562-.046875-.09375-.125-.046875-.23438 0-.5625.28125-.59375.23438-.75-.015625l-3.3438-5.3281c-.10938-.17188-.125-.20312-.26562-.125-.14062.0625-.15625.15625-.17188.26562zm.40625-1.8438l.29688-3.8438 1.75 2.8125z"/></symbol><symbol id="x" overflow="visible"><path d="M4.0469.67188c-.015625-.03125-.03125-.0625-.25-.125C2.0938-.01562.9531-1.56252.2657-2.93752c-.76562-1.5469-1.1875-3.2969-.65625-4.9531.078125-.15625.0625-.1875.046875-.21875-.03125-.0625-.09375-.046875-.15625-.03125-.078125.046875-.57812 1.0625-.53125 2.4375.046875 1.2188.40625 2.2812.78125 3.0312.35938.70312 1 1.7188 2.0156 2.5 1.0781.82812 2.1406 1.0156 2.2188.96875.0625-.015625.09375-.078125.0625-.125z"/></symbol><symbol id="z" overflow="visible"><path d="M1.4531-3.5312c-.34375-.70312-.96875-1.7344-1.9688-2.5-1.0938-.82812-2.1562-1.0156-2.25-.96875-.046875.03125-.0625.078125-.046875.125.015625.03125.03125.0625.29688.10938 1.2969.45312 2.5312 1.625 3.4531 3.5.76562 1.5156 1.2344 3.2656.6875 4.9531-.078125.15625-.0625.1875-.046875.21875s.09375.0625.14062.03125c.09375-.046875.59375-1.0625.5625-2.4688-.0625-1.1875-.4375-2.25-.82812-3z"/></symbol></defs><use width="100%" height="100%" x="168.361" y="215.952" transform="translate(-168.8 -129.78)" xlink:href="#a"/><use width="100%" height="100%" x="270.064" y="263.724" transform="translate(-168.8 -129.78)" xlink:href="#b"/><use width="100%" height="100%" x="267.435" y="266.242" transform="translate(-168.8 -129.78)" xlink:href="#c"/><path fill="none" stroke="#000" stroke-miterlimit="10" stroke-width=".399" d="M17.003 89.6947l70.16 35.074"/><path d="M203.08 160.72c0-.82422-.66797-1.4922-1.4922-1.4922-.82813 0-1.4961.66797-1.4961 1.4922 0 .82812.66797 1.4961 1.4961 1.4961.82422 0 1.4922-.66797 1.4922-1.4961z"/><use width="100%" height="100%" x="377.965" y="292.07" transform="translate(-168.8 -129.78)" xlink:href="#b"/><use width="100%" height="100%" x="375.597" y="294.589" transform="translate(-168.8 -129.78)" xlink:href="#d"/><path fill="none" stroke="#000" stroke-miterlimit="10" stroke-width=".399" d="M125.82 139.074l74.137 21.184"/><use width="100%" height="100%" x="320.19" y="269.899" transform="translate(-168.8 -129.78)" xlink:href="#e"/><use width="100%" height="100%" x="326.865" y="272.403" transform="translate(-168.8 -129.78)" xlink:href="#f"/><use width="100%" height="100%" x="324.374" y="273.528" transform="translate(-168.8 -129.78)" xlink:href="#g"/><use width="100%" height="100%" x="331.266" y="273.064" transform="translate(-168.8 -129.78)" xlink:href="#h"/><use width="100%" height="100%" x="337.97" y="272.357" transform="translate(-168.8 -129.78)" xlink:href="#i"/><use width="100%" height="100%" x="334.997" y="274.13" transform="translate(-168.8 -129.78)" xlink:href="#j"/><use width="100%" height="100%" x="342.755" y="276.347" transform="translate(-168.8 -129.78)" xlink:href="#k"/><path d="M203.08 104.03c0-.82422-.66797-1.4961-1.4922-1.4961-.82813 0-1.4961.67187-1.4961 1.4961s.66797 1.4922 1.4961 1.4922c.82422 0 1.4922-.66797 1.4922-1.4922z"/><use width="100%" height="100%" x="375.597" y="237.212" transform="translate(-168.8 -129.78)" xlink:href="#d"/><path fill="none" stroke="#000" stroke-miterlimit="10" stroke-width=".399" d="M125.82 125.679l74.137-21.184"/><use width="100%" height="100%" x="316.882" y="242.835" transform="translate(-168.8 -129.78)" xlink:href="#l"/><use width="100%" height="100%" x="323.872" y="241.434" transform="translate(-168.8 -129.78)" xlink:href="#m"/><use width="100%" height="100%" x="322.352" y="243.704" transform="translate(-168.8 -129.78)" xlink:href="#n"/><use width="100%" height="100%" x="327.958" y="239.67" transform="translate(-168.8 -129.78)" xlink:href="#o"/><use width="100%" height="100%" x="331.69" y="238.604" transform="translate(-168.8 -129.78)" xlink:href="#p"/><use width="100%" height="100%" x="339.447" y="236.387" transform="translate(-168.8 -129.78)" xlink:href="#q"/><use width="100%" height="100%" x="214.493" y="227.071" transform="translate(-168.8 -129.78)" xlink:href="#r"/><use width="100%" height="100%" x="218.995" y="229.321" transform="translate(-168.8 -129.78)" xlink:href="#s"/><use width="100%" height="100%" x="225.965" y="229.979" transform="translate(-168.8 -129.78)" xlink:href="#t"/><use width="100%" height="100%" x="222.474" y="231.061" transform="translate(-168.8 -129.78)" xlink:href="#u"/><use width="100%" height="100%" x="229.183" y="234.415" transform="translate(-168.8 -129.78)" xlink:href="#v"/><use width="100%" height="100%" x="267.435" y="166.346" transform="translate(-168.8 -129.78)" xlink:href="#c"/><path fill="none" stroke="#000" stroke-miterlimit="10" stroke-width=".399" d="M17.003 75.847L88.53 40.085"/><path d="M203.08 61.51c0-.82812-.66797-1.4961-1.4922-1.4961-.82813 0-1.4961.66797-1.4961 1.4961 0 .82422.66797 1.4922 1.4961 1.4922.82422 0 1.4922-.66797 1.4922-1.4922z"/><use width="100%" height="100%" x="377.965" y="192.858" transform="translate(-168.8 -129.78)" xlink:href="#b"/><use width="100%" height="100%" x="375.597" y="195.376" transform="translate(-168.8 -129.78)" xlink:href="#d"/><path fill="none" stroke="#000" stroke-miterlimit="10" stroke-width=".399" d="M125.82 39.859l74.137 21.184"/><use width="100%" height="100%" x="320.19" y="170.686" transform="translate(-168.8 -129.78)" xlink:href="#e"/><use width="100%" height="100%" x="324.605" y="173.505" transform="translate(-168.8 -129.78)" xlink:href="#g"/><use width="100%" height="100%" x="331.266" y="173.851" transform="translate(-168.8 -129.78)" xlink:href="#h"/><use width="100%" height="100%" x="337.97" y="173.144" transform="translate(-168.8 -129.78)" xlink:href="#i"/><use width="100%" height="100%" x="334.997" y="174.917" transform="translate(-168.8 -129.78)" xlink:href="#j"/><use width="100%" height="100%" x="342.755" y="177.134" transform="translate(-168.8 -129.78)" xlink:href="#k"/><path d="M203.08 4.81c0-.82422-.66797-1.4922-1.4922-1.4922-.82813 0-1.4961.66797-1.4961 1.4922s.66797 1.4961 1.4961 1.4961c.82422 0 1.4922-.67187 1.4922-1.4961z"/><use width="100%" height="100%" x="375.597" y="138" transform="translate(-168.8 -129.78)" xlink:href="#d"/><path fill="none" stroke="#000" stroke-miterlimit="10" stroke-width=".399" d="M125.82 26.464L199.957 5.28"/><use width="100%" height="100%" x="316.882" y="143.622" transform="translate(-168.8 -129.78)" xlink:href="#l"/><use width="100%" height="100%" x="322.12" y="143.681" transform="translate(-168.8 -129.78)" xlink:href="#n"/><use width="100%" height="100%" x="327.958" y="140.457" transform="translate(-168.8 -129.78)" xlink:href="#o"/><use width="100%" height="100%" x="331.69" y="139.391" transform="translate(-168.8 -129.78)" xlink:href="#p"/><use width="100%" height="100%" x="339.447" y="137.174" transform="translate(-168.8 -129.78)" xlink:href="#q"/><use width="100%" height="100%" x="209.779" y="186.89" transform="translate(-168.8 -129.78)" xlink:href="#w"/><use width="100%" height="100%" x="214.281" y="184.639" transform="translate(-168.8 -129.78)" xlink:href="#x"/><use width="100%" height="100%" x="217.76" y="182.9" transform="translate(-168.8 -129.78)" xlink:href="#y"/><use width="100%" height="100%" x="224.469" y="179.546" transform="translate(-168.8 -129.78)" xlink:href="#z"/></svg>