<svg xmlns="http://www.w3.org/2000/svg" viewBox="0 0 759.84 257.23"><path fill="#000" d="M30.87,0H729a30.89,30.89,0,0,1,30.86,30.87V226.36A30.89,30.89,0,0,1,729,257.23H30.87A30.89,30.89,0,0,1,0,226.36V30.87A30.89,30.89,0,0,1,30.87,0Z"/><path fill="#fff" d="M689.12,145.47l-11.33,28.86h-.34l-11.82-28.86H654.94l17.71,40.34-10.12,22.43h10.39l27.3-62.77Zm-80.07-23.94h-9.89v66.54h9.89Zm-37.24,0H548v66.54h10V162.88h13.86a21.1,21.1,0,0,0,21.82-20.37,2.81,2.81,0,0,0,0-.29,21.15,21.15,0,0,0-21.58-20.7Zm.27,32.06H558V130.93h14.13a11.33,11.33,0,1,1,0,22.66ZM633.45,144a18.65,18.65,0,0,0-17.71,10.19l8.84,3.78a9.36,9.36,0,0,1,9.06-4.83,9.51,9.51,0,0,1,10.42,8.52v.73a21.68,21.68,0,0,0-10.31-2.61c-9.48,0-19.14,5.22-19.14,15.11,0,8.91,7.74,14.65,16.5,14.65a13.79,13.79,0,0,0,12.61-6.49h.38v5.14h9.67V162.62c0-11.82-8.84-18.39-20.24-18.39Zm-1.17,36.48c-3.25,0-7.78-1.66-7.78-5.66,0-5.14,5.63-7.1,10.54-7.1A17.6,17.6,0,0,1,644.1,170a12,12,0,0,1-11.82,10.54Zm-358.11,9a35.17,35.17,0,1,1,0-70.32,33.66,33.66,0,0,1,24.21,9.7l-6.84,6.76a24.57,24.57,0,0,0-17.37-7,25.57,25.57,0,0,0,0,51.14A23.61,23.61,0,0,0,292,172.7a19.78,19.78,0,0,0,5.25-12.08H274.17v-9.33h32.48a31.76,31.76,0,0,1,.49,6A31.64,31.64,0,0,1,298.79,180,32.33,32.33,0,0,1,274.17,189.51Zm83.2-22.66a22.43,22.43,0,0,1-44.83,1.84c0-.61,0-1.23,0-1.84A22.43,22.43,0,1,1,357.37,165C357.39,165.62,357.39,166.24,357.37,166.85Zm-9.82,0a12.65,12.65,0,0,0-25.19-2.39,11.93,11.93,0,0,0,0,2.39,12.65,12.65,0,1,0,25.19,2.39A11.93,11.93,0,0,0,347.55,166.85Zm60.05,0a22.4,22.4,0,1,1-22.4-22.4A22.39,22.39,0,0,1,407.6,166.85Zm-9.78,0a12.65,12.65,0,0,0-25.19-2.39,11.93,11.93,0,0,0,0,2.39,12.65,12.65,0,1,0,25.19,2.39A13.63,13.63,0,0,0,397.82,166.85Zm58.8-21.26v40.67c0,16.69-9.93,23.57-21.64,23.57a21.73,21.73,0,0,1-20.17-13.22l8.58-3.78a12.57,12.57,0,0,0,11.33,8c7.55,0,12.16-4.65,12.16-13.3v-3.24h-.38a15.56,15.56,0,0,1-11.78,5.17,22.66,22.66,0,0,1,0-45.32,15.77,15.77,0,0,1,11.93,5.06H447v-3.78h9.59ZM447.82,167a12.8,12.8,0,0,0-11.72-13.8l-.4,0A13.14,13.14,0,0,0,423,166.71c0,.08,0,.17,0,.25a13,13,0,0,0,12.41,13.63h.28a12.65,12.65,0,0,0,12.15-13.14A4.32,4.32,0,0,0,447.82,167Zm26.29-45.36v66.51h-10V121.6Zm39.28,52.73,7.78,5.13a22.66,22.66,0,0,1-18.89,10A21.94,21.94,0,0,1,480,167.88c0-.34,0-.69,0-1a20.85,20.85,0,0,1,40.6-8.23l1,2.6-30.22,12.5a11.62,11.62,0,0,0,11,6.88A13,13,0,0,0,513.39,174.33Zm-23.83-8.16,20.32-8.39a8.84,8.84,0,0,0-8.46-4.79,12.43,12.43,0,0,0-11.88,12.95C489.55,166,489.55,166.09,489.56,166.17Z"/><path fill="#ea4335" d="M124.52,125.18,60.19,192.57a17.45,17.45,0,0,0,25.55,10.36l72.38-41.23Z"/><path fill="#fbbc04" d="M189.56,113.72,158.26,95.8,123,126.71l35.38,34.9,31.06-17.74a17,17,0,0,0,0-30.15Z"/><path fill="#4285f4" d="M60.19,64.69a16.84,16.84,0,0,0-.57,4.41V188.16a17.72,17.72,0,0,0,.57,4.41l66.53-65.67Z"/><path fill="#34a853" d="M125,128.63,158.26,95.8,86,54.38a17.86,17.86,0,0,0-9-2.44,17.46,17.46,0,0,0-16.83,12.7Z"/><path fill="#fff" d="M255.13,96.41c-10.24,0-16.8-7.48-16.8-19.15,0-11.47,6.53-18.77,16.8-18.77,7.94,0,14,4.71,15.34,12h-4.81a10.43,10.43,0,0,0-10.53-7.78c-7.55,0-12.1,5.44-12.1,14.52s4.63,15,12.1,15c6.52,0,11-4.23,11-10.38v-.66H255.77v-4H270.7v3.49C270.7,90.53,264.93,96.41,255.13,96.41Z"/><path fill="#fff" d="M299.28,95.8H276.55V59.1h22.73v4.12H281.13V75h17.21v4.06H281.13V91.68h18.15Z"/><path fill="#fff" d="M314.6,95.8V63.22H303V59.1h27.72v4.12H319.17V95.8Z"/><path fill="#fff" d="M346.26,95.8V59.1h4.58V95.8Z"/><path fill="#fff" d="M358,95.8V59.1h4.45L382.5,87.91h.23V59.1h4.52V95.8H382.8L362.71,67.09h-.23V95.8Z"/><path fill="#fff" d="M437.46,77.46c0,11.65-6.52,19-16.92,19s-16.91-7.3-16.91-19,6.51-19,16.91-19S437.46,65.81,437.46,77.46Zm-29.12,0c0,9,4.7,14.73,12.2,14.73s12.21-5.7,12.21-14.73-4.7-14.75-12.21-14.75S408.34,68.41,408.34,77.46Z"/><path fill="#fff" d="M443.15,95.8V59.1h4.45l20.09,28.81h.23V59.1h4.53V95.8H468L447.91,67.09h-.23V95.8Z"/></svg>