<svg xmlns="http://www.w3.org/2000/svg" xmlns:xlink="http://www.w3.org/1999/xlink" width="774.259pt" height="206.761pt" viewBox="0 0 774.259 206.761"><defs><path id="b" d="M.26563-.32812c0 .23437.20312.42187.54687.42187.57813 0 .90625-.57812 1.26563-1.14062l.34375-.5625h.01562l.15625.67187c.15625.67188.3125 1.03125.75 1.03125.625 0 .95313-.64062 1.20313-1.15625l-.21875-.10937c-.20313.375-.4375.82812-.67188.82812-.17187 0-.23437-.1875-.42187-.95312l-.26563-1.10938c.29688-.54687.73438-1.23437.98438-1.23437S4.21875-3.5 4.46875-3.5c.1875 0 .35938-.17187.35938-.40625 0-.26562-.20313-.375-.4375-.375-.45313 0-.82813.40625-1.125.89063l-.375.57812H2.875l-.34375-1.42187-.04687-.04688-1.40625.42188.01562.21875.67188-.04688c.14062 0 .20312.0625.28124.42188l.29688 1.23437-.23437.40625C1.75-1 1.4375-.54687 1.21875-.54687c-.23437 0-.29687-.21876-.57812-.21876-.21876 0-.375.21876-.375.4375m0 0"/><path id="c" d="M.71875-2.15625h4.6875v-.5H.71875Zm0 0"/><path id="d" d="M.29688-.20312c0 .1875.26562.29687.39062.29687.45313 0 .76563-.5625.92188-.9375.20312-.5.5-1.5625.75-2.78125h1.0625L2.875-1.04687c-.03125.17187-.04687.34375-.04687.46875 0 .4375.14062.67187.4375.67187.625 0 1.10937-.46875 1.40625-1.1875l-.20313-.10937c-.21875.4375-.5625.875-.75.875-.10937 0-.125-.10938-.125-.26563 0-.09375 0-.20312.01563-.3125L4.1875-3.625h.75l.34375-.65625c-.25.0625-.60937.09375-1 .09375H1.85938c-.4375 0-1.03125.21875-1.35938.73438l.14063.15625C.98438-3.5625 1.42188-3.625 1.875-3.625 1.51563-2.125 1.26563-.78125.78125-.70312c-.21875.04687-.48437.17187-.48437.5m0 0"/><path id="e" d="M.35938-2.84375c0 1.70313.5 2.9375 1.89062 2.9375 1.40625 0 1.92188-1.23437 1.92188-2.9375 0-1.70312-.51563-2.95312-1.92188-2.95312-1.39062 0-1.89062 1.25-1.89062 2.95312m.85937 0c0-1.39062.23438-2.64062 1.03125-2.64062.8125 0 1.04688 1.25 1.04688 2.64062S3.0625-.20312 2.25-.20312c-.79687 0-1.03125-1.25-1.03125-2.64063m0 0"/><path id="f" d="M.70313-1.51562h.39062v-.64063h5.45313c-.0625.125-.28125.42188-.51563.64063l.17188.21874c.34375-.29687 1.09375-.8125 1.625-.98437v-.25c-.54688-.17187-1.28125-.6875-1.625-.96875l-.17188.21875c.23438.20313.4375.48438.51563.625H1.09375v-.625H.70313Zm0 0"/><path id="k" d="M.73438-2.40625c0 1.92188.4375 4.03125 2.23437 4.10938v-.25c-.60937-.125-1.5625-.875-1.5625-3.85938 0-2.95312.90625-3.71875 1.5625-3.84375v-.25C1.17188-6.4375.73438-4.32812.73438-2.40625m0 0"/><path id="l" d="M.5 1.45313v.25C2.3125 1.625 2.75-.48437 2.75-2.40625S2.3125-6.4375.5-6.5v.25c.65625.125 1.5625.89063 1.5625 3.84375C2.0625.57813 1.10938 1.32813.5 1.45313m0 0"/><path id="m" d="M.71875-2.15625H2.8125V-.0625h.5v-2.09375h2.09375v-.5H3.3125V-4.75h-.5v2.09375H.71875Zm0 0"/><path id="n" d="M.92188 0h2.79687v-.25l-.70312-.0625c-.1875-.01562-.28125-.07812-.28125-.40625V-5.75l-.04688-.04687-1.76562.3125v.20312l.79687.09375c.14063.01563.20313.07813.20313.32813v4.14062c0 .32813-.07813.39063-.28126.40625L.92189-.25Zm0 0"/><path id="g" d="M.42188-2.04687c0 1.42187.6875 2.14062 1.96875 2.14062.59375 0 1.40625-.29687 1.64062-1.21875l-.25-.10937c-.26562.59375-.59375.89062-1.21875.89062-1.01562 0-1.25-1.0625-1.25-1.85937 0-1.26563.48438-1.78125 1.07813-1.78125.39062 0 .64062.28125.8125.75.04687.14062.10937.21875.26562.21875.17188 0 .5-.10938.5-.4375 0-.39063-.5625-.82813-1.48437-.82813-1.54688 0-2.0625 1.09375-2.0625 2.23438m0 0"/><path id="h" d="M.42188-2.07812c0 1.375.67187 2.17187 2.04687 2.17187C3.82813.09375 4.5-.70312 4.5-2.07812c0-1.39063-.67187-2.20313-2.03125-2.20313-1.375 0-2.04687.8125-2.04687 2.20313m.89062 0c0-1.1875.375-1.90625 1.15625-1.90625S3.625-3.26562 3.625-2.07812c0 1.17187-.375 1.875-1.15625 1.875S1.3125-.90625 1.3125-2.07812m0 0"/><path id="i" d="M.40625-1.42187.48438-.3125c.3125.28125.82812.40625 1.32812.40625 1.01563 0 1.59375-.53125 1.59375-1.25 0-.75-.45312-1.09375-1.34375-1.35937-.34375-.10938-.90625-.29688-.90625-.78125 0-.4375.34375-.6875.76563-.6875.60937 0 .89062.48437.95312 1h.25v-1c-.28125-.21875-.71875-.29688-1.09375-.29688-.92187 0-1.54687.4375-1.54687 1.25 0 .70313.57812 1.01563 1.28125 1.23438.375.125.92187.3125.92187.89062 0 .4375-.34375.70313-.79687.70313-.6875 0-1.07813-.5-1.25-1.21875Zm0 0"/><path id="j" d="M.26563-.32812c0 .03125.07812.09375.15625.09375.04687 0 .14062-.01563.15625-.04688l1.0625-2.73437c.04687-.09375.04687-.14063.04687-.15625 0-.14063-.20312-.1875-.375-.1875-.1875 0-.46875.07812-.48437.1875Zm0 0"/><clipPath id="a"><path d="M.07813 0H773.4414v206.52344H.07813Zm0 0"/></clipPath><clipPath id="o"><path d="M128 0h2v206.52344h-2Zm0 0"/></clipPath><clipPath id="p"><path d="M.07813 0H773.4414v206.52344H.07813Zm0 0"/></clipPath><clipPath id="q"><path d="M.07813 51H773.4414v1H.07813Zm0 0"/></clipPath><clipPath id="r"><path d="M.07813 103H773.4414v1H.07813Zm0 0"/></clipPath></defs><g clip-path="url(#a)"><path fill="#FFF" d="M.27344.19922v206.125H773.25V.19922Zm0 0"/></g><use xlink:href="#b" x="62.09522" y="28.05157"/><use xlink:href="#c" x="187.68604" y="28.05157"/><use xlink:href="#d" x="193.80758" y="28.05157"/><use xlink:href="#e" x="448.91908" y="28.8077"/><use xlink:href="#d" x="706.05884" y="28.05157"/><use xlink:href="#b" x="42.24216" y="80.13137"/><use xlink:href="#f" x="49.38698" y="80.13137"/><use xlink:href="#g" x="59.66399" y="80.13137"/><use xlink:href="#h" x="63.88387" y="80.13137"/><use xlink:href="#i" x="68.79197" y="80.13137"/><use xlink:href="#j" x="72.49563" y="76.50921"/><use xlink:href="#k" x="74.79437" y="80.13137"/><use xlink:href="#b" x="78.27169" y="80.13137"/><use xlink:href="#l" x="83.65973" y="80.13137"/><use xlink:href="#e" x="191.26291" y="80.33913"/><use xlink:href="#m" x="319.28492" y="79.86768"/><use xlink:href="#e" x="448.91908" y="80.33913"/><use xlink:href="#c" x="576.94109" y="78.82189"/><use xlink:href="#e" x="706.57425" y="80.33913"/><use xlink:href="#b" x="43.39184" y="157.1913"/><use xlink:href="#f" x="50.53665" y="157.1913"/><use xlink:href="#g" x="60.81367" y="157.1913"/><use xlink:href="#h" x="65.03355" y="157.1913"/><use xlink:href="#i" x="69.94164" y="157.1913"/><use xlink:href="#k" x="73.6453" y="157.1913"/><use xlink:href="#b" x="77.12263" y="157.1913"/><use xlink:href="#l" x="82.51067" y="157.1913"/><use xlink:href="#c" x="188.20245" y="183.45094"/><use xlink:href="#n" x="194.32399" y="183.45094"/><use xlink:href="#n" x="448.91908" y="131.91951"/><use xlink:href="#c" x="703.51378" y="183.45094"/><use xlink:href="#n" x="709.63532" y="183.45094"/><path fill="none" stroke="#000" stroke-miterlimit="10" stroke-width=".39804" d="m202.21093 178.80853 239.79287-47.96482"/><path d="M445.51563 130.14063c-1.07813.01562-2.88672-.23438-4.19532-.6797l.58594 2.92579c1.03516-.91797 2.60938-1.83984 3.60938-2.2461"/><path fill="none" stroke="#000" stroke-miterlimit="10" stroke-width=".39804" d="M456.78505 130.14058 696.574 178.10541"/><path d="M700.08984 178.8086c-1.0039-.40626-2.57812-1.32813-3.61328-2.2461l-.58593 2.92578c1.30859-.44531 3.11718-.69531 4.19921-.67969"/><g clip-path="url(#o)"><path fill="none" stroke="#000" stroke-miterlimit="10" stroke-width=".39804" d="M129.10159.19923v206.12492"/></g><g clip-path="url(#p)"><path fill="none" stroke="#000" stroke-miterlimit="10" stroke-width=".39804" d="M.27352.19923v206.12492h772.97624V.19923Zm0 0"/></g><g clip-path="url(#q)"><path fill="none" stroke="#000" stroke-miterlimit="10" stroke-width=".39804" d="M.27352 51.73046h772.97624"/></g><g clip-path="url(#r)"><path fill="none" stroke="#000" stroke-miterlimit="10" stroke-width=".39804" d="M.27352 103.26169h772.97624"/></g></svg>