<svg xmlns="http://www.w3.org/2000/svg" xmlns:xlink="http://www.w3.org/1999/xlink" width="771.413pt" height="154.601pt" viewBox="0 0 771.413 154.601"><defs><path id="b" d="M.20313-.25c0 .1875.14062.32813.40625.32813.4375 0 .67187-.4375.9375-.85938l.25-.42187h.01562l.125.5c.10938.5.23438.78125.54688.78125.46875 0 .71875-.48438.90625-.875L3.21875-.875c-.14062.28125-.32812.625-.5.625-.125 0-.17187-.14062-.3125-.71875l-.20312-.82812c.23437-.40625.5625-.90625.73437-.90625.1875 0 .20313.09375.39063.09375.14062 0 .26562-.125.26562-.29688 0-.20312-.14062-.28125-.3125-.28125-.34375 0-.625.3125-.84375.65625l-.28125.4375h-.01562l-.25-1.0625-.04688-.03125-1.04687.3125.01562.15625.5-.03125c.10938 0 .15625.04688.21875.3125l.21875.92188-.17187.3125C1.29687-.75 1.0625-.40625.90625-.40625.73438-.40625.6875-.5625.48438-.5625c-.17188 0-.28125.15625-.28125.3125m0 0"/><path id="c" d="M.54688-1.60937h3.48437v-.375H.54688Zm0 0"/><path id="d" d="M.21875-.15625c0 .15625.20313.23438.29688.23438.32812 0 .57812-.42188.6875-.70313C1.34375-1 1.5625-1.79687 1.75-2.70312h.79688L2.14063-.78125c-.01563.14063-.03125.25-.03125.35938 0 .32812.09375.5.32812.5.46875 0 .8125-.35938 1.03125-.89063l-.14062-.07812c-.15625.3125-.42188.64062-.5625.64062-.07813 0-.09375-.07812-.09375-.1875 0-.0625.01562-.15625.01562-.23437l.4375-2.03125h.54688l.25-.48438c-.17188.04688-.4375.0625-.73438.0625H1.39063c-.32813 0-.78125.17188-1.01563.54688l.09375.125c.26563-.20313.59375-.25.92188-.25C1.125-1.59375.9375-.57812.57813-.51562.42187-.5.21875-.39062.21875-.15625m0 0"/><path id="g" d="M.51563-1.14062H.8125v-.46875H4.875c-.04687.09374-.20312.3125-.375.46875l.10938.17187c.26562-.21875.82812-.59375 1.21875-.71875v-.20312c-.40625-.125-.95313-.5-1.21875-.71875L4.5-2.4375c.17188.14063.3125.35938.375.45313H.8125v-.45313H.51563Zm0 0"/><path id="l" d="M.54688-1.78125c0 1.42188.32812 3 1.67187 3.04688v-.1875C1.76563 1 1.04688.4375 1.04688-1.78125s.6875-2.78125 1.17187-2.875v-.1875C.875-4.79687.54688-3.21875.54688-1.78125m0 0"/><path id="m" d="M.375 1.07813v.1875c1.34375-.04688 1.67188-1.625 1.67188-3.04688 0-1.4375-.32813-3.01562-1.67188-3.0625v.1875C.85938-4.5625 1.53125-4 1.53125-1.78125S.82813 1 .375 1.07813m0 0"/><path id="n" d="M.26563-2.125c0 1.28125.375 2.20313 1.42187 2.20313 1.04688 0 1.42188-.92188 1.42188-2.20313 0-1.26562-.375-2.1875-1.42188-2.1875-1.04687 0-1.42187.92188-1.42187 2.1875m.64062 0c0-1.03125.17188-1.96875.78125-1.96875.59375 0 .76563.9375.76563 1.96875S2.28125-.15625 1.6875-.15625c-.60937 0-.78125-.9375-.78125-1.96875m0 0"/><path id="o" d="M.54688-1.60937h1.54687v1.5625h.375v-1.5625h1.5625v-.375h-1.5625v-1.54688h-.375v1.54688H.54688Zm0 0"/><path id="p" d="M.6875 0h2.09375v-.1875l-.54687-.04687c-.125-.01563-.20313-.0625-.20313-.3125v-3.73438L2-4.3125l-1.3125.21875v.15625l.59375.07813c.10938.01562.15625.0625.15625.23437v3.07813c0 .25-.0625.29687-.21875.3125L.6875-.1875Zm0 0"/><path id="e" d="M.15625-.125c0 .125.14063.17188.21875.17188.26563 0 .45313-.3125.53125-.53125.125-.26563.26563-.75.39063-1.39063h.54687L1.5625-.57812c-.01562.09374-.03125.21874-.03125.29687 0 .21875.0625.32813.26563.32813.32812 0 .57812-.20313.76562-.60938L2.45313-.625c-.125.21875-.29688.42188-.39063.42188-.04687 0-.07812-.04688-.07812-.125 0-.04688.01562-.10938.03124-.1875L2.3125-1.875h.40625l.1875-.35937c-.14062.03125-.32812.04687-.54687.04687H1.01563c-.23438 0-.54688.125-.71875.39063l.07812.09374c.17188-.14062.40625-.17187.65625-.17187C.85938-1.10937.70313-.46875.45313-.40625.32813-.375.15625-.3125.15625-.125m0 0"/><path id="f" d="M.125-.04687.1875 0h1.875l.15625-.64062-.125-.01563c-.10937.23438-.1875.26563-.35937.26563H.59375c.0625-.20313.3125-.51563.73438-.79688.45312-.29687.78125-.51562.78125-1 0-.625-.42188-.84375-.92188-.84375-.60937 0-.95312.35938-.95312.625 0 .15625.1875.23438.28124.23438.07813 0 .125-.04688.14063-.125.07813-.3125.25-.5625.5-.5625.3125 0 .42188.26562.42188.59375 0 .42187-.20313.71875-.60938 1.07812C.39063-.70312.1875-.39062.125-.04687m0 0"/><path id="k" d="M.20313-.23437c0 .01562.04687.0625.10937.0625.03125 0 .10938-.01563.125-.04688L1.21875-2.25c.03125-.0625.04688-.10937.04688-.125 0-.09375-.15626-.125-.29688-.125-.125 0-.34375.04688-.35937.14063Zm0 0"/><path id="h" d="m.29688-1.0625.0625.82813c.23437.20312.625.3125.98437.3125.76563 0 1.1875-.40625 1.1875-.9375 0-.5625-.34375-.8125-1-1.01563-.25-.07812-.67187-.21875-.67187-.57812 0-.32813.25-.51563.57812-.51563.45313 0 .65625.35938.70313.73438h.1875v-.73438c-.20313-.15625-.53125-.21875-.8125-.21875-.6875 0-1.15625.32813-1.15625.92188 0 .53125.4375.76562.95312.92187C1.59375-1.25 2-1.10937 2-.67187c0 .32812-.25.51562-.59375.51562-.51562 0-.79687-.35937-.92187-.90625Zm0 0"/><path id="i" d="M.57813-4.15625c0 .23438.17187.39063.39062.39063.23438 0 .39063-.15625.39063-.39063 0-.21875-.15626-.375-.39063-.375-.21875 0-.39062.15625-.39062.375M.20313 0H1.75v-.1875c-.45312-.03125-.46875-.04687-.46875-.35937v-2.59375l-.04687-.04688-1 .15625v.15625l.23437.04688c.17188.01562.21875.04687.21875.28125v2c0 .3125-.03125.32812-.48437.35937Zm0 0"/><path id="j" d="M.20313 0H1.75v-.1875c-.45312-.03125-.46875-.04687-.46875-.35937v-1.48438c0-.17187 0-.25.0625-.34375.125-.25.40625-.46875.75-.46875.4375 0 .67188.23438.67188.79688v1.5c0 .3125-.03125.32812-.48438.35937V0h1.54688v-.1875c-.45313-.03125-.46875-.04687-.46875-.35937v-1.625c0-.64063-.35938-1.01563-.9375-1.01563-.46875 0-.76563.23438-1.15625.48438L1.1875-3.1875l-.95312.15625v.15625l.23437.04688c.17188.01562.21875.04687.21875.28125v2c0 .3125-.03125.32812-.48437.35937Zm0 0"/><clipPath id="a"><path d="M.69922 0H770v154.20313H.69922Zm0 0"/></clipPath><clipPath id="q"><path d="M96 0h2v154.20313h-2Zm0 0"/></clipPath><clipPath id="r"><path d="M.69922 0H770.1289v154.20313H.6992Zm0 0"/></clipPath><clipPath id="s"><path d="M.69922 38H770.1289v1H.6992Zm0 0"/></clipPath><clipPath id="t"><path d="M.69922 76H770.1289v2H.6992Zm0 0"/></clipPath></defs><g clip-path="url(#a)"><path fill="#FFF" d="M.89844.19922v153.8086H769.9375V.19921Zm0 0"/></g><use xlink:href="#b" x="47.02757" y="20.98185"/><use xlink:href="#c" x="140.74072" y="20.98185"/><use xlink:href="#d" x="145.30855" y="20.98185"/><use xlink:href="#c" x="332.72723" y="20.71155"/><use xlink:href="#e" x="338.10575" y="17.99516"/><path fill="none" stroke="#000" stroke-miterlimit="10" stroke-width=".37168" d="M338.10547 18.92187h3.05469"/><use xlink:href="#f" x="338.4347" y="23.09017"/><use xlink:href="#e" x="528.07934" y="17.99516"/><path fill="none" stroke="#000" stroke-miterlimit="10" stroke-width=".37168" d="M528.07813 18.92187h3.0586"/><use xlink:href="#f" x="528.40829" y="23.09017"/><use xlink:href="#d" x="719.79727" y="20.98185"/><use xlink:href="#b" x="32.73347" y="59.84256"/><use xlink:href="#g" x="38.06486" y="59.84256"/><use xlink:href="#h" x="45.73347" y="59.84256"/><use xlink:href="#i" x="48.49715" y="59.84256"/><use xlink:href="#j" x="50.34186" y="59.84256"/><use xlink:href="#k" x="54.26789" y="57.13973"/><use xlink:href="#l" x="55.98318" y="59.84256"/><use xlink:href="#b" x="58.57793" y="59.84256"/><use xlink:href="#m" x="62.59844" y="59.84256"/><use xlink:href="#c" x="238.93729" y="58.86508"/><use xlink:href="#n" x="335.66665" y="59.99716"/><use xlink:href="#o" x="431.1941" y="59.64606"/><use xlink:href="#n" x="527.92446" y="59.99716"/><use xlink:href="#c" x="623.45192" y="58.86508"/><use xlink:href="#b" x="33.59125" y="117.34316"/><use xlink:href="#g" x="38.92265" y="117.34316"/><use xlink:href="#h" x="46.59126" y="117.34316"/><use xlink:href="#i" x="49.35494" y="117.34316"/><use xlink:href="#j" x="51.19964" y="117.34316"/><use xlink:href="#l" x="55.12568" y="117.34316"/><use xlink:href="#b" x="57.72042" y="117.34316"/><use xlink:href="#m" x="61.74093" y="117.34316"/><use xlink:href="#n" x="143.40983" y="98.44892"/><use xlink:href="#c" x="333.38354" y="136.93759"/><use xlink:href="#p" x="337.95137" y="136.93759"/><use xlink:href="#p" x="527.92446" y="98.48582"/><use xlink:href="#n" x="720.18227" y="136.90068"/><path fill="none" stroke="#000" stroke-miterlimit="10" stroke-width=".39748" d="m149.29688 97.15626 178.03128 35.60939"/><path d="M330.83594 133.46875c-1-.40234-2.57031-1.32422-3.60156-2.24219l-.58594 2.92188c1.30469-.44531 3.10937-.69531 4.1875-.67969"/><path fill="none" stroke="#000" stroke-miterlimit="10" stroke-width=".39748" d="M343.81254 133.46877 521.84773 97.8594"/><path d="M525.35547 97.15625c-1.07813.01172-2.88672-.23437-4.1914-.6836l.58593 2.92579c1.03125-.91797 2.60547-1.83985 3.60547-2.24219"/><path fill="none" stroke="#000" stroke-miterlimit="10" stroke-width=".39748" d="m533.7618 97.15626 180.31644 36.06642"/><path d="M717.58594 133.92578c-1-.40625-2.57032-1.32812-3.60547-2.24219l-.58203 2.92188c1.30468-.44922 3.10937-.69531 4.1875-.67969"/><g clip-path="url(#q)"><path fill="none" stroke="#000" stroke-miterlimit="10" stroke-width=".39748" d="M97.02733.19921v153.80863"/></g><g clip-path="url(#r)"><path fill="none" stroke="#000" stroke-miterlimit="10" stroke-width=".39748" d="M.89841.19921v153.80863h769.03921V.1992Zm0 0"/></g><g clip-path="url(#s)"><path fill="none" stroke="#000" stroke-miterlimit="10" stroke-width=".39748" d="M.89841 38.64844h769.03921"/></g><g clip-path="url(#t)"><path fill="none" stroke="#000" stroke-miterlimit="10" stroke-width=".39748" d="M.89841 77.10157h769.03921"/></g></svg>