<?xml version="1.0" ?><!DOCTYPE svg  PUBLIC '-//W3C//DTD SVG 1.1//EN'  'http://www.w3.org/Graphics/SVG/1.1/DTD/svg11.dtd'><svg enable-background="new 0 0 128 128" id="Layer_1" version="1.1" viewBox="0 0 128 128" xml:space="preserve" xmlns="http://www.w3.org/2000/svg" xmlns:xlink="http://www.w3.org/1999/xlink"><path d="M64,12c-28.7,0-52,23.3-52,52s23.3,52,52,52s52-23.3,52-52S92.7,12,64,12z M64,112c-26.5,0-48-21.5-48-48  s21.5-48,48-48s48,21.5,48,48S90.5,112,64,112z" fill="#3B97D3"/><path d="M64,79.7c-0.4,0-0.7-0.2-0.9-0.6c-0.4-0.9-10.3-22.7-10.3-40.5c0-6.2,5-11.2,11.2-11.2s11.2,5,11.2,11.2  c0,17.8-9.9,39.6-10.3,40.5C64.7,79.5,64.4,79.7,64,79.7z M64,29.5c-5.1,0-9.2,4.1-9.2,9.2c0,14.2,6.7,31.6,9.2,37.5  c2.5-5.9,9.2-23.3,9.2-37.5C73.2,33.6,69.1,29.5,64,29.5z" fill="#2C3E50"/><path d="M64,100.5c-4.4,0-8.1-3.6-8.1-8.1s3.6-8.1,8.1-8.1s8.1,3.6,8.1,8.1S68.4,100.5,64,100.5z M64,86.4  c-3.3,0-6.1,2.7-6.1,6.1c0,3.3,2.7,6.1,6.1,6.1c3.3,0,6.1-2.7,6.1-6.1C70.1,89.1,67.3,86.4,64,86.4z" fill="#2C3E50"/></svg>