<?xml version="1.0" ?><!DOCTYPE svg  PUBLIC '-//W3C//DTD SVG 1.1//EN'  'http://www.w3.org/Graphics/SVG/1.1/DTD/svg11.dtd'><svg enable-background="new 0 0 128 128" id="Layer_1" version="1.1" viewBox="0 0 128 128" xml:space="preserve" xmlns="http://www.w3.org/2000/svg" xmlns:xlink="http://www.w3.org/1999/xlink"><path d="M81.4,87H46.3c-0.6,0-1-0.4-1-1s0.4-1,1-1h35.2c0.6,0,1,0.4,1,1S82,87,81.4,87z" fill="#2C3E50"/><path d="M81.4,95H46.3c-0.6,0-1-0.4-1-1s0.4-1,1-1h35.2c0.6,0,1,0.4,1,1S82,95,81.4,95z" fill="#2C3E50"/><path d="M81.4,103H46.3c-0.6,0-1-0.4-1-1s0.4-1,1-1h35.2c0.6,0,1,0.4,1,1S82,103,81.4,103z" fill="#2C3E50"/><path d="M91,81v24c0,3.6-2.9,7-6.5,7h-41c-3.6,0-6.5-3.4-6.5-7V81h-4v24.5c0,5.5,4.5,10.5,10,10.5h42  c5.5,0,10-5,10-10.5V81H91z" fill="#2C3E50"/><path d="M37,31v-9c0-3.6,2.9-6,6.5-6h41c3.6,0,6.5,2.4,6.5,6v9h4v-9.5C95,16,90.5,12,85,12H43c-5.5,0-10,4-10,9.5V31  H37z" fill="#2C3E50"/><path d="M98,79H28.8c-0.6,0-1-0.4-1-1s0.4-1,1-1H98c0.6,0,1,0.4,1,1S98.6,79,98,79z" fill="#3B97D3"/><circle cx="71.2" cy="58" fill="#3B97D3" r="3"/><circle cx="84.2" cy="58" fill="#3B97D3" r="3"/><circle cx="96.2" cy="58" fill="#3B97D3" r="3"/><path d="M111,33H17c-5.5,0-10,4-10,9.5v41C7,89,11.5,94,17,94h14v-4H17c-3.3,0-6-3.2-6-6.5v-41c0-3.3,2.7-5.5,6-5.5  h94c3.3,0,6,2.2,6,5.5v41c0,3.3-2.7,6.5-6,6.5H97v4h14c5.5,0,10-5,10-10.5v-41C121,37,116.5,33,111,33z" fill="#3B97D3"/></svg>