<svg xmlns="http://www.w3.org/2000/svg" xmlns:xlink="http://www.w3.org/1999/xlink" width="305.509pt" height="308.282pt" viewBox="0 0 305.509 308.282"><defs><path id="a" d="M1.92188 0h5.84375v-.51562l-1.5-.125c-.375-.04688-.57813-.17188-.57813-.875v-10.46875l-.09375-.09375-3.67187.625v.4375l1.67187.20312c.29688.04688.40625.17188.40625.6875v8.60938c0 .70312-.17187.82812-.57812.875l-1.5.125Zm0 0"/><path id="b" d="M.71875-1.8125c0 .8125 1.25 2.01563 3.54688 2.01563 2.9375 0 4.25-1.76563 4.25-4.01563 0-2.5-1.54688-3.76562-3.65625-3.76562-.98438 0-2.0625.4375-2.625.95312L2.625-10c.0625-.45312.17188-.5.51563-.5H7.5625l.42188-1.21875-.09375-.14062H1.96875l-.17187.17187-.35938 5.92188.4375.23437c.73438-.85937 1.45313-1.26562 2.40625-1.26562 1.14063 0 2.39063.82812 2.39063 3.17187 0 1.82813-.73438 3.20313-2.29688 3.20313-1.23437 0-1.85937-.875-2.21875-1.90625-.09375-.26563-.26562-.4375-.51562-.4375-.35938 0-.92188.35937-.92188.95312m0 0"/><path id="c" d="M.73438-5.9375c0 3.5625 1.04687 6.14063 3.96875 6.14063S8.6875-2.375 8.6875-5.9375c0-3.54687-1.0625-6.14062-3.98437-6.14062S.73438-9.48437.73438-5.9375m1.79687 0c0-2.89062.48438-5.51562 2.17188-5.51562S6.875-8.82812 6.875-5.9375 6.39063-.42187 4.70313-.42187s-2.17188-2.625-2.17188-5.51563m0 0"/><path id="d" d="m.34375-3.54687.14063.375h4.84375v1.8125c0 .60937-.1875.70312-.625.73437l-1.125.10938V0H8.25v-.51562l-.78125-.09376c-.42187-.04687-.53125-.14062-.53125-.75v-1.8125H8.75V-4H6.9375v-7.85937H5.625C3.96875-9.40625 1.96875-6.32812.34375-3.54687M1.625-4c1.0625-1.9375 2.34375-3.98437 3.70313-6.14062V-4Zm0 0"/><path id="e" d="M.78125-5.48437c0 3.84375 1.39063 5.6875 4.0625 5.6875 2.625 0 4.01563-1.57813 4.01563-4 0-2.40625-1.46875-3.70313-3.375-3.70313-1.40625 0-2.4375.9375-2.92188 1.53125.03125-3.90625 1.10938-5.48437 2.70313-5.48437.8125 0 1.40625.6875 1.67187 1.70312.04688.20313.1875.375.45313.375.39062 0 .9375-.3125.9375-.8125 0-.71875-.85938-1.89062-3-1.89062-2.8125 0-4.54688 2.17187-4.54688 6.59375M2.5625-4.1875c0-1.07812.8125-2.40625 2.3125-2.40625 1.10938 0 2.20313 1.01563 2.20313 3.0625 0 1.875-.71875 3.10938-2.20313 3.10938-1.54687 0-2.3125-1.64063-2.3125-3.76563m0 0"/><path id="f" d="M.46875-1.8125c0 .75 1.23438 2.01563 3.75 2.01563 2.5625 0 4.1875-1.29688 4.1875-3.5625 0-2.39063-2.04687-3.07813-3.01562-3.17188v-.07812c.95312-.15625 2.48437-.875 2.48437-2.625 0-1.96875-1.53125-2.84375-3.4375-2.84375-2.34375 0-3.5 1.35937-3.5 2.125 0 .54687.625.84375.875.84375.23438 0 .35938-.125.4375-.35938.39063-1.20312 1.0625-1.98437 2.0625-1.98437 1.39063 0 1.75 1.23437 1.75 2.23437 0 1.0625-.375 2.40625-1.89062 2.40625-.84375 0-1.34375-.17187-1.54688-.17187-.21875 0-.32812.17187-.32812.48437 0 .29688.10937.5.32812.5.20313 0 .70313-.17187 1.54688-.17187 1.51562 0 2.35937 1.35937 2.35937 2.90625 0 2.10937-1.03125 2.84375-2.29687 2.84375-1.17188 0-1.95313-.85938-2.28125-1.85938-.125-.34375-.29688-.51562-.53125-.51562-.32813 0-.95313.34375-.95313.98437m0 0"/><path id="g" d="M.46875-.17187.65625 0h7.35938l.59375-2.34375L8.125-2.4375c-.375.96875-.73437 1.09375-1.45312 1.09375H2.14063c.28125-.92187 1.32812-2.1875 2.98437-3.375 1.6875-1.25 3.01563-2.04687 3.01563-4.03125 0-2.46875-1.64063-3.32812-3.51563-3.32812-2.4375 0-3.6875 1.48437-3.6875 2.40625 0 .60937.6875.89062.98438.89062.32812 0 .4375-.1875.51562-.5.28125-1.20312.98438-2.17187 2.07813-2.17187 1.35937 0 1.75 1.14062 1.75 2.4375 0 1.90625-.95313 2.98437-2.5 4.34375C1.5625-2.76562.8125-1.54687.46875-.17187m0 0"/></defs><use xlink:href="#a" x="6.40435" y="301.16757"/><use xlink:href="#b" x="62.96562" y="300.96005"/><use xlink:href="#a" x="114.82384" y="301.06381"/><use xlink:href="#c" x="124.22859" y="301.06381"/><use xlink:href="#a" x="171.38511" y="301.06381"/><use xlink:href="#c" x="180.78985" y="301.06381"/><use xlink:href="#b" x="232.64942" y="300.96005"/><use xlink:href="#a" x="289.20969" y="301.16757"/><use xlink:href="#a" x="34.68449" y="244.6063"/><use xlink:href="#d" x="91.24576" y="244.50254"/><use xlink:href="#e" x="147.80702" y="244.50254"/><use xlink:href="#d" x="204.36829" y="244.50254"/><use xlink:href="#a" x="260.92956" y="244.6063"/><use xlink:href="#a" x="62.96562" y="188.04504"/><use xlink:href="#f" x="119.52689" y="187.94128"/><use xlink:href="#f" x="176.08816" y="187.94128"/><use xlink:href="#a" x="232.64942" y="188.04504"/><use xlink:href="#a" x="91.24576" y="131.48377"/><use xlink:href="#g" x="147.80702" y="131.48377"/><use xlink:href="#a" x="204.36829" y="131.48377"/><use xlink:href="#a" x="119.52689" y="74.9225"/><use xlink:href="#a" x="176.08816" y="74.9225"/><use xlink:href="#a" x="147.80702" y="18.36124"/></svg>