<svg xmlns="http://www.w3.org/2000/svg" xmlns:xlink="http://www.w3.org/1999/xlink" viewBox="0 0 567.34 113.79"><defs><symbol id="a" overflow="visible"><path d="M3.0781-2.2812l2.2812-2.1406h-.82812l-1.6719 1.6406-1.0312-1.6406H.99996l1.4219 2.1406L-.00004 0h.8125l1.8438-1.875L3.76566 0h.8125z"/></symbol><symbol id="b" overflow="visible"><path d="M6.5625-2.2969c.17188 0 .35938 0 .35938-.20312 0-.1875-.1875-.1875-.35938-.1875H1.1719c-.17188 0-.34375 0-.34375.1875 0 .20312.17188.20312.34375.20312z"/></symbol><symbol id="f" overflow="visible"><path d="M.95312-2.2969c.046875 0 .26562 0 .26562-.20312 0-.1875-.21875-.1875-.26562-.1875v-1.3125c0-.15625 0-.34375-.20312-.34375s-.20312.1875-.20312.34375v3.0156c0 .15625 0 .34375.20312.34375s.20312-.1875.20312-.34375z"/></symbol><symbol id="g" overflow="visible"><path d="M8.3125-2.2969c-.54688.42188-.8125.82812-.89062.96875-.45312.6875-.53125 1.3125-.53125 1.3125 0 .125.125.125.20312.125.15625 0 .17188-.015625.21875-.20312.21875-.96875.8125-1.8125 1.9375-2.2656.125-.046875.15625-.0625.15625-.14062 0-.0625-.0625-.09375-.078125-.10938-.45312-.15625-1.6562-.65625-2.0312-2.3281-.03125-.125-.046875-.15625-.20312-.15625-.078125 0-.20312 0-.20312.125 0 .015625.09375.64062.5 1.3125.20312.29688.5.64062.92188.96875h-7.4062c-.17188 0-.35938 0-.35938.1875 0 .20312.1875.20312.35938.20312z"/></symbol><symbol id="c" overflow="visible"><path d="M2.6406-3.7188h1.125c-.32812 1.4688-.42188 1.9062-.42188 2.5781 0 .14062 0 .40625.078125.75.10938.4375.21875.5.35938.5.20312 0 .42188-.17188.42188-.375 0-.0625 0-.078125-.0625-.21875-.29688-.71875-.29688-1.375-.29688-1.6562 0-.51562.078125-1.0625.1875-1.5781h1.125c.14062 0 .5 0 .5-.34375 0-.23438-.21875-.23438-.40625-.23438h-3.3438c-.21875 0-.59375 0-1.0312.46875-.34375.39062-.60938.84375-.60938.89062 0 .015625 0 .10938.125.10938.078125 0 .09375-.046875.15625-.125.48438-.76562 1.0625-.76562 1.2656-.76562h.5625c-.3125 1.2031-.84375 2.4062-1.2656 3.3125-.078125.15625-.078125.17188-.078125.25 0 .1875.15625.26562.28125.26562.29688 0 .375-.28125.5-.64062.14062-.46875.14062-.48438.26562-.98438z"/></symbol><symbol id="n" overflow="visible"><path d="M4.5625-3.25c0-.78125-.046875-1.7188-.46875-2.5156-.40625-.75-1.0938-1-1.5938-1-.59375 0-1.2969.28125-1.7031 1.1562-.32812.73438-.375 1.5625-.375 2.3594 0 .78125.03125 1.5156.32812 2.25.40625.95312 1.1562 1.2188 1.7344 1.2188.71875 0 1.3594-.40625 1.6719-1.0938.29688-.65625.40625-1.3125.40625-2.375zM2.5-.3906c-.53125 0-.9375-.375-1.1406-1.0938-.15625-.5625-.15625-1.1094-.15625-1.8906 0-.625 0-1.2188.15625-1.7656.0625-.1875.3125-1.0156 1.125-1.0156.78125 0 1.0312.76562 1.1094.9375.1875.5625.1875 1.2344.1875 1.8438 0 .65625 0 1.2969-.1875 1.9219-.25.90625-.78125 1.0625-1.0938 1.0625z"/></symbol><symbol id="h" overflow="visible"><path d="M3.4219-4.2812c-.51562-.23438-.92188-.3125-1.4375-.3125-.25 0-1.6562 0-1.6562 1.2969 0 .5.29688.8125.54688 1 .29688.21875.51562.26562 1.0625.375.35938.0625.9375.1875.9375.71875 0 .6875-.78125.6875-.9375.6875-.79688 0-1.3594-.375-1.5312-.48438l-.125.67188c.3125.15625.85938.4375 1.6719.4375.1875 0 .73438 0 1.1562-.3125.3125-.25.48438-.64062.48438-1.0781 0-.54688-.375-.875-.39062-.90625-.39062-.35938-.65625-.42188-1.1562-.5-.54688-.10938-1.0156-.21875-1.0156-.70312 0-.60938.71875-.60938.85938-.60938.3125 0 .84375.03125 1.4062.375z"/></symbol><symbol id="l" overflow="visible"><path d="M2.7031-7.4844c-.32812.3125-.98438.92188-1.4531 2.1406C.85938-4.2813.78125-3.2188.78125-2.5c0 3.2344 1.4375 4.5469 1.9219 5h.60938c-.48438-.48438-1.75-1.7656-1.75-5 0-.54688.03125-1.7188.4375-2.8906.40625-1.1562.98438-1.75 1.3125-2.0938z"/></symbol><symbol id="m" overflow="visible"><path d="M1.1719 2.5c.3125-.3125.98438-.92188 1.4375-2.1406.40625-1.0625.46875-2.125.46875-2.8594 0-3.2188-1.4375-4.5312-1.9062-4.9844H.56257c.46875.48438 1.7344 1.7656 1.7344 4.9844 0 .5625-.03125 1.7344-.4375 2.9062C1.45322 1.5624.89072 2.1562.56257 2.5z"/></symbol><symbol id="o" overflow="visible"><path d="M4.0781-2.2969h2.7812c.14062 0 .32812 0 .32812-.20312 0-.1875-.1875-.1875-.32812-.1875H4.0781v-2.7969c0-.14062 0-.32812-.20312-.32812s-.20312.1875-.20312.32812v2.7969H.89066c-.14062 0-.32812 0-.32812.1875 0 .20312.1875.20312.32812.20312h2.7812V.5c0 .14062 0 .32812.20312.32812S4.0781.64062 4.0781.5z"/></symbol><symbol id="p" overflow="visible"><path d="M2.9844-6.7656h-.20312c-.59375.60938-1.4219.64062-1.8906.67188v.57812c.32812-.015625.79688-.03125 1.2969-.25v5.1875H.95318v.57812h3.2812V-.5781h-1.25z"/></symbol><symbol id="i" overflow="visible"><path d="M1.625-6.7812H.73438v.89062H1.625zm-.0625 2.3594h-.75V.0001h.75z"/></symbol><symbol id="j" overflow="visible"><path d="M4.3438-2.9688c0-.65625-.15625-1.5625-1.375-1.5625-.89062 0-1.3906.67188-1.4375.75v-.70312H.81255v4.4844h.76562v-2.4375c0-.65625.25-1.4844 1.0156-1.4844.95312 0 .96875.70312.96875 1.0156v2.9062h.78125z"/></symbol><symbol id="k" overflow="visible"><path d="M2.0156-3.2969c.0625-.10938.0625-.17188.0625-.21875 0-.21875-.1875-.375-.40625-.375-.26562 0-.34375.21875-.375.32812L.37497-.54693c-.015625.015625-.046875.09375-.046875.10938 0 .078125.21875.15625.28125.15625.046875 0 .046875-.015625.09375-.125z"/></symbol><symbol id="d" overflow="visible"><path d="M2.1719-2.5312h.82812c-.10938.42188-.26562 1.0469-.26562 1.6094 0 .28125.046875.46875.078125.60938.10938.35938.20312.375.3125.375.17188 0 .32812-.14062.32812-.3125 0-.046875-.015625-.078125-.046875-.14062-.14062-.26562-.26562-.65625-.26562-1.2344 0-.125 0-.40625.09375-.90625h.875c.125 0 .1875 0 .26562-.046875.09375-.078125.10938-.1875.10938-.21875 0-.20312-.17188-.20312-.29688-.20312h-2.625c-.28125 0-.48438.0625-.79688.35938-.1875.15625-.45312.53125-.45312.59375 0 .078125.09375.078125.125.078125.078125 0 .078125-.015625.125-.078125.34375-.48438.78125-.48438.9375-.48438h.42188c-.21875.76562-.59375 1.5938-.79688 2.0156-.046875.078125-.10938.23438-.14062.25 0 .03125-.015625.0625-.015625.10938 0 .10938.078125.21875.25.21875.26562 0 .34375-.3125.51562-.9375z"/></symbol><symbol id="e" overflow="visible"><path d="M1.9688-.53125H.92192l1.0781-.95312c.125-.10938.46875-.375.60938-.48438.29688-.28125.71875-.64062.71875-1.25 0-.78125-.59375-1.5-1.5938-1.5-.73438 0-1.1875.39062-1.4219 1.1094l.32812.40625c.15625-.57812.39062-1.0312 1-1.0312.59375 0 1.0312.40625 1.0312 1.0312 0 .57812-.34375.90625-.75 1.3125-.14062.14062-.51562.45312-.67188.59375-.20312.17188-.67188.64062-.875.8125v.48438h2.9531v-.53125z"/></symbol></defs><path fill="#fff" d="M.1991.2v113.39h566.94V.2z"/><use width="100%" height="100%" x="42.841" y="147.307" transform="translate(-9.9609 -130.72)" xlink:href="#a"/><use width="100%" height="100%" x="109.568" y="147.584" transform="translate(-9.9609 -130.72)" xlink:href="#b"/><use width="100%" height="100%" x="117.317" y="147.584" transform="translate(-9.9609 -130.72)" xlink:href="#c"/><use width="100%" height="100%" x="250.669" y="146.838" transform="translate(-9.9609 -130.72)" xlink:href="#b"/><use width="100%" height="100%" x="259.613" y="142.915" transform="translate(-9.9609 -130.72)" xlink:href="#d"/><path fill="none" stroke="#000" stroke-miterlimit="10" stroke-width=".398" d="M249.64938125 13.63065625h4.9102"/><use width="100%" height="100%" x="260.215" y="150.274" transform="translate(-9.9609 -130.72)" xlink:href="#e"/><use width="100%" height="100%" x="397.471" y="142.915" transform="translate(-9.9609 -130.72)" xlink:href="#d"/><path fill="none" stroke="#000" stroke-miterlimit="10" stroke-width=".398" d="M387.5107562 13.63065625h4.9062"/><use width="100%" height="100%" x="398.073" y="150.274" transform="translate(-9.9609 -130.72)" xlink:href="#e"/><use width="100%" height="100%" x="538.639" y="147.238" transform="translate(-9.9609 -130.72)" xlink:href="#c"/><use width="100%" height="100%" x="21.394" y="176.284" transform="translate(-9.9609 -130.72)" xlink:href="#a"/><g transform="translate(-9.9609 -130.72)"><use width="100%" height="100%" x="29.669" y="176.284" xlink:href="#f"/><use width="100%" height="100%" x="29.669" y="176.284" xlink:href="#g"/></g><g transform="translate(-9.9609 -130.72)"><use width="100%" height="100%" x="42.399" y="176.284" xlink:href="#h"/><use width="100%" height="100%" x="46.218" y="176.284" xlink:href="#i"/><use width="100%" height="100%" x="48.598" y="176.284" xlink:href="#j"/></g><use width="100%" height="100%" x="53.745" y="171.979" transform="translate(-9.9609 -130.72)" xlink:href="#k"/><use width="100%" height="100%" x="56.54" y="176.284" transform="translate(-9.9609 -130.72)" xlink:href="#l"/><use width="100%" height="100%" x="60.414" y="176.284" transform="translate(-9.9609 -130.72)" xlink:href="#a"/><use width="100%" height="100%" x="65.922" y="176.284" transform="translate(-9.9609 -130.72)" xlink:href="#m"/><use width="100%" height="100%" x="183.453" y="175.93" transform="translate(-9.9609 -130.72)" xlink:href="#b"/><use width="100%" height="100%" x="255.703" y="176.705" transform="translate(-9.9609 -130.72)" xlink:href="#n"/><use width="100%" height="100%" x="325.185" y="175.93" transform="translate(-9.9609 -130.72)" xlink:href="#o"/><use width="100%" height="100%" x="397.435" y="176.705" transform="translate(-9.9609 -130.72)" xlink:href="#n"/><use width="100%" height="100%" x="466.917" y="175.93" transform="translate(-9.9609 -130.72)" xlink:href="#b"/><use width="100%" height="100%" x="22.791" y="218.45" transform="translate(-9.9609 -130.72)" xlink:href="#a"/><g transform="translate(-9.9609 -130.72)"><use width="100%" height="100%" x="31.066" y="218.45" xlink:href="#f"/><use width="100%" height="100%" x="31.066" y="218.45" xlink:href="#g"/></g><g transform="translate(-9.9609 -130.72)"><use width="100%" height="100%" x="43.796" y="218.45" xlink:href="#h"/><use width="100%" height="100%" x="47.615" y="218.45" xlink:href="#i"/><use width="100%" height="100%" x="49.995" y="218.45" xlink:href="#j"/><use width="100%" height="100%" x="55.142" y="218.45" xlink:href="#l"/></g><use width="100%" height="100%" x="59.017" y="218.45" transform="translate(-9.9609 -130.72)" xlink:href="#a"/><use width="100%" height="100%" x="64.524" y="218.45" transform="translate(-9.9609 -130.72)" xlink:href="#m"/><use width="100%" height="100%" x="113.97" y="205.051" transform="translate(-9.9609 -130.72)" xlink:href="#n"/><use width="100%" height="100%" x="251.828" y="232.983" transform="translate(-9.9609 -130.72)" xlink:href="#b"/><use width="100%" height="100%" x="259.577" y="232.983" transform="translate(-9.9609 -130.72)" xlink:href="#p"/><use width="100%" height="100%" x="397.435" y="205.051" transform="translate(-9.9609 -130.72)" xlink:href="#p"/><use width="100%" height="100%" x="539.167" y="233.398" transform="translate(-9.9609 -130.72)" xlink:href="#n"/><path fill="none" stroke="#000" stroke-miterlimit="10" stroke-width=".399" d="M112.5108 72.265l122.31 24.465"/><path d="M238.3491 97.44c-1.0039-.40625-2.582-1.332-3.6211-2.25l-.58594 2.9336c1.3125-.44922 3.125-.69922 4.207-.68359"/><path fill="none" stroke="#000" stroke-miterlimit="10" stroke-width=".399" d="M258.1191 97.433l122.32-24.465"/><path d="M383.9591 72.27c-1.082.0117-2.8984-.23437-4.207-.6875l.58593 2.9375c1.0391-.92187 2.6172-1.8477 3.6211-2.25"/><path fill="none" stroke="#000" stroke-miterlimit="10" stroke-width=".399" d="M395.9791 72.265l126.2 25.242"/><path d="M525.6891 98.21c-1.0039-.40625-2.5781-1.3281-3.6133-2.2461l-.58594 2.9297c1.3086-.44922 3.1172-.69532 4.1992-.6836"/><path fill="none" stroke="#000" stroke-miterlimit="10" stroke-width=".399" d="M71.0651.195v113.39M.1991.195v113.39h566.94V.195zM.1991 28.543h566.94M.1991 56.89h566.94"/></svg>