<?xml version="1.0" encoding="UTF-8"?>
<svg id="svg10" width="859.86" height="203.06" version="1.1" viewBox="0 0 859.86 203.06" xml:space="preserve" xmlns="http://www.w3.org/2000/svg" xmlns:cc="http://creativecommons.org/ns#" xmlns:dc="http://purl.org/dc/elements/1.1/" xmlns:rdf="http://www.w3.org/1999/02/22-rdf-syntax-ns#"><metadata id="metadata16"><rdf:RDF><cc:Work rdf:about=""><dc:format>image/svg+xml</dc:format><dc:type rdf:resource="http://purl.org/dc/dcmitype/StillImage"/><dc:title/></cc:Work></rdf:RDF></metadata><g id="_x32_50-paypal" transform="matrix(.44143 0 0 .44143 -27.057 -11.478)"><g id="g6"><path id="path2" d="m250.58 271.87c68.566-0.811 120.3-28.097 142.11-91.593 21.911-61.671 16.332-118.68-44.63-142.31-39.457-15.316-52.441-11.563-206.92-11.563-10.042 0-18.765 7.405-20.288 17.142l-59.438 377.23c-1.014 7.404 4.564 14.099 12.272 14.099h75.669c2.029 0 2.738-0.708 3.043-2.534 4.158-25.664 18.259-116.45 21.808-135.92 5.885-31.647 32.359-23.835 76.381-24.547z" fill="#efefef"/><path id="path4" d="m423.43 150.46c-1.826-1.319-2.536-1.827-3.043 1.317-2.029 11.565-5.173 22.823-8.927 34.083-40.472 115.43-152.66 105.39-207.43 105.39-6.188 0-10.245 3.348-11.057 9.534-22.923 142.41-27.488 172.13-27.488 172.13-1.015 7.202 3.55 13.085 10.752 13.085h64.41c8.723 0 15.925-6.391 17.65-15.112 0.709-5.479-1.115 6.187 14.606-92.609 4.665-22.314 14.504-19.98 29.719-19.98 72.019 0 128.21-29.214 144.95-113.91 6.595-35.3 4.668-72.425-24.139-93.928z" fill="#ffffff"/></g></g><g id="text887" transform="translate(-13.651 270.09)" aria-label="PayPal"><path id="path902" d="m282.88-116.81h-35.062v-137.25h39.094q22.969 0 32.25 2.25t15.75 7.6875q7.5938 6.2812 11.531 15.75 4.0312 9.375 4.0312 20.906 0 12.281-3.9375 21.656-3.9375 9.2812-11.625 15.281-5.8125 4.5-13.688 6.4688t-25.219 1.9688h-13.125zm0-75.469h7.125q13.5 0 18.844-3.6562 5.3438-3.75 5.3438-12.656 0-8.625-5.25-12.281t-18.562-3.6562h-7.5z" fill="#efefef" opacity=".97"/><path id="path904" d="m436.35-164.25q0-11.062-5.9062-17.531t-16.125-6.4688-16.125 6.4688q-5.8125 6.375-5.8125 17.531 0 11.062 5.9062 17.438t16.031 6.375q10.219 0 16.125-6.375t5.9062-17.438zm29.344-47.25v94.688h-30.656v-15.375q-6.5625 9.8438-14.812 14.438-8.1562 4.5938-19.219 4.5938-18.938 0-30.281-13.781-11.344-13.875-11.344-37.125 0-23.156 11.812-36.75 11.906-13.688 31.969-13.688 10.688 0 18.375 4.5938 7.7812 4.5 13.312 13.969v-15.562z" fill="#efefef" opacity=".97"/><path id="path906" d="m485.95-75 26.625-56.25-38.156-80.25h37.031l13.219 34.219q1.6875 4.3125 2.8125 8.0625 1.125 3.6562 1.6875 6.8438 0.5625-3.375 1.5938-6.9375 1.125-3.6562 2.8125-7.9688l13.406-34.219h35.719l-59.531 136.5z" fill="#efefef" opacity=".97"/><path id="path908" d="m630.88-116.81h-35.062v-137.25h39.094q22.969 0 32.25 2.25t15.75 7.6875q7.5938 6.2812 11.531 15.75 4.0312 9.375 4.0312 20.906 0 12.281-3.9375 21.656-3.9375 9.2812-11.625 15.281-5.8125 4.5-13.688 6.4688t-25.219 1.9688h-13.125zm0-75.469h7.125q13.5 0 18.844-3.6562 5.3438-3.75 5.3438-12.656 0-8.625-5.25-12.281t-18.562-3.6562h-7.5z" fill="#ffffff"/><path id="path910" d="m784.35-164.25q0-11.062-5.9062-17.531t-16.125-6.4688-16.125 6.4688q-5.8125 6.375-5.8125 17.531 0 11.062 5.9062 17.438t16.031 6.375q10.219 0 16.125-6.375t5.9062-17.438zm29.344-47.25v94.688h-30.656v-15.375q-6.5625 9.8438-14.812 14.438-8.1562 4.5938-19.219 4.5938-18.938 0-30.281-13.781-11.344-13.875-11.344-37.125 0-23.156 11.812-36.75 11.906-13.688 31.969-13.688 10.688 0 18.375 4.5938 7.7812 4.5 13.312 13.969v-15.562z" fill="#ffffff"/><path id="path912" d="m840.04-116.81v-145.31h33.469v145.31z" fill="#ffffff"/></g></svg>
