<svg xmlns="http://www.w3.org/2000/svg" xmlns:svg="http://www.w3.org/2000/svg" id="svg24" width="19.976" height="19.976" version="1.1"><metadata id="metadata30"/><g id="g22" transform="translate(-1.8740558,-2.0705126)"><g id="g20" transform="matrix(1.0607,1.0607,-1.0607,1.0607,1146.8,-993.474)"><path style="fill:#ecf0f1" id="path2" d="m -63,1003.4 v 11.3 0.7 1 l 2,2 2,-2 v -1 -0.7 -11.3 z"/><path style="fill:#bdc3c7" id="path4" d="m -61,1003.4 v 15 l 2,-2 v -1 -0.7 -11.3 z"/><rect style="fill:#e67e22" id="rect6" width="4" height="11" x="-63" y="1004.4"/><path style="fill:#7f8c8d" id="path8" d="m -61,1000.4 c -1.105,0 -2,0.9 -2,2 v 1 h 4 v -1 c 0,-1.1 -0.895,-2 -2,-2 z"/><g id="g14"><path style="fill:#34495e" id="path10" d="m -55.406,1016 1.406,1.4 1.406,-1.4 H -54 Z" transform="translate(-7,1)"/><path style="fill:#2c3e50" id="path12" d="m -54,1016 v 1.4 l 1.406,-1.4 z" transform="translate(-7,1)"/></g><path style="fill:#95a5a6" id="path16" d="m -61,1000.4 c -1.105,0 -2,0.9 -2,2 v 1 h 2 z"/><rect style="fill:#d35400" id="rect18" width="2" height="11" x="-61" y="1004.4"/></g></g></svg>