<svg xmlns="http://www.w3.org/2000/svg" xmlns:xlink="http://www.w3.org/1999/xlink" viewBox="0 0 227.17 113.79"><defs/><defs><symbol id="a" overflow="visible"><path d="M3.0781-2.2812l2.2812-2.1406h-.82812l-1.6719 1.6406-1.0312-1.6406H.99996l1.4219 2.1406L-.00004 0h.8125l1.8438-1.875L3.76566 0h.8125z"/></symbol><symbol id="h" overflow="visible"><path d="M4.5938-2.1875c.046875-.17188.09375-.54688.09375-.875 0-.17188 0-.70312-.3125-1.0938-.1875-.23438-.54688-.4375-1.0625-.4375-1.2812 0-2.5469 1.4375-2.5469 2.8906 0 1.0312.65625 1.8125 1.7188 1.8125.67188 0 1.2969-.26562 1.6875-.51562.03125-.125.0625-.5.078125-.65625-.35938.26562-.98438.5625-1.6406.5625-.67188 0-1.1406-.5-1.1406-1.3125 0-.125 0-.23438.03125-.375zm-2.9219-.54688c.35938-.79688.98438-1.25 1.5312-1.25.9375 0 .9375.9375.9375 1.25z"/></symbol><symbol id="b" overflow="visible"><path d="M6.5625-2.2969c.17188 0 .35938 0 .35938-.20312 0-.1875-.1875-.1875-.35938-.1875H1.1719c-.17188 0-.34375 0-.34375.1875 0 .20312.17188.20312.34375.20312z"/></symbol><symbol id="c" overflow="visible"><path d="M5.0625-2.7031c-.53125-.67188-.65625-.82812-.96875-1.0781-.5625-.45312-1.1094-.625-1.625-.625-1.1562 0-1.9219 1.0938-1.9219 2.2656 0 1.1406.73438 2.25 1.8906 2.25 1.1406 0 1.9688-.90625 2.4531-1.7031.54688.67188.65625.82812.96875 1.0781.5625.45312 1.125.625 1.625.625 1.1719 0 1.9219-1.0938 1.9219-2.2656 0-1.1406-.73438-2.25-1.875-2.25-1.1562 0-1.9844.90625-2.4688 1.7031zm.26562.34375c.40625-.71875 1.1406-1.7344 2.2656-1.7344 1.0625 0 1.5938 1.0469 1.5938 1.9375 0 .98438-.67188 1.7812-1.5469 1.7812-.57812 0-1.0156-.40625-1.2344-.625-.25-.26562-.46875-.57812-1.0781-1.3594zm-.6875.42188c-.40625.71875-1.1562 1.7344-2.2812 1.7344-1.0469 0-1.5938-1.0469-1.5938-1.9375 0-.98438.67188-1.7812 1.5469-1.7812.57812 0 1.0312.40625 1.2344.625.25.26562.48438.57812 1.0938 1.3594z"/></symbol><symbol id="f" overflow="visible"><path d="M.95312-2.2969c.046875 0 .26562 0 .26562-.20312 0-.1875-.21875-.1875-.26562-.1875v-1.3125c0-.15625 0-.34375-.20312-.34375s-.20312.1875-.20312.34375v3.0156c0 .15625 0 .34375.20312.34375s.20312-.1875.20312-.34375z"/></symbol><symbol id="g" overflow="visible"><path d="M8.3125-2.2969c-.54688.42188-.8125.82812-.89062.96875-.45312.6875-.53125 1.3125-.53125 1.3125 0 .125.125.125.20312.125.15625 0 .17188-.015625.21875-.20312.21875-.96875.8125-1.8125 1.9375-2.2656.125-.046875.15625-.0625.15625-.14062 0-.0625-.0625-.09375-.078125-.10938-.45312-.15625-1.6562-.65625-2.0312-2.3281-.03125-.125-.046875-.15625-.20312-.15625-.078125 0-.20312 0-.20312.125 0 .015625.09375.64062.5 1.3125.20312.29688.5.64062.92188.96875h-7.4062c-.17188 0-.35938 0-.35938.1875 0 .20312.1875.20312.35938.20312z"/></symbol><symbol id="d" overflow="visible"><path d="M4.0781-2.2969h2.7812c.14062 0 .32812 0 .32812-.20312 0-.1875-.1875-.1875-.32812-.1875H4.0781v-2.7969c0-.14062 0-.32812-.20312-.32812s-.20312.1875-.20312.32812v2.7969H.89066c-.14062 0-.32812 0-.32812.1875 0 .20312.1875.20312.32812.20312h2.7812V.5c0 .14062 0 .32812.20312.32812S4.0781.64062 4.0781.5z"/></symbol><symbol id="e" overflow="visible"><path d="M2.7031-7.4844c-.32812.3125-.98438.92188-1.4531 2.1406C.85938-4.2813.78125-3.2188.78125-2.5c0 3.2344 1.4375 4.5469 1.9219 5h.60938c-.48438-.48438-1.75-1.7656-1.75-5 0-.54688.03125-1.7188.4375-2.8906.40625-1.1562.98438-1.75 1.3125-2.0938z"/></symbol><symbol id="j" overflow="visible"><path d="M1.1719 2.5c.3125-.3125.98438-.92188 1.4375-2.1406.40625-1.0625.46875-2.125.46875-2.8594 0-3.2188-1.4375-4.5312-1.9062-4.9844H.56257c.46875.48438 1.7344 1.7656 1.7344 4.9844 0 .5625-.03125 1.7344-.4375 2.9062C1.45322 1.5624.89072 2.1562.56257 2.5z"/></symbol><symbol id="l" overflow="visible"><path d="M4.5625-3.25c0-.78125-.046875-1.7188-.46875-2.5156-.40625-.75-1.0938-1-1.5938-1-.59375 0-1.2969.28125-1.7031 1.1562-.32812.73438-.375 1.5625-.375 2.3594 0 .78125.03125 1.5156.32812 2.25.40625.95312 1.1562 1.2188 1.7344 1.2188.71875 0 1.3594-.40625 1.6719-1.0938.29688-.65625.40625-1.3125.40625-2.375zM2.5-.3906c-.53125 0-.9375-.375-1.1406-1.0938-.15625-.5625-.15625-1.1094-.15625-1.8906 0-.625 0-1.2188.15625-1.7656.0625-.1875.3125-1.0156 1.125-1.0156.78125 0 1.0312.76562 1.1094.9375.1875.5625.1875 1.2344.1875 1.8438 0 .65625 0 1.2969-.1875 1.9219-.25.90625-.78125 1.0625-1.0938 1.0625z"/></symbol><symbol id="i" overflow="visible"><path d="M2.2656-1.5938l1.6719-1.5h-.60938l-1.2344 1.1406-.76562-1.1406h-.625l1.0625 1.5L0 0h.625l1.3281-1.3125L2.78122 0h.625z"/></symbol><symbol id="k" overflow="visible"><path d="M2.0156-3.2969c.0625-.10938.0625-.17188.0625-.21875 0-.21875-.1875-.375-.40625-.375-.26562 0-.34375.21875-.375.32812L.37497-.54693c-.015625.015625-.046875.09375-.046875.10938 0 .078125.21875.15625.28125.15625.046875 0 .046875-.015625.09375-.125z"/></symbol></defs><path fill="#fff" d="M.2.2v113.39h226.77V.2z"/><use width="100%" height="100%" x="174.504" y="141.388" transform="translate(-148.71 -124.8)" xlink:href="#a"/><g transform="translate(-148.71 -124.8)"><use width="100%" height="100%" x="225.095" y="141.665" xlink:href="#b"/><use width="100%" height="100%" x="232.844" y="141.665" xlink:href="#c"/></g><use width="100%" height="100%" x="338.481" y="141.665" transform="translate(-148.71 -124.8)" xlink:href="#d"/><use width="100%" height="100%" x="346.23" y="141.665" transform="translate(-148.71 -124.8)" xlink:href="#c"/><use width="100%" height="100%" x="156.657" y="170.02" transform="translate(-148.71 -124.8)" xlink:href="#e"/><use width="100%" height="100%" x="160.531" y="170.02" transform="translate(-148.71 -124.8)" xlink:href="#a"/><g transform="translate(-148.71 -124.8)"><use width="100%" height="100%" x="168.806" y="170.02" xlink:href="#f"/><use width="100%" height="100%" x="168.806" y="170.02" xlink:href="#g"/></g><use width="100%" height="100%" x="181.536" y="170.02" transform="translate(-148.71 -124.8)" xlink:href="#h"/><use width="100%" height="100%" x="186.639" y="166.405" transform="translate(-148.71 -124.8)" xlink:href="#i"/><use width="100%" height="100%" x="191.19" y="170.02" transform="translate(-148.71 -124.8)" xlink:href="#j"/><use width="100%" height="100%" x="195.064" y="166.405" transform="translate(-148.71 -124.8)" xlink:href="#k"/><use width="100%" height="100%" x="286.769" y="170.011" transform="translate(-148.71 -124.8)" xlink:href="#d"/><use width="100%" height="100%" x="161.929" y="213.398" transform="translate(-148.71 -124.8)" xlink:href="#a"/><g transform="translate(-148.71 -124.8)"><use width="100%" height="100%" x="170.204" y="213.398" xlink:href="#f"/><use width="100%" height="100%" x="170.204" y="213.398" xlink:href="#g"/></g><use width="100%" height="100%" x="182.934" y="213.398" transform="translate(-148.71 -124.8)" xlink:href="#h"/><use width="100%" height="100%" x="188.037" y="209.783" transform="translate(-148.71 -124.8)" xlink:href="#i"/><use width="100%" height="100%" x="231.46" y="227.479" transform="translate(-148.71 -124.8)" xlink:href="#l"/><use width="100%" height="100%" x="338.481" y="198.358" transform="translate(-148.71 -124.8)" xlink:href="#d"/><use width="100%" height="100%" x="346.23" y="198.358" transform="translate(-148.71 -124.8)" xlink:href="#c"/><path fill="none" stroke="#000" stroke-miterlimit="10" stroke-width=".399" d="M91.2499 97.907l91.523-22.883"/><path d="M186.25 74.16c-1.0781.0664-2.8984-.0977-4.2266-.48437l.72657 2.9023c.98828-.96875 2.5195-1.9688 3.5-2.418"/><path fill="none" stroke="#000" stroke-miterlimit="10" stroke-width=".399" d="M56.894.196v113.39M.199.196v113.39h226.77V.196zM.199 28.544h226.77M.199 56.891h226.77"/></svg>