<svg xmlns="http://www.w3.org/2000/svg" xmlns:xlink="http://www.w3.org/1999/xlink" id="Layer_1" width="512" height="512" enable-background="new 0 0 512 512" version="1.1" viewBox="0 0 512 512" xml:space="preserve"><g><path fill="#4CDBC4" fill-rule="evenodd" d="M512,256.204C512,114.571,397.421,0,256.196,0 C114.569,0,0,114.571,0,256.204C0,397.429,114.569,512,256.196,512C397.421,512,512,397.429,512,256.204L512,256.204z" clip-rule="evenodd"/><path fill="#324A5E" fill-rule="evenodd" d="M230.737,374.352l-14.72,43.76H197.72l47.339-139.629h21.484 l47.737,139.629h-19.49l-14.72-43.76H230.737z M276.484,360.036l-13.527-39.785c-3.178-9.152-5.166-17.508-7.16-25.461h-0.794 c-1.987,7.953-3.974,17.105-6.764,25.461l-13.527,40.181h41.772V360.036z" clip-rule="evenodd"/><path fill="#324A5E" fill-rule="evenodd" d="M295.186,113.775h19.49l-47.738,139.639h-21.479 L197.72,113.775h18.298l14.72,43.762h49.333L295.186,113.775 M234.712,171.859l13.527,40.184c2.79,8.355,4.776,17.502,6.764,25.458 h0.794c1.994-7.956,3.982-16.706,7.16-25.458l13.527-39.786h-41.772V171.859z" clip-rule="evenodd"/><rect width="344.115" height="229.141" x="83.938" y="137.651" fill="#FEFEFE" fill-rule="evenodd" clip-rule="evenodd"/><path fill="#929497" d="M166.287,278.076h-10.738v-5.168l0,0c-2.385,3.976-5.968,5.97-10.744,5.97 c-3.18,0-5.962-0.802-7.956-2.787c-1.988-1.99-3.181-4.771-3.181-7.961c0-6.761,4.373-10.734,12.33-11.926l9.947-1.201 c0-3.974-2.384-5.962-6.364-5.962c-4.38,0-8.354,1.192-12.336,3.977v-8.355c1.598-0.794,3.584-1.59,6.367-1.986 c2.788-0.796,5.173-1.192,7.161-1.192c10.348,0,15.514,5.166,15.514,15.514V278.076z M155.945,263.763v-2.394l-6.763,0.795 c-3.584,0.398-5.173,1.994-5.173,4.773c0,1.192,0.396,2.385,1.191,3.182c0.797,0.803,1.995,1.201,3.584,1.201 c1.988,0,3.577-0.798,5.173-2.394C155.15,267.734,155.945,265.749,155.945,263.763L155.945,263.763z M219.197,261.369h-13.123 v13.13h-7.162v-13.13h-13.525v-7.16h13.525v-13.521h7.162v13.521h13.123V261.369z M243.47,274.101h-0.396v3.976h-10.747v-52.908 h10.747v22.674h0.396c2.385-3.974,6.358-6.358,11.533-6.358c4.377,0,7.954,1.589,10.348,4.77c2.779,3.187,3.972,7.558,3.972,13.129 c0,5.969-1.588,10.737-4.375,14.323c-2.783,3.578-6.76,5.173-11.535,5.173C249.035,278.878,245.458,277.283,243.47,274.101 L243.47,274.101z M243.073,258.985v3.577c0,2.393,0.396,4.375,1.985,5.971c1.192,1.192,2.784,1.989,5.175,1.989 c2.385,0,4.371-0.797,5.563-2.788c1.597-1.985,1.994-4.777,1.994-8.353c0-2.781-0.397-5.173-1.595-6.764 c-1.592-1.589-3.181-2.385-5.566-2.385c-1.993,0-3.98,0.796-5.571,2.385C243.866,254.209,243.073,256.204,243.073,258.985 L243.073,258.985z M323.824,253.811h-33.811v-7.161h33.811V253.811z M323.824,268.927h-33.811v-7.162h33.811V268.927z M363.614,276.884c-2.386,1.599-5.971,1.994-10.748,1.994c-5.563,0-9.943-1.595-13.126-4.777 c-3.581-3.179-5.172-7.558-5.172-12.731c0-6.366,1.99-11.136,5.571-14.322c3.577-3.577,8.355-5.563,14.321-5.563 c4.375,0,7.558,0.794,9.153,1.986v9.148c-1.99-1.589-4.778-2.385-7.562-2.385c-3.187,0-5.572,0.796-7.558,2.784 c-1.986,1.589-2.793,4.378-2.793,7.555c0,3.19,0.807,5.576,2.793,7.162c1.591,1.991,3.976,2.788,7.158,2.788 c2.784,0,5.575-0.797,7.961-2.393V276.884z"/><path fill="#929497" d="M171.063,241.88L171.063,241.88h6.765v3.181h-11.144v-2.783l4.778-4.776 c1.192-1.192,1.589-1.988,2.385-2.385c0.396-0.795,0.396-1.598,0.396-2.391c0-1.591-0.795-2.385-2.384-2.385 c-1.59,0-3.181,0.794-4.38,1.985v-3.178c1.598-1.193,3.187-1.59,5.175-1.59c1.589,0,3.179,0.396,3.98,1.192 c1.192,0.794,1.591,1.986,1.591,3.575c0,1.995-1.192,4.38-3.585,6.367L171.063,241.88z"/><path fill="#929497" d="M275.691,241.88L275.691,241.88h6.764v3.181h-11.143v-2.783l4.778-4.776 c1.192-1.192,1.587-1.988,1.985-2.385c0.398-0.795,0.794-1.598,0.794-2.391c0-1.591-0.794-2.385-2.779-2.385 c-1.192,0-2.784,0.794-3.977,1.985v-3.178c1.591-1.193,3.178-1.59,5.169-1.59c1.587,0,2.787,0.396,3.979,1.192 c0.794,0.794,1.587,1.986,1.587,3.575c0,1.995-1.192,4.38-3.581,6.367L275.691,241.88z"/><path fill="#929497" d="M372.363,241.88L372.363,241.88h6.76v3.181h-11.142v-2.783l4.776-4.776 c1.193-1.192,1.593-1.988,1.99-2.385c0.396-0.795,0.795-1.598,0.795-2.391c0-1.591-0.795-2.385-2.785-2.385 c-1.192,0-2.778,0.794-3.979,1.985v-3.178c1.201-1.193,3.187-1.59,4.777-1.59c1.987,0,3.183,0.396,4.375,1.192 c0.798,0.794,1.592,1.986,1.592,3.575c0,1.995-1.192,4.38-3.979,6.367L372.363,241.88z"/></g></svg>